<svg width="96" height="73" viewBox="0 0 96 73" fill="none" xmlns="http://www.w3.org/2000/svg">
<path d="M47.8391 3.90826C54.8594 4.63633 59.595 8.48545 63.2005 13.7571C64.2973 15.4507 65.2324 17.2302 65.9951 19.0754C66.3178 19.9779 66.9287 20.7675 67.7475 21.3398C68.5662 21.9122 69.5542 22.2405 70.5812 22.2814C72.2742 22.3124 73.9032 22.874 75.2024 23.8746C76.5015 24.8752 77.394 26.2556 77.734 27.7904C79.1477 32.5873 80.3687 37.4565 79.1861 42.4873C78.3525 46.039 75.7911 48.0861 72.0511 48.8504C70.6592 49.1514 69.1987 48.9691 67.9469 48.3381C66.695 47.7071 65.7391 46.6713 65.2606 45.4275C64.8258 44.3972 64.5189 43.3239 64.3458 42.2284C63.84 38.5373 62.628 34.962 60.7666 31.67C59.3789 29.251 58.7448 26.7333 61.1226 24.4237C61.7806 23.7719 61.2405 23.1005 61.0319 22.4243C60.0582 19.4221 58.1087 16.9242 56.2019 14.4102C53.6574 11.0453 49.9947 10.1289 45.84 10.5566C40.7525 11.1409 35.9617 13.1148 32.0791 16.2266C28.1965 19.3383 25.3982 23.4466 24.0414 28.0272C23.1653 31.0106 23.5435 33.6152 26.6117 35.5138C30.2884 37.7821 30.9844 41.5786 31.8302 45.2039C32.3296 47.7572 32.6351 50.3405 32.7445 52.9349C33.1751 58.6667 28.8556 62.7999 23.5888 61.6621C21.9444 61.3153 20.4457 60.5347 19.2736 59.4145C18.1014 58.2944 17.306 56.8826 16.9834 55.3496C15.7067 50.5242 14.7485 45.6069 13.816 40.749C13.6495 39.7206 13.7888 38.6683 14.2191 37.7052C14.6493 36.7421 15.3542 35.9045 16.258 35.2824C16.8271 34.8682 17.2792 34.3322 17.5752 33.7209C17.8711 33.1096 18.0021 32.4414 17.9566 31.774C17.9389 30.1152 17.9007 28.455 17.955 26.8014C18.2415 18.3621 25.3607 9.50671 34.3473 6.39129C40.5054 4.25934 43.7223 3.6776 47.8391 3.90826ZM29.7786 53.6018C30.0125 49.401 29.2267 45.2092 27.4791 41.3347C26.9304 40.3941 26.0509 39.6562 24.9857 39.243C23.9206 38.8298 22.7335 38.7659 21.6204 39.0619C20.6272 39.1757 19.7143 39.6298 19.0619 40.3345C18.4094 41.0393 18.0646 41.9436 18.0954 42.8693C18.0031 45.4043 18.3322 47.9357 19.0712 50.3747C20.0603 53.3206 21.0905 56.2694 23.6563 58.4669C25.7448 60.218 27.5035 59.8661 28.6884 57.4799C29.3218 56.2645 29.6922 54.947 29.7786 53.6018ZM76.1612 42.1918C76.3767 40.8027 76.3203 39.3901 75.9949 38.0217C75.4901 34.5168 75.1701 30.9104 72.8314 27.9053C71.5222 26.2297 66.7561 24.697 65.509 25.4595C64.047 26.3119 63.5606 29.3331 64.4792 31.9097C65.2586 34.0739 66.0474 36.2484 66.8055 38.4206C67.4554 40.2975 67.4939 42.3028 68.6926 44.0566C69.6092 45.378 70.5808 47.0099 72.6066 46.5624C74.7326 46.0359 76.3903 44.7282 76.1612 42.1918ZM44.9292 8.00927L44.964 7.61896C44.5726 7.54326 44.1773 7.48589 43.7795 7.44707C36.386 6.96029 25.0079 13.5819 21.8254 20.3938C21.2647 21.5796 19.5372 23.4379 21.476 24.3159C23.2665 25.116 23.7492 22.8323 24.3982 21.7008C27.0959 16.6763 31.721 12.7593 37.3646 10.7197L44.9292 8.00927ZM20.2269 29.8592C20.115 31.1157 20.0378 31.982 19.9606 32.8483C19.9139 33.3719 20.0608 33.8137 20.7706 33.7405C21.2938 33.6729 21.7287 33.4361 21.6674 32.8472C21.6722 31.9816 21.618 31.1169 21.505 30.2582C21.2737 29.1396 22.8135 27.1815 21.0124 27.08C19.5017 26.9707 20.6203 29.1594 20.2475 29.8606L20.2269 29.8592Z" fill="#FFCB7D"/>
<path d="M82.5131 26.3922C81.7834 26.3395 81.4407 26.1231 81.3453 25.685C81.2856 25.452 81.3071 25.2071 81.4067 24.9855C81.5064 24.7638 81.679 24.5767 81.9 24.4509C83.6356 23.4345 85.5488 22.7071 87.5528 22.3015C87.8093 22.2565 88.0743 22.2932 88.3047 22.4055C88.5351 22.5178 88.7173 22.6993 88.8216 22.9202C89.0343 23.3189 88.9996 23.8242 88.623 23.9885C86.5393 24.8534 84.4102 25.648 82.5131 26.3922Z" fill="#FFCB7D"/>
<path d="M6.98547 41.491C6.14274 41.4301 5.28974 41.3684 4.44702 41.3074C3.6043 41.2465 3.02349 41.032 3.1136 40.2529C3.13563 40.0942 3.1916 39.941 3.27821 39.8023C3.36483 39.6636 3.48036 39.5421 3.61806 39.445C3.75576 39.3479 3.91287 39.2772 4.08019 39.2368C4.2475 39.1965 4.42167 39.1874 4.59252 39.2101C6.36612 39.2713 8.13463 39.3896 9.8955 39.5936C10.6046 39.6449 11.2832 40.0389 11.217 40.7814C11.1322 41.7334 10.3393 41.8102 9.50684 41.75L6.97868 41.5672L6.98547 41.491Z" fill="#FFCB7D"/>
<path d="M88.628 37.8622C87.703 37.7953 86.7678 37.7276 85.8429 37.6608C85.2262 37.6162 84.677 37.2794 84.715 36.6211C84.7174 36.4807 84.7514 36.3423 84.8146 36.2144C84.8779 36.0866 84.9691 35.9723 85.0825 35.8787C85.1959 35.7851 85.329 35.7142 85.4733 35.6707C85.6176 35.6271 85.77 35.6118 85.9208 35.6256C87.7886 35.6745 89.6418 35.7702 91.4994 35.9333C91.6719 35.9324 91.8425 35.9649 92.0002 36.0287C92.158 36.0924 92.2995 36.1861 92.4156 36.3037C92.5317 36.4212 92.6199 36.5601 92.6746 36.7113C92.7292 36.8625 92.749 37.0227 92.7328 37.1818C92.6599 38.0005 91.8567 38.0765 91.1681 38.0267C90.3254 37.9658 89.4827 37.9048 88.6297 37.8431L88.628 37.8622Z" fill="#FFCB7D"/>
<path d="M18.2714 61.3255C16.8993 63.1424 15.9984 65.1276 14.3143 66.6154C14.1374 66.7369 13.9167 66.79 13.699 66.7635C13.4812 66.737 13.2836 66.633 13.1478 66.4736C12.9968 66.3303 12.8959 66.1481 12.8582 65.9507C12.8204 65.7532 12.8476 65.5496 12.9362 65.3661C13.6866 63.6918 14.7408 62.1478 16.0529 60.801C16.251 60.5871 16.5267 60.4478 16.8276 60.4095C17.1285 60.3712 17.4337 60.4366 17.685 60.5932C17.9146 60.6865 18.0296 61.0206 18.2714 61.3255Z" fill="#FFCB7D"/>
<path d="M76.9766 15.2802C76.712 16.2767 76.4371 17.2724 76.1827 18.2696C76.0359 18.8722 75.7555 19.3501 75.0086 19.2577C74.835 19.2439 74.6668 19.196 74.5151 19.1172C74.3634 19.0384 74.2316 18.9305 74.1287 18.8007C74.0258 18.6709 73.954 18.5222 73.9181 18.3644C73.8823 18.2066 73.8832 18.0434 73.9207 17.8856C74.1061 16.7931 74.3786 15.7143 74.7358 14.6583C74.9502 13.9935 75.2432 13.1429 76.2299 13.3292C77.4846 13.5253 76.9845 14.4952 76.9766 15.2802Z" fill="#FFCB7D"/>
<path d="M10.3221 49.8953C11.1957 49.9584 12.1514 50.0275 11.9141 50.8343C11.4052 52.5988 9.47108 52.1331 8.12093 52.5433C7.46254 52.7352 6.49716 52.4259 6.71144 51.6461C7.21175 49.8619 9.13471 50.3363 10.3221 49.8953Z" fill="#FFCB7D"/>
</svg>
