<svg width="69" height="57" viewBox="0 0 69 57" fill="none" xmlns="http://www.w3.org/2000/svg">
<path d="M55.5277 24.8178C55.4119 28.1968 53.5769 32.8462 52.0804 37.5486C51.7174 38.7504 51.2801 39.9289 50.771 41.0776C49.8267 43.142 49.515 44.9859 50.7264 47.2533C52.1517 49.9 50.958 53.6496 48.6776 55.6258C48.133 56.1207 47.4893 56.4967 46.7885 56.7293C46.0876 56.9619 45.3452 57.046 44.6094 56.9762C43.8736 56.9063 43.1609 56.684 42.5174 56.3237C41.874 55.9634 41.3142 55.4731 40.8744 54.8847C40.4602 54.343 40.2559 53.6721 40.2984 52.9939C40.3409 52.3157 40.6274 51.675 41.106 51.1881C41.8454 50.3059 42.3531 49.2031 43.0034 48.2414C44.0634 46.6534 43.3419 45.8858 41.8899 45.2947C37.2217 43.5444 32.4644 42.0366 27.6374 40.7776C24.1586 39.7869 20.7729 38.4999 17.5182 36.931C12.0755 34.2843 11.3718 29.5378 16.2533 24.9589C21.9364 19.6654 30.3899 19.2067 35.0665 23.1944C36.0642 24.0767 36.5007 23.6267 37.0797 22.7268C38.8664 20.1238 41.2786 18.0016 44.099 16.5511C50.958 12.7133 55.5456 15.4042 55.5277 24.8178ZM51.5816 24.4208C51.6439 18.6067 50.3701 17.848 46.1745 20.0095C44.0728 21.0807 42.1765 22.5079 40.5716 24.2267C39.075 25.8235 38.0863 27.4733 39.369 29.6789C39.6629 30.2724 39.8383 30.9165 39.8857 31.5758C39.9925 32.458 39.8856 33.4197 38.9058 33.7902C37.9259 34.1608 37.338 33.3756 36.9015 32.5727C36.1378 30.9377 35.2443 29.3653 34.2292 27.8703C30.9957 23.7679 24.2168 23.7944 19.6204 27.8703C18.4 28.9555 16.6363 30.023 17.1084 31.9463C17.5805 33.8696 19.5224 34.3019 21.2416 34.796C29.2052 37.0898 37.5963 37.928 45.1591 41.6422C45.9608 42.0392 46.3883 41.554 46.6645 40.8658C48.9716 35.1489 50.9937 29.379 51.5816 24.4208Z" fill="#8A88FF"/>
<path d="M11.6479 21.4299C9.12701 20.5477 6.16072 19.4802 3.21223 18.3862C3.05182 18.3379 2.90357 18.2565 2.77729 18.1473C2.65101 18.038 2.54957 17.9035 2.47969 17.7526C2.4098 17.6016 2.37306 17.4377 2.37189 17.2717C2.37072 17.1056 2.40514 16.9412 2.47289 16.7893C2.52057 16.6095 2.60752 16.4422 2.72762 16.2993C2.84772 16.1564 2.99802 16.0413 3.16793 15.9622C3.33784 15.8831 3.52321 15.8419 3.71094 15.8415C3.89868 15.8412 4.08422 15.8816 4.25445 15.96C7.15245 16.9422 10.0475 17.9627 12.9396 19.0214C13.1027 19.061 13.2559 19.1331 13.39 19.2333C13.5241 19.3334 13.6362 19.4596 13.7196 19.604C13.8029 19.7484 13.8557 19.9081 13.8747 20.0734C13.8938 20.2386 13.8787 20.406 13.8303 20.5653C13.6076 21.4211 12.9306 21.5887 11.6479 21.4299Z" fill="#8A88FF"/>
<path d="M52.7307 0.00897896C52.9276 -0.00399644 53.1247 0.0323304 53.3037 0.114611C53.4827 0.196892 53.638 0.32248 53.7551 0.4798C53.8722 0.63712 53.9475 0.821111 53.974 1.01482C54.0004 1.20852 53.9772 1.40571 53.9065 1.5882C53.1583 4.39375 52.3298 7.19047 51.5192 9.97837C51.4253 10.3043 51.2087 10.5822 50.914 10.7546C50.6194 10.927 50.2691 10.9809 49.9355 10.9051C49.6019 10.8293 49.3104 10.6296 49.1211 10.3472C48.9319 10.0648 48.8592 9.72117 48.9182 9.38726C49.5398 6.47009 50.3733 3.60121 51.4123 0.803002C51.5103 0.543333 51.6935 0.323834 51.9326 0.179813C52.1718 0.0357916 52.4529 -0.0243795 52.7307 0.00897896Z" fill="#8A88FF"/>
<path d="M60.8724 17.4775C59.6788 17.5304 59.0909 17.2481 58.9038 16.5335C58.846 16.3594 58.8274 16.1749 58.8493 15.9929C58.8713 15.811 58.9333 15.636 59.031 15.4804C59.1287 15.3247 59.2597 15.1922 59.4147 15.0922C59.5697 14.9921 59.745 14.927 59.9282 14.9013C62.3867 14.222 64.8364 13.5426 67.3039 12.881C67.4623 12.8295 67.6295 12.8103 67.7956 12.8244C67.9617 12.8385 68.1232 12.8857 68.2705 12.9632C68.4177 13.0406 68.5476 13.1467 68.6525 13.2751C68.7573 13.4035 68.8349 13.5515 68.8805 13.7103C68.9618 13.8779 69.0027 14.062 68.9999 14.248C68.997 14.4339 68.9506 14.6167 68.8642 14.7818C68.7778 14.9469 68.6538 15.0899 68.5021 15.1995C68.3503 15.309 68.1749 15.3821 67.9898 15.413C65.5045 16.1806 62.9747 16.8775 60.8724 17.4775Z" fill="#8A88FF"/>
<path d="M4.7711 43.9361C3.50619 43.6449 2.86483 42.895 3.69326 41.9598C5.39276 39.8473 7.67262 38.2664 10.2583 37.4074C10.5659 37.268 10.9164 37.2537 11.2346 37.3675C11.5527 37.4814 11.8131 37.7143 11.9597 38.0162C12.0553 38.1532 12.119 38.3095 12.1464 38.4738C12.1739 38.6381 12.1642 38.8064 12.1183 38.9666C12.0723 39.1269 11.9911 39.275 11.8805 39.4005C11.77 39.526 11.6327 39.6257 11.4787 39.6924C9.21609 40.5129 7.49689 42.0833 5.6797 43.5479C5.39207 43.7098 5.08738 43.8399 4.7711 43.9361Z" fill="#8A88FF"/>
<path d="M56.3205 12.7398C55.1447 12.4045 54.6459 11.637 55.3585 10.6401C56.6901 8.81539 58.2327 7.15133 59.9549 5.68183C60.1684 5.46607 60.4572 5.33945 60.762 5.32796C61.0668 5.31648 61.3645 5.421 61.594 5.62007C62.1284 6.0259 62.3957 6.70523 62.0126 7.15518C60.3914 9.01672 58.6633 10.7812 56.953 12.5634C56.8194 12.6957 56.5432 12.6869 56.3205 12.7398Z" fill="#8A88FF"/>
<path d="M2.04531 26.7058L7.64832 27.6674C8.5391 27.8262 9.18046 28.2762 8.9934 29.2731C8.80633 30.27 7.969 30.3847 7.11385 30.2612C5.33229 29.9966 3.55073 29.6789 1.70682 29.4319C0.744774 29.2996 -0.0747434 29.0084 0.00542683 27.888C0.085597 26.7675 1.09218 26.697 2.04531 26.7058Z" fill="#8A88FF"/>
<path d="M51.5816 24.4208C50.9937 29.379 48.9716 35.1489 46.6467 40.8305C46.3705 41.5187 45.9429 42.0039 45.1412 41.6069C37.5429 37.8927 29.1874 37.0545 21.2238 34.7607C19.5046 34.2666 17.5627 33.8343 17.0906 31.911C16.6185 29.9877 18.3822 28.9202 19.6026 27.835C24.199 23.7502 30.9778 23.7238 34.2114 27.835C35.2264 29.33 36.12 30.9024 36.8837 32.5374C37.3202 33.3403 37.7745 34.1696 38.888 33.7549C40.0014 33.3403 39.9747 32.4316 39.8678 31.5405C39.8306 30.8703 39.6612 30.2139 39.369 29.6084C38.0863 27.4027 39.075 25.7529 40.5715 24.1561C42.1765 22.4374 44.0728 21.0101 46.1745 19.9389C50.3701 17.848 51.6439 18.6067 51.5816 24.4208Z" fill="#353434"/>
</svg>
