<svg width="69" height="69" viewBox="0 0 69 69" fill="none" xmlns="http://www.w3.org/2000/svg">
<mask id="path-1-outside-1_5035_156" maskUnits="userSpaceOnUse" x="0" y="0" width="69" height="69" fill="black">
<rect fill="white" width="69" height="69"/>
<path d="M49.0101 36.4196C49.0503 39.6844 48.0317 42.8732 46.1089 45.5026C44.186 48.1319 41.4638 50.0583 38.355 50.9896C37.4521 51.3405 36.5079 51.5725 35.5459 51.6796C34.4504 51.6796 33.7099 51.236 33.5691 50.1887C33.4283 49.1414 34.0342 48.5377 34.9767 48.2789C36.963 47.8217 38.857 47.0257 40.5766 45.9255C42.0386 44.9376 43.2465 43.6143 44.1012 42.0646C44.9558 40.5149 45.4326 38.783 45.4923 37.0115C45.5521 35.2401 45.1931 33.4796 44.4449 31.8751C43.6967 30.2706 42.5806 28.8679 41.1886 27.7824C36.6292 24.086 31.6474 22.8908 26.0536 24.8006C22.0388 26.1683 20.0498 29.5074 20.4843 33.9431C20.8332 37.5409 23.8198 40.5658 27.553 41.2496C29.6522 41.6316 31.7269 41.6932 33.6731 40.8553C35.3195 40.153 36.6353 39.0071 36.7883 37.0295C36.9719 34.6823 36.2252 32.7602 34.1383 31.565C32.4981 30.6286 30.9864 31.0599 29.9093 32.6432C29.591 33.1052 29.3462 33.6165 29.0463 34.0909C28.5078 34.9349 27.8223 35.5263 26.7697 35.0581C25.717 34.5899 25.5028 33.6104 25.919 32.5939C27.0695 29.8216 28.9239 27.6653 32.0391 27.536C33.3777 27.4605 34.7115 27.7532 35.8974 28.3827C37.0834 29.0121 38.0768 29.9547 38.7712 31.1092C42.6452 37.0604 39.4199 43.911 32.394 44.8536C26.8859 45.5929 22.1306 44.1266 18.8135 39.4692C14.4315 33.3085 17.1305 24.6836 24.2237 21.671C32.4675 18.1718 43.0675 21.8928 47.3455 29.8462C48.5171 31.8305 49.0951 34.1129 49.0101 36.4196Z"/>
<path d="M1.01012 47.977C0.912203 47.1207 1.54257 46.6094 2.12398 46.1288C4.88042 43.7582 8.10231 41.9991 11.5795 40.9662C12.3507 40.7164 13.1354 40.5107 13.9297 40.3501C14.9946 40.1838 15.9126 40.5288 16.1941 41.6685C16.4756 42.8082 15.8575 43.5167 14.7498 43.7878C10.8125 44.6691 7.14599 46.4976 4.06406 49.1168C3.80531 49.409 3.45665 49.6055 3.07386 49.6748C2.69108 49.744 2.29628 49.682 1.95262 49.4987C1.66215 49.3693 1.41698 49.1551 1.24893 48.8838C1.08087 48.6124 0.997676 48.2965 1.01012 47.977Z"/>
<path d="M27.8468 13.7854C27.8896 15.0175 27.5163 15.8985 26.378 16.1264C26.1606 16.1746 25.9355 16.1755 25.7177 16.1289C25.5 16.0823 25.2947 15.9894 25.1156 15.8564C24.9365 15.7233 24.7877 15.5533 24.6793 15.3576C24.5708 15.1619 24.5052 14.9451 24.4869 14.7218C24.0401 11.0747 21.8858 8.07445 20.8882 4.64913C20.6675 4.02191 20.5537 3.36162 20.5516 2.6962C20.5534 2.30603 20.6918 1.92899 20.9426 1.63147C21.1934 1.33396 21.5404 1.13506 21.9225 1.06979C22.2725 0.955214 22.653 0.982501 22.9833 1.14585C23.3135 1.30921 23.5675 1.59575 23.6912 1.9446C24.6888 5.8751 27.2164 9.24498 27.7795 13.3233C27.8284 13.5205 27.8407 13.7299 27.8468 13.7854Z"/>
<path d="M66.2199 22.1454C66.5999 22.1204 66.9768 22.2299 67.2852 22.4548C67.5936 22.6798 67.8143 23.0062 67.909 23.3775C68.0416 23.7652 68.0289 24.1883 67.8734 24.5672C67.7179 24.9461 67.4302 25.2548 67.0645 25.4352C65.3998 26.3716 63.4964 26.5749 61.7155 27.1602C59.9345 27.7454 57.9516 27.6284 56.2869 28.916C55.3322 29.6552 54.353 28.7558 53.8756 27.7578C53.749 27.5305 53.6741 27.2777 53.6566 27.0178C53.639 26.7578 53.6791 26.4972 53.774 26.2547C53.869 26.0123 54.0163 25.7942 54.2054 25.6162C54.3944 25.4382 54.6205 25.3049 54.8671 25.2257C55.9481 24.7793 57.075 24.4549 58.227 24.2585C60.7177 23.7797 63.1718 23.125 65.5711 22.2994C65.7839 22.234 66.0006 22.1826 66.2199 22.1454Z"/>
<path d="M28.2018 53.4785C28.2412 53.8393 28.1451 54.2019 27.9325 54.495C25.7476 57.1503 24.4746 60.3415 22.9201 63.3602C22.3877 64.4013 21.6961 65.2638 20.4292 64.7155C19.1624 64.1672 19.2052 63.0768 19.6826 61.974C21.0483 58.964 22.5913 56.0386 24.3033 53.2136C24.7006 52.6142 25.2974 52.1773 25.9863 51.9815C26.2305 51.8863 26.494 51.8518 26.7542 51.881C27.0145 51.9101 27.264 52.0021 27.4814 52.149C27.6989 52.296 27.8779 52.4935 28.0033 52.725C28.1287 52.9564 28.1968 53.2149 28.2018 53.4785Z"/>
<path d="M51.4521 67.9992C51.102 68.0099 50.7567 67.9155 50.4602 67.7278C50.1637 67.5402 49.9295 67.2679 49.7874 66.9457C48.0703 64.0987 46.5785 61.1201 45.3258 58.0374C44.8852 56.9346 44.9403 55.8627 46.2561 55.3822C47.5719 54.9016 48.2451 55.7087 48.6613 56.8299C49.7813 59.8117 51.5194 62.4854 52.8597 65.3563C53.5268 66.767 52.9209 67.9376 51.4521 67.9992Z"/>
<path d="M64.6164 50.084C63.6634 49.9341 62.7451 49.6127 61.9052 49.1352C59.6714 48.1618 57.6211 46.7634 55.2098 46.2089C55.0051 46.1734 54.8094 46.0971 54.6343 45.9845C54.4593 45.8718 54.3083 45.7251 54.1903 45.553C54.0723 45.3808 53.9897 45.1867 53.9472 44.982C53.9047 44.7772 53.9033 44.566 53.9429 44.3607C54.0347 43.4489 54.6774 43.0547 55.4485 42.8452C56.1564 42.713 56.8877 42.8123 57.5354 43.1286C60.2099 44.1328 62.6947 45.5497 65.2529 46.825C66.0057 47.1885 66.6116 47.8045 66.2872 48.7964C66.2062 49.1759 65.9936 49.514 65.6874 49.75C65.3812 49.9859 65.0015 50.1043 64.6164 50.084Z"/>
<path d="M6.01025 16.9951C7.28936 17.1553 8.38485 17.7405 9.54155 18.104C11.3776 18.6769 13.2136 19.2499 15.0497 19.866C15.4978 19.9815 15.9031 20.225 16.2169 20.5671C16.5308 20.9092 16.7396 21.3354 16.8184 21.7942C17.0081 23.0264 15.8085 24.2585 14.7804 23.704C11.806 22.1947 8.49502 21.7203 5.45944 20.4266C4.67607 20.0939 4.03958 19.5148 4.23542 18.5784C4.30753 18.1503 4.52284 17.7599 4.84566 17.4719C5.16848 17.1839 5.5794 17.0157 6.01025 16.9951Z"/>
<path d="M39.524 14.4015C39.524 11.7893 40.6317 9.54685 41.923 7.40294C42.6269 6.23242 44.0222 5.85662 44.7934 6.57742C45.7175 7.44607 45.4054 8.42561 44.8362 9.46677C43.7958 11.315 42.9267 13.1632 43.1103 15.381C43.2083 16.5515 43.1654 17.7282 41.5375 17.7898C40.2523 17.8329 39.5974 17.069 39.5301 15.4734C39.524 15.1284 39.524 14.7711 39.524 14.4015Z"/>
</mask>
<path d="M49.0101 36.4196C49.0503 39.6844 48.0317 42.8732 46.1089 45.5026C44.186 48.1319 41.4638 50.0583 38.355 50.9896C37.4521 51.3405 36.5079 51.5725 35.5459 51.6796C34.4504 51.6796 33.7099 51.236 33.5691 50.1887C33.4283 49.1414 34.0342 48.5377 34.9767 48.2789C36.963 47.8217 38.857 47.0257 40.5766 45.9255C42.0386 44.9376 43.2465 43.6143 44.1012 42.0646C44.9558 40.5149 45.4326 38.783 45.4923 37.0115C45.5521 35.2401 45.1931 33.4796 44.4449 31.8751C43.6967 30.2706 42.5806 28.8679 41.1886 27.7824C36.6292 24.086 31.6474 22.8908 26.0536 24.8006C22.0388 26.1683 20.0498 29.5074 20.4843 33.9431C20.8332 37.5409 23.8198 40.5658 27.553 41.2496C29.6522 41.6316 31.7269 41.6932 33.6731 40.8553C35.3195 40.153 36.6353 39.0071 36.7883 37.0295C36.9719 34.6823 36.2252 32.7602 34.1383 31.565C32.4981 30.6286 30.9864 31.0599 29.9093 32.6432C29.591 33.1052 29.3462 33.6165 29.0463 34.0909C28.5078 34.9349 27.8223 35.5263 26.7697 35.0581C25.717 34.5899 25.5028 33.6104 25.919 32.5939C27.0695 29.8216 28.9239 27.6653 32.0391 27.536C33.3777 27.4605 34.7115 27.7532 35.8974 28.3827C37.0834 29.0121 38.0768 29.9547 38.7712 31.1092C42.6452 37.0604 39.4199 43.911 32.394 44.8536C26.8859 45.5929 22.1306 44.1266 18.8135 39.4692C14.4315 33.3085 17.1305 24.6836 24.2237 21.671C32.4675 18.1718 43.0675 21.8928 47.3455 29.8462C48.5171 31.8305 49.0951 34.1129 49.0101 36.4196Z" fill="#FFCB7D"/>
<path d="M1.01012 47.977C0.912203 47.1207 1.54257 46.6094 2.12398 46.1288C4.88042 43.7582 8.10231 41.9991 11.5795 40.9662C12.3507 40.7164 13.1354 40.5107 13.9297 40.3501C14.9946 40.1838 15.9126 40.5288 16.1941 41.6685C16.4756 42.8082 15.8575 43.5167 14.7498 43.7878C10.8125 44.6691 7.14599 46.4976 4.06406 49.1168C3.80531 49.409 3.45665 49.6055 3.07386 49.6748C2.69108 49.744 2.29628 49.682 1.95262 49.4987C1.66215 49.3693 1.41698 49.1551 1.24893 48.8838C1.08087 48.6124 0.997676 48.2965 1.01012 47.977Z" fill="#FFCB7D"/>
<path d="M27.8468 13.7854C27.8896 15.0175 27.5163 15.8985 26.378 16.1264C26.1606 16.1746 25.9355 16.1755 25.7177 16.1289C25.5 16.0823 25.2947 15.9894 25.1156 15.8564C24.9365 15.7233 24.7877 15.5533 24.6793 15.3576C24.5708 15.1619 24.5052 14.9451 24.4869 14.7218C24.0401 11.0747 21.8858 8.07445 20.8882 4.64913C20.6675 4.02191 20.5537 3.36162 20.5516 2.6962C20.5534 2.30603 20.6918 1.92899 20.9426 1.63147C21.1934 1.33396 21.5404 1.13506 21.9225 1.06979C22.2725 0.955214 22.653 0.982501 22.9833 1.14585C23.3135 1.30921 23.5675 1.59575 23.6912 1.9446C24.6888 5.8751 27.2164 9.24498 27.7795 13.3233C27.8284 13.5205 27.8407 13.7299 27.8468 13.7854Z" fill="#FFCB7D"/>
<path d="M66.2199 22.1454C66.5999 22.1204 66.9768 22.2299 67.2852 22.4548C67.5936 22.6798 67.8143 23.0062 67.909 23.3775C68.0416 23.7652 68.0289 24.1883 67.8734 24.5672C67.7179 24.9461 67.4302 25.2548 67.0645 25.4352C65.3998 26.3716 63.4964 26.5749 61.7155 27.1602C59.9345 27.7454 57.9516 27.6284 56.2869 28.916C55.3322 29.6552 54.353 28.7558 53.8756 27.7578C53.749 27.5305 53.6741 27.2777 53.6566 27.0178C53.639 26.7578 53.6791 26.4972 53.774 26.2547C53.869 26.0123 54.0163 25.7942 54.2054 25.6162C54.3944 25.4382 54.6205 25.3049 54.8671 25.2257C55.9481 24.7793 57.075 24.4549 58.227 24.2585C60.7177 23.7797 63.1718 23.125 65.5711 22.2994C65.7839 22.234 66.0006 22.1826 66.2199 22.1454Z" fill="#FFCB7D"/>
<path d="M28.2018 53.4785C28.2412 53.8393 28.1451 54.2019 27.9325 54.495C25.7476 57.1503 24.4746 60.3415 22.9201 63.3602C22.3877 64.4013 21.6961 65.2638 20.4292 64.7155C19.1624 64.1672 19.2052 63.0768 19.6826 61.974C21.0483 58.964 22.5913 56.0386 24.3033 53.2136C24.7006 52.6142 25.2974 52.1773 25.9863 51.9815C26.2305 51.8863 26.494 51.8518 26.7542 51.881C27.0145 51.9101 27.264 52.0021 27.4814 52.149C27.6989 52.296 27.8779 52.4935 28.0033 52.725C28.1287 52.9564 28.1968 53.2149 28.2018 53.4785Z" fill="#FFCB7D"/>
<path d="M51.4521 67.9992C51.102 68.0099 50.7567 67.9155 50.4602 67.7278C50.1637 67.5402 49.9295 67.2679 49.7874 66.9457C48.0703 64.0987 46.5785 61.1201 45.3258 58.0374C44.8852 56.9346 44.9403 55.8627 46.2561 55.3822C47.5719 54.9016 48.2451 55.7087 48.6613 56.8299C49.7813 59.8117 51.5194 62.4854 52.8597 65.3563C53.5268 66.767 52.9209 67.9376 51.4521 67.9992Z" fill="#FFCB7D"/>
<path d="M64.6164 50.084C63.6634 49.9341 62.7451 49.6127 61.9052 49.1352C59.6714 48.1618 57.6211 46.7634 55.2098 46.2089C55.0051 46.1734 54.8094 46.0971 54.6343 45.9845C54.4593 45.8718 54.3083 45.7251 54.1903 45.553C54.0723 45.3808 53.9897 45.1867 53.9472 44.982C53.9047 44.7772 53.9033 44.566 53.9429 44.3607C54.0347 43.4489 54.6774 43.0547 55.4485 42.8452C56.1564 42.713 56.8877 42.8123 57.5354 43.1286C60.2099 44.1328 62.6947 45.5497 65.2529 46.825C66.0057 47.1885 66.6116 47.8045 66.2872 48.7964C66.2062 49.1759 65.9936 49.514 65.6874 49.75C65.3812 49.9859 65.0015 50.1043 64.6164 50.084Z" fill="#FFCB7D"/>
<path d="M6.01025 16.9951C7.28936 17.1553 8.38485 17.7405 9.54155 18.104C11.3776 18.6769 13.2136 19.2499 15.0497 19.866C15.4978 19.9815 15.9031 20.225 16.2169 20.5671C16.5308 20.9092 16.7396 21.3354 16.8184 21.7942C17.0081 23.0264 15.8085 24.2585 14.7804 23.704C11.806 22.1947 8.49502 21.7203 5.45944 20.4266C4.67607 20.0939 4.03958 19.5148 4.23542 18.5784C4.30753 18.1503 4.52284 17.7599 4.84566 17.4719C5.16848 17.1839 5.5794 17.0157 6.01025 16.9951Z" fill="#FFCB7D"/>
<path d="M39.524 14.4015C39.524 11.7893 40.6317 9.54685 41.923 7.40294C42.6269 6.23242 44.0222 5.85662 44.7934 6.57742C45.7175 7.44607 45.4054 8.42561 44.8362 9.46677C43.7958 11.315 42.9267 13.1632 43.1103 15.381C43.2083 16.5515 43.1654 17.7282 41.5375 17.7898C40.2523 17.8329 39.5974 17.069 39.5301 15.4734C39.524 15.1284 39.524 14.7711 39.524 14.4015Z" fill="#FFCB7D"/>
<path d="M49.0101 36.4196C49.0503 39.6844 48.0317 42.8732 46.1089 45.5026C44.186 48.1319 41.4638 50.0583 38.355 50.9896C37.4521 51.3405 36.5079 51.5725 35.5459 51.6796C34.4504 51.6796 33.7099 51.236 33.5691 50.1887C33.4283 49.1414 34.0342 48.5377 34.9767 48.2789C36.963 47.8217 38.857 47.0257 40.5766 45.9255C42.0386 44.9376 43.2465 43.6143 44.1012 42.0646C44.9558 40.5149 45.4326 38.783 45.4923 37.0115C45.5521 35.2401 45.1931 33.4796 44.4449 31.8751C43.6967 30.2706 42.5806 28.8679 41.1886 27.7824C36.6292 24.086 31.6474 22.8908 26.0536 24.8006C22.0388 26.1683 20.0498 29.5074 20.4843 33.9431C20.8332 37.5409 23.8198 40.5658 27.553 41.2496C29.6522 41.6316 31.7269 41.6932 33.6731 40.8553C35.3195 40.153 36.6353 39.0071 36.7883 37.0295C36.9719 34.6823 36.2252 32.7602 34.1383 31.565C32.4981 30.6286 30.9864 31.0599 29.9093 32.6432C29.591 33.1052 29.3462 33.6165 29.0463 34.0909C28.5078 34.9349 27.8223 35.5263 26.7697 35.0581C25.717 34.5899 25.5028 33.6104 25.919 32.5939C27.0695 29.8216 28.9239 27.6653 32.0391 27.536C33.3777 27.4605 34.7115 27.7532 35.8974 28.3827C37.0834 29.0121 38.0768 29.9547 38.7712 31.1092C42.6452 37.0604 39.4199 43.911 32.394 44.8536C26.8859 45.5929 22.1306 44.1266 18.8135 39.4692C14.4315 33.3085 17.1305 24.6836 24.2237 21.671C32.4675 18.1718 43.0675 21.8928 47.3455 29.8462C48.5171 31.8305 49.0951 34.1129 49.0101 36.4196Z" stroke="#FFCB7D" mask="url(#path-1-outside-1_5035_156)"/>
<path d="M1.01012 47.977C0.912203 47.1207 1.54257 46.6094 2.12398 46.1288C4.88042 43.7582 8.10231 41.9991 11.5795 40.9662C12.3507 40.7164 13.1354 40.5107 13.9297 40.3501C14.9946 40.1838 15.9126 40.5288 16.1941 41.6685C16.4756 42.8082 15.8575 43.5167 14.7498 43.7878C10.8125 44.6691 7.14599 46.4976 4.06406 49.1168C3.80531 49.409 3.45665 49.6055 3.07386 49.6748C2.69108 49.744 2.29628 49.682 1.95262 49.4987C1.66215 49.3693 1.41698 49.1551 1.24893 48.8838C1.08087 48.6124 0.997676 48.2965 1.01012 47.977Z" stroke="#FFCB7D" mask="url(#path-1-outside-1_5035_156)"/>
<path d="M27.8468 13.7854C27.8896 15.0175 27.5163 15.8985 26.378 16.1264C26.1606 16.1746 25.9355 16.1755 25.7177 16.1289C25.5 16.0823 25.2947 15.9894 25.1156 15.8564C24.9365 15.7233 24.7877 15.5533 24.6793 15.3576C24.5708 15.1619 24.5052 14.9451 24.4869 14.7218C24.0401 11.0747 21.8858 8.07445 20.8882 4.64913C20.6675 4.02191 20.5537 3.36162 20.5516 2.6962C20.5534 2.30603 20.6918 1.92899 20.9426 1.63147C21.1934 1.33396 21.5404 1.13506 21.9225 1.06979C22.2725 0.955214 22.653 0.982501 22.9833 1.14585C23.3135 1.30921 23.5675 1.59575 23.6912 1.9446C24.6888 5.8751 27.2164 9.24498 27.7795 13.3233C27.8284 13.5205 27.8407 13.7299 27.8468 13.7854Z" stroke="#FFCB7D" mask="url(#path-1-outside-1_5035_156)"/>
<path d="M66.2199 22.1454C66.5999 22.1204 66.9768 22.2299 67.2852 22.4548C67.5936 22.6798 67.8143 23.0062 67.909 23.3775C68.0416 23.7652 68.0289 24.1883 67.8734 24.5672C67.7179 24.9461 67.4302 25.2548 67.0645 25.4352C65.3998 26.3716 63.4964 26.5749 61.7155 27.1602C59.9345 27.7454 57.9516 27.6284 56.2869 28.916C55.3322 29.6552 54.353 28.7558 53.8756 27.7578C53.749 27.5305 53.6741 27.2777 53.6566 27.0178C53.639 26.7578 53.6791 26.4972 53.774 26.2547C53.869 26.0123 54.0163 25.7942 54.2054 25.6162C54.3944 25.4382 54.6205 25.3049 54.8671 25.2257C55.9481 24.7793 57.075 24.4549 58.227 24.2585C60.7177 23.7797 63.1718 23.125 65.5711 22.2994C65.7839 22.234 66.0006 22.1826 66.2199 22.1454Z" stroke="#FFCB7D" mask="url(#path-1-outside-1_5035_156)"/>
<path d="M28.2018 53.4785C28.2412 53.8393 28.1451 54.2019 27.9325 54.495C25.7476 57.1503 24.4746 60.3415 22.9201 63.3602C22.3877 64.4013 21.6961 65.2638 20.4292 64.7155C19.1624 64.1672 19.2052 63.0768 19.6826 61.974C21.0483 58.964 22.5913 56.0386 24.3033 53.2136C24.7006 52.6142 25.2974 52.1773 25.9863 51.9815C26.2305 51.8863 26.494 51.8518 26.7542 51.881C27.0145 51.9101 27.264 52.0021 27.4814 52.149C27.6989 52.296 27.8779 52.4935 28.0033 52.725C28.1287 52.9564 28.1968 53.2149 28.2018 53.4785Z" stroke="#FFCB7D" mask="url(#path-1-outside-1_5035_156)"/>
<path d="M51.4521 67.9992C51.102 68.0099 50.7567 67.9155 50.4602 67.7278C50.1637 67.5402 49.9295 67.2679 49.7874 66.9457C48.0703 64.0987 46.5785 61.1201 45.3258 58.0374C44.8852 56.9346 44.9403 55.8627 46.2561 55.3822C47.5719 54.9016 48.2451 55.7087 48.6613 56.8299C49.7813 59.8117 51.5194 62.4854 52.8597 65.3563C53.5268 66.767 52.9209 67.9376 51.4521 67.9992Z" stroke="#FFCB7D" mask="url(#path-1-outside-1_5035_156)"/>
<path d="M64.6164 50.084C63.6634 49.9341 62.7451 49.6127 61.9052 49.1352C59.6714 48.1618 57.6211 46.7634 55.2098 46.2089C55.0051 46.1734 54.8094 46.0971 54.6343 45.9845C54.4593 45.8718 54.3083 45.7251 54.1903 45.553C54.0723 45.3808 53.9897 45.1867 53.9472 44.982C53.9047 44.7772 53.9033 44.566 53.9429 44.3607C54.0347 43.4489 54.6774 43.0547 55.4485 42.8452C56.1564 42.713 56.8877 42.8123 57.5354 43.1286C60.2099 44.1328 62.6947 45.5497 65.2529 46.825C66.0057 47.1885 66.6116 47.8045 66.2872 48.7964C66.2062 49.1759 65.9936 49.514 65.6874 49.75C65.3812 49.9859 65.0015 50.1043 64.6164 50.084Z" stroke="#FFCB7D" mask="url(#path-1-outside-1_5035_156)"/>
<path d="M6.01025 16.9951C7.28936 17.1553 8.38485 17.7405 9.54155 18.104C11.3776 18.6769 13.2136 19.2499 15.0497 19.866C15.4978 19.9815 15.9031 20.225 16.2169 20.5671C16.5308 20.9092 16.7396 21.3354 16.8184 21.7942C17.0081 23.0264 15.8085 24.2585 14.7804 23.704C11.806 22.1947 8.49502 21.7203 5.45944 20.4266C4.67607 20.0939 4.03958 19.5148 4.23542 18.5784C4.30753 18.1503 4.52284 17.7599 4.84566 17.4719C5.16848 17.1839 5.5794 17.0157 6.01025 16.9951Z" stroke="#FFCB7D" mask="url(#path-1-outside-1_5035_156)"/>
<path d="M39.524 14.4015C39.524 11.7893 40.6317 9.54685 41.923 7.40294C42.6269 6.23242 44.0222 5.85662 44.7934 6.57742C45.7175 7.44607 45.4054 8.42561 44.8362 9.46677C43.7958 11.315 42.9267 13.1632 43.1103 15.381C43.2083 16.5515 43.1654 17.7282 41.5375 17.7898C40.2523 17.8329 39.5974 17.069 39.5301 15.4734C39.524 15.1284 39.524 14.7711 39.524 14.4015Z" stroke="#FFCB7D" mask="url(#path-1-outside-1_5035_156)"/>
</svg>
