<svg width="66" height="54" viewBox="0 0 66 54" fill="none" xmlns="http://www.w3.org/2000/svg">
<path d="M34.4677 46.107C29.3493 51.125 22.4501 53.9583 15.248 54C13.5608 53.9794 11.8825 53.7536 10.2509 53.3274C5.35624 52.0585 1.37134 49.5205 0.2566 44.3431C-0.858145 39.1657 1.79418 35.1684 5.59969 32.0087C9.00338 29.1303 13.2448 27.4012 17.7081 27.0724C20.1683 26.9074 20.3476 26.4759 18.9894 24.5344C15.9271 19.9788 16.5806 16.3241 20.5783 14.0654C21.7576 13.4648 23.0503 13.1138 24.374 13.0348C25.6978 12.9558 27.0236 13.1504 28.2673 13.6064C29.511 14.0623 30.6453 14.7695 31.598 15.6831C32.5508 16.5966 33.3012 17.6965 33.8015 18.9129C34.2371 20.1184 34.6856 21.6031 33.1992 22.2249C31.7129 22.8467 31.3413 21.3366 30.7904 20.3341C29.0819 17.1363 26.6773 15.9434 23.5766 16.7556C20.6936 17.517 19.7326 19.4077 21.3599 21.933C22.9503 24.559 25.3099 26.6437 28.1252 27.9099C29.4962 28.519 31.7001 28.6966 30.6879 30.9427C29.8422 32.8081 28.2021 31.7422 26.8439 31.298C23.4834 30.1294 19.866 29.8839 16.376 30.5877C12.8859 31.2915 9.65346 32.9183 7.02195 35.2953C4.12617 37.719 2.66547 40.9169 3.81866 44.5588C4.97184 48.2008 8.31608 49.8378 11.9038 50.2692C19.6814 51.2209 26.5748 49.254 32.0845 43.4421C32.5692 43.0397 32.9617 42.5395 33.2357 41.975C33.5097 41.4104 33.6589 40.7944 33.6733 40.1682C33.6733 38.7089 33.9937 37.1226 35.7747 37.3511C37.5557 37.5795 37.9017 39.3814 37.5557 40.8153C37.3205 41.9466 37.3483 43.116 37.6368 44.235C37.9254 45.3541 38.4673 46.3934 39.2214 47.2744C39.7784 48.1175 40.5385 48.8099 41.4334 49.2891C42.3282 49.7684 43.3294 50.0193 44.3467 50.0193C45.3639 50.0193 46.3652 49.7684 47.26 49.2891C48.1548 48.8099 48.915 48.1175 49.4719 47.2744C50.3381 46.0157 50.9427 44.599 51.2507 43.1067C51.5586 41.6143 51.5638 40.0763 51.2658 38.582C51.1801 37.8983 50.8905 37.2554 50.434 36.7355C49.9776 36.2156 49.3749 35.8423 48.7032 35.6633C47.2425 35.1177 45.5127 33.9248 46.4352 32.1483C47.5115 30.0925 49.3823 31.2726 50.8301 32.0594C52.4607 32.884 54.307 33.1947 56.1211 32.9497C57.9352 32.7048 59.6301 31.9158 60.9782 30.6889C61.3798 30.3348 61.7059 29.9048 61.9373 29.4241C62.1688 28.9434 62.301 28.4218 62.326 27.8898C62.3511 27.3579 62.2686 26.8263 62.0833 26.3264C61.8981 25.8264 61.6138 25.3682 61.2472 24.9785C59.7865 23.2781 57.9927 21.5016 55.3019 23.3035C53.7515 24.3314 51.7783 25.3592 50.8045 22.9989C49.8307 20.6386 51.3427 19.3443 53.649 18.6844C56.6089 17.8215 58.659 14.6618 58.8512 10.9183C59.0473 9.5961 58.8294 8.24613 58.2268 7.05037C57.6243 5.85461 56.6661 4.87054 55.4813 4.2308C52.9187 2.79686 48.78 3.50748 46.3199 5.61398C44.0426 7.65535 42.3983 10.296 41.579 13.2278C41.2075 14.3826 40.8231 16.0196 39.1061 15.3724C37.3891 14.7252 38.081 13.3674 38.4398 12.1111C39.4095 8.56838 41.4103 5.38648 44.1929 2.96183C45.9975 1.32363 48.2874 0.305491 50.7226 0.0585975C53.1578 -0.188296 55.6085 0.349216 57.7108 1.59134C59.6846 2.86627 61.1481 4.78249 61.8496 7.01044C62.5512 9.23839 62.4469 11.6388 61.5548 13.7989C60.1966 17.352 59.5815 19.5093 63.4255 22.3644C67.9613 25.7272 66.1675 32.1229 60.6707 34.9273C59.1674 35.7136 57.8562 36.8163 56.8292 38.158C55.8021 39.4996 55.084 41.0477 54.7253 42.6934C54.3273 45.1827 53.3586 47.5485 51.8936 49.6093C51.0346 50.7746 49.9136 51.726 48.6194 52.3883C47.3251 53.0506 45.893 53.4056 44.4363 53.4253C42.9796 53.445 41.5383 53.1288 40.2262 52.5018C38.9142 51.8747 37.7674 50.954 36.8766 49.8124C35.9797 48.6449 35.275 47.3759 34.4677 46.107Z" fill="#8A88FF"/>
<path d="M47.5371 25.3466C47.6268 28.7855 45.4101 30.2956 43.0909 31.5519C40.7718 32.8082 37.9657 34.0898 35.0443 32.3767C34.3023 31.9635 33.7274 31.309 33.417 30.524C32.597 28.4937 35.0571 22.6056 37.3378 21.1717C38.709 20.2769 40.3573 19.8953 41.987 20.0953C43.6166 20.2953 45.121 21.0638 46.2302 22.263C46.6478 22.6623 46.979 23.1416 47.2037 23.6717C47.4284 24.2019 47.5418 24.7717 47.5371 25.3466ZM38.6704 29.6104C40.6314 29.4023 42.451 28.5012 43.7957 27.0724C44.1276 26.7318 44.3131 26.2768 44.3131 25.8034C44.3131 25.33 44.1276 24.8751 43.7957 24.5345C43.296 23.9 42.5144 23.4812 42.0018 24.3061C41.2202 25.575 40.1695 25.6512 38.837 25.7527C37.5044 25.8542 36.8894 27.2627 36.7484 28.4937C36.6075 29.7246 37.7607 29.4835 38.6704 29.6104Z" fill="#8A88FF"/>
<path d="M21.4751 5.49989C16.4524 5.49989 14.1844 7.45412 13.7872 11.591C13.6975 12.4919 13.5438 13.3168 12.5059 13.5198C11.468 13.7229 10.8274 12.9107 10.4174 12.0097C9.27699 9.586 10.7377 5.98211 13.9538 4.07865C17.1699 2.17518 20.5269 1.26152 24.2043 2.49243C25.4856 2.91119 26.767 3.32995 26.3826 5.03038C25.9982 6.7308 24.6784 6.14708 23.5637 5.94404L21.4751 5.49989Z" fill="#8A88FF"/>
</svg>
