<?xml version="1.0" encoding="utf-8"?>
<!-- Generator: Adobe Illustrator 24.2.3, SVG Export Plug-In . SVG Version: 6.00 Build 0)  -->
<svg version="1.1" id="Layer_1" xmlns="http://www.w3.org/2000/svg" xmlns:xlink="http://www.w3.org/1999/xlink" x="0px" y="0px"
	 viewBox="0 0 280 226" enable-background="new 0 0 280 226" xml:space="preserve">
<g>
	<path fill="#FFFFFF" d="M8,0h264c4.4,0,8,3.6,8,8v210c0,4.4-3.6,8-8,8H8c-4.4,0-8-3.6-8-8V8C0,3.6,3.6,0,8,0z"/>
	<g>
		<g>
			<defs>
				<rect id="SVGID_1_" x="131" y="16" width="18" height="18"/>
			</defs>
			<clipPath id="SVGID_2_">
				<use xlink:href="#SVGID_1_"  overflow="visible"/>
			</clipPath>
			<g clip-path="url(#SVGID_2_)">
				<path fill="#0072F0" d="M140,26.5c1.2,0,2.2-1,2.2-2.2v-4.5c0-1.2-1-2.2-2.2-2.2s-2.2,1-2.2,2.2v4.5
					C137.8,25.5,138.8,26.5,140,26.5z M139.2,19.8c0-0.4,0.3-0.8,0.8-0.8s0.8,0.3,0.8,0.8v4.5c0,0.4-0.3,0.8-0.8,0.8
					s-0.8-0.3-0.8-0.8V19.8z M143.8,24.3c0,2.1-1.7,3.8-3.8,3.8s-3.8-1.7-3.8-3.8h-1.5c0,2.6,2,4.8,4.5,5.2v2.3h1.5v-2.3
					c2.5-0.4,4.5-2.5,4.5-5.2H143.8L143.8,24.3z"/>
			</g>
		</g>
	</g>
	<path fill="#212121" d="M29.7,54.6L25.9,65h-1.5l4.3-11.4h1V54.6z M32.9,65l-3.8-10.4v-1h1L34.4,65H32.9z M32.7,60.8V62h-6.4v-1.2
		H32.7z M37.3,53v12h-1.5V53H37.3z M41.2,53v12h-1.5V53H41.2z M43.1,60.9v-0.2c0-0.6,0.1-1.2,0.3-1.7s0.4-1,0.8-1.4
		c0.3-0.4,0.7-0.7,1.2-0.9s1-0.3,1.6-0.3s1.1,0.1,1.6,0.3s0.9,0.5,1.2,0.9s0.6,0.8,0.8,1.4c0.2,0.5,0.3,1.1,0.3,1.7v0.2
		c0,0.6-0.1,1.2-0.3,1.7s-0.4,1-0.8,1.4c-0.3,0.4-0.7,0.7-1.2,0.9c-0.5,0.2-1,0.3-1.6,0.3s-1.1-0.1-1.6-0.3
		c-0.5-0.2-0.9-0.5-1.2-0.9s-0.6-0.8-0.8-1.4S43.1,61.5,43.1,60.9z M44.6,60.7v0.2c0,0.4,0,0.8,0.1,1.2s0.2,0.7,0.4,1
		s0.5,0.5,0.8,0.7C46.2,64,46.6,64,47,64c0.4,0,0.7-0.1,1-0.2c0.3-0.2,0.6-0.4,0.8-0.7s0.3-0.6,0.4-1c0.1-0.4,0.2-0.8,0.2-1.2v-0.2
		c0-0.4-0.1-0.8-0.2-1.2c-0.1-0.4-0.2-0.7-0.5-1c-0.2-0.3-0.4-0.5-0.8-0.7c-0.3-0.2-0.6-0.2-1-0.2s-0.7,0.1-1,0.2
		c-0.3,0.2-0.5,0.4-0.8,0.7c-0.2,0.3-0.3,0.6-0.4,1C44.6,59.9,44.6,60.3,44.6,60.7z M54.8,63.5l2.2-7h1l-0.2,1.4L55.5,65h-0.9
		L54.8,63.5z M53.3,56.5l1.9,7l0.1,1.4h-1l-2.5-8.5L53.3,56.5L53.3,56.5z M60,63.5l1.8-7h1.4L60.7,65h-1L60,63.5z M58.1,56.5
		l2.1,6.8l0.2,1.6h-0.9l-2.3-7.1L57,56.4L58.1,56.5L58.1,56.5z M71,53.6V65h-2.3V53.6H71z M75.3,58.4V65H73v-8.5h2.1L75.3,58.4z
		 M75,60.5h-0.6c0-0.6,0.1-1.2,0.2-1.7c0.2-0.5,0.4-0.9,0.7-1.3c0.3-0.4,0.6-0.6,1-0.8s0.9-0.3,1.4-0.3c0.4,0,0.8,0.1,1.1,0.2
		s0.6,0.3,0.8,0.5c0.2,0.2,0.4,0.6,0.5,1s0.2,0.9,0.2,1.5V65H78v-5.4c0-0.4-0.1-0.7-0.2-0.9s-0.3-0.4-0.5-0.4
		c-0.2-0.1-0.4-0.1-0.7-0.1c-0.3,0-0.6,0.1-0.8,0.2c-0.2,0.1-0.4,0.3-0.5,0.5s-0.2,0.5-0.3,0.7C75,59.9,75,60.2,75,60.5z M84.2,58.4
		V65H82v-8.5h2.1L84.2,58.4z M83.9,60.5h-0.6c0-0.6,0.1-1.2,0.2-1.7c0.2-0.5,0.4-0.9,0.7-1.3c0.3-0.4,0.6-0.6,1-0.8s0.9-0.3,1.4-0.3
		c0.4,0,0.8,0.1,1.1,0.2c0.3,0.1,0.6,0.3,0.8,0.5c0.2,0.2,0.4,0.6,0.5,1s0.2,0.9,0.2,1.5V65H87v-5.4c0-0.4-0.1-0.7-0.2-0.9
		s-0.3-0.4-0.5-0.4c-0.2-0.1-0.4-0.1-0.7-0.1c-0.3,0-0.6,0.1-0.8,0.2c-0.2,0.1-0.4,0.3-0.5,0.5s-0.2,0.5-0.3,0.7
		C84,59.9,83.9,60.2,83.9,60.5z M94.9,65.2c-0.7,0-1.2-0.1-1.8-0.3c-0.5-0.2-1-0.5-1.3-0.9c-0.4-0.4-0.6-0.8-0.8-1.3
		c-0.2-0.5-0.3-1-0.3-1.6v-0.3c0-0.6,0.1-1.2,0.3-1.8c0.2-0.5,0.4-1,0.8-1.4c0.3-0.4,0.8-0.7,1.2-0.9c0.5-0.2,1-0.3,1.7-0.3
		c0.6,0,1.1,0.1,1.6,0.3s0.9,0.5,1.2,0.8c0.3,0.4,0.6,0.8,0.7,1.3c0.2,0.5,0.2,1.1,0.2,1.7v0.9h-6.7V60h4.5v-0.2
		c0-0.3-0.1-0.6-0.2-0.8s-0.3-0.4-0.5-0.6c-0.2-0.1-0.5-0.2-0.9-0.2c-0.3,0-0.6,0.1-0.8,0.2c-0.2,0.1-0.4,0.3-0.5,0.5
		s-0.2,0.5-0.3,0.8c0,0.3,0,0.7,0,1.1v0.3c0,0.3,0,0.7,0.1,0.9c0.1,0.3,0.2,0.5,0.4,0.7c0.2,0.2,0.4,0.4,0.7,0.5
		c0.3,0.1,0.6,0.2,0.9,0.2c0.4,0,0.8-0.1,1.1-0.2c0.4-0.2,0.7-0.4,0.9-0.7l1.1,1.2c-0.2,0.3-0.4,0.5-0.7,0.7
		c-0.3,0.2-0.7,0.4-1.1,0.6C95.9,65.1,95.5,65.2,94.9,65.2z M101.9,58.4V65h-2.2v-8.5h2.1L101.9,58.4z M104.5,56.5v2.1
		c-0.1,0-0.2,0-0.4,0c-0.2,0-0.3,0-0.4,0c-0.3,0-0.6,0-0.8,0.1c-0.2,0.1-0.4,0.2-0.6,0.4s-0.3,0.3-0.3,0.6c-0.1,0.2-0.1,0.5-0.1,0.8
		l-0.5-0.1c0-0.5,0.1-1,0.2-1.5s0.3-0.9,0.5-1.2s0.5-0.6,0.8-0.8s0.7-0.3,1.1-0.3c0.1,0,0.3,0,0.4,0
		C104.3,56.4,104.4,56.5,104.5,56.5z M110,56.5v1.6h-4.9v-1.6H110z M106.3,54.5h2.2v8c0,0.2,0,0.4,0.1,0.6c0.1,0.1,0.2,0.2,0.3,0.3
		c0.1,0,0.3,0.1,0.5,0.1c0.1,0,0.3,0,0.4,0s0.2,0,0.3,0v1.7c-0.2,0.1-0.4,0.1-0.6,0.1s-0.5,0.1-0.7,0.1c-0.5,0-0.9-0.1-1.3-0.2
		c-0.4-0.2-0.6-0.4-0.8-0.8c-0.2-0.4-0.3-0.8-0.3-1.4L106.3,54.5L106.3,54.5z M116.3,63v-6.4h2.2V65h-2.1L116.3,63z M116.6,61.2h0.7
		c0,0.6-0.1,1.1-0.2,1.6s-0.3,0.9-0.6,1.2c-0.3,0.3-0.6,0.6-1,0.8c-0.4,0.2-0.9,0.3-1.4,0.3c-0.4,0-0.8-0.1-1.1-0.2
		c-0.3-0.1-0.6-0.3-0.9-0.6c-0.2-0.3-0.4-0.6-0.6-1c-0.1-0.4-0.2-0.9-0.2-1.4v-5.5h2.2V62c0,0.2,0,0.5,0.1,0.6
		c0.1,0.2,0.1,0.3,0.3,0.4c0.1,0.1,0.2,0.2,0.4,0.2c0.2,0,0.3,0.1,0.5,0.1c0.5,0,0.8-0.1,1.1-0.3c0.3-0.2,0.5-0.4,0.6-0.8
		C116.5,62,116.6,61.6,116.6,61.2z M122.5,58.4V65h-2.2v-8.5h2.1L122.5,58.4z M122.2,60.5h-0.6c0-0.6,0.1-1.2,0.2-1.7
		c0.2-0.5,0.4-0.9,0.7-1.3c0.3-0.4,0.6-0.6,1-0.8s0.9-0.3,1.4-0.3c0.4,0,0.8,0.1,1.1,0.2c0.3,0.1,0.6,0.3,0.8,0.5
		c0.2,0.2,0.4,0.6,0.5,1s0.2,0.9,0.2,1.5V65h-2.3v-5.4c0-0.4-0.1-0.7-0.2-0.9s-0.3-0.4-0.5-0.4c-0.2-0.1-0.4-0.1-0.7-0.1
		c-0.3,0-0.6,0.1-0.8,0.2c-0.2,0.1-0.4,0.3-0.5,0.5s-0.2,0.5-0.3,0.7C122.2,59.9,122.2,60.2,122.2,60.5z M133.2,65.2
		c-0.7,0-1.2-0.1-1.8-0.3c-0.5-0.2-1-0.5-1.3-0.9c-0.4-0.4-0.6-0.8-0.8-1.3s-0.3-1-0.3-1.6v-0.3c0-0.6,0.1-1.2,0.3-1.8
		c0.2-0.5,0.4-1,0.8-1.4c0.3-0.4,0.8-0.7,1.2-0.9c0.5-0.2,1-0.3,1.7-0.3c0.6,0,1.1,0.1,1.6,0.3s0.9,0.5,1.2,0.8
		c0.3,0.4,0.6,0.8,0.7,1.3c0.2,0.5,0.2,1.1,0.2,1.7v0.9H130V60h4.5v-0.2c0-0.3-0.1-0.6-0.2-0.8c-0.1-0.2-0.3-0.4-0.5-0.6
		c-0.2-0.1-0.5-0.2-0.9-0.2c-0.3,0-0.6,0.1-0.8,0.2c-0.2,0.1-0.4,0.3-0.5,0.5s-0.2,0.5-0.3,0.8s-0.1,0.7-0.1,1V61
		c0,0.3,0,0.7,0.1,0.9c0.1,0.3,0.2,0.5,0.4,0.7s0.4,0.4,0.7,0.5s0.6,0.2,0.9,0.2c0.4,0,0.8-0.1,1.1-0.2c0.4-0.2,0.7-0.4,0.9-0.7
		l1.1,1.2c-0.2,0.3-0.4,0.5-0.7,0.7s-0.7,0.4-1.1,0.6C134.2,65.1,133.7,65.2,133.2,65.2z M145.6,56.5v1.1H141v-1.1H145.6z
		 M142.6,54.5h1.4v8.4c0,0.3,0,0.5,0.1,0.6s0.2,0.2,0.3,0.3c0.1,0,0.3,0.1,0.5,0.1c0.1,0,0.2,0,0.4,0c0.1,0,0.2,0,0.3-0.1V65
		c-0.1,0-0.3,0.1-0.5,0.1s-0.4,0.1-0.7,0.1c-0.4,0-0.7-0.1-1-0.2s-0.5-0.4-0.7-0.7c-0.2-0.3-0.3-0.8-0.3-1.3v-8.5H142.6z
		 M146.8,60.9v-0.2c0-0.6,0.1-1.2,0.3-1.7s0.4-1,0.8-1.4c0.3-0.4,0.7-0.7,1.2-0.9s1-0.3,1.6-0.3s1.1,0.1,1.6,0.3s0.9,0.5,1.2,0.9
		s0.6,0.8,0.8,1.4c0.2,0.5,0.3,1.1,0.3,1.7v0.2c0,0.6-0.1,1.2-0.3,1.7s-0.4,1-0.8,1.4c-0.3,0.4-0.7,0.7-1.2,0.9
		c-0.5,0.2-1,0.3-1.6,0.3s-1.1-0.1-1.6-0.3c-0.5-0.2-0.9-0.5-1.2-0.9s-0.6-0.8-0.8-1.4C146.9,62,146.8,61.5,146.8,60.9z M148.2,60.7
		v0.2c0,0.4,0.1,0.8,0.1,1.2c0.1,0.4,0.2,0.7,0.4,1s0.5,0.5,0.8,0.7c0.3,0.2,0.7,0.2,1.1,0.2c0.4,0,0.7-0.1,1-0.2
		c0.3-0.2,0.6-0.4,0.8-0.7s0.3-0.6,0.4-1c0.1-0.4,0.2-0.8,0.2-1.2v-0.2c0-0.4-0.1-0.8-0.2-1.2c-0.1-0.4-0.2-0.7-0.5-1
		c-0.2-0.3-0.4-0.5-0.8-0.7c-0.3-0.2-0.6-0.2-1-0.2s-0.7,0.1-1,0.2c-0.3,0.2-0.5,0.4-0.8,0.7c-0.2,0.3-0.3,0.6-0.4,1
		C148.3,59.9,148.2,60.3,148.2,60.7z M161.7,57.9V65h-1.4v-8.5h1.4V57.9z M164.4,56.5v1.3c-0.1,0-0.2,0-0.3,0s-0.2,0-0.4,0
		c-0.3,0-0.6,0.1-0.9,0.2c-0.3,0.1-0.5,0.2-0.6,0.4s-0.3,0.4-0.4,0.7c-0.1,0.3-0.2,0.5-0.2,0.8l-0.4,0.2c0-0.5,0-1,0.1-1.4
		s0.3-0.8,0.5-1.2c0.2-0.3,0.5-0.6,0.8-0.8s0.7-0.3,1.2-0.3c0.1,0,0.2,0,0.4,0C164.2,56.5,164.3,56.5,164.4,56.5z M169,65.2
		c-0.6,0-1.1-0.1-1.6-0.3c-0.5-0.2-0.9-0.5-1.2-0.9s-0.6-0.8-0.8-1.3s-0.3-1-0.3-1.6v-0.3c0-0.7,0.1-1.3,0.3-1.8s0.5-1,0.8-1.4
		s0.7-0.7,1.2-0.9c0.4-0.2,0.9-0.3,1.4-0.3c0.6,0,1.1,0.1,1.6,0.3c0.4,0.2,0.8,0.5,1.1,0.9s0.5,0.8,0.6,1.3s0.2,1,0.2,1.6v0.6H166
		V60h4.9v-0.1c0-0.4-0.1-0.7-0.2-1.1c-0.1-0.4-0.3-0.6-0.6-0.9c-0.3-0.2-0.7-0.3-1.2-0.3c-0.3,0-0.6,0.1-0.9,0.2
		c-0.3,0.1-0.5,0.3-0.7,0.6s-0.4,0.6-0.5,1s-0.2,0.8-0.2,1.4v0.3c0,0.4,0.1,0.8,0.2,1.1c0.1,0.3,0.3,0.7,0.5,0.9
		c0.2,0.3,0.5,0.5,0.8,0.6c0.3,0.2,0.7,0.2,1.1,0.2c0.5,0,0.9-0.1,1.3-0.3c0.4-0.2,0.7-0.5,0.9-0.8l0.9,0.7
		c-0.2,0.3-0.4,0.5-0.7,0.8c-0.3,0.2-0.6,0.5-1,0.6C170.1,65.1,169.6,65.2,169,65.2z M177.4,64c0.3,0,0.7-0.1,1-0.2
		c0.3-0.1,0.5-0.3,0.7-0.6c0.2-0.2,0.3-0.5,0.3-0.9h1.4c0,0.5-0.2,1-0.5,1.4c-0.3,0.4-0.7,0.8-1.2,1c-0.5,0.3-1,0.4-1.6,0.4
		s-1.2-0.1-1.7-0.3c-0.5-0.2-0.9-0.5-1.2-0.9s-0.5-0.8-0.7-1.3s-0.2-1-0.2-1.6v-0.3c0-0.6,0.1-1.1,0.2-1.6c0.2-0.5,0.4-1,0.7-1.4
		s0.7-0.7,1.2-0.9s1-0.3,1.7-0.3s1.2,0.1,1.7,0.4c0.5,0.3,0.9,0.6,1.2,1.1s0.4,1,0.5,1.6h-1.4c0-0.3-0.1-0.7-0.3-0.9
		c-0.2-0.3-0.4-0.5-0.7-0.7s-0.6-0.3-1-0.3s-0.8,0.1-1.1,0.3s-0.5,0.4-0.7,0.7s-0.3,0.6-0.4,1c-0.1,0.4-0.1,0.7-0.1,1.1v0.3
		c0,0.4,0,0.7,0.1,1.1c0.1,0.4,0.2,0.7,0.4,1s0.4,0.5,0.7,0.7C176.6,63.9,177,64,177.4,64z M182,60.9v-0.2c0-0.6,0.1-1.2,0.3-1.7
		s0.4-1,0.8-1.4c0.3-0.4,0.7-0.7,1.2-0.9s1-0.3,1.6-0.3s1.1,0.1,1.6,0.3s0.9,0.5,1.2,0.9s0.6,0.8,0.8,1.4c0.2,0.5,0.3,1.1,0.3,1.7
		v0.2c0,0.6-0.1,1.2-0.3,1.7s-0.4,1-0.8,1.4c-0.3,0.4-0.7,0.7-1.2,0.9c-0.5,0.2-1,0.3-1.6,0.3s-1.1-0.1-1.6-0.3
		c-0.5-0.2-0.9-0.5-1.2-0.9s-0.6-0.8-0.8-1.4C182.1,62,182,61.5,182,60.9z M183.5,60.7v0.2c0,0.4,0,0.8,0.1,1.2s0.2,0.7,0.4,1
		s0.5,0.5,0.8,0.7c0.3,0.2,0.7,0.2,1.1,0.2c0.4,0,0.7-0.1,1-0.2c0.3-0.2,0.6-0.4,0.8-0.7s0.3-0.6,0.4-1c0.1-0.4,0.2-0.8,0.2-1.2
		v-0.2c0-0.4-0.1-0.8-0.2-1.2c-0.1-0.4-0.2-0.7-0.5-1c-0.2-0.3-0.4-0.5-0.8-0.7c-0.3-0.2-0.6-0.2-1-0.2s-0.7,0.1-1,0.2
		c-0.3,0.2-0.5,0.4-0.8,0.7c-0.2,0.3-0.3,0.6-0.4,1C183.5,59.9,183.5,60.3,183.5,60.7z M193,57.9V65h-1.4v-8.5h1.4V57.9z
		 M195.6,56.5v1.3c-0.1,0-0.2,0-0.3,0s-0.2,0-0.4,0c-0.3,0-0.6,0.1-0.9,0.2c-0.3,0.1-0.5,0.2-0.6,0.4s-0.3,0.4-0.4,0.7
		c-0.1,0.3-0.2,0.5-0.2,0.8l-0.4,0.2c0-0.5,0-1,0.1-1.4s0.3-0.8,0.5-1.2c0.2-0.3,0.5-0.6,0.8-0.8s0.7-0.3,1.2-0.3c0.1,0,0.2,0,0.4,0
		C195.5,56.5,195.6,56.5,195.6,56.5z M202.1,63.4V53h1.5v12h-1.3L202.1,63.4z M196.4,60.9v-0.2c0-0.6,0.1-1.2,0.2-1.8
		c0.2-0.5,0.4-1,0.7-1.4s0.6-0.7,1.1-0.9c0.4-0.2,0.9-0.3,1.4-0.3s1,0.1,1.4,0.3s0.7,0.5,1,0.8s0.5,0.8,0.7,1.3s0.3,1.1,0.3,1.7v0.7
		c-0.1,0.6-0.2,1.2-0.3,1.7c-0.2,0.5-0.4,0.9-0.7,1.3c-0.3,0.3-0.6,0.6-1,0.8c-0.4,0.2-0.9,0.3-1.4,0.3s-0.9-0.1-1.4-0.3
		c-0.4-0.2-0.8-0.5-1.1-0.9s-0.5-0.8-0.7-1.4C196.5,62.1,196.4,61.5,196.4,60.9z M197.9,60.7v0.2c0,0.4,0,0.8,0.1,1.2s0.2,0.7,0.4,1
		s0.4,0.5,0.7,0.7c0.3,0.2,0.6,0.2,1,0.2c0.5,0,0.9-0.1,1.2-0.3s0.6-0.5,0.8-0.8s0.3-0.7,0.4-1.1v-1.9c-0.1-0.3-0.2-0.6-0.3-0.8
		c-0.1-0.3-0.3-0.5-0.5-0.7s-0.4-0.4-0.7-0.5s-0.6-0.2-0.9-0.2c-0.4,0-0.7,0.1-1,0.2c-0.3,0.2-0.5,0.4-0.7,0.7s-0.3,0.6-0.4,1
		C197.9,59.9,197.9,60.3,197.9,60.7z M214.8,63.6v-4.4c0-0.3-0.1-0.6-0.2-0.9c-0.1-0.2-0.3-0.4-0.6-0.6c-0.3-0.1-0.6-0.2-1-0.2
		s-0.7,0.1-1,0.2c-0.3,0.1-0.5,0.3-0.6,0.5c-0.2,0.2-0.2,0.4-0.2,0.7h-1.4c0-0.3,0.1-0.6,0.2-0.9c0.2-0.3,0.4-0.6,0.7-0.8
		s0.7-0.4,1.1-0.6c0.4-0.1,0.9-0.2,1.4-0.2c0.6,0,1.2,0.1,1.6,0.3c0.5,0.2,0.8,0.5,1.1,0.9s0.4,0.9,0.4,1.6v3.9c0,0.3,0,0.6,0.1,0.9
		s0.1,0.6,0.2,0.8V65H215c-0.1-0.2-0.1-0.4-0.2-0.7C214.8,64.1,214.8,63.8,214.8,63.6z M215,59.9v1h-1.5c-0.4,0-0.8,0-1.1,0.1
		s-0.6,0.2-0.8,0.3s-0.4,0.3-0.5,0.5s-0.2,0.4-0.2,0.7s0.1,0.5,0.2,0.7c0.1,0.2,0.3,0.4,0.5,0.5s0.5,0.2,0.9,0.2s0.8-0.1,1.2-0.3
		c0.3-0.2,0.6-0.4,0.8-0.7s0.3-0.5,0.3-0.8l0.6,0.7c0,0.2-0.1,0.5-0.3,0.7c-0.2,0.3-0.4,0.5-0.6,0.8c-0.3,0.2-0.6,0.4-1,0.6
		s-0.8,0.2-1.2,0.2c-0.6,0-1.1-0.1-1.5-0.3c-0.4-0.2-0.8-0.5-1-0.9s-0.4-0.8-0.4-1.3s0.1-0.9,0.3-1.2s0.4-0.6,0.8-0.9
		c0.3-0.2,0.7-0.4,1.2-0.5s1-0.2,1.6-0.2h1.7V59.9z M223.7,63v-6.5h1.5V65h-1.4L223.7,63z M223.9,61.3h0.6c0,0.6-0.1,1.1-0.2,1.6
		c-0.1,0.5-0.3,0.9-0.6,1.2c-0.3,0.3-0.6,0.6-1,0.8c-0.4,0.2-0.9,0.3-1.5,0.3c-0.4,0-0.8-0.1-1.1-0.2s-0.6-0.3-0.9-0.6
		c-0.2-0.2-0.4-0.6-0.6-1c-0.1-0.4-0.2-0.9-0.2-1.4v-5.5h1.4V62c0,0.4,0,0.7,0.1,0.9s0.2,0.4,0.4,0.6c0.2,0.1,0.3,0.2,0.5,0.3
		s0.4,0.1,0.6,0.1c0.6,0,1.1-0.1,1.5-0.4c0.4-0.2,0.6-0.6,0.8-1C223.9,62.2,223.9,61.8,223.9,61.3z M232.6,63.4V53h1.5v12h-1.3
		L232.6,63.4z M227,60.9v-0.2c0-0.6,0.1-1.2,0.2-1.8c0.2-0.5,0.4-1,0.7-1.4s0.6-0.7,1.1-0.9c0.4-0.2,0.9-0.3,1.4-0.3s1,0.1,1.4,0.3
		s0.7,0.5,1,0.8s0.5,0.8,0.7,1.3s0.3,1.1,0.3,1.7v0.7c-0.1,0.6-0.2,1.2-0.3,1.7c-0.2,0.5-0.4,0.9-0.7,1.3c-0.3,0.3-0.6,0.6-1,0.8
		c-0.4,0.2-0.9,0.3-1.4,0.3s-0.9-0.1-1.4-0.3c-0.4-0.2-0.8-0.5-1.1-0.9s-0.5-0.8-0.7-1.4C227,62.1,227,61.5,227,60.9z M228.4,60.7
		v0.2c0,0.4,0,0.8,0.1,1.2s0.2,0.7,0.4,1s0.4,0.5,0.7,0.7c0.3,0.2,0.6,0.2,1,0.2c0.5,0,0.9-0.1,1.2-0.3s0.6-0.5,0.8-0.8
		s0.3-0.7,0.4-1.1v-1.9c-0.1-0.3-0.2-0.6-0.3-0.8c-0.1-0.3-0.3-0.5-0.5-0.7s-0.4-0.4-0.7-0.5s-0.6-0.2-0.9-0.2c-0.4,0-0.7,0.1-1,0.2
		c-0.3,0.2-0.5,0.4-0.7,0.7s-0.3,0.6-0.4,1C228.5,59.9,228.4,60.3,228.4,60.7z M237.9,56.5V65h-1.5v-8.5H237.9z M236.4,54.3
		c0-0.2,0.1-0.4,0.2-0.6c0.1-0.2,0.4-0.2,0.6-0.2c0.3,0,0.5,0.1,0.6,0.2c0.2,0.2,0.2,0.4,0.2,0.6c0,0.2-0.1,0.4-0.2,0.6
		c-0.1,0.2-0.4,0.2-0.6,0.2c-0.3,0-0.5-0.1-0.6-0.2C236.4,54.7,236.4,54.5,236.4,54.3z M239.9,60.9v-0.2c0-0.6,0.1-1.2,0.3-1.7
		s0.4-1,0.8-1.4c0.3-0.4,0.7-0.7,1.2-0.9s1-0.3,1.6-0.3s1.1,0.1,1.6,0.3s0.9,0.5,1.2,0.9s0.6,0.8,0.8,1.4c0.2,0.5,0.3,1.1,0.3,1.7
		v0.2c0,0.6-0.1,1.2-0.3,1.7s-0.4,1-0.8,1.4c-0.3,0.4-0.7,0.7-1.2,0.9c-0.5,0.2-1,0.3-1.6,0.3s-1.1-0.1-1.6-0.3
		c-0.5-0.2-0.9-0.5-1.2-0.9s-0.6-0.8-0.8-1.4S239.9,61.5,239.9,60.9z M241.3,60.7v0.2c0,0.4,0,0.8,0.1,1.2s0.2,0.7,0.4,1
		s0.5,0.5,0.8,0.7c0.3,0.2,0.7,0.2,1.1,0.2c0.4,0,0.7-0.1,1-0.2c0.3-0.2,0.6-0.4,0.8-0.7s0.3-0.6,0.4-1c0.1-0.4,0.2-0.8,0.2-1.2
		v-0.2c0-0.4-0.1-0.8-0.2-1.2c-0.1-0.4-0.2-0.7-0.5-1c-0.2-0.3-0.4-0.5-0.8-0.7c-0.3-0.2-0.6-0.2-1-0.2s-0.7,0.1-1,0.2
		c-0.3,0.2-0.5,0.4-0.8,0.7c-0.2,0.3-0.3,0.6-0.4,1C241.4,59.9,241.3,60.3,241.3,60.7z M252.5,61.8H251c0-0.5,0-0.9,0.1-1.2
		s0.2-0.6,0.4-0.9s0.5-0.6,0.8-0.9c0.2-0.2,0.5-0.5,0.7-0.7s0.4-0.5,0.5-0.7c0.1-0.3,0.2-0.6,0.2-0.9c0-0.4-0.1-0.7-0.2-0.9
		c-0.1-0.3-0.3-0.5-0.6-0.6c-0.2-0.1-0.5-0.2-0.9-0.2c-0.3,0-0.6,0.1-0.9,0.2c-0.3,0.1-0.5,0.3-0.7,0.5s-0.3,0.5-0.3,0.9h-1.4
		c0-0.6,0.2-1.1,0.4-1.5c0.3-0.4,0.7-0.7,1.2-1c0.5-0.2,1-0.3,1.6-0.3c0.7,0,1.2,0.1,1.7,0.4c0.5,0.2,0.8,0.6,1.1,1
		c0.2,0.4,0.4,1,0.4,1.6c0,0.5-0.1,0.9-0.3,1.3c-0.2,0.4-0.4,0.8-0.7,1.1s-0.6,0.7-0.9,1c-0.3,0.3-0.5,0.6-0.6,0.9
		C252.6,61.1,252.5,61.4,252.5,61.8z M251,64.3c0-0.2,0.1-0.4,0.2-0.6c0.1-0.2,0.4-0.2,0.6-0.2c0.3,0,0.5,0.1,0.6,0.2
		c0.1,0.2,0.2,0.4,0.2,0.6s-0.1,0.4-0.2,0.6c-0.1,0.2-0.4,0.2-0.6,0.2c-0.3,0-0.5-0.1-0.6-0.2C251.1,64.7,251,64.5,251,64.3z"/>
	<path fill="#0072F0" d="M90.4,113.1l1.7-6.6H93l-0.1,1.7l-1.8,6.8h-0.9L90.4,113.1z M89.1,106.5l1.4,6.6l0.1,2h-1l-2-8.5
		L89.1,106.5L89.1,106.5z M94.9,113l1.4-6.5h1.5l-2,8.5h-1L94.9,113z M93.3,106.5l1.7,6.6l0.2,1.9h-0.9l-1.8-6.8l-0.1-1.7H93.3z
		 M100.1,106v9h-1.4v-9H100.1z M99.8,111.6h-0.5c0-0.4,0.1-0.8,0.2-1.2c0.1-0.4,0.3-0.7,0.5-1s0.5-0.5,0.8-0.6
		c0.3-0.2,0.6-0.2,1-0.2c0.3,0,0.6,0,0.8,0.1c0.3,0.1,0.5,0.2,0.7,0.4c0.2,0.2,0.3,0.4,0.4,0.7c0.1,0.3,0.1,0.7,0.1,1.1v4.1h-1.4
		v-4.1c0-0.3,0-0.5-0.1-0.7s-0.2-0.3-0.4-0.4c-0.2-0.1-0.4-0.1-0.6-0.1c-0.3,0-0.5,0.1-0.7,0.2s-0.4,0.2-0.5,0.4s-0.2,0.4-0.3,0.6
		C99.9,111.1,99.8,111.3,99.8,111.6z M106.9,108.7v6.3h-1.4v-6.3H106.9z M105.4,107c0-0.2,0.1-0.4,0.2-0.5s0.3-0.2,0.6-0.2
		c0.2,0,0.4,0.1,0.6,0.2c0.1,0.1,0.2,0.3,0.2,0.5s-0.1,0.4-0.2,0.5s-0.3,0.2-0.6,0.2c-0.3,0-0.5-0.1-0.6-0.2
		C105.4,107.4,105.4,107.2,105.4,107z M109.9,106v9h-1.4v-9H109.9z M114.3,115.1c-0.5,0-0.9-0.1-1.3-0.2c-0.4-0.2-0.7-0.4-1-0.7
		c-0.3-0.3-0.5-0.6-0.6-1s-0.2-0.8-0.2-1.2v-0.2c0-0.5,0.1-0.9,0.2-1.3s0.3-0.7,0.6-1c0.3-0.3,0.6-0.5,0.9-0.7
		c0.4-0.2,0.7-0.2,1.1-0.2c0.5,0,0.8,0.1,1.2,0.2c0.3,0.2,0.6,0.4,0.8,0.6c0.2,0.3,0.4,0.6,0.5,1s0.2,0.8,0.2,1.3v0.6h-4.9v-1h3.5
		v-0.1c0-0.3-0.1-0.5-0.2-0.7s-0.2-0.4-0.4-0.5c-0.2-0.1-0.4-0.2-0.8-0.2c-0.2,0-0.4,0.1-0.6,0.2s-0.3,0.2-0.5,0.4
		c-0.1,0.2-0.2,0.4-0.3,0.7c-0.1,0.3-0.1,0.6-0.1,0.9v0.2c0,0.3,0,0.5,0.1,0.8c0.1,0.2,0.2,0.4,0.3,0.6c0.1,0.2,0.3,0.3,0.5,0.4
		s0.5,0.1,0.7,0.1c0.3,0,0.6-0.1,0.9-0.2s0.5-0.3,0.7-0.6l0.7,0.7c-0.1,0.2-0.3,0.4-0.5,0.6s-0.5,0.3-0.8,0.4
		C115,115.1,114.7,115.1,114.3,115.1z M124.7,113.5v-4.8h1.4v6.3h-1.3L124.7,113.5z M124.9,112.2h0.5c0,0.4,0,0.8-0.1,1.2
		c-0.1,0.4-0.2,0.7-0.4,0.9c-0.2,0.3-0.4,0.5-0.8,0.6c-0.3,0.1-0.7,0.2-1.1,0.2c-0.3,0-0.6,0-0.9-0.1s-0.5-0.2-0.7-0.4
		c-0.2-0.2-0.3-0.4-0.4-0.7c-0.1-0.3-0.2-0.7-0.2-1.1v-4.1h1.4v4.1c0,0.2,0,0.4,0.1,0.6s0.1,0.3,0.2,0.4s0.2,0.2,0.3,0.2
		s0.3,0.1,0.4,0.1c0.4,0,0.7-0.1,0.9-0.2c0.2-0.2,0.4-0.4,0.5-0.6C124.9,112.8,124.9,112.5,124.9,112.2z M131.1,113.3
		c0-0.1,0-0.3-0.1-0.4s-0.2-0.2-0.4-0.3c-0.2-0.1-0.5-0.2-0.9-0.3c-0.3-0.1-0.6-0.2-0.9-0.3c-0.3-0.1-0.5-0.2-0.7-0.4
		c-0.2-0.1-0.4-0.3-0.5-0.5s-0.2-0.4-0.2-0.7c0-0.3,0.1-0.5,0.2-0.7s0.3-0.4,0.5-0.6s0.5-0.3,0.8-0.4s0.6-0.2,1-0.2
		c0.5,0,1,0.1,1.4,0.3c0.4,0.2,0.7,0.4,0.9,0.7c0.2,0.3,0.3,0.6,0.3,1h-1.4c0-0.2,0-0.3-0.1-0.5c-0.1-0.1-0.2-0.3-0.4-0.4
		s-0.4-0.1-0.6-0.1c-0.2,0-0.4,0-0.6,0.1c-0.2,0.1-0.3,0.2-0.4,0.3c-0.1,0.1-0.1,0.3-0.1,0.4s0,0.2,0.1,0.3c0,0.1,0.1,0.2,0.2,0.2
		c0.1,0.1,0.2,0.1,0.4,0.2s0.4,0.1,0.6,0.2c0.5,0.1,0.9,0.2,1.2,0.4c0.4,0.2,0.6,0.4,0.8,0.6s0.3,0.6,0.3,0.9s-0.1,0.5-0.2,0.8
		c-0.1,0.2-0.3,0.4-0.5,0.6s-0.5,0.3-0.8,0.4s-0.7,0.1-1.1,0.1c-0.6,0-1.1-0.1-1.5-0.3c-0.4-0.2-0.7-0.5-0.9-0.8
		c-0.2-0.3-0.3-0.7-0.3-1h1.4c0,0.3,0.1,0.5,0.2,0.6c0.1,0.2,0.3,0.3,0.5,0.3c0.2,0.1,0.4,0.1,0.6,0.1c0.3,0,0.5,0,0.6-0.1
		c0.2-0.1,0.3-0.2,0.4-0.3C131.1,113.6,131.1,113.4,131.1,113.3z M135.3,108.7v6.3h-1.4v-6.3H135.3z M133.7,107
		c0-0.2,0.1-0.4,0.2-0.5c0.1-0.1,0.3-0.2,0.6-0.2c0.2,0,0.4,0.1,0.6,0.2c0.1,0.1,0.2,0.3,0.2,0.5s-0.1,0.4-0.2,0.5
		c-0.1,0.1-0.3,0.2-0.6,0.2s-0.5-0.1-0.6-0.2C133.8,107.4,133.7,107.2,133.7,107z M138.2,110v5h-1.4v-6.3h1.3L138.2,110z M138,111.6
		h-0.5c0-0.4,0.1-0.9,0.2-1.2c0.1-0.4,0.3-0.7,0.5-1s0.5-0.5,0.8-0.6s0.7-0.2,1-0.2s0.6,0,0.8,0.1s0.5,0.2,0.6,0.4
		c0.2,0.2,0.3,0.4,0.4,0.7c0.1,0.3,0.1,0.7,0.1,1.1v4.1h-1.4v-4.1c0-0.3,0-0.5-0.1-0.7s-0.2-0.3-0.4-0.4s-0.4-0.1-0.6-0.1
		c-0.2,0-0.5,0.1-0.7,0.2s-0.4,0.2-0.5,0.4c-0.1,0.2-0.2,0.4-0.3,0.6C138,111.1,138,111.3,138,111.6z M147.5,108.7h1.3v6.2
		c0,0.6-0.1,1.1-0.4,1.5c-0.2,0.4-0.6,0.7-1,0.9c-0.4,0.2-0.9,0.3-1.5,0.3c-0.2,0-0.5,0-0.8-0.1s-0.6-0.2-0.9-0.3
		c-0.3-0.2-0.5-0.4-0.7-0.6l0.7-0.8c0.2,0.3,0.5,0.5,0.8,0.6s0.6,0.2,0.9,0.2c0.3,0,0.6-0.1,0.8-0.2s0.4-0.3,0.5-0.5
		s0.2-0.5,0.2-0.8v-4.8L147.5,108.7z M143.2,111.9L143.2,111.9c0-0.6,0.1-1,0.2-1.4c0.1-0.4,0.3-0.7,0.5-1s0.5-0.5,0.8-0.7
		s0.7-0.2,1.1-0.2c0.4,0,0.8,0.1,1,0.2c0.3,0.1,0.5,0.4,0.7,0.6c0.2,0.3,0.3,0.6,0.5,1c0.1,0.4,0.2,0.8,0.3,1.3v0.4
		c-0.1,0.5-0.1,0.9-0.3,1.2c-0.1,0.4-0.3,0.7-0.5,1s-0.4,0.5-0.7,0.6s-0.6,0.2-1,0.2s-0.7-0.1-1-0.2c-0.3-0.2-0.6-0.4-0.8-0.7
		c-0.2-0.3-0.4-0.6-0.5-1C143.3,112.8,143.2,112.4,143.2,111.9z M144.7,111.8L144.7,111.8c0,0.4,0,0.7,0.1,0.9
		c0.1,0.2,0.1,0.5,0.3,0.7c0.1,0.2,0.3,0.3,0.5,0.4s0.4,0.2,0.7,0.2s0.6-0.1,0.8-0.2s0.4-0.3,0.5-0.6c0.1-0.2,0.2-0.5,0.2-0.8v-1.1
		c0-0.2-0.1-0.4-0.1-0.6c-0.1-0.2-0.2-0.4-0.3-0.5c-0.1-0.2-0.3-0.3-0.5-0.4s-0.4-0.1-0.7-0.1s-0.5,0.1-0.7,0.2s-0.3,0.3-0.5,0.5
		c-0.1,0.2-0.2,0.4-0.3,0.7C144.7,111.2,144.7,111.5,144.7,111.8z M156.2,108.7v1h-3.6v-1H156.2z M153.6,107.1h1.4v6.1
		c0,0.2,0,0.3,0.1,0.5c0.1,0.1,0.1,0.2,0.2,0.2c0.1,0,0.2,0.1,0.4,0.1c0.1,0,0.2,0,0.3,0s0.2,0,0.2,0v1.1c-0.1,0-0.3,0.1-0.4,0.1
		c-0.2,0-0.3,0-0.5,0c-0.3,0-0.6-0.1-0.9-0.2c-0.2-0.1-0.4-0.3-0.6-0.6c-0.1-0.3-0.2-0.6-0.2-1V107.1z M158.7,106v9h-1.4v-9H158.7z
		 M158.4,111.6h-0.5c0-0.4,0.1-0.8,0.2-1.2c0.1-0.4,0.3-0.7,0.5-1s0.5-0.5,0.8-0.6c0.3-0.2,0.6-0.2,1-0.2c0.3,0,0.6,0,0.8,0.1
		c0.3,0.1,0.5,0.2,0.7,0.4c0.2,0.2,0.3,0.4,0.4,0.7c0.1,0.3,0.1,0.7,0.1,1.1v4.1H161v-4.1c0-0.3,0-0.5-0.1-0.7s-0.2-0.3-0.4-0.4
		s-0.4-0.1-0.6-0.1c-0.3,0-0.5,0.1-0.7,0.2s-0.4,0.2-0.5,0.4c-0.1,0.2-0.2,0.4-0.3,0.6C158.5,111.1,158.4,111.3,158.4,111.6z
		 M166.7,115.1c-0.5,0-0.9-0.1-1.3-0.2c-0.4-0.2-0.7-0.4-1-0.7c-0.3-0.3-0.5-0.6-0.6-1s-0.2-0.8-0.2-1.2v-0.2c0-0.5,0.1-0.9,0.2-1.3
		c0.1-0.4,0.3-0.7,0.6-1s0.6-0.5,0.9-0.7c0.4-0.2,0.7-0.2,1.1-0.2c0.5,0,0.8,0.1,1.2,0.2c0.3,0.2,0.6,0.4,0.8,0.6
		c0.2,0.3,0.4,0.6,0.5,1s0.2,0.8,0.2,1.3v0.6h-4.9v-1h3.5v-0.1c0-0.3-0.1-0.5-0.2-0.7c-0.1-0.2-0.2-0.4-0.4-0.5s-0.4-0.2-0.8-0.2
		c-0.2,0-0.4,0.1-0.6,0.2c-0.2,0.1-0.3,0.2-0.5,0.4c-0.1,0.2-0.2,0.4-0.3,0.7c-0.1,0.3-0.1,0.6-0.1,0.9v0.2c0,0.3,0,0.5,0.1,0.8
		c0.1,0.2,0.2,0.4,0.3,0.6s0.3,0.3,0.5,0.4s0.5,0.1,0.7,0.1c0.3,0,0.6-0.1,0.9-0.2c0.3-0.1,0.5-0.3,0.7-0.6l0.7,0.7
		c-0.1,0.2-0.3,0.4-0.5,0.6s-0.5,0.3-0.8,0.4C167.5,115.1,167.2,115.1,166.7,115.1z M176.9,113.7v-3c0-0.2,0-0.4-0.1-0.6
		s-0.2-0.3-0.4-0.4s-0.4-0.1-0.6-0.1c-0.2,0-0.4,0-0.6,0.1s-0.3,0.2-0.4,0.3c-0.1,0.1-0.1,0.3-0.1,0.5h-1.4c0-0.2,0.1-0.5,0.2-0.7
		c0.1-0.2,0.3-0.4,0.5-0.6s0.5-0.3,0.8-0.4s0.7-0.2,1.1-0.2c0.5,0,0.9,0.1,1.3,0.2c0.4,0.2,0.7,0.4,0.9,0.7c0.2,0.3,0.3,0.7,0.3,1.2
		v2.8c0,0.3,0,0.5,0.1,0.8c0,0.2,0.1,0.4,0.2,0.6v0.1h-1.4c-0.1-0.2-0.1-0.3-0.2-0.6C177,114.2,176.9,114,176.9,113.7z M177.1,111.1
		v0.9h-1c-0.3,0-0.5,0-0.7,0.1c-0.2,0-0.4,0.1-0.5,0.2s-0.2,0.2-0.3,0.3c-0.1,0.1-0.1,0.3-0.1,0.5s0,0.3,0.1,0.5
		c0.1,0.1,0.2,0.2,0.3,0.3c0.2,0.1,0.3,0.1,0.5,0.1c0.3,0,0.5-0.1,0.8-0.2c0.2-0.1,0.4-0.3,0.5-0.4c0.1-0.2,0.2-0.3,0.2-0.5l0.5,0.6
		c0,0.2-0.1,0.3-0.2,0.5c-0.1,0.2-0.3,0.4-0.4,0.5c-0.2,0.2-0.4,0.3-0.7,0.4c-0.2,0.1-0.5,0.2-0.9,0.2s-0.8-0.1-1.1-0.2
		c-0.3-0.2-0.6-0.4-0.8-0.7c-0.2-0.3-0.3-0.6-0.3-1c0-0.3,0.1-0.6,0.2-0.9c0.1-0.3,0.3-0.5,0.6-0.7c0.2-0.2,0.6-0.3,0.9-0.4
		c0.4-0.1,0.8-0.1,1.2-0.1C175.9,111.1,177.1,111.1,177.1,111.1z M181.3,109.9v7.6h-1.4v-8.8h1.3L181.3,109.9z M185.4,111.8
		L185.4,111.8c0,0.6-0.1,1-0.2,1.4c-0.1,0.4-0.3,0.7-0.5,1s-0.5,0.5-0.8,0.7s-0.7,0.2-1.1,0.2c-0.4,0-0.7-0.1-1-0.2
		s-0.5-0.4-0.7-0.6c-0.2-0.3-0.4-0.6-0.5-0.9c-0.1-0.4-0.2-0.8-0.3-1.2v-0.5c0.1-0.5,0.1-0.9,0.3-1.3c0.1-0.4,0.3-0.7,0.5-1
		s0.5-0.5,0.7-0.6c0.3-0.1,0.6-0.2,1-0.2s0.8,0.1,1.1,0.2c0.3,0.2,0.6,0.4,0.8,0.7c0.2,0.3,0.4,0.6,0.5,1
		C185.3,110.8,185.4,111.3,185.4,111.8z M184,111.9L184,111.9c0-0.4,0-0.7-0.1-0.9c-0.1-0.3-0.1-0.5-0.3-0.7
		c-0.1-0.2-0.3-0.3-0.5-0.4s-0.4-0.2-0.7-0.2c-0.2,0-0.5,0-0.6,0.1c-0.2,0.1-0.3,0.2-0.5,0.3c-0.1,0.1-0.2,0.3-0.3,0.5
		s-0.1,0.4-0.1,0.6v1.1c0,0.3,0.1,0.5,0.2,0.8c0.1,0.2,0.3,0.4,0.5,0.6c0.2,0.1,0.5,0.2,0.8,0.2s0.5-0.1,0.7-0.2s0.3-0.3,0.4-0.5
		c0.1-0.2,0.2-0.4,0.3-0.7C183.9,112.4,184,112.2,184,111.9z M188,109.9v7.6h-1.4v-8.8h1.3L188,109.9z M192.1,111.8L192.1,111.8
		c0,0.6-0.1,1-0.2,1.4c-0.1,0.4-0.3,0.7-0.5,1s-0.5,0.5-0.8,0.7s-0.7,0.2-1.1,0.2c-0.4,0-0.7-0.1-1-0.2s-0.5-0.4-0.7-0.6
		c-0.2-0.3-0.4-0.6-0.5-0.9c-0.1-0.4-0.2-0.8-0.3-1.2v-0.5c0.1-0.5,0.1-0.9,0.3-1.3c0.1-0.4,0.3-0.7,0.5-1s0.5-0.5,0.7-0.6
		c0.3-0.1,0.6-0.2,1-0.2s0.8,0.1,1.1,0.2c0.3,0.2,0.6,0.4,0.8,0.7c0.2,0.3,0.4,0.6,0.5,1C192.1,110.8,192.1,111.3,192.1,111.8z
		 M190.7,111.9L190.7,111.9c0-0.4,0-0.7-0.1-0.9c-0.1-0.3-0.1-0.5-0.3-0.7c-0.1-0.2-0.3-0.3-0.5-0.4s-0.4-0.2-0.7-0.2
		c-0.2,0-0.5,0-0.6,0.1c-0.2,0.1-0.3,0.2-0.5,0.3c-0.1,0.1-0.2,0.3-0.3,0.5s-0.1,0.4-0.1,0.6v1.1c0,0.3,0.1,0.5,0.2,0.8
		c0.1,0.2,0.3,0.4,0.5,0.6c0.2,0.1,0.5,0.2,0.8,0.2s0.5-0.1,0.7-0.2s0.3-0.3,0.4-0.5c0.1-0.2,0.2-0.4,0.3-0.7
		C190.7,112.4,190.7,112.2,190.7,111.9z"/>
	<line fill="none" stroke="#E0E0E0" x1="0" y1="87.5" x2="280" y2="87.5"/>
	<path fill="#0072F0" d="M110.8,156.5v0.5c0,0.6-0.1,1.2-0.3,1.7c-0.2,0.5-0.4,0.9-0.7,1.3c-0.3,0.4-0.7,0.6-1.1,0.8
		s-0.9,0.3-1.4,0.3s-1-0.1-1.4-0.3s-0.8-0.5-1.1-0.8c-0.3-0.4-0.6-0.8-0.7-1.3c-0.2-0.5-0.3-1.1-0.3-1.7v-0.5c0-0.6,0.1-1.2,0.3-1.7
		c0.2-0.5,0.4-0.9,0.7-1.3c0.3-0.4,0.7-0.6,1.1-0.8s0.9-0.3,1.4-0.3s1,0.1,1.4,0.3s0.8,0.5,1.1,0.8c0.3,0.4,0.6,0.8,0.7,1.3
		C110.7,155.3,110.8,155.9,110.8,156.5z M109.3,157v-0.5c0-0.5,0-0.9-0.1-1.3c-0.1-0.4-0.2-0.7-0.4-0.9c-0.2-0.2-0.4-0.4-0.7-0.6
		c-0.3-0.1-0.5-0.2-0.9-0.2c-0.3,0-0.6,0.1-0.9,0.2c-0.3,0.1-0.5,0.3-0.6,0.6c-0.2,0.2-0.3,0.6-0.4,0.9c-0.1,0.4-0.1,0.8-0.1,1.3
		v0.5c0,0.5,0,0.9,0.1,1.3c0.1,0.4,0.2,0.7,0.4,0.9c0.2,0.2,0.4,0.4,0.7,0.6c0.3,0.1,0.5,0.2,0.9,0.2c0.3,0,0.6-0.1,0.9-0.2
		c0.3-0.1,0.5-0.3,0.6-0.6c0.2-0.3,0.3-0.6,0.4-0.9C109.3,157.9,109.3,157.4,109.3,157z M113.5,156v5h-1.4v-6.3h1.3L113.5,156z
		 M113.3,157.6h-0.5c0-0.4,0.1-0.9,0.2-1.2c0.1-0.4,0.3-0.7,0.5-1s0.5-0.5,0.8-0.6s0.7-0.2,1-0.2s0.6,0,0.8,0.1
		c0.2,0.1,0.5,0.2,0.6,0.4c0.2,0.2,0.3,0.4,0.4,0.7s0.1,0.7,0.1,1.1v4.1H116v-4.1c0-0.3,0-0.5-0.1-0.7s-0.2-0.3-0.4-0.4
		c-0.2-0.1-0.4-0.1-0.6-0.1s-0.5,0.1-0.6,0.2c-0.2,0.1-0.4,0.2-0.5,0.4s-0.2,0.4-0.3,0.6C113.3,157.1,113.3,157.3,113.3,157.6z
		 M120.3,152v9h-1.4v-9H120.3z M123.7,160.3l1.7-5.6h1.5l-2.5,7.3c-0.1,0.2-0.1,0.3-0.2,0.5s-0.2,0.4-0.4,0.5
		c-0.1,0.2-0.3,0.3-0.6,0.4c-0.2,0.1-0.5,0.2-0.8,0.2c-0.1,0-0.2,0-0.4,0c-0.1,0-0.2,0-0.3-0.1v-1.1h0.1c0.1,0,0.1,0,0.1,0
		c0.2,0,0.4,0,0.6-0.1s0.3-0.1,0.4-0.3c0.1-0.1,0.2-0.3,0.3-0.5L123.7,160.3z M122.8,154.7l1.5,4.7l0.3,1.5l-1,0.3l-2.3-6.5H122.8z
		 M133.7,154.7v1h-3.6v-1H133.7z M131.1,153.1h1.4v6.1c0,0.2,0,0.3,0.1,0.5c0.1,0.1,0.1,0.2,0.2,0.2c0.1,0,0.2,0.1,0.4,0.1
		c0.1,0,0.2,0,0.3,0s0.2,0,0.2,0v1.1c-0.1,0-0.3,0.1-0.4,0.1c-0.2,0-0.3,0-0.5,0c-0.3,0-0.6-0.1-0.9-0.2c-0.2-0.1-0.4-0.3-0.6-0.6
		c-0.1-0.3-0.2-0.6-0.2-1V153.1z M136.1,152v9h-1.4v-9H136.1z M135.9,157.6h-0.5c0-0.4,0.1-0.8,0.2-1.2c0.1-0.4,0.3-0.7,0.5-1
		s0.5-0.5,0.8-0.6c0.3-0.2,0.6-0.2,1-0.2c0.3,0,0.6,0,0.8,0.1c0.3,0.1,0.5,0.2,0.7,0.4s0.3,0.4,0.4,0.7c0.1,0.3,0.1,0.7,0.1,1.1v4.1
		h-1.4v-4.1c0-0.3,0-0.5-0.1-0.7s-0.2-0.3-0.4-0.4c-0.2-0.1-0.4-0.1-0.6-0.1c-0.3,0-0.5,0.1-0.7,0.2c-0.2,0.1-0.4,0.2-0.5,0.4
		s-0.2,0.4-0.3,0.6C135.9,157.1,135.9,157.3,135.9,157.6z M142.9,154.7v6.3h-1.4v-6.3H142.9z M141.4,153c0-0.2,0.1-0.4,0.2-0.5
		c0.1-0.1,0.3-0.2,0.6-0.2c0.2,0,0.4,0.1,0.6,0.2c0.1,0.1,0.2,0.3,0.2,0.5s-0.1,0.4-0.2,0.5c-0.1,0.1-0.3,0.2-0.6,0.2
		s-0.5-0.1-0.6-0.2C141.5,153.4,141.4,153.2,141.4,153z M148,159.3c0-0.1,0-0.3-0.1-0.4c-0.1-0.1-0.2-0.2-0.4-0.3s-0.5-0.2-0.9-0.3
		c-0.3-0.1-0.6-0.2-0.9-0.3c-0.3-0.1-0.5-0.2-0.7-0.4c-0.2-0.1-0.4-0.3-0.5-0.5s-0.2-0.4-0.2-0.7s0.1-0.5,0.2-0.7
		c0.1-0.2,0.3-0.4,0.5-0.6c0.2-0.2,0.5-0.3,0.8-0.4c0.3-0.1,0.6-0.2,1-0.2c0.5,0,1,0.1,1.4,0.3s0.7,0.4,0.9,0.7s0.3,0.6,0.3,1H148
		c0-0.2,0-0.3-0.1-0.5c-0.1-0.1-0.2-0.3-0.4-0.4c-0.2-0.1-0.4-0.1-0.6-0.1c-0.2,0-0.4,0-0.6,0.1c-0.2,0.1-0.3,0.2-0.4,0.3
		c-0.1,0.1-0.1,0.3-0.1,0.4c0,0.1,0,0.2,0.1,0.3c0,0.1,0.1,0.2,0.2,0.2c0.1,0.1,0.2,0.1,0.4,0.2c0.2,0.1,0.4,0.1,0.6,0.2
		c0.5,0.1,0.9,0.2,1.2,0.4c0.4,0.2,0.6,0.4,0.8,0.6c0.2,0.2,0.3,0.6,0.3,0.9c0,0.3-0.1,0.5-0.2,0.8c-0.1,0.2-0.3,0.4-0.5,0.6
		c-0.2,0.2-0.5,0.3-0.8,0.4c-0.3,0.1-0.7,0.1-1.1,0.1c-0.6,0-1.1-0.1-1.5-0.3s-0.7-0.5-0.9-0.8s-0.3-0.7-0.3-1h1.4
		c0,0.3,0.1,0.5,0.2,0.6c0.1,0.2,0.3,0.3,0.5,0.3c0.2,0.1,0.4,0.1,0.6,0.1c0.3,0,0.5,0,0.6-0.1c0.2-0.1,0.3-0.2,0.4-0.3
		C148,159.6,148,159.4,148,159.3z M156.5,154.7v1H153v-1H156.5z M154,153.1h1.4v6.1c0,0.2,0,0.3,0.1,0.5c0.1,0.1,0.1,0.2,0.2,0.2
		c0.1,0,0.2,0.1,0.4,0.1c0.1,0,0.2,0,0.3,0s0.2,0,0.2,0v1.1c-0.1,0-0.3,0.1-0.4,0.1c-0.2,0-0.3,0-0.5,0c-0.3,0-0.6-0.1-0.9-0.2
		c-0.2-0.1-0.4-0.3-0.6-0.6c-0.1-0.3-0.2-0.6-0.2-1V153.1z M159.1,154.7v6.3h-1.4v-6.3H159.1z M157.6,153c0-0.2,0.1-0.4,0.2-0.5
		c0.1-0.1,0.3-0.2,0.6-0.2c0.2,0,0.4,0.1,0.6,0.2c0.1,0.1,0.2,0.3,0.2,0.5s-0.1,0.4-0.2,0.5c-0.1,0.1-0.3,0.2-0.6,0.2
		s-0.5-0.1-0.6-0.2C157.7,153.4,157.6,153.2,157.6,153z M162.1,155.9v5.1h-1.4v-6.3h1.3L162.1,155.9z M161.9,157.6h-0.5
		c0-0.4,0.1-0.8,0.2-1.2c0.1-0.4,0.3-0.7,0.5-1s0.5-0.5,0.8-0.6c0.3-0.2,0.7-0.2,1.1-0.2c0.3,0,0.6,0,0.8,0.1s0.5,0.2,0.6,0.4
		c0.2,0.2,0.3,0.4,0.4,0.7c0.1,0.3,0.1,0.6,0.1,1v4.2h-1.4v-4.1c0-0.3,0-0.5-0.1-0.7s-0.2-0.3-0.4-0.4c-0.2-0.1-0.4-0.1-0.6-0.1
		c-0.3,0-0.5,0.1-0.7,0.2c-0.2,0.1-0.3,0.2-0.5,0.4c-0.1,0.2-0.2,0.4-0.3,0.6C161.9,157.1,161.9,157.3,161.9,157.6z M165.8,157.2
		l-0.7,0.1c0-0.4,0.1-0.7,0.2-1.1c0.1-0.3,0.3-0.6,0.5-0.9c0.2-0.3,0.5-0.5,0.8-0.6s0.7-0.2,1.1-0.2c0.3,0,0.6,0,0.9,0.1
		c0.3,0.1,0.5,0.2,0.7,0.4s0.3,0.4,0.4,0.7c0.1,0.3,0.1,0.7,0.1,1.1v4.1h-1.4v-4.1c0-0.3,0-0.6-0.1-0.7c-0.1-0.2-0.2-0.3-0.4-0.4
		c-0.2-0.1-0.4-0.1-0.6-0.1c-0.2,0-0.4,0-0.6,0.1c-0.2,0.1-0.3,0.2-0.4,0.3c-0.1,0.1-0.2,0.3-0.3,0.5
		C165.8,156.8,165.8,157,165.8,157.2z M173.9,161.1c-0.5,0-0.9-0.1-1.3-0.2c-0.4-0.2-0.7-0.4-1-0.7s-0.5-0.6-0.6-1s-0.2-0.8-0.2-1.2
		v-0.2c0-0.5,0.1-0.9,0.2-1.3c0.1-0.4,0.3-0.7,0.6-1s0.6-0.5,0.9-0.7c0.4-0.2,0.7-0.2,1.1-0.2c0.5,0,0.9,0.1,1.2,0.2
		c0.3,0.2,0.6,0.4,0.8,0.6c0.2,0.3,0.4,0.6,0.5,1s0.2,0.8,0.2,1.3v0.6h-4.9v-1h3.5v-0.1c0-0.3-0.1-0.5-0.2-0.7
		c-0.1-0.2-0.2-0.4-0.4-0.5s-0.4-0.2-0.8-0.2c-0.2,0-0.4,0.1-0.6,0.2c-0.2,0.1-0.3,0.2-0.5,0.4c-0.1,0.2-0.2,0.4-0.3,0.7
		s-0.1,0.6-0.1,0.9v0.2c0,0.3,0,0.5,0.1,0.8c0.1,0.2,0.2,0.4,0.3,0.6c0.1,0.2,0.3,0.3,0.5,0.4c0.2,0.1,0.5,0.1,0.7,0.1
		c0.3,0,0.6-0.1,0.9-0.2c0.3-0.1,0.5-0.3,0.7-0.6l0.7,0.7c-0.1,0.2-0.3,0.4-0.5,0.6c-0.2,0.2-0.5,0.3-0.8,0.4
		C174.7,161.1,174.4,161.1,173.9,161.1z"/>
	<line fill="none" stroke="#E0E0E0" x1="0" y1="133.5" x2="280" y2="133.5"/>
	<path fill="#0072F0" d="M129.9,207h-1.8v-1.2h1.8c0.5,0,1-0.1,1.3-0.3c0.4-0.2,0.6-0.6,0.8-1s0.3-0.9,0.3-1.5v-0.5
		c0-0.5-0.1-0.9-0.2-1.2c-0.1-0.4-0.3-0.7-0.5-0.9s-0.4-0.4-0.7-0.6c-0.3-0.1-0.6-0.2-1-0.2H128v-1.2h1.9c0.6,0,1.1,0.1,1.6,0.3
		s0.9,0.5,1.2,0.8c0.3,0.4,0.6,0.8,0.8,1.3s0.3,1,0.3,1.7v0.5c0,0.6-0.1,1.2-0.3,1.7s-0.4,0.9-0.8,1.3c-0.3,0.4-0.8,0.6-1.2,0.8
		C131,206.9,130.5,207,129.9,207z M128.9,198.5v8.5h-1.5v-8.5H128.9z M137.9,207.1c-0.5,0-0.9-0.1-1.3-0.2c-0.4-0.2-0.7-0.4-1-0.7
		s-0.5-0.6-0.6-1s-0.2-0.8-0.2-1.2v-0.2c0-0.5,0.1-0.9,0.2-1.3c0.1-0.4,0.3-0.7,0.6-1s0.6-0.5,0.9-0.7c0.4-0.2,0.7-0.2,1.1-0.2
		c0.5,0,0.9,0.1,1.2,0.2c0.3,0.2,0.6,0.4,0.8,0.6c0.2,0.3,0.4,0.6,0.5,1s0.2,0.8,0.2,1.3v0.6h-4.9v-1h3.5v-0.1
		c0-0.3-0.1-0.5-0.2-0.7c-0.1-0.2-0.2-0.4-0.4-0.5s-0.4-0.2-0.8-0.2c-0.2,0-0.4,0.1-0.6,0.2c-0.2,0.1-0.3,0.2-0.5,0.4
		c-0.1,0.2-0.2,0.4-0.3,0.7s-0.1,0.6-0.1,0.9v0.2c0,0.3,0,0.5,0.1,0.8c0.1,0.2,0.2,0.4,0.3,0.6c0.1,0.2,0.3,0.3,0.5,0.4
		c0.2,0.1,0.5,0.1,0.7,0.1c0.3,0,0.6-0.1,0.9-0.2c0.3-0.1,0.5-0.3,0.7-0.6l0.7,0.7c-0.1,0.2-0.3,0.4-0.5,0.6
		c-0.2,0.2-0.5,0.3-0.8,0.4C138.7,207.1,138.4,207.1,137.9,207.1z M143,202v5h-1.4v-6.3h1.3L143,202z M142.7,203.6h-0.5
		c0-0.4,0.1-0.9,0.2-1.2c0.1-0.4,0.3-0.7,0.5-1s0.5-0.5,0.8-0.6s0.7-0.2,1-0.2s0.6,0,0.8,0.1s0.5,0.2,0.6,0.4
		c0.2,0.2,0.3,0.4,0.4,0.7c0.1,0.3,0.1,0.7,0.1,1.1v4.1h-1.4v-4.1c0-0.3,0-0.5-0.1-0.7s-0.2-0.3-0.4-0.4c-0.2-0.1-0.4-0.1-0.6-0.1
		c-0.2,0-0.5,0.1-0.6,0.2c-0.2,0.1-0.4,0.2-0.5,0.4s-0.2,0.4-0.3,0.6C142.8,203.1,142.7,203.3,142.7,203.6z M150.1,206.3l1.7-5.6
		h1.5l-2.5,7.3c-0.1,0.2-0.1,0.3-0.2,0.5c-0.1,0.2-0.2,0.4-0.4,0.5c-0.1,0.2-0.3,0.3-0.6,0.4c-0.2,0.1-0.5,0.2-0.8,0.2
		c-0.1,0-0.2,0-0.4,0c-0.1,0-0.2,0-0.3-0.1v-1.1h0.1c0.1,0,0.1,0,0.1,0c0.2,0,0.4,0,0.6-0.1c0.2-0.1,0.3-0.1,0.4-0.3
		c0.1-0.1,0.2-0.3,0.3-0.5L150.1,206.3z M149.1,200.7l1.5,4.7l0.3,1.5l-1,0.3l-2.3-6.5H149.1z"/>
	<line fill="none" stroke="#E0E0E0" x1="0" y1="179.5" x2="280" y2="179.5"/>
</g>
</svg>
