<?xml version="1.0" encoding="utf-8"?>
<!-- Generator: Adobe Illustrator 27.2.0, SVG Export Plug-In . SVG Version: 6.00 Build 0)  -->
<svg version="1.1" id="Layer_1" xmlns="http://www.w3.org/2000/svg" xmlns:xlink="http://www.w3.org/1999/xlink" x="0px" y="0px"
	 viewBox="0 0 280 224" enable-background="new 0 0 280 224" xml:space="preserve">
<g>
	<path fill="#FFFFFF" d="M8,0h264c4.4,0,8,3.6,8,8v208c0,4.4-3.6,8-8,8H8c-4.4,0-8-3.6-8-8V8C0,3.6,3.6,0,8,0z"/>
	<g>
		<defs>
			<rect id="SVGID_1_" x="131" y="16" width="18" height="18"/>
		</defs>
		<clipPath id="SVGID_00000168115010561605485360000006364374895653292712_">
			<use xlink:href="#SVGID_1_"  overflow="visible"/>
		</clipPath>
		<g clip-path="url(#SVGID_00000168115010561605485360000006364374895653292712_)">
			<path fill="#0072F0" d="M146,20.5h-6l-1.5-1.5H134c-0.8,0-1.5,0.7-1.5,1.5l0,9c0,0.8,0.7,1.5,1.5,1.5h12c0.8,0,1.5-0.7,1.5-1.5
				V22C147.5,21.2,146.8,20.5,146,20.5z M146,29.5h-12V22h12V29.5z"/>
		</g>
	</g>
	<path fill="#212121" d="M52.8,54.6L49,65h-1.5l4.3-11.4h1L52.8,54.6z M55.9,65l-3.8-10.4l0-1h1L57.5,65H55.9z M55.8,60.8V62h-6.4
		v-1.2H55.8z M60.4,53v12h-1.5V53H60.4z M64.3,53v12h-1.5V53H64.3z M66.2,60.9v-0.2c0-0.6,0.1-1.2,0.3-1.7c0.2-0.5,0.4-1,0.8-1.4
		c0.3-0.4,0.7-0.7,1.2-0.9c0.5-0.2,1-0.3,1.6-0.3c0.6,0,1.1,0.1,1.6,0.3c0.5,0.2,0.9,0.5,1.2,0.9c0.3,0.4,0.6,0.8,0.8,1.4
		c0.2,0.5,0.3,1.1,0.3,1.7v0.2c0,0.6-0.1,1.2-0.3,1.7s-0.4,1-0.8,1.4c-0.3,0.4-0.7,0.7-1.2,0.9c-0.5,0.2-1,0.3-1.6,0.3
		c-0.6,0-1.1-0.1-1.6-0.3c-0.5-0.2-0.9-0.5-1.2-0.9c-0.3-0.4-0.6-0.8-0.8-1.4C66.3,62,66.2,61.5,66.2,60.9z M67.6,60.7v0.2
		c0,0.4,0,0.8,0.1,1.2c0.1,0.4,0.2,0.7,0.4,1c0.2,0.3,0.5,0.5,0.8,0.7c0.3,0.2,0.7,0.2,1.1,0.2c0.4,0,0.7-0.1,1-0.2
		c0.3-0.2,0.6-0.4,0.8-0.7c0.2-0.3,0.3-0.6,0.4-1c0.1-0.4,0.2-0.8,0.2-1.2v-0.2c0-0.4-0.1-0.8-0.2-1.2c-0.1-0.4-0.2-0.7-0.5-1
		c-0.2-0.3-0.4-0.5-0.8-0.7c-0.3-0.2-0.6-0.2-1-0.2c-0.4,0-0.7,0.1-1,0.2c-0.3,0.2-0.5,0.4-0.8,0.7c-0.2,0.3-0.3,0.6-0.4,1
		C67.7,59.9,67.6,60.3,67.6,60.7z M77.8,63.5l2.2-7h1l-0.2,1.4L78.6,65h-0.9L77.8,63.5z M76.4,56.5l1.9,7l0.1,1.4h-1l-2.5-8.5H76.4z
		 M83,63.5l1.8-7h1.4L83.8,65h-1L83,63.5z M81.2,56.5l2.1,6.8l0.2,1.6h-0.9l-2.3-7.1l-0.2-1.4H81.2z M94.1,53.6V65h-2.3V53.6H94.1z
		 M98.4,58.4V65h-2.2v-8.5h2.1L98.4,58.4z M98,60.5h-0.6c0-0.6,0.1-1.2,0.2-1.7c0.2-0.5,0.4-0.9,0.7-1.3c0.3-0.4,0.6-0.6,1-0.8
		c0.4-0.2,0.9-0.3,1.4-0.3c0.4,0,0.8,0.1,1.1,0.2c0.3,0.1,0.6,0.3,0.8,0.5c0.2,0.2,0.4,0.6,0.5,1c0.1,0.4,0.2,0.9,0.2,1.5V65h-2.3
		v-5.4c0-0.4-0.1-0.7-0.2-0.9c-0.1-0.2-0.3-0.4-0.5-0.4c-0.2-0.1-0.4-0.1-0.7-0.1c-0.3,0-0.6,0.1-0.8,0.2c-0.2,0.1-0.4,0.3-0.5,0.5
		c-0.1,0.2-0.2,0.5-0.3,0.7C98.1,59.9,98,60.2,98,60.5z M107.3,58.4V65h-2.2v-8.5h2.1L107.3,58.4z M107,60.5h-0.6
		c0-0.6,0.1-1.2,0.2-1.7c0.2-0.5,0.4-0.9,0.7-1.3c0.3-0.4,0.6-0.6,1-0.8c0.4-0.2,0.9-0.3,1.4-0.3c0.4,0,0.8,0.1,1.1,0.2
		c0.3,0.1,0.6,0.3,0.8,0.5c0.2,0.2,0.4,0.6,0.5,1c0.1,0.4,0.2,0.9,0.2,1.5V65h-2.3v-5.4c0-0.4-0.1-0.7-0.2-0.9
		c-0.1-0.2-0.3-0.4-0.5-0.4c-0.2-0.1-0.4-0.1-0.7-0.1c-0.3,0-0.6,0.1-0.8,0.2c-0.2,0.1-0.4,0.3-0.5,0.5c-0.1,0.2-0.2,0.5-0.3,0.7
		C107,59.9,107,60.2,107,60.5z M118,65.2c-0.7,0-1.2-0.1-1.8-0.3c-0.5-0.2-1-0.5-1.3-0.9c-0.4-0.4-0.6-0.8-0.8-1.3
		c-0.2-0.5-0.3-1-0.3-1.6v-0.3c0-0.6,0.1-1.2,0.3-1.8c0.2-0.5,0.4-1,0.8-1.4c0.3-0.4,0.8-0.7,1.2-0.9c0.5-0.2,1-0.3,1.7-0.3
		c0.6,0,1.1,0.1,1.6,0.3c0.5,0.2,0.9,0.5,1.2,0.8c0.3,0.4,0.6,0.8,0.7,1.3c0.2,0.5,0.2,1.1,0.2,1.7v0.9h-6.7V60h4.5v-0.2
		c0-0.3-0.1-0.6-0.2-0.8c-0.1-0.2-0.3-0.4-0.5-0.6c-0.2-0.1-0.5-0.2-0.9-0.2c-0.3,0-0.6,0.1-0.8,0.2c-0.2,0.1-0.4,0.3-0.5,0.5
		c-0.1,0.2-0.2,0.5-0.3,0.8c-0.1,0.3-0.1,0.7-0.1,1v0.3c0,0.3,0,0.7,0.1,0.9c0.1,0.3,0.2,0.5,0.4,0.7c0.2,0.2,0.4,0.4,0.7,0.5
		c0.3,0.1,0.6,0.2,0.9,0.2c0.4,0,0.8-0.1,1.1-0.2c0.4-0.2,0.7-0.4,0.9-0.7l1.1,1.2c-0.2,0.3-0.4,0.5-0.7,0.7
		c-0.3,0.2-0.7,0.4-1.1,0.6C119,65.1,118.5,65.2,118,65.2z M125,58.4V65h-2.2v-8.5h2.1L125,58.4z M127.5,56.5l0,2.1
		c-0.1,0-0.2,0-0.4,0c-0.2,0-0.3,0-0.4,0c-0.3,0-0.6,0-0.8,0.1c-0.2,0.1-0.4,0.2-0.6,0.4c-0.2,0.2-0.3,0.3-0.3,0.6
		c-0.1,0.2-0.1,0.5-0.1,0.8l-0.5-0.1c0-0.5,0.1-1,0.2-1.5c0.1-0.5,0.3-0.9,0.5-1.2c0.2-0.3,0.5-0.6,0.8-0.8c0.3-0.2,0.7-0.3,1.1-0.3
		c0.1,0,0.3,0,0.4,0C127.3,56.4,127.5,56.5,127.5,56.5z M133.1,56.5v1.6h-4.9v-1.6H133.1z M129.4,54.5h2.2v8c0,0.2,0,0.4,0.1,0.6
		c0.1,0.1,0.2,0.2,0.3,0.3c0.1,0,0.3,0.1,0.5,0.1c0.1,0,0.3,0,0.4,0c0.1,0,0.2,0,0.3,0l0,1.7c-0.2,0.1-0.4,0.1-0.6,0.1
		c-0.2,0-0.5,0.1-0.7,0.1c-0.5,0-0.9-0.1-1.3-0.2c-0.4-0.2-0.6-0.4-0.8-0.8c-0.2-0.4-0.3-0.8-0.3-1.4V54.5z M139.4,63v-6.4h2.2V65
		h-2.1L139.4,63z M139.7,61.2l0.7,0c0,0.6-0.1,1.1-0.2,1.6c-0.1,0.5-0.3,0.9-0.6,1.2c-0.3,0.3-0.6,0.6-1,0.8
		c-0.4,0.2-0.9,0.3-1.4,0.3c-0.4,0-0.8-0.1-1.1-0.2c-0.3-0.1-0.6-0.3-0.9-0.6c-0.2-0.3-0.4-0.6-0.6-1c-0.1-0.4-0.2-0.9-0.2-1.4v-5.5
		h2.2V62c0,0.2,0,0.5,0.1,0.6c0.1,0.2,0.1,0.3,0.3,0.4c0.1,0.1,0.2,0.2,0.4,0.2c0.2,0,0.3,0.1,0.5,0.1c0.5,0,0.8-0.1,1.1-0.3
		c0.3-0.2,0.5-0.4,0.6-0.8C139.6,62,139.7,61.6,139.7,61.2z M145.6,58.4V65h-2.2v-8.5h2.1L145.6,58.4z M145.3,60.5h-0.6
		c0-0.6,0.1-1.2,0.2-1.7c0.2-0.5,0.4-0.9,0.7-1.3c0.3-0.4,0.6-0.6,1-0.8c0.4-0.2,0.9-0.3,1.4-0.3c0.4,0,0.8,0.1,1.1,0.2
		c0.3,0.1,0.6,0.3,0.8,0.5c0.2,0.2,0.4,0.6,0.5,1c0.1,0.4,0.2,0.9,0.2,1.5V65h-2.3v-5.4c0-0.4-0.1-0.7-0.2-0.9
		c-0.1-0.2-0.3-0.4-0.5-0.4c-0.2-0.1-0.4-0.1-0.7-0.1c-0.3,0-0.6,0.1-0.8,0.2c-0.2,0.1-0.4,0.3-0.5,0.5c-0.1,0.2-0.2,0.5-0.3,0.7
		C145.3,59.9,145.3,60.2,145.3,60.5z M156.2,65.2c-0.7,0-1.2-0.1-1.8-0.3c-0.5-0.2-1-0.5-1.3-0.9c-0.4-0.4-0.6-0.8-0.8-1.3
		c-0.2-0.5-0.3-1-0.3-1.6v-0.3c0-0.6,0.1-1.2,0.3-1.8c0.2-0.5,0.4-1,0.8-1.4c0.3-0.4,0.8-0.7,1.2-0.9c0.5-0.2,1-0.3,1.7-0.3
		c0.6,0,1.1,0.1,1.6,0.3c0.5,0.2,0.9,0.5,1.2,0.8c0.3,0.4,0.6,0.8,0.7,1.3c0.2,0.5,0.2,1.1,0.2,1.7v0.9H153V60h4.5v-0.2
		c0-0.3-0.1-0.6-0.2-0.8c-0.1-0.2-0.3-0.4-0.5-0.6c-0.2-0.1-0.5-0.2-0.9-0.2c-0.3,0-0.6,0.1-0.8,0.2c-0.2,0.1-0.4,0.3-0.5,0.5
		c-0.1,0.2-0.2,0.5-0.3,0.8c-0.1,0.3-0.1,0.7-0.1,1v0.3c0,0.3,0,0.7,0.1,0.9c0.1,0.3,0.2,0.5,0.4,0.7c0.2,0.2,0.4,0.4,0.7,0.5
		c0.3,0.1,0.6,0.2,0.9,0.2c0.4,0,0.8-0.1,1.1-0.2c0.4-0.2,0.7-0.4,0.9-0.7l1.1,1.2c-0.2,0.3-0.4,0.5-0.7,0.7
		c-0.3,0.2-0.7,0.4-1.1,0.6C157.3,65.1,156.8,65.2,156.2,65.2z M168.7,56.5v1.1h-4.6v-1.1H168.7z M165.7,54.5h1.4v8.4
		c0,0.3,0,0.5,0.1,0.6c0.1,0.1,0.2,0.2,0.3,0.3c0.1,0,0.3,0.1,0.5,0.1c0.1,0,0.2,0,0.4,0c0.1,0,0.2,0,0.3-0.1l0,1.2
		c-0.1,0-0.3,0.1-0.5,0.1c-0.2,0-0.4,0.1-0.7,0.1c-0.4,0-0.7-0.1-1-0.2c-0.3-0.1-0.5-0.4-0.7-0.7c-0.2-0.3-0.3-0.8-0.3-1.3V54.5z
		 M169.9,60.9v-0.2c0-0.6,0.1-1.2,0.3-1.7c0.2-0.5,0.4-1,0.8-1.4c0.3-0.4,0.7-0.7,1.2-0.9c0.5-0.2,1-0.3,1.6-0.3
		c0.6,0,1.1,0.1,1.6,0.3c0.5,0.2,0.9,0.5,1.2,0.9c0.3,0.4,0.6,0.8,0.8,1.4c0.2,0.5,0.3,1.1,0.3,1.7v0.2c0,0.6-0.1,1.2-0.3,1.7
		s-0.4,1-0.8,1.4c-0.3,0.4-0.7,0.7-1.2,0.9c-0.5,0.2-1,0.3-1.6,0.3s-1.1-0.1-1.6-0.3c-0.5-0.2-0.9-0.5-1.2-0.9
		c-0.3-0.4-0.6-0.8-0.8-1.4S169.9,61.5,169.9,60.9z M171.3,60.7v0.2c0,0.4,0,0.8,0.1,1.2c0.1,0.4,0.2,0.7,0.4,1
		c0.2,0.3,0.5,0.5,0.8,0.7c0.3,0.2,0.7,0.2,1.1,0.2c0.4,0,0.7-0.1,1-0.2c0.3-0.2,0.6-0.4,0.8-0.7c0.2-0.3,0.3-0.6,0.4-1
		c0.1-0.4,0.2-0.8,0.2-1.2v-0.2c0-0.4-0.1-0.8-0.2-1.2c-0.1-0.4-0.2-0.7-0.5-1c-0.2-0.3-0.4-0.5-0.8-0.7c-0.3-0.2-0.6-0.2-1-0.2
		c-0.4,0-0.7,0.1-1,0.2c-0.3,0.2-0.5,0.4-0.8,0.7c-0.2,0.3-0.3,0.6-0.4,1C171.4,59.9,171.3,60.3,171.3,60.7z M188.4,63.6v-4.4
		c0-0.3-0.1-0.6-0.2-0.9c-0.1-0.2-0.3-0.4-0.6-0.6c-0.3-0.1-0.6-0.2-1-0.2c-0.4,0-0.7,0.1-1,0.2c-0.3,0.1-0.5,0.3-0.6,0.5
		c-0.2,0.2-0.2,0.4-0.2,0.7h-1.4c0-0.3,0.1-0.6,0.2-0.9c0.2-0.3,0.4-0.6,0.7-0.8c0.3-0.2,0.7-0.4,1.1-0.6c0.4-0.1,0.9-0.2,1.4-0.2
		c0.6,0,1.2,0.1,1.6,0.3c0.5,0.2,0.8,0.5,1.1,0.9c0.3,0.4,0.4,0.9,0.4,1.6v3.9c0,0.3,0,0.6,0.1,0.9c0.1,0.3,0.1,0.6,0.2,0.8V65h-1.5
		c-0.1-0.2-0.1-0.4-0.2-0.7C188.4,64.1,188.4,63.8,188.4,63.6z M188.6,59.9l0,1h-1.5c-0.4,0-0.8,0-1.1,0.1c-0.3,0.1-0.6,0.2-0.8,0.3
		c-0.2,0.1-0.4,0.3-0.5,0.5c-0.1,0.2-0.2,0.4-0.2,0.7c0,0.3,0.1,0.5,0.2,0.7c0.1,0.2,0.3,0.4,0.5,0.5c0.2,0.1,0.5,0.2,0.9,0.2
		c0.4,0,0.8-0.1,1.2-0.3c0.3-0.2,0.6-0.4,0.8-0.7c0.2-0.3,0.3-0.5,0.3-0.8l0.6,0.7c0,0.2-0.1,0.5-0.3,0.7c-0.2,0.3-0.4,0.5-0.6,0.8
		c-0.3,0.2-0.6,0.4-1,0.6c-0.4,0.2-0.8,0.2-1.2,0.2c-0.6,0-1.1-0.1-1.5-0.3c-0.4-0.2-0.8-0.5-1-0.9c-0.2-0.4-0.4-0.8-0.4-1.3
		c0-0.5,0.1-0.9,0.3-1.2c0.2-0.3,0.4-0.6,0.8-0.9c0.3-0.2,0.7-0.4,1.2-0.5c0.5-0.1,1-0.2,1.6-0.2H188.6z M195.5,64
		c0.3,0,0.7-0.1,1-0.2c0.3-0.1,0.5-0.3,0.7-0.6c0.2-0.2,0.3-0.5,0.3-0.9h1.4c0,0.5-0.2,1-0.5,1.4c-0.3,0.4-0.7,0.8-1.2,1
		c-0.5,0.3-1,0.4-1.6,0.4c-0.6,0-1.2-0.1-1.7-0.3c-0.5-0.2-0.9-0.5-1.2-0.9c-0.3-0.4-0.5-0.8-0.7-1.3c-0.2-0.5-0.2-1-0.2-1.6v-0.3
		c0-0.6,0.1-1.1,0.2-1.6c0.2-0.5,0.4-1,0.7-1.4c0.3-0.4,0.7-0.7,1.2-0.9c0.5-0.2,1-0.3,1.7-0.3c0.7,0,1.2,0.1,1.7,0.4
		c0.5,0.3,0.9,0.6,1.2,1.1c0.3,0.5,0.4,1,0.5,1.6h-1.4c0-0.3-0.1-0.7-0.3-0.9c-0.2-0.3-0.4-0.5-0.7-0.7c-0.3-0.2-0.6-0.3-1-0.3
		c-0.4,0-0.8,0.1-1.1,0.3c-0.3,0.2-0.5,0.4-0.7,0.7c-0.2,0.3-0.3,0.6-0.4,1c-0.1,0.4-0.1,0.7-0.1,1.1v0.3c0,0.4,0,0.7,0.1,1.1
		c0.1,0.4,0.2,0.7,0.4,1c0.2,0.3,0.4,0.5,0.7,0.7C194.6,63.9,195,64,195.5,64z M203.8,64c0.3,0,0.7-0.1,1-0.2
		c0.3-0.1,0.5-0.3,0.7-0.6c0.2-0.2,0.3-0.5,0.3-0.9h1.4c0,0.5-0.2,1-0.5,1.4c-0.3,0.4-0.7,0.8-1.2,1c-0.5,0.3-1,0.4-1.6,0.4
		c-0.6,0-1.2-0.1-1.7-0.3c-0.5-0.2-0.9-0.5-1.2-0.9c-0.3-0.4-0.5-0.8-0.7-1.3c-0.2-0.5-0.2-1-0.2-1.6v-0.3c0-0.6,0.1-1.1,0.2-1.6
		c0.2-0.5,0.4-1,0.7-1.4c0.3-0.4,0.7-0.7,1.2-0.9c0.5-0.2,1-0.3,1.7-0.3c0.7,0,1.2,0.1,1.7,0.4c0.5,0.3,0.9,0.6,1.2,1.1
		c0.3,0.5,0.4,1,0.5,1.6h-1.4c0-0.3-0.1-0.7-0.3-0.9c-0.2-0.3-0.4-0.5-0.7-0.7c-0.3-0.2-0.6-0.3-1-0.3c-0.4,0-0.8,0.1-1.1,0.3
		c-0.3,0.2-0.5,0.4-0.7,0.7c-0.2,0.3-0.3,0.6-0.4,1c-0.1,0.4-0.1,0.7-0.1,1.1v0.3c0,0.4,0,0.7,0.1,1.1c0.1,0.4,0.2,0.7,0.4,1
		c0.2,0.3,0.4,0.5,0.7,0.7C203,63.9,203.4,64,203.8,64z M212.3,65.2c-0.6,0-1.1-0.1-1.6-0.3c-0.5-0.2-0.9-0.5-1.2-0.9
		c-0.3-0.4-0.6-0.8-0.8-1.3c-0.2-0.5-0.3-1-0.3-1.6v-0.3c0-0.7,0.1-1.3,0.3-1.8c0.2-0.5,0.5-1,0.8-1.4s0.7-0.7,1.2-0.9
		c0.4-0.2,0.9-0.3,1.4-0.3c0.6,0,1.1,0.1,1.6,0.3c0.4,0.2,0.8,0.5,1.1,0.9c0.3,0.4,0.5,0.8,0.6,1.3c0.1,0.5,0.2,1,0.2,1.6v0.6h-6.3
		V60h4.9v-0.1c0-0.4-0.1-0.7-0.2-1.1c-0.1-0.4-0.3-0.6-0.6-0.9c-0.3-0.2-0.7-0.3-1.2-0.3c-0.3,0-0.6,0.1-0.9,0.2
		c-0.3,0.1-0.5,0.3-0.7,0.6c-0.2,0.3-0.4,0.6-0.5,1c-0.1,0.4-0.2,0.8-0.2,1.4v0.3c0,0.4,0.1,0.8,0.2,1.1c0.1,0.3,0.3,0.7,0.5,0.9
		c0.2,0.3,0.5,0.5,0.8,0.6c0.3,0.2,0.7,0.2,1.1,0.2c0.5,0,0.9-0.1,1.3-0.3c0.4-0.2,0.7-0.5,0.9-0.8l0.9,0.7
		c-0.2,0.3-0.4,0.5-0.7,0.8c-0.3,0.2-0.6,0.5-1,0.6C213.4,65.1,212.9,65.2,212.3,65.2z M222.2,62.8c0-0.2,0-0.4-0.1-0.6
		c-0.1-0.2-0.3-0.3-0.6-0.5c-0.3-0.2-0.7-0.3-1.2-0.4c-0.5-0.1-0.9-0.2-1.3-0.4c-0.4-0.1-0.7-0.3-1-0.5c-0.3-0.2-0.5-0.4-0.6-0.7
		c-0.1-0.3-0.2-0.6-0.2-0.9c0-0.3,0.1-0.6,0.2-0.9c0.2-0.3,0.4-0.6,0.6-0.8c0.3-0.2,0.6-0.4,1-0.5c0.4-0.1,0.8-0.2,1.3-0.2
		c0.7,0,1.3,0.1,1.7,0.4c0.5,0.2,0.8,0.6,1.1,1c0.3,0.4,0.4,0.8,0.4,1.3h-1.4c0-0.2-0.1-0.5-0.2-0.7c-0.1-0.2-0.3-0.4-0.6-0.6
		c-0.3-0.1-0.6-0.2-1-0.2c-0.4,0-0.7,0.1-1,0.2c-0.2,0.1-0.4,0.3-0.5,0.5c-0.1,0.2-0.2,0.4-0.2,0.6c0,0.2,0,0.3,0.1,0.4
		c0.1,0.1,0.2,0.2,0.3,0.3c0.1,0.1,0.3,0.2,0.6,0.3c0.3,0.1,0.6,0.2,1,0.3c0.7,0.2,1.3,0.3,1.7,0.6c0.4,0.2,0.8,0.5,1,0.8
		c0.2,0.3,0.3,0.7,0.3,1.2c0,0.4-0.1,0.7-0.2,1c-0.2,0.3-0.4,0.6-0.7,0.8c-0.3,0.2-0.6,0.4-1,0.5c-0.4,0.1-0.8,0.2-1.3,0.2
		c-0.7,0-1.4-0.1-1.9-0.4c-0.5-0.3-0.9-0.6-1.2-1c-0.3-0.4-0.4-0.9-0.4-1.3h1.5c0,0.4,0.1,0.7,0.3,0.9c0.2,0.2,0.5,0.4,0.8,0.5
		c0.3,0.1,0.6,0.1,0.9,0.1c0.4,0,0.7-0.1,1-0.2c0.3-0.1,0.5-0.2,0.6-0.4C222.2,63.2,222.2,63,222.2,62.8z M230.5,62.8
		c0-0.2,0-0.4-0.1-0.6c-0.1-0.2-0.3-0.3-0.6-0.5c-0.3-0.2-0.7-0.3-1.2-0.4c-0.5-0.1-0.9-0.2-1.3-0.4c-0.4-0.1-0.7-0.3-1-0.5
		c-0.3-0.2-0.5-0.4-0.6-0.7c-0.1-0.3-0.2-0.6-0.2-0.9c0-0.3,0.1-0.6,0.2-0.9c0.2-0.3,0.4-0.6,0.6-0.8c0.3-0.2,0.6-0.4,1-0.5
		c0.4-0.1,0.8-0.2,1.3-0.2c0.7,0,1.3,0.1,1.7,0.4s0.8,0.6,1.1,1c0.3,0.4,0.4,0.8,0.4,1.3h-1.4c0-0.2-0.1-0.5-0.2-0.7
		c-0.1-0.2-0.3-0.4-0.6-0.6c-0.3-0.1-0.6-0.2-1-0.2c-0.4,0-0.7,0.1-1,0.2c-0.2,0.1-0.4,0.3-0.5,0.5c-0.1,0.2-0.2,0.4-0.2,0.6
		c0,0.2,0,0.3,0.1,0.4c0.1,0.1,0.2,0.2,0.3,0.3c0.1,0.1,0.3,0.2,0.6,0.3c0.3,0.1,0.6,0.2,1,0.3c0.7,0.2,1.3,0.3,1.7,0.6
		s0.8,0.5,1,0.8c0.2,0.3,0.3,0.7,0.3,1.2c0,0.4-0.1,0.7-0.2,1c-0.2,0.3-0.4,0.6-0.7,0.8c-0.3,0.2-0.6,0.4-1,0.5
		c-0.4,0.1-0.8,0.2-1.3,0.2c-0.7,0-1.4-0.1-1.9-0.4c-0.5-0.3-0.9-0.6-1.2-1c-0.3-0.4-0.4-0.9-0.4-1.3h1.5c0,0.4,0.1,0.7,0.3,0.9
		c0.2,0.2,0.5,0.4,0.8,0.5c0.3,0.1,0.6,0.1,0.9,0.1c0.4,0,0.7-0.1,1-0.2c0.3-0.1,0.5-0.2,0.6-0.4C230.4,63.2,230.5,63,230.5,62.8z
		 M30.3,80.2v10.1h-1.5V78.5h1.3L30.3,80.2z M36,82.7v0.2c0,0.6-0.1,1.2-0.2,1.7c-0.1,0.5-0.4,1-0.6,1.4c-0.3,0.4-0.6,0.7-1,0.9
		c-0.4,0.2-0.9,0.3-1.4,0.3c-0.5,0-1-0.1-1.4-0.3c-0.4-0.2-0.8-0.4-1-0.8c-0.3-0.3-0.5-0.7-0.7-1.2c-0.2-0.5-0.3-1-0.3-1.6v-0.9
		c0.1-0.6,0.2-1.2,0.4-1.7c0.2-0.5,0.4-0.9,0.7-1.3c0.3-0.4,0.6-0.6,1-0.8c0.4-0.2,0.9-0.3,1.4-0.3c0.5,0,1,0.1,1.4,0.3
		c0.4,0.2,0.8,0.5,1,0.9c0.3,0.4,0.5,0.8,0.6,1.4C35.9,81.5,36,82.1,36,82.7z M34.5,82.9v-0.2c0-0.4,0-0.8-0.1-1.2
		c-0.1-0.4-0.2-0.7-0.4-1c-0.2-0.3-0.4-0.5-0.7-0.7c-0.3-0.2-0.6-0.2-1-0.2c-0.4,0-0.7,0.1-1,0.2c-0.3,0.1-0.5,0.3-0.7,0.5
		c-0.2,0.2-0.3,0.4-0.5,0.7c-0.1,0.3-0.2,0.5-0.3,0.8v2c0.1,0.4,0.2,0.7,0.4,1c0.2,0.3,0.4,0.6,0.8,0.8c0.3,0.2,0.7,0.3,1.2,0.3
		c0.4,0,0.7-0.1,1-0.2c0.3-0.2,0.5-0.4,0.7-0.7c0.2-0.3,0.3-0.6,0.4-1C34.5,83.7,34.5,83.3,34.5,82.9z M39.2,75v12h-1.4V75H39.2z
		 M38.9,82.5l-0.6,0c0-0.6,0.1-1.1,0.3-1.6c0.2-0.5,0.4-0.9,0.7-1.3c0.3-0.4,0.7-0.6,1.1-0.8c0.4-0.2,0.9-0.3,1.4-0.3
		c0.4,0,0.8,0.1,1.1,0.2c0.3,0.1,0.6,0.3,0.9,0.5c0.2,0.2,0.4,0.6,0.5,1c0.1,0.4,0.2,0.9,0.2,1.4V87H43v-5.6c0-0.4-0.1-0.8-0.2-1.1
		c-0.1-0.3-0.3-0.5-0.6-0.6c-0.2-0.1-0.6-0.2-0.9-0.2c-0.4,0-0.7,0.1-1,0.2c-0.3,0.2-0.5,0.4-0.8,0.6c-0.2,0.3-0.4,0.6-0.5,0.9
		C39,81.7,38.9,82.1,38.9,82.5z M46.2,82.9v-0.2c0-0.6,0.1-1.2,0.3-1.7c0.2-0.5,0.4-1,0.8-1.4c0.3-0.4,0.7-0.7,1.2-0.9
		c0.5-0.2,1-0.3,1.6-0.3c0.6,0,1.1,0.1,1.6,0.3c0.5,0.2,0.9,0.5,1.2,0.9c0.3,0.4,0.6,0.8,0.8,1.4c0.2,0.5,0.3,1.1,0.3,1.7v0.2
		c0,0.6-0.1,1.2-0.3,1.7c-0.2,0.5-0.4,1-0.8,1.4c-0.3,0.4-0.7,0.7-1.2,0.9c-0.5,0.2-1,0.3-1.6,0.3c-0.6,0-1.1-0.1-1.6-0.3
		c-0.5-0.2-0.9-0.5-1.2-0.9c-0.3-0.4-0.6-0.8-0.8-1.4C46.3,84,46.2,83.5,46.2,82.9z M47.7,82.7v0.2c0,0.4,0,0.8,0.1,1.2
		c0.1,0.4,0.2,0.7,0.4,1c0.2,0.3,0.5,0.5,0.8,0.7c0.3,0.2,0.7,0.2,1.1,0.2c0.4,0,0.7-0.1,1-0.2c0.3-0.2,0.6-0.4,0.8-0.7
		c0.2-0.3,0.3-0.6,0.4-1c0.1-0.4,0.2-0.8,0.2-1.2v-0.2c0-0.4-0.1-0.8-0.2-1.2c-0.1-0.4-0.2-0.7-0.5-1c-0.2-0.3-0.4-0.5-0.8-0.7
		c-0.3-0.2-0.6-0.2-1-0.2c-0.4,0-0.7,0.1-1,0.2c-0.3,0.2-0.5,0.4-0.8,0.7c-0.2,0.3-0.3,0.6-0.4,1C47.7,81.9,47.7,82.3,47.7,82.7z
		 M59.3,78.5v1.1h-4.6v-1.1H59.3z M56.2,76.5h1.4v8.4c0,0.3,0,0.5,0.1,0.6c0.1,0.1,0.2,0.2,0.3,0.3c0.1,0,0.3,0.1,0.5,0.1
		c0.1,0,0.2,0,0.4,0c0.1,0,0.2,0,0.3-0.1l0,1.2c-0.1,0-0.3,0.1-0.5,0.1c-0.2,0-0.4,0.1-0.7,0.1c-0.4,0-0.7-0.1-1-0.2
		c-0.3-0.1-0.5-0.4-0.7-0.7c-0.2-0.3-0.3-0.8-0.3-1.3V76.5z M60.4,82.9v-0.2c0-0.6,0.1-1.2,0.3-1.7c0.2-0.5,0.4-1,0.8-1.4
		c0.3-0.4,0.7-0.7,1.2-0.9c0.5-0.2,1-0.3,1.6-0.3c0.6,0,1.1,0.1,1.6,0.3c0.5,0.2,0.9,0.5,1.2,0.9c0.3,0.4,0.6,0.8,0.8,1.4
		c0.2,0.5,0.3,1.1,0.3,1.7v0.2c0,0.6-0.1,1.2-0.3,1.7s-0.4,1-0.8,1.4c-0.3,0.4-0.7,0.7-1.2,0.9c-0.5,0.2-1,0.3-1.6,0.3
		c-0.6,0-1.1-0.1-1.6-0.3c-0.5-0.2-0.9-0.5-1.2-0.9c-0.3-0.4-0.6-0.8-0.8-1.4C60.5,84,60.4,83.5,60.4,82.9z M61.9,82.7v0.2
		c0,0.4,0,0.8,0.1,1.2c0.1,0.4,0.2,0.7,0.4,1c0.2,0.3,0.5,0.5,0.8,0.7c0.3,0.2,0.7,0.2,1.1,0.2c0.4,0,0.7-0.1,1-0.2
		c0.3-0.2,0.6-0.4,0.8-0.7c0.2-0.3,0.3-0.6,0.4-1c0.1-0.4,0.2-0.8,0.2-1.2v-0.2c0-0.4-0.1-0.8-0.2-1.2c-0.1-0.4-0.2-0.7-0.5-1
		c-0.2-0.3-0.4-0.5-0.8-0.7c-0.3-0.2-0.6-0.2-1-0.2c-0.4,0-0.7,0.1-1,0.2c-0.3,0.2-0.5,0.4-0.8,0.7c-0.2,0.3-0.3,0.6-0.4,1
		C61.9,81.9,61.9,82.3,61.9,82.7z M74.9,84.8c0-0.2,0-0.4-0.1-0.6c-0.1-0.2-0.3-0.3-0.6-0.5c-0.3-0.2-0.7-0.3-1.2-0.4
		c-0.5-0.1-0.9-0.2-1.3-0.4c-0.4-0.1-0.7-0.3-1-0.5c-0.3-0.2-0.5-0.4-0.6-0.7c-0.1-0.3-0.2-0.6-0.2-0.9c0-0.3,0.1-0.6,0.2-0.9
		c0.2-0.3,0.4-0.6,0.6-0.8c0.3-0.2,0.6-0.4,1-0.5c0.4-0.1,0.8-0.2,1.3-0.2c0.7,0,1.3,0.1,1.7,0.4c0.5,0.2,0.8,0.6,1.1,1
		c0.3,0.4,0.4,0.8,0.4,1.3h-1.4c0-0.2-0.1-0.5-0.2-0.7c-0.1-0.2-0.3-0.4-0.6-0.6c-0.3-0.1-0.6-0.2-1-0.2c-0.4,0-0.7,0.1-1,0.2
		c-0.2,0.1-0.4,0.3-0.5,0.5c-0.1,0.2-0.2,0.4-0.2,0.6c0,0.2,0,0.3,0.1,0.4c0.1,0.1,0.2,0.2,0.3,0.3c0.1,0.1,0.3,0.2,0.6,0.3
		c0.3,0.1,0.6,0.2,1,0.3c0.7,0.2,1.3,0.3,1.7,0.6c0.4,0.2,0.8,0.5,1,0.8c0.2,0.3,0.3,0.7,0.3,1.2c0,0.4-0.1,0.7-0.2,1
		c-0.2,0.3-0.4,0.6-0.7,0.8c-0.3,0.2-0.6,0.4-1,0.5c-0.4,0.1-0.8,0.2-1.3,0.2c-0.7,0-1.4-0.1-1.9-0.4c-0.5-0.3-0.9-0.6-1.2-1
		c-0.3-0.4-0.4-0.9-0.4-1.3H71c0,0.4,0.1,0.7,0.3,0.9c0.2,0.2,0.5,0.4,0.8,0.5c0.3,0.1,0.6,0.1,0.9,0.1c0.4,0,0.7-0.1,1-0.2
		c0.3-0.1,0.5-0.2,0.6-0.4C74.8,85.2,74.9,85,74.9,84.8z M79.5,85.3v1.2c0,0.5-0.1,1-0.4,1.5c-0.2,0.5-0.6,1-1,1.3l-0.8-0.6
		c0.2-0.2,0.3-0.5,0.4-0.7c0.1-0.2,0.2-0.5,0.3-0.7c0.1-0.2,0.1-0.5,0.1-0.8v-1.2H79.5z M86.8,80.2V87h-1.5v-8.5h1.4L86.8,80.2z
		 M86.5,82.5l-0.7,0c0-0.6,0.1-1.1,0.2-1.6c0.1-0.5,0.4-0.9,0.6-1.3c0.3-0.4,0.6-0.6,1.1-0.8c0.4-0.2,0.9-0.3,1.5-0.3
		c0.4,0,0.8,0.1,1.1,0.2c0.3,0.1,0.6,0.3,0.9,0.5c0.2,0.2,0.4,0.5,0.6,0.9c0.1,0.4,0.2,0.8,0.2,1.4V87h-1.4v-5.6
		c0-0.4-0.1-0.8-0.2-1.1c-0.1-0.3-0.4-0.5-0.6-0.6c-0.3-0.1-0.6-0.2-1-0.2c-0.4,0-0.8,0.1-1.1,0.2c-0.3,0.2-0.5,0.4-0.7,0.6
		c-0.2,0.3-0.3,0.6-0.4,0.9C86.5,81.7,86.5,82.1,86.5,82.5z M91.9,81.7L91,82c0-0.5,0.1-0.9,0.2-1.3c0.2-0.4,0.4-0.8,0.6-1.1
		c0.3-0.3,0.6-0.6,1.1-0.8c0.4-0.2,0.9-0.3,1.4-0.3c0.5,0,0.9,0.1,1.2,0.2c0.4,0.1,0.7,0.3,0.9,0.6c0.2,0.2,0.4,0.6,0.6,0.9
		c0.1,0.4,0.2,0.8,0.2,1.4V87h-1.5v-5.6c0-0.5-0.1-0.8-0.2-1.1c-0.1-0.3-0.4-0.5-0.6-0.6c-0.3-0.1-0.6-0.2-1-0.2
		c-0.3,0-0.6,0.1-0.8,0.2c-0.2,0.1-0.4,0.3-0.6,0.5c-0.2,0.2-0.3,0.4-0.4,0.6C92,81.1,91.9,81.4,91.9,81.7z M102.9,87.2
		c-0.6,0-1.1-0.1-1.6-0.3c-0.5-0.2-0.9-0.5-1.2-0.9c-0.3-0.4-0.6-0.8-0.8-1.3c-0.2-0.5-0.3-1-0.3-1.6v-0.3c0-0.7,0.1-1.3,0.3-1.8
		c0.2-0.5,0.5-1,0.8-1.4c0.3-0.4,0.7-0.7,1.2-0.9c0.4-0.2,0.9-0.3,1.4-0.3c0.6,0,1.1,0.1,1.6,0.3c0.4,0.2,0.8,0.5,1.1,0.9
		c0.3,0.4,0.5,0.8,0.6,1.3c0.1,0.5,0.2,1,0.2,1.6v0.6h-6.3V82h4.9v-0.1c0-0.4-0.1-0.7-0.2-1.1c-0.1-0.4-0.3-0.6-0.6-0.9
		c-0.3-0.2-0.7-0.3-1.2-0.3c-0.3,0-0.6,0.1-0.9,0.2c-0.3,0.1-0.5,0.3-0.7,0.6c-0.2,0.3-0.4,0.6-0.5,1c-0.1,0.4-0.2,0.8-0.2,1.4v0.3
		c0,0.4,0.1,0.8,0.2,1.1c0.1,0.3,0.3,0.7,0.5,0.9c0.2,0.3,0.5,0.5,0.8,0.6c0.3,0.2,0.7,0.2,1.1,0.2c0.5,0,0.9-0.1,1.3-0.3
		c0.4-0.2,0.7-0.5,0.9-0.8l0.9,0.7c-0.2,0.3-0.4,0.5-0.7,0.8c-0.3,0.2-0.6,0.5-1,0.6C103.9,87.1,103.4,87.2,102.9,87.2z M113.2,85.4
		V75h1.5v12h-1.3L113.2,85.4z M107.5,82.9v-0.2c0-0.6,0.1-1.2,0.2-1.8c0.2-0.5,0.4-1,0.7-1.4c0.3-0.4,0.6-0.7,1.1-0.9
		c0.4-0.2,0.9-0.3,1.4-0.3c0.5,0,1,0.1,1.4,0.3c0.4,0.2,0.7,0.5,1,0.8c0.3,0.3,0.5,0.8,0.7,1.3c0.2,0.5,0.3,1.1,0.3,1.7v0.7
		c-0.1,0.6-0.2,1.2-0.3,1.7c-0.2,0.5-0.4,0.9-0.7,1.3c-0.3,0.3-0.6,0.6-1,0.8c-0.4,0.2-0.9,0.3-1.4,0.3c-0.5,0-0.9-0.1-1.4-0.3
		c-0.4-0.2-0.8-0.5-1.1-0.9c-0.3-0.4-0.5-0.8-0.7-1.4C107.6,84.1,107.5,83.5,107.5,82.9z M108.9,82.7v0.2c0,0.4,0,0.8,0.1,1.2
		c0.1,0.4,0.2,0.7,0.4,1c0.2,0.3,0.4,0.5,0.7,0.7c0.3,0.2,0.6,0.2,1,0.2c0.5,0,0.9-0.1,1.2-0.3c0.3-0.2,0.6-0.5,0.8-0.8
		c0.2-0.3,0.3-0.7,0.4-1.1v-1.9c-0.1-0.3-0.2-0.6-0.3-0.8c-0.1-0.3-0.3-0.5-0.5-0.7c-0.2-0.2-0.4-0.4-0.7-0.5
		c-0.3-0.1-0.6-0.2-0.9-0.2c-0.4,0-0.7,0.1-1,0.2c-0.3,0.2-0.5,0.4-0.7,0.7c-0.2,0.3-0.3,0.6-0.4,1C109,81.9,108.9,82.3,108.9,82.7z
		 M118.4,78.5V87H117v-8.5H118.4z M116.9,76.3c0-0.2,0.1-0.4,0.2-0.6c0.1-0.2,0.4-0.2,0.6-0.2c0.3,0,0.5,0.1,0.6,0.2
		c0.2,0.2,0.2,0.4,0.2,0.6c0,0.2-0.1,0.4-0.2,0.6c-0.1,0.2-0.4,0.2-0.6,0.2c-0.3,0-0.5-0.1-0.6-0.2C117,76.7,116.9,76.5,116.9,76.3z
		 M125.8,85.6v-4.4c0-0.3-0.1-0.6-0.2-0.9c-0.1-0.2-0.3-0.4-0.6-0.6c-0.3-0.1-0.6-0.2-1-0.2c-0.4,0-0.7,0.1-1,0.2
		c-0.3,0.1-0.5,0.3-0.6,0.5c-0.2,0.2-0.2,0.4-0.2,0.7h-1.4c0-0.3,0.1-0.6,0.2-0.9c0.2-0.3,0.4-0.6,0.7-0.8c0.3-0.2,0.7-0.4,1.1-0.6
		c0.4-0.1,0.9-0.2,1.4-0.2c0.6,0,1.2,0.1,1.6,0.3c0.5,0.2,0.8,0.5,1.1,0.9c0.3,0.4,0.4,0.9,0.4,1.6v3.9c0,0.3,0,0.6,0.1,0.9
		c0.1,0.3,0.1,0.6,0.2,0.8V87H126c-0.1-0.2-0.1-0.4-0.2-0.7C125.8,86.1,125.8,85.8,125.8,85.6z M126,81.9l0,1h-1.5
		c-0.4,0-0.8,0-1.1,0.1c-0.3,0.1-0.6,0.2-0.8,0.3c-0.2,0.1-0.4,0.3-0.5,0.5c-0.1,0.2-0.2,0.4-0.2,0.7c0,0.3,0.1,0.5,0.2,0.7
		c0.1,0.2,0.3,0.4,0.5,0.5c0.2,0.1,0.5,0.2,0.9,0.2c0.4,0,0.8-0.1,1.2-0.3c0.3-0.2,0.6-0.4,0.8-0.7c0.2-0.3,0.3-0.5,0.3-0.8l0.6,0.7
		c0,0.2-0.1,0.5-0.3,0.7c-0.2,0.3-0.4,0.5-0.6,0.8c-0.3,0.2-0.6,0.4-1,0.6c-0.4,0.2-0.8,0.2-1.2,0.2c-0.6,0-1.1-0.1-1.5-0.3
		c-0.4-0.2-0.8-0.5-1-0.9c-0.2-0.4-0.4-0.8-0.4-1.3c0-0.5,0.1-0.9,0.3-1.2c0.2-0.3,0.4-0.6,0.8-0.9c0.3-0.2,0.7-0.4,1.2-0.5
		c0.5-0.1,1-0.2,1.6-0.2H126z M130.8,85.3v1.2c0,0.5-0.1,1-0.4,1.5c-0.2,0.5-0.6,1-1,1.3l-0.8-0.6c0.2-0.2,0.3-0.5,0.4-0.7
		c0.1-0.2,0.2-0.5,0.3-0.7c0.1-0.2,0.1-0.5,0.1-0.8v-1.2H130.8z M141.6,85.6v-4.4c0-0.3-0.1-0.6-0.2-0.9c-0.1-0.2-0.3-0.4-0.6-0.6
		c-0.3-0.1-0.6-0.2-1-0.2c-0.4,0-0.7,0.1-1,0.2c-0.3,0.1-0.5,0.3-0.6,0.5c-0.2,0.2-0.2,0.4-0.2,0.7h-1.4c0-0.3,0.1-0.6,0.2-0.9
		c0.2-0.3,0.4-0.6,0.7-0.8c0.3-0.2,0.7-0.4,1.1-0.6c0.4-0.1,0.9-0.2,1.4-0.2c0.6,0,1.2,0.1,1.6,0.3c0.5,0.2,0.8,0.5,1.1,0.9
		c0.3,0.4,0.4,0.9,0.4,1.6v3.9c0,0.3,0,0.6,0.1,0.9c0.1,0.3,0.1,0.6,0.2,0.8V87h-1.5c-0.1-0.2-0.1-0.4-0.2-0.7
		C141.6,86.1,141.6,85.8,141.6,85.6z M141.8,81.9l0,1h-1.5c-0.4,0-0.8,0-1.1,0.1c-0.3,0.1-0.6,0.2-0.8,0.3c-0.2,0.1-0.4,0.3-0.5,0.5
		c-0.1,0.2-0.2,0.4-0.2,0.7c0,0.3,0.1,0.5,0.2,0.7c0.1,0.2,0.3,0.4,0.5,0.5c0.2,0.1,0.5,0.2,0.9,0.2c0.4,0,0.8-0.1,1.2-0.3
		c0.3-0.2,0.6-0.4,0.8-0.7c0.2-0.3,0.3-0.5,0.3-0.8l0.6,0.7c0,0.2-0.1,0.5-0.3,0.7c-0.2,0.3-0.4,0.5-0.6,0.8c-0.3,0.2-0.6,0.4-1,0.6
		c-0.4,0.2-0.8,0.2-1.2,0.2c-0.6,0-1.1-0.1-1.5-0.3c-0.4-0.2-0.8-0.5-1-0.9c-0.2-0.4-0.4-0.8-0.4-1.3c0-0.5,0.1-0.9,0.3-1.2
		c0.2-0.3,0.4-0.6,0.8-0.9c0.3-0.2,0.7-0.4,1.2-0.5c0.5-0.1,1-0.2,1.6-0.2H141.8z M146.7,80.4V87h-1.4v-8.5h1.4L146.7,80.4z
		 M146.4,82.5l-0.6,0c0-0.6,0.1-1.1,0.3-1.6c0.2-0.5,0.4-0.9,0.7-1.3c0.3-0.4,0.7-0.6,1.1-0.8c0.4-0.2,0.9-0.3,1.4-0.3
		c0.4,0,0.8,0.1,1.1,0.2c0.3,0.1,0.6,0.3,0.9,0.5c0.2,0.2,0.4,0.6,0.5,1c0.1,0.4,0.2,0.9,0.2,1.4V87h-1.5v-5.6
		c0-0.4-0.1-0.8-0.2-1.1c-0.1-0.3-0.3-0.5-0.6-0.6c-0.2-0.1-0.6-0.2-0.9-0.2c-0.4,0-0.7,0.1-1,0.2c-0.3,0.2-0.5,0.4-0.8,0.6
		c-0.2,0.3-0.4,0.6-0.5,0.9C146.5,81.7,146.4,82.1,146.4,82.5z M159.5,85.4V75h1.5v12h-1.3L159.5,85.4z M153.8,82.9v-0.2
		c0-0.6,0.1-1.2,0.2-1.8c0.2-0.5,0.4-1,0.7-1.4c0.3-0.4,0.6-0.7,1.1-0.9c0.4-0.2,0.9-0.3,1.4-0.3c0.5,0,1,0.1,1.4,0.3
		c0.4,0.2,0.7,0.5,1,0.8c0.3,0.3,0.5,0.8,0.7,1.3c0.2,0.5,0.3,1.1,0.3,1.7v0.7c-0.1,0.6-0.2,1.2-0.3,1.7c-0.2,0.5-0.4,0.9-0.7,1.3
		c-0.3,0.3-0.6,0.6-1,0.8c-0.4,0.2-0.9,0.3-1.4,0.3c-0.5,0-0.9-0.1-1.4-0.3c-0.4-0.2-0.8-0.5-1.1-0.9c-0.3-0.4-0.5-0.8-0.7-1.4
		C153.9,84.1,153.8,83.5,153.8,82.9z M155.2,82.7v0.2c0,0.4,0,0.8,0.1,1.2c0.1,0.4,0.2,0.7,0.4,1c0.2,0.3,0.4,0.5,0.7,0.7
		c0.3,0.2,0.6,0.2,1,0.2c0.5,0,0.9-0.1,1.2-0.3c0.3-0.2,0.6-0.5,0.8-0.8c0.2-0.3,0.3-0.7,0.4-1.1v-1.9c-0.1-0.3-0.2-0.6-0.3-0.8
		c-0.1-0.3-0.3-0.5-0.5-0.7c-0.2-0.2-0.4-0.4-0.7-0.5c-0.3-0.1-0.6-0.2-0.9-0.2c-0.4,0-0.7,0.1-1,0.2c-0.3,0.2-0.5,0.4-0.7,0.7
		c-0.2,0.3-0.3,0.6-0.4,1C155.3,81.9,155.2,82.3,155.2,82.7z M169.1,87h-1.4v-9.2c0-0.6,0.1-1.2,0.4-1.6s0.6-0.8,1.1-1
		c0.5-0.2,1-0.3,1.6-0.3c0.4,0,0.7,0,1.1,0.1c0.4,0.1,0.7,0.2,1.1,0.3l-0.2,1.2c-0.2-0.1-0.5-0.2-0.8-0.3c-0.3-0.1-0.7-0.1-1-0.1
		c-0.6,0-1.1,0.1-1.3,0.4c-0.3,0.3-0.4,0.7-0.4,1.3V87z M170.8,78.5v1.1h-4.5v-1.1H170.8z M173.6,78.5V87h-1.4v-8.5H173.6z
		 M177.6,75v12h-1.5V75H177.6z M183.4,87.2c-0.6,0-1.1-0.1-1.6-0.3c-0.5-0.2-0.9-0.5-1.2-0.9c-0.3-0.4-0.6-0.8-0.8-1.3
		c-0.2-0.5-0.3-1-0.3-1.6v-0.3c0-0.7,0.1-1.3,0.3-1.8c0.2-0.5,0.5-1,0.8-1.4s0.7-0.7,1.2-0.9c0.4-0.2,0.9-0.3,1.4-0.3
		c0.6,0,1.1,0.1,1.6,0.3c0.4,0.2,0.8,0.5,1.1,0.9c0.3,0.4,0.5,0.8,0.6,1.3c0.1,0.5,0.2,1,0.2,1.6v0.6h-6.3V82h4.9v-0.1
		c0-0.4-0.1-0.7-0.2-1.1c-0.1-0.4-0.3-0.6-0.6-0.9c-0.3-0.2-0.7-0.3-1.2-0.3c-0.3,0-0.6,0.1-0.9,0.2c-0.3,0.1-0.5,0.3-0.7,0.6
		c-0.2,0.3-0.4,0.6-0.5,1c-0.1,0.4-0.2,0.8-0.2,1.4v0.3c0,0.4,0.1,0.8,0.2,1.1c0.1,0.3,0.3,0.7,0.5,0.9c0.2,0.3,0.5,0.5,0.8,0.6
		c0.3,0.2,0.7,0.2,1.1,0.2c0.5,0,0.9-0.1,1.3-0.3c0.4-0.2,0.7-0.5,0.9-0.8l0.9,0.7c-0.2,0.3-0.4,0.5-0.7,0.8c-0.3,0.2-0.6,0.5-1,0.6
		C184.5,87.1,184,87.2,183.4,87.2z M193.3,84.8c0-0.2,0-0.4-0.1-0.6c-0.1-0.2-0.3-0.3-0.6-0.5c-0.3-0.2-0.7-0.3-1.2-0.4
		c-0.5-0.1-0.9-0.2-1.3-0.4c-0.4-0.1-0.7-0.3-1-0.5c-0.3-0.2-0.5-0.4-0.6-0.7c-0.1-0.3-0.2-0.6-0.2-0.9c0-0.3,0.1-0.6,0.2-0.9
		c0.2-0.3,0.4-0.6,0.6-0.8c0.3-0.2,0.6-0.4,1-0.5c0.4-0.1,0.8-0.2,1.3-0.2c0.7,0,1.3,0.1,1.7,0.4c0.5,0.2,0.8,0.6,1.1,1
		c0.3,0.4,0.4,0.8,0.4,1.3h-1.4c0-0.2-0.1-0.5-0.2-0.7c-0.1-0.2-0.3-0.4-0.6-0.6c-0.3-0.1-0.6-0.2-1-0.2c-0.4,0-0.7,0.1-1,0.2
		c-0.2,0.1-0.4,0.3-0.5,0.5c-0.1,0.2-0.2,0.4-0.2,0.6c0,0.2,0,0.3,0.1,0.4c0.1,0.1,0.2,0.2,0.3,0.3c0.1,0.1,0.3,0.2,0.6,0.3
		c0.3,0.1,0.6,0.2,1,0.3c0.7,0.2,1.3,0.3,1.7,0.6c0.4,0.2,0.8,0.5,1,0.8c0.2,0.3,0.3,0.7,0.3,1.2c0,0.4-0.1,0.7-0.2,1
		c-0.2,0.3-0.4,0.6-0.7,0.8c-0.3,0.2-0.6,0.4-1,0.5c-0.4,0.1-0.8,0.2-1.3,0.2c-0.7,0-1.4-0.1-1.9-0.4c-0.5-0.3-0.9-0.6-1.2-1
		c-0.3-0.4-0.4-0.9-0.4-1.3h1.5c0,0.4,0.1,0.7,0.3,0.9c0.2,0.2,0.5,0.4,0.8,0.5c0.3,0.1,0.6,0.1,0.9,0.1c0.4,0,0.7-0.1,1-0.2
		c0.3-0.1,0.5-0.2,0.6-0.4C193.2,85.2,193.3,85,193.3,84.8z M200.2,82.9v-0.2c0-0.6,0.1-1.2,0.3-1.7c0.2-0.5,0.4-1,0.8-1.4
		c0.3-0.4,0.7-0.7,1.2-0.9c0.5-0.2,1-0.3,1.6-0.3c0.6,0,1.1,0.1,1.6,0.3c0.5,0.2,0.9,0.5,1.2,0.9c0.3,0.4,0.6,0.8,0.8,1.4
		c0.2,0.5,0.3,1.1,0.3,1.7v0.2c0,0.6-0.1,1.2-0.3,1.7s-0.4,1-0.8,1.4c-0.3,0.4-0.7,0.7-1.2,0.9c-0.5,0.2-1,0.3-1.6,0.3
		c-0.6,0-1.1-0.1-1.6-0.3c-0.5-0.2-0.9-0.5-1.2-0.9c-0.3-0.4-0.6-0.8-0.8-1.4S200.2,83.5,200.2,82.9z M201.7,82.7v0.2
		c0,0.4,0,0.8,0.1,1.2c0.1,0.4,0.2,0.7,0.4,1c0.2,0.3,0.5,0.5,0.8,0.7c0.3,0.2,0.7,0.2,1.1,0.2c0.4,0,0.7-0.1,1-0.2
		c0.3-0.2,0.6-0.4,0.8-0.7c0.2-0.3,0.3-0.6,0.4-1c0.1-0.4,0.2-0.8,0.2-1.2v-0.2c0-0.4-0.1-0.8-0.2-1.2c-0.1-0.4-0.2-0.7-0.5-1
		c-0.2-0.3-0.4-0.5-0.8-0.7c-0.3-0.2-0.6-0.2-1-0.2c-0.4,0-0.7,0.1-1,0.2c-0.3,0.2-0.5,0.4-0.8,0.7c-0.2,0.3-0.3,0.6-0.4,1
		C201.7,81.9,201.7,82.3,201.7,82.7z M211.2,80.4V87h-1.4v-8.5h1.4L211.2,80.4z M210.9,82.5l-0.6,0c0-0.6,0.1-1.1,0.3-1.6
		c0.2-0.5,0.4-0.9,0.7-1.3c0.3-0.4,0.7-0.6,1.1-0.8c0.4-0.2,0.9-0.3,1.4-0.3c0.4,0,0.8,0.1,1.1,0.2c0.3,0.1,0.6,0.3,0.9,0.5
		c0.2,0.2,0.4,0.6,0.5,1c0.1,0.4,0.2,0.9,0.2,1.4V87h-1.5v-5.6c0-0.4-0.1-0.8-0.2-1.1c-0.1-0.3-0.3-0.5-0.6-0.6
		c-0.2-0.1-0.6-0.2-0.9-0.2c-0.4,0-0.7,0.1-1,0.2c-0.3,0.2-0.5,0.4-0.8,0.6c-0.2,0.3-0.4,0.6-0.5,0.9
		C210.9,81.7,210.9,82.1,210.9,82.5z M224.9,86.1l2.4-7.6h1.5l-3.4,9.8c-0.1,0.2-0.2,0.4-0.3,0.7c-0.1,0.2-0.3,0.5-0.5,0.7
		c-0.2,0.2-0.4,0.4-0.7,0.5c-0.3,0.1-0.6,0.2-1,0.2c-0.1,0-0.3,0-0.4,0c-0.2,0-0.3-0.1-0.4-0.1l0-1.2c0,0,0.1,0,0.2,0
		c0.1,0,0.2,0,0.2,0c0.3,0,0.6,0,0.8-0.1c0.2-0.1,0.4-0.2,0.6-0.4c0.2-0.2,0.3-0.5,0.4-0.8L224.9,86.1z M223.2,78.5l2.2,6.6l0.4,1.5
		l-1,0.5l-3.1-8.6H223.2z M229.6,82.9v-0.2c0-0.6,0.1-1.2,0.3-1.7c0.2-0.5,0.4-1,0.8-1.4c0.3-0.4,0.7-0.7,1.2-0.9
		c0.5-0.2,1-0.3,1.6-0.3c0.6,0,1.1,0.1,1.6,0.3c0.5,0.2,0.9,0.5,1.2,0.9c0.3,0.4,0.6,0.8,0.8,1.4c0.2,0.5,0.3,1.1,0.3,1.7v0.2
		c0,0.6-0.1,1.2-0.3,1.7c-0.2,0.5-0.4,1-0.8,1.4c-0.3,0.4-0.7,0.7-1.2,0.9c-0.5,0.2-1,0.3-1.6,0.3c-0.6,0-1.1-0.1-1.6-0.3
		c-0.5-0.2-0.9-0.5-1.2-0.9c-0.3-0.4-0.6-0.8-0.8-1.4C229.7,84,229.6,83.5,229.6,82.9z M231.1,82.7v0.2c0,0.4,0.1,0.8,0.1,1.2
		c0.1,0.4,0.2,0.7,0.4,1c0.2,0.3,0.5,0.5,0.8,0.7c0.3,0.2,0.7,0.2,1.1,0.2c0.4,0,0.7-0.1,1-0.2c0.3-0.2,0.6-0.4,0.8-0.7
		c0.2-0.3,0.3-0.6,0.4-1c0.1-0.4,0.2-0.8,0.2-1.2v-0.2c0-0.4-0.1-0.8-0.2-1.2c-0.1-0.4-0.2-0.7-0.5-1c-0.2-0.3-0.4-0.5-0.8-0.7
		c-0.3-0.2-0.6-0.2-1-0.2c-0.4,0-0.7,0.1-1,0.2c-0.3,0.2-0.5,0.4-0.8,0.7c-0.2,0.3-0.3,0.6-0.4,1C231.1,81.9,231.1,82.3,231.1,82.7z
		 M244.3,85v-6.5h1.5V87h-1.4L244.3,85z M244.6,83.3l0.6,0c0,0.6-0.1,1.1-0.2,1.6c-0.1,0.5-0.3,0.9-0.6,1.2c-0.3,0.3-0.6,0.6-1,0.8
		c-0.4,0.2-0.9,0.3-1.5,0.3c-0.4,0-0.8-0.1-1.1-0.2c-0.3-0.1-0.6-0.3-0.9-0.6s-0.4-0.6-0.6-1c-0.1-0.4-0.2-0.9-0.2-1.4v-5.5h1.4V84
		c0,0.4,0,0.7,0.1,0.9c0.1,0.2,0.2,0.4,0.4,0.6c0.2,0.1,0.3,0.2,0.5,0.3c0.2,0.1,0.4,0.1,0.6,0.1c0.6,0,1.1-0.1,1.5-0.4
		c0.4-0.2,0.6-0.6,0.8-1C244.5,84.2,244.6,83.8,244.6,83.3z M249.4,79.9V87H248v-8.5h1.4L249.4,79.9z M252.1,78.5l0,1.3
		c-0.1,0-0.2,0-0.3,0c-0.1,0-0.2,0-0.4,0c-0.3,0-0.6,0.1-0.9,0.2s-0.5,0.2-0.6,0.4c-0.2,0.2-0.3,0.4-0.4,0.7
		c-0.1,0.3-0.2,0.5-0.2,0.8l-0.4,0.2c0-0.5,0-1,0.1-1.4c0.1-0.4,0.3-0.8,0.5-1.2c0.2-0.3,0.5-0.6,0.8-0.8c0.3-0.2,0.7-0.3,1.2-0.3
		c0.1,0,0.2,0,0.4,0C251.9,78.5,252,78.5,252.1,78.5z M119.7,107.4V97h1.5v12h-1.3L119.7,107.4z M114,104.9v-0.2
		c0-0.6,0.1-1.2,0.2-1.8c0.2-0.5,0.4-1,0.7-1.4c0.3-0.4,0.6-0.7,1.1-0.9c0.4-0.2,0.9-0.3,1.4-0.3c0.5,0,1,0.1,1.4,0.3
		c0.4,0.2,0.7,0.5,1,0.8c0.3,0.3,0.5,0.8,0.7,1.3c0.2,0.5,0.3,1.1,0.3,1.7v0.7c-0.1,0.6-0.2,1.2-0.3,1.7c-0.2,0.5-0.4,0.9-0.7,1.3
		c-0.3,0.3-0.6,0.6-1,0.8c-0.4,0.2-0.9,0.3-1.4,0.3c-0.5,0-0.9-0.1-1.4-0.3c-0.4-0.2-0.8-0.5-1.1-0.9c-0.3-0.4-0.5-0.8-0.7-1.4
		C114.1,106.1,114,105.5,114,104.9z M115.5,104.7v0.2c0,0.4,0,0.8,0.1,1.2c0.1,0.4,0.2,0.7,0.4,1c0.2,0.3,0.4,0.5,0.7,0.7
		c0.3,0.2,0.6,0.2,1,0.2c0.5,0,0.9-0.1,1.2-0.3c0.3-0.2,0.6-0.5,0.8-0.8c0.2-0.3,0.3-0.7,0.4-1.1v-1.9c-0.1-0.3-0.2-0.6-0.3-0.8
		c-0.1-0.3-0.3-0.5-0.5-0.7c-0.2-0.2-0.4-0.4-0.7-0.5c-0.3-0.1-0.6-0.2-0.9-0.2c-0.4,0-0.7,0.1-1,0.2c-0.3,0.2-0.5,0.4-0.7,0.7
		c-0.2,0.3-0.3,0.6-0.4,1C115.5,103.9,115.5,104.3,115.5,104.7z M126.9,109.2c-0.6,0-1.1-0.1-1.6-0.3c-0.5-0.2-0.9-0.5-1.2-0.9
		c-0.3-0.4-0.6-0.8-0.8-1.3c-0.2-0.5-0.3-1-0.3-1.6v-0.3c0-0.7,0.1-1.3,0.3-1.8c0.2-0.5,0.5-1,0.8-1.4s0.7-0.7,1.2-0.9
		c0.4-0.2,0.9-0.3,1.4-0.3c0.6,0,1.1,0.1,1.6,0.3c0.4,0.2,0.8,0.5,1.1,0.9c0.3,0.4,0.5,0.8,0.6,1.3c0.1,0.5,0.2,1,0.2,1.6v0.6h-6.3
		V104h4.9v-0.1c0-0.4-0.1-0.7-0.2-1.1c-0.1-0.4-0.3-0.6-0.6-0.9c-0.3-0.2-0.7-0.3-1.2-0.3c-0.3,0-0.6,0.1-0.9,0.2
		c-0.3,0.1-0.5,0.3-0.7,0.6c-0.2,0.3-0.4,0.6-0.5,1c-0.1,0.4-0.2,0.8-0.2,1.4v0.3c0,0.4,0.1,0.8,0.2,1.1c0.1,0.3,0.3,0.7,0.5,0.9
		c0.2,0.3,0.5,0.5,0.8,0.6c0.3,0.2,0.7,0.2,1.1,0.2c0.5,0,0.9-0.1,1.3-0.3c0.4-0.2,0.7-0.5,0.9-0.8l0.9,0.7
		c-0.2,0.3-0.4,0.5-0.7,0.8c-0.3,0.2-0.6,0.5-1,0.6C127.9,109.1,127.5,109.2,126.9,109.2z M134.3,107.7l2.3-7.1h1.5l-3,8.5h-1
		L134.3,107.7z M132.4,100.5l2.4,7.2l0.2,1.3h-1l-3.1-8.5H132.4z M141.1,100.5v8.5h-1.5v-8.5H141.1z M139.5,98.3
		c0-0.2,0.1-0.4,0.2-0.6c0.1-0.2,0.4-0.2,0.6-0.2c0.3,0,0.5,0.1,0.6,0.2c0.2,0.2,0.2,0.4,0.2,0.6c0,0.2-0.1,0.4-0.2,0.6
		c-0.1,0.2-0.4,0.2-0.6,0.2c-0.3,0-0.5-0.1-0.6-0.2C139.6,98.7,139.5,98.5,139.5,98.3z M146.8,108c0.3,0,0.7-0.1,1-0.2
		c0.3-0.1,0.5-0.3,0.7-0.6c0.2-0.2,0.3-0.5,0.3-0.9h1.4c0,0.5-0.2,1-0.5,1.4c-0.3,0.4-0.7,0.8-1.2,1c-0.5,0.3-1,0.4-1.6,0.4
		c-0.6,0-1.2-0.1-1.7-0.3c-0.5-0.2-0.9-0.5-1.2-0.9c-0.3-0.4-0.5-0.8-0.7-1.3c-0.2-0.5-0.2-1.1-0.2-1.6v-0.3c0-0.6,0.1-1.1,0.2-1.6
		c0.2-0.5,0.4-1,0.7-1.4c0.3-0.4,0.7-0.7,1.2-0.9c0.5-0.2,1-0.3,1.7-0.3c0.7,0,1.2,0.1,1.7,0.4c0.5,0.3,0.9,0.6,1.2,1.1
		c0.3,0.5,0.4,1,0.5,1.6h-1.4c0-0.3-0.1-0.7-0.3-0.9c-0.2-0.3-0.4-0.5-0.7-0.7c-0.3-0.2-0.6-0.3-1-0.3c-0.4,0-0.8,0.1-1.1,0.3
		c-0.3,0.2-0.5,0.4-0.7,0.7c-0.2,0.3-0.3,0.6-0.4,1c-0.1,0.4-0.1,0.7-0.1,1.1v0.3c0,0.4,0,0.7,0.1,1.1c0.1,0.4,0.2,0.7,0.4,1
		c0.2,0.3,0.4,0.5,0.7,0.7C146,107.9,146.3,108,146.8,108z M155.3,109.2c-0.6,0-1.1-0.1-1.6-0.3c-0.5-0.2-0.9-0.5-1.2-0.9
		c-0.3-0.4-0.6-0.8-0.8-1.3c-0.2-0.5-0.3-1-0.3-1.6v-0.3c0-0.7,0.1-1.3,0.3-1.8c0.2-0.5,0.5-1,0.8-1.4s0.7-0.7,1.2-0.9
		c0.4-0.2,0.9-0.3,1.4-0.3c0.6,0,1.1,0.1,1.6,0.3c0.4,0.2,0.8,0.5,1.1,0.9c0.3,0.4,0.5,0.8,0.6,1.3c0.1,0.5,0.2,1,0.2,1.6v0.6h-6.3
		V104h4.9v-0.1c0-0.4-0.1-0.7-0.2-1.1c-0.1-0.4-0.3-0.6-0.6-0.9c-0.3-0.2-0.7-0.3-1.2-0.3c-0.3,0-0.6,0.1-0.9,0.2
		c-0.3,0.1-0.5,0.3-0.7,0.6c-0.2,0.3-0.4,0.6-0.5,1c-0.1,0.4-0.2,0.8-0.2,1.4v0.3c0,0.4,0.1,0.8,0.2,1.1c0.1,0.3,0.3,0.7,0.5,0.9
		c0.2,0.3,0.5,0.5,0.8,0.6c0.3,0.2,0.7,0.2,1.1,0.2c0.5,0,0.9-0.1,1.3-0.3s0.7-0.5,0.9-0.8l0.9,0.7c-0.2,0.3-0.4,0.5-0.7,0.8
		c-0.3,0.2-0.6,0.5-1,0.6C156.3,109.1,155.9,109.2,155.3,109.2z M163.4,105.8H162c0-0.5,0-0.9,0.1-1.2c0.1-0.3,0.2-0.6,0.4-0.9
		c0.2-0.3,0.5-0.6,0.8-0.9c0.2-0.2,0.5-0.5,0.7-0.7c0.2-0.2,0.4-0.5,0.5-0.7c0.1-0.3,0.2-0.6,0.2-0.9c0-0.4-0.1-0.7-0.2-0.9
		c-0.1-0.3-0.3-0.5-0.6-0.6c-0.2-0.1-0.6-0.2-0.9-0.2c-0.3,0-0.6,0.1-0.9,0.2c-0.3,0.1-0.5,0.3-0.7,0.5c-0.2,0.2-0.3,0.5-0.3,0.9
		h-1.4c0-0.6,0.2-1.1,0.4-1.5c0.3-0.4,0.7-0.7,1.2-1c0.5-0.2,1-0.3,1.6-0.3c0.7,0,1.2,0.1,1.7,0.4c0.5,0.2,0.8,0.6,1.1,1
		c0.2,0.4,0.4,1,0.4,1.6c0,0.5-0.1,0.9-0.3,1.3c-0.2,0.4-0.4,0.8-0.7,1.1s-0.6,0.7-0.9,1c-0.3,0.3-0.5,0.6-0.6,0.9
		C163.5,105.1,163.4,105.4,163.4,105.8z M161.9,108.3c0-0.2,0.1-0.4,0.2-0.6c0.1-0.2,0.4-0.2,0.6-0.2c0.3,0,0.5,0.1,0.6,0.2
		c0.1,0.2,0.2,0.4,0.2,0.6c0,0.2-0.1,0.4-0.2,0.6c-0.1,0.2-0.4,0.2-0.6,0.2c-0.3,0-0.5-0.1-0.6-0.2
		C162,108.7,161.9,108.5,161.9,108.3z"/>
	<path fill="#0072F0" d="M129.3,151.6l-2.5,7.4h-1.5l3.2-8.5h1L129.3,151.6z M131.4,159l-2.6-7.4l-0.1-1.1h1l3.2,8.5H131.4z
		 M131.3,155.8v1.2h-4.6v-1.2H131.3z M135.3,150v9h-1.4v-9H135.3z M138.4,150v9h-1.4v-9H138.4z M139.6,155.9v-0.1
		c0-0.5,0.1-0.9,0.2-1.3c0.1-0.4,0.3-0.7,0.6-1c0.3-0.3,0.6-0.5,0.9-0.7c0.4-0.2,0.8-0.2,1.2-0.2c0.5,0,0.9,0.1,1.2,0.2
		c0.4,0.2,0.7,0.4,0.9,0.7c0.3,0.3,0.4,0.6,0.6,1c0.1,0.4,0.2,0.8,0.2,1.3v0.1c0,0.5-0.1,0.9-0.2,1.3c-0.1,0.4-0.3,0.7-0.6,1
		c-0.3,0.3-0.6,0.5-0.9,0.7c-0.4,0.2-0.8,0.2-1.2,0.2c-0.5,0-0.9-0.1-1.2-0.2c-0.4-0.2-0.7-0.4-0.9-0.7c-0.3-0.3-0.4-0.6-0.6-1
		C139.7,156.8,139.6,156.4,139.6,155.9z M141,155.8v0.1c0,0.3,0,0.6,0.1,0.8c0.1,0.3,0.2,0.5,0.3,0.7s0.3,0.3,0.5,0.5
		c0.2,0.1,0.4,0.2,0.7,0.2c0.3,0,0.5-0.1,0.7-0.2c0.2-0.1,0.4-0.3,0.5-0.5s0.2-0.4,0.3-0.7c0.1-0.3,0.1-0.5,0.1-0.8v-0.1
		c0-0.3,0-0.5-0.1-0.8c-0.1-0.3-0.2-0.5-0.3-0.7c-0.1-0.2-0.3-0.3-0.5-0.5c-0.2-0.1-0.4-0.2-0.7-0.2c-0.3,0-0.5,0.1-0.7,0.2
		c-0.2,0.1-0.3,0.3-0.5,0.5c-0.1,0.2-0.2,0.4-0.3,0.7C141.1,155.2,141,155.5,141,155.8z M148.4,157.6l1.5-4.9h0.9l-0.2,1.5l-1.5,4.9
		h-0.8L148.4,157.6z M147.6,152.7l1.1,5l0.1,1.4h-0.9l-1.7-6.3H147.6z M152.2,157.6l1.1-4.9h1.4l-1.7,6.3H152L152.2,157.6z
		 M151,152.7l1.4,4.9l0.2,1.5h-0.8l-1.5-4.9l-0.2-1.5H151z"/>
	<line fill="none" stroke="#E0E0E0" x1="0" y1="131.5" x2="280" y2="131.5"/>
	<path fill="#0072F0" d="M129.9,205h-1.8l0-1.2h1.8c0.5,0,1-0.1,1.3-0.3c0.4-0.2,0.6-0.6,0.8-1c0.2-0.4,0.3-0.9,0.3-1.5v-0.5
		c0-0.5-0.1-0.9-0.2-1.2c-0.1-0.4-0.3-0.7-0.5-0.9c-0.2-0.2-0.4-0.4-0.7-0.6c-0.3-0.1-0.6-0.2-1-0.2h-1.9v-1.2h1.9
		c0.6,0,1.1,0.1,1.6,0.3c0.5,0.2,0.9,0.5,1.2,0.8c0.3,0.4,0.6,0.8,0.8,1.3c0.2,0.5,0.3,1,0.3,1.7v0.5c0,0.6-0.1,1.2-0.3,1.7
		c-0.2,0.5-0.4,0.9-0.8,1.3c-0.3,0.4-0.8,0.6-1.2,0.8C131,204.9,130.5,205,129.9,205z M128.9,196.5v8.5h-1.5v-8.5H128.9z
		 M137.9,205.1c-0.5,0-0.9-0.1-1.3-0.2c-0.4-0.2-0.7-0.4-1-0.7c-0.3-0.3-0.5-0.6-0.6-1c-0.1-0.4-0.2-0.8-0.2-1.2v-0.2
		c0-0.5,0.1-0.9,0.2-1.3c0.1-0.4,0.3-0.7,0.6-1c0.3-0.3,0.6-0.5,0.9-0.7c0.4-0.2,0.7-0.2,1.1-0.2c0.5,0,0.9,0.1,1.2,0.2
		c0.3,0.2,0.6,0.4,0.8,0.6c0.2,0.3,0.4,0.6,0.5,1c0.1,0.4,0.2,0.8,0.2,1.3v0.6h-4.9v-1h3.5v-0.1c0-0.3-0.1-0.5-0.2-0.7
		c-0.1-0.2-0.2-0.4-0.4-0.5c-0.2-0.1-0.4-0.2-0.8-0.2c-0.2,0-0.4,0.1-0.6,0.2c-0.2,0.1-0.3,0.2-0.5,0.4c-0.1,0.2-0.2,0.4-0.3,0.7
		c-0.1,0.3-0.1,0.6-0.1,0.9v0.2c0,0.3,0,0.5,0.1,0.8c0.1,0.2,0.2,0.4,0.3,0.6c0.1,0.2,0.3,0.3,0.5,0.4c0.2,0.1,0.5,0.1,0.7,0.1
		c0.3,0,0.6-0.1,0.9-0.2c0.3-0.1,0.5-0.3,0.7-0.6l0.7,0.7c-0.1,0.2-0.3,0.4-0.5,0.6c-0.2,0.2-0.5,0.3-0.8,0.4
		C138.7,205.1,138.4,205.1,137.9,205.1z M143,200v5h-1.4v-6.3h1.3L143,200z M142.7,201.6l-0.5,0c0-0.4,0.1-0.9,0.2-1.2
		c0.1-0.4,0.3-0.7,0.5-1c0.2-0.3,0.5-0.5,0.8-0.6c0.3-0.1,0.7-0.2,1-0.2c0.3,0,0.6,0,0.8,0.1c0.2,0.1,0.5,0.2,0.6,0.4
		c0.2,0.2,0.3,0.4,0.4,0.7c0.1,0.3,0.1,0.7,0.1,1.1v4.1h-1.4v-4.1c0-0.3,0-0.5-0.1-0.7c-0.1-0.2-0.2-0.3-0.4-0.4
		c-0.2-0.1-0.4-0.1-0.6-0.1c-0.2,0-0.5,0.1-0.6,0.2c-0.2,0.1-0.4,0.2-0.5,0.4c-0.1,0.2-0.2,0.4-0.3,0.6
		C142.8,201.1,142.7,201.3,142.7,201.6z M150.1,204.3l1.7-5.6h1.5l-2.5,7.3c-0.1,0.2-0.1,0.3-0.2,0.5c-0.1,0.2-0.2,0.4-0.4,0.5
		c-0.1,0.2-0.3,0.3-0.6,0.4c-0.2,0.1-0.5,0.2-0.8,0.2c-0.1,0-0.2,0-0.4,0c-0.1,0-0.2,0-0.3-0.1l0-1.1c0,0,0.1,0,0.1,0
		c0.1,0,0.1,0,0.1,0c0.2,0,0.4,0,0.6-0.1c0.2-0.1,0.3-0.1,0.4-0.3c0.1-0.1,0.2-0.3,0.3-0.5L150.1,204.3z M149.1,198.7l1.5,4.7
		l0.3,1.5l-1,0.3l-2.3-6.5H149.1z"/>
	<line fill="none" stroke="#E0E0E0" x1="0" y1="177.5" x2="280" y2="177.5"/>
</g>
</svg>
