<svg width="30" height="118" viewBox="0 0 30 118" fill="none" xmlns="http://www.w3.org/2000/svg">
<path d="M27.5 3.00027C3.5 25.0003 38.0997 55.5369 23.4896 71.2678C20.7594 74.2071 19.5598 75.4229 16.0292 77.0516M16.0292 77.0516C15.6817 77.2119 13.0627 78.6893 10.5317 80.1131C8.05722 81.505 5.14043 80.0977 4.65198 77.301V77.301C3.94807 73.2706 8.71063 70.6024 11.7802 73.3073L16.0292 77.0516ZM16.0292 77.0516V77.0516C23.8675 84.753 23.3367 97.5341 14.9591 104.645C10.2461 108.645 5.52621 112.698 2.48384 115.426M6.72342 99.2877C6.44272 102.725 5.67545 106.124 4.61933 109.405C4.4953 109.791 2.07422 115.33 2.90916 115.532C6.41573 116.379 17.9793 110.546 20.4153 108.484" stroke="#8A88FF" stroke-width="4.2" stroke-linecap="round"/>
</svg>
