<svg width="46" height="50" viewBox="0 0 46 50" fill="none" xmlns="http://www.w3.org/2000/svg">
<path d="M12.2193 39.2667C12.0286 39.2667 11.8667 39.1964 11.7333 39.0559C11.6 38.9153 11.5333 38.7411 11.5333 38.5333V11.4667C11.5333 11.2589 11.605 11.0847 11.7482 10.9441C11.8914 10.8036 12.069 10.7333 12.2807 10.7333C12.4491 10.7333 12.6111 10.8036 12.7667 10.9441C12.9222 11.0847 13 11.2589 13 11.4667V38.5333C13 38.7411 12.9175 38.9153 12.7526 39.0559C12.5877 39.1964 12.4099 39.2667 12.2193 39.2667ZM22.9848 49.9333C22.7727 49.9333 22.6 49.8631 22.4667 49.7225C22.3333 49.582 22.2667 49.4078 22.2667 49.2V0.800014C22.2667 0.592237 22.3384 0.418059 22.4819 0.277481C22.6253 0.136948 22.8031 0.0666809 23.0152 0.0666809C23.2273 0.0666809 23.4 0.136948 23.5333 0.277481C23.6667 0.418059 23.7333 0.592237 23.7333 0.800014V49.2C23.7333 49.4078 23.6616 49.582 23.5181 49.7225C23.3747 49.8631 23.1969 49.9333 22.9848 49.9333ZM1.45147 28.6C1.23938 28.6 1.06667 28.5298 0.933337 28.3892C0.800004 28.2486 0.733337 28.0745 0.733337 27.8667V22.1334C0.733337 21.9256 0.805071 21.7514 0.948537 21.6108C1.092 21.4703 1.26978 21.4 1.48187 21.4C1.69396 21.4 1.86667 21.4703 2 21.6108C2.13334 21.7514 2.2 21.9256 2.2 22.1334V27.8667C2.2 28.0745 2.12827 28.2486 1.9848 28.3892C1.84134 28.5298 1.66356 28.6 1.45147 28.6ZM33.7526 39.2667C33.562 39.2667 33.4 39.1964 33.2667 39.0559C33.1333 38.9153 33.0667 38.7411 33.0667 38.5333V11.4667C33.0667 11.2589 33.1383 11.0847 33.2815 10.9441C33.4248 10.8036 33.6023 10.7333 33.8141 10.7333C33.9825 10.7333 34.1445 10.8036 34.3 10.9441C34.4556 11.0847 34.5333 11.2589 34.5333 11.4667V38.5333C34.5333 38.7411 34.4509 38.9153 34.2859 39.0559C34.121 39.1964 33.9433 39.2667 33.7526 39.2667ZM44.5181 28.6C44.306 28.6 44.1333 28.5298 44 28.3892C43.8667 28.2486 43.8 28.0745 43.8 27.8667V22.1334C43.8 21.9256 43.8717 21.7514 44.0152 21.6108C44.1587 21.4703 44.3365 21.4 44.5485 21.4C44.7606 21.4 44.9333 21.4703 45.0667 21.6108C45.2 21.7514 45.2667 21.9256 45.2667 22.1334V27.8667C45.2667 28.0745 45.1949 28.2486 45.0515 28.3892C44.908 28.5298 44.7302 28.6 44.5181 28.6Z" fill="#1C1B1F"/>
</svg>
