<svg width="16" height="12" viewBox="0 0 16 12" fill="none" xmlns="http://www.w3.org/2000/svg">
<path d="M5.54979 11.2769C5.42927 11.2769 5.3171 11.2576 5.21326 11.2192C5.10941 11.1807 5.0107 11.1147 4.91711 11.0211L0.742113 6.84613C0.597247 6.70127 0.527372 6.52306 0.532488 6.31153C0.537622 6.1 0.612622 5.9218 0.757488 5.77693C0.902355 5.63205 1.078 5.55961 1.28441 5.55961C1.49081 5.55961 1.66645 5.63205 1.81131 5.77693L5.54979 9.51538L14.1883 0.876932C14.3331 0.732048 14.5113 0.659607 14.7229 0.659607C14.9344 0.659607 15.1126 0.732048 15.2575 0.876932C15.4023 1.0218 15.4748 1.2 15.4748 1.41153C15.4748 1.62307 15.4023 1.80127 15.2575 1.94613L6.18246 11.0211C6.08888 11.1147 5.99016 11.1807 5.88631 11.2192C5.78248 11.2576 5.67031 11.2769 5.54979 11.2769Z" fill="#1F1F1F"/>
</svg>
