<?xml version="1.0" encoding="utf-8"?>
<!-- Generator: Adobe Illustrator 24.2.3, SVG Export Plug-In . SVG Version: 6.00 Build 0)  -->
<svg version="1.1" id="Layer_1" xmlns="http://www.w3.org/2000/svg" xmlns:xlink="http://www.w3.org/1999/xlink" x="0px" y="0px"
	 viewBox="0 0 48 48" enable-background="new 0 0 48 48" xml:space="preserve">
<g>
	<defs>
		<path id="SVGID_1_" d="M16,0h16c8.8,0,16,7.2,16,16v16c0,8.8-7.2,16-16,16H16C7.2,48,0,40.8,0,32V16C0,7.2,7.2,0,16,0z"/>
	</defs>
	<clipPath id="SVGID_2_">
		<use xlink:href="#SVGID_1_"  overflow="visible"/>
	</clipPath>
	<g clip-path="url(#SVGID_2_)">
		<path fill="#1877F2" d="M16,0h16c8.8,0,16,7.2,16,16v16c0,8.8-7.2,16-16,16H16C7.2,48,0,40.8,0,32V16C0,7.2,7.2,0,16,0z"/>
		<g>
			<defs>
				<rect id="SVGID_3_" width="48" height="48"/>
			</defs>
			<clipPath id="SVGID_4_">
				<use xlink:href="#SVGID_3_"  overflow="visible"/>
			</clipPath>
			<g clip-path="url(#SVGID_4_)">
				<path fill="#FFFFFF" d="M33.3,30.9l1.1-6.9h-6.7v-4.5c0-1.9,0.9-3.8,3.9-3.8h3V9.8c0,0-2.7-0.5-5.4-0.5c-5.5,0-9.1,3.3-9.1,9.3
					V24h-6.1v6.9h6.1v17.8c1.2,0.2,2.5,0.3,3.8,0.3s2.5-0.1,3.8-0.3V30.9H33.3z"/>
			</g>
		</g>
	</g>
</g>
</svg>
