<svg width="16" height="16" viewBox="0 0 16 16" fill="none" xmlns="http://www.w3.org/2000/svg">
<path d="M2.50068 15.0833C2.06135 15.0833 1.68757 14.928 1.37935 14.6173C1.07111 14.3067 0.916992 13.9321 0.916992 13.4936V8C0.916992 7.0171 1.10289 6.09616 1.4747 5.23719C1.84649 4.37822 2.35183 3.62928 2.9907 2.9904C3.62959 2.35152 4.37852 1.84619 5.23749 1.4744C6.09646 1.10259 7.0174 0.916687 8.0003 0.916687C8.98321 0.916687 9.90414 1.10259 10.7631 1.4744C11.6221 1.84619 12.371 2.35152 13.0099 2.9904C13.6488 3.62928 14.1541 4.37822 14.5259 5.23719C14.8977 6.09616 15.0836 7.0171 15.0836 8V13.4936C15.0836 13.9321 14.928 14.3067 14.6167 14.6173C14.3055 14.928 13.9302 15.0833 13.4908 15.0833H12.2186C11.7793 15.0833 11.4055 14.928 11.0973 14.6173C10.7891 14.3067 10.635 13.9321 10.635 13.4936V10.6715C10.635 10.233 10.7903 9.8584 11.1009 9.54773C11.4116 9.23708 11.7862 9.08175 12.2247 9.08175H13.7503V8C13.7503 6.39821 13.1929 5.03943 12.0781 3.92367C10.9632 2.80789 9.60558 2.25 8.00514 2.25C6.40469 2.25 5.04544 2.80789 3.92739 3.92367C2.80933 5.03943 2.2503 6.39821 2.2503 8V9.08175H3.7811C4.22103 9.08175 4.5951 9.23708 4.90333 9.54773C5.21155 9.8584 5.36566 10.233 5.36566 10.6715V13.4936C5.36566 13.9321 5.21003 14.3067 4.89878 14.6173C4.58755 14.928 4.21226 15.0833 3.77291 15.0833H2.50068ZM2.50674 13.75H3.77593C3.85072 13.75 3.91216 13.726 3.96024 13.6779C4.00833 13.6298 4.03237 13.5684 4.03237 13.4936V10.6715C4.03237 10.5967 4.00833 10.5353 3.96024 10.4872C3.91216 10.4391 3.85072 10.4151 3.77593 10.4151H2.2503V13.4936C2.2503 13.5684 2.27435 13.6298 2.32243 13.6779C2.37051 13.726 2.43195 13.75 2.50674 13.75ZM12.2247 13.75H13.4939C13.5687 13.75 13.6301 13.726 13.6782 13.6779C13.7263 13.6298 13.7503 13.5684 13.7503 13.4936V10.4151H12.2247C12.1499 10.4151 12.0885 10.4391 12.0404 10.4872C11.9923 10.5353 11.9682 10.5967 11.9682 10.6715V13.4936C11.9682 13.5684 11.9923 13.6298 12.0404 13.6779C12.0885 13.726 12.1499 13.75 12.2247 13.75ZM2.50674 13.75H2.2503H4.03237H2.50674ZM12.2247 13.75H11.9682H13.7503H12.2247Z" fill="#1C1B1F"/>
</svg>
