<svg width="79" height="66" viewBox="0 0 79 66" fill="none" xmlns="http://www.w3.org/2000/svg">
<path d="M63.1896 28.57C63.0596 32.4 60.9996 37.67 59.3196 43C58.9121 44.3622 58.4211 45.6981 57.8496 47C56.7896 49.34 56.4396 51.43 57.7996 54C59.3996 57 58.0596 61.25 55.4996 63.49C54.8881 64.0509 54.1656 64.4771 53.3788 64.7408C52.592 65.0044 51.7586 65.0998 50.9326 65.0205C50.1066 64.9413 49.3064 64.6894 48.5841 64.281C47.8618 63.8726 47.2333 63.3169 46.7396 62.65C46.2747 62.0359 46.0452 61.2756 46.0929 60.5068C46.1406 59.7381 46.4623 59.0119 46.9996 58.46C47.8296 57.46 48.3996 56.21 49.1296 55.12C50.3196 53.32 49.5096 52.45 47.8796 51.78C42.639 49.7961 37.2984 48.0871 31.8796 46.66C27.9743 45.537 24.1734 44.0782 20.5196 42.3C14.4096 39.3 13.6196 33.92 19.0996 28.73C25.4796 22.73 34.9696 22.21 40.2196 26.73C41.3396 27.73 41.8296 27.22 42.4796 26.2C44.4854 23.2495 47.1933 20.8441 50.3596 19.2C58.0596 14.85 63.2096 17.9 63.1896 28.57ZM58.7596 28.12C58.8296 21.53 57.3996 20.67 52.6896 23.12C50.3301 24.3341 48.2013 25.9519 46.3996 27.9C44.7196 29.71 43.6096 31.58 45.0496 34.08C45.3795 34.7527 45.5765 35.4827 45.6296 36.23C45.7496 37.23 45.6296 38.32 44.5296 38.74C43.4296 39.16 42.7696 38.27 42.2796 37.36C41.4223 35.5067 40.4191 33.7244 39.2796 32.03C35.6496 27.38 28.0396 27.41 22.8796 32.03C21.5096 33.26 19.5296 34.47 20.0596 36.65C20.5896 38.83 22.7696 39.32 24.6996 39.88C33.6396 42.48 43.0596 43.43 51.5496 47.64C52.4496 48.09 52.9296 47.54 53.2396 46.76C55.8296 40.28 58.0996 33.74 58.7596 28.12Z" fill="#8A88FF"/>
<path d="M13.9296 24.73C11.0996 23.73 7.76961 22.52 4.45961 21.28C4.27952 21.2253 4.11309 21.133 3.97133 21.0092C3.82957 20.8854 3.71569 20.7329 3.63724 20.5618C3.55879 20.3907 3.51754 20.2049 3.51622 20.0167C3.51491 19.8285 3.55355 19.6422 3.62961 19.47C3.68313 19.2661 3.78075 19.0765 3.91557 18.9145C4.0504 18.7526 4.21913 18.6221 4.40987 18.5325C4.60061 18.4428 4.80871 18.3961 5.01947 18.3957C5.23022 18.3953 5.4385 18.4411 5.62961 18.53C8.88294 19.6433 12.1329 20.8 15.3796 22C15.5627 22.0449 15.7348 22.1266 15.8853 22.2401C16.0359 22.3537 16.1617 22.4966 16.2553 22.6603C16.3488 22.824 16.4081 23.0051 16.4295 23.1924C16.4508 23.3797 16.4339 23.5694 16.3796 23.75C16.1296 24.72 15.3696 24.91 13.9296 24.73Z" fill="#8A88FF"/>
<path d="M60.0496 0.449997C60.2707 0.435289 60.4919 0.476465 60.6929 0.569728C60.8938 0.66299 61.0681 0.80534 61.1996 0.983658C61.3311 1.16198 61.4156 1.37052 61.4453 1.59008C61.475 1.80964 61.449 2.03314 61.3696 2.24C60.5296 5.42 59.5996 8.59 58.6896 11.75C58.5842 12.1195 58.341 12.4344 58.0102 12.6298C57.6794 12.8253 57.2862 12.8863 56.9117 12.8004C56.5372 12.7145 56.21 12.4881 55.9975 12.168C55.785 11.8479 55.7034 11.4585 55.7696 11.08C56.4674 7.77347 57.4032 4.52168 58.5696 1.35C58.6795 1.05567 58.8853 0.806875 59.1537 0.643632C59.4222 0.480388 59.7377 0.412186 60.0496 0.449997Z" fill="#8A88FF"/>
<path d="M69.1896 20.25C67.8496 20.31 67.1896 19.99 66.9796 19.18C66.9147 18.9827 66.8938 18.7736 66.9185 18.5673C66.9431 18.3611 67.0128 18.1628 67.1224 17.9863C67.2321 17.8099 67.3791 17.6597 67.5531 17.5463C67.7272 17.4329 67.9239 17.3591 68.1296 17.33C70.8896 16.56 73.6396 15.79 76.4096 15.04C76.5874 14.9817 76.7752 14.9599 76.9617 14.9759C77.1481 14.9919 77.3295 15.0454 77.4947 15.1332C77.66 15.2209 77.8059 15.3412 77.9236 15.4867C78.0413 15.6322 78.1283 15.8 78.1796 15.98C78.2709 16.17 78.3168 16.3787 78.3136 16.5894C78.3104 16.8002 78.2582 17.0074 78.1613 17.1946C78.0643 17.3817 77.9251 17.5438 77.7547 17.668C77.5844 17.7921 77.3875 17.875 77.1796 17.91C74.3896 18.78 71.5496 19.57 69.1896 20.25Z" fill="#8A88FF"/>
<path d="M6.20961 50.24C4.78961 49.91 4.06961 49.06 4.99961 48C6.90749 45.6055 9.46689 43.8136 12.3696 42.84C12.7149 42.682 13.1084 42.6658 13.4656 42.7948C13.8227 42.9238 14.115 43.1878 14.2796 43.53C14.3869 43.6853 14.4585 43.8625 14.4893 44.0487C14.52 44.235 14.5092 44.4257 14.4576 44.6073C14.406 44.7889 14.3149 44.9568 14.1907 45.0991C14.0666 45.2413 13.9125 45.3543 13.7396 45.43C11.1996 46.36 9.26961 48.14 7.22961 49.8C6.90671 49.9835 6.56467 50.1311 6.20961 50.24Z" fill="#8A88FF"/>
<path d="M64.0796 14.88C62.7596 14.5 62.1996 13.63 62.9996 12.5C64.4945 10.4318 66.2263 8.54564 68.1596 6.88C68.3993 6.63544 68.7235 6.49192 69.0657 6.4789C69.4079 6.46588 69.742 6.58436 69.9996 6.81C70.5996 7.27 70.8996 8.04 70.4696 8.55C68.6496 10.66 66.7096 12.66 64.7896 14.68C64.6396 14.83 64.3296 14.82 64.0796 14.88Z" fill="#8A88FF"/>
<path d="M3.14961 30.71L9.43961 31.8C10.4396 31.98 11.1596 32.49 10.9496 33.62C10.7396 34.75 9.79961 34.88 8.83961 34.74C6.83961 34.44 4.83961 34.08 2.76961 33.8C1.68961 33.65 0.769608 33.32 0.859608 32.05C0.949608 30.78 2.07961 30.7 3.14961 30.71Z" fill="#8A88FF"/>
<path d="M58.7596 28.12C58.0996 33.74 55.8296 40.28 53.2196 46.72C52.9096 47.5 52.4296 48.05 51.5296 47.6C42.9996 43.39 33.6196 42.44 24.6796 39.84C22.7496 39.28 20.5696 38.79 20.0396 36.61C19.5096 34.43 21.4896 33.22 22.8596 31.99C28.0196 27.36 35.6296 27.33 39.2596 31.99C40.3991 33.6845 41.4023 35.4667 42.2596 37.32C42.7496 38.23 43.2596 39.17 44.5096 38.7C45.7596 38.23 45.7296 37.2 45.6096 36.19C45.5679 35.4304 45.3776 34.6864 45.0496 34C43.6096 31.5 44.7196 29.63 46.3996 27.82C48.2013 25.8719 50.3301 24.2541 52.6896 23.04C57.3996 20.67 58.8296 21.53 58.7596 28.12Z" fill="#FBFBFE"/>
</svg>
