<?xml version="1.0" encoding="utf-8"?>
<!-- Generator: Adobe Illustrator 24.2.3, SVG Export Plug-In . SVG Version: 6.00 Build 0)  -->
<svg version="1.1" id="Layer_1" xmlns="http://www.w3.org/2000/svg" xmlns:xlink="http://www.w3.org/1999/xlink" x="0px" y="0px"
	 viewBox="0 0 48 48" enable-background="new 0 0 48 48" xml:space="preserve">
<g>
	
		<radialGradient id="SVGID_1_" cx="-276.7624" cy="-101.4813" r="49.4144" gradientTransform="matrix(0.5114 -0.9242 -0.8406 -0.4651 63.8308 -249.5062)" gradientUnits="userSpaceOnUse">
		<stop  offset="0" style="stop-color:#FFDD55"/>
		<stop  offset="0.1" style="stop-color:#FFDD55"/>
		<stop  offset="0.5" style="stop-color:#FF543E"/>
		<stop  offset="1" style="stop-color:#C837AB"/>
	</radialGradient>
	<path fill="url(#SVGID_1_)" d="M31.9,48h-16c-8.8,0-16-7.2-16-16V16c0-8.8,7.2-16,16-16h16c8.8,0,16,7.2,16,16v16
		C47.9,40.8,40.8,48,31.9,48z"/>
	
		<linearGradient id="SVGID_2_" gradientUnits="userSpaceOnUse" x1="13.7187" y1="53.6933" x2="21.5718" y2="32.3327" gradientTransform="matrix(1 0 0 -1 0 50)">
		<stop  offset="0" style="stop-color:#3771C8"/>
		<stop  offset="0.1953" style="stop-color:#3771C8"/>
		<stop  offset="1" style="stop-color:#6600FF;stop-opacity:0"/>
	</linearGradient>
	<path fill="url(#SVGID_2_)" d="M31.9,48h-16c-8.8,0-16-7.2-16-16V16c0-8.8,7.2-16,16-16h16c8.8,0,16,7.2,16,16v16
		C47.9,40.8,40.8,48,31.9,48z"/>
</g>
<path fill="#FFFFFF" d="M23.9,8c-4.3,0-4.9,0-6.6,0.1s-2.9,0.3-3.9,0.7c-1.1,0.4-1.9,1-2.8,1.8c-0.9,0.9-1.4,1.8-1.8,2.8
	c-0.4,1-0.7,2.2-0.7,3.9C8,19.1,7.9,19.7,7.9,24s0,4.9,0.1,6.6c0.1,1.7,0.3,2.9,0.7,3.9c0.4,1.1,1,1.9,1.8,2.8
	c0.9,0.9,1.8,1.4,2.8,1.8c1,0.4,2.2,0.7,3.9,0.7C19,40,19.6,40,23.9,40s4.9,0,6.6-0.1s2.9-0.3,3.9-0.7c1.1-0.4,1.9-1,2.8-1.8
	c0.9-0.9,1.4-1.8,1.8-2.8c0.4-1,0.7-2.2,0.7-3.9c0.1-1.7,0.1-2.3,0.1-6.6s0-4.9-0.1-6.6s-0.4-2.9-0.7-3.9c-0.4-1.1-1-1.9-1.8-2.8
	c-0.9-0.9-1.8-1.4-2.8-1.8c-1-0.4-2.2-0.7-3.9-0.7C28.8,8,28.3,8,23.9,8L23.9,8z M22.5,10.9c0.4,0,0.9,0,1.4,0c4.3,0,4.8,0,6.5,0.1
	c1.6,0.1,2.4,0.3,3,0.6c0.7,0.3,1.3,0.6,1.8,1.2c0.6,0.6,0.9,1.1,1.2,1.8c0.2,0.6,0.5,1.4,0.6,3c0.1,1.7,0.1,2.2,0.1,6.5
	s0,4.8-0.1,6.5c-0.1,1.6-0.3,2.4-0.6,3c-0.3,0.7-0.6,1.3-1.2,1.8c-0.6,0.6-1.1,0.9-1.8,1.2c-0.6,0.2-1.4,0.5-3,0.6
	c-1.7,0.1-2.2,0.1-6.5,0.1s-4.8,0-6.5-0.1c-1.6-0.1-2.4-0.3-3-0.6c-0.7-0.3-1.3-0.6-1.8-1.2c-0.6-0.6-0.9-1.1-1.2-1.8
	c-0.2-0.6-0.5-1.4-0.6-3c-0.1-1.7-0.1-2.2-0.1-6.5s0-4.8,0.1-6.5c0.1-1.6,0.3-2.4,0.6-3c0.3-0.7,0.6-1.3,1.2-1.8
	c0.6-0.6,1.1-0.9,1.8-1.2c0.6-0.2,1.4-0.5,3-0.6C19,10.9,19.5,10.9,22.5,10.9L22.5,10.9z M32.5,13.5c-0.4,0-0.8,0.1-1.1,0.3
	c-0.3,0.2-0.6,0.5-0.7,0.9s-0.2,0.7-0.1,1.1s0.3,0.7,0.5,1c0.3,0.3,0.6,0.5,1,0.5c0.4,0.1,0.8,0,1.1-0.1c0.4-0.1,0.7-0.4,0.9-0.7
	c0.2-0.3,0.3-0.7,0.3-1.1C34.4,14.4,33.5,13.5,32.5,13.5L32.5,13.5z M23.9,15.8c-4.5,0-8.2,3.7-8.2,8.2s3.7,8.2,8.2,8.2
	s8.2-3.7,8.2-8.2S28.5,15.8,23.9,15.8L23.9,15.8z M23.9,18.7c2.9,0,5.3,2.4,5.3,5.3s-2.4,5.3-5.3,5.3s-5.3-2.4-5.3-5.3
	C18.6,21.1,21,18.7,23.9,18.7z"/>
<g>
	<path fill="#FFFFFF" d="M531.3-25.1c-13.3,0-15,0.1-20.2,0.3c-5.2,0.2-8.8,1.1-11.9,2.3c-3.2,1.3-6,2.9-8.7,5.7
		c-2.7,2.7-4.4,5.5-5.7,8.7c-1.2,3.1-2,6.7-2.3,11.9c-0.2,5.2-0.3,6.9-0.3,20.2s0.1,15,0.3,20.2c0.2,5.2,1.1,8.8,2.3,11.9
		c1.3,3.2,2.9,6,5.7,8.7c2.7,2.7,5.5,4.4,8.7,5.7c3.1,1.2,6.7,2,11.9,2.3c5.2,0.2,6.9,0.3,20.2,0.3s15-0.1,20.2-0.3
		c5.2-0.2,8.8-1.1,11.9-2.3c3.2-1.3,6-2.9,8.7-5.7c2.7-2.7,4.4-5.5,5.7-8.7c1.2-3.1,2-6.7,2.3-11.9c0.2-5.2,0.3-6.9,0.3-20.2
		S580.2,9,580,3.7c-0.2-5.2-1.1-8.8-2.3-11.9c-1.3-3.2-2.9-6-5.7-8.7c-2.7-2.7-5.5-4.4-8.7-5.7c-3.1-1.2-6.7-2-11.9-2.3
		C546.2-25,544.6-25.1,531.3-25.1L531.3-25.1z M526.9-16.2c1.3,0,2.8,0,4.4,0c13.1,0,14.6,0,19.8,0.3c4.8,0.2,7.4,1,9.1,1.7
		c2.3,0.9,3.9,1.9,5.6,3.7c1.7,1.7,2.8,3.3,3.7,5.6c0.7,1.7,1.5,4.3,1.7,9.1c0.2,5.2,0.3,6.7,0.3,19.8s-0.1,14.6-0.3,19.8
		c-0.2,4.8-1,7.4-1.7,9.1c-0.9,2.3-2,3.9-3.7,5.6c-1.7,1.7-3.3,2.8-5.6,3.7c-1.7,0.7-4.3,1.5-9.1,1.7c-5.2,0.2-6.7,0.3-19.8,0.3
		s-14.6-0.1-19.8-0.3c-4.8-0.2-7.4-1-9.1-1.7c-2.3-0.9-3.9-1.9-5.6-3.7c-1.7-1.7-2.8-3.3-3.7-5.6c-0.7-1.7-1.5-4.3-1.7-9.1
		c-0.2-5.2-0.3-6.7-0.3-19.8s0-14.6,0.3-19.8c0.2-4.8,1-7.4,1.7-9.1c0.9-2.3,2-3.9,3.7-5.6s3.3-2.8,5.6-3.7c1.7-0.7,4.3-1.5,9.1-1.7
		C516-16.2,517.7-16.2,526.9-16.2L526.9-16.2z M557.4-8.1c-1.2,0-2.3,0.3-3.3,1c-1,0.6-1.7,1.6-2.2,2.6c-0.4,1.1-0.6,2.3-0.3,3.4
		c0.2,1.1,0.8,2.2,1.6,3s1.9,1.4,3,1.6c1.1,0.2,2.3,0.1,3.4-0.3c1.1-0.4,2-1.2,2.6-2.2s1-2.1,1-3.3C563.3-5.5,560.7-8.1,557.4-8.1
		L557.4-8.1z M531.3-1.2c-13.9,0-25.2,11.3-25.2,25.2s11.3,25.2,25.2,25.2s25.2-11.3,25.2-25.2S545.2-1.2,531.3-1.2L531.3-1.2z
		 M531.3,7.6c9,0,16.3,7.3,16.3,16.3s-7.3,16.3-16.3,16.3S515,32.9,515,23.9C514.9,14.9,522.2,7.6,531.3,7.6z"/>
</g>
</svg>
