<?xml version="1.0" encoding="utf-8"?>
<!-- Generator: Adobe Illustrator 24.2.3, SVG Export Plug-In . SVG Version: 6.00 Build 0)  -->
<svg version="1.1" id="Layer_1" xmlns="http://www.w3.org/2000/svg" xmlns:xlink="http://www.w3.org/1999/xlink" x="0px" y="0px"
	 viewBox="0 0 270 180.5" enable-background="new 0 0 270 180.5" xml:space="preserve">
<g>
	<g>
		<defs>
			<path id="SVGID_1_" d="M14,0h242c7.7,0,14,6.3,14,14v152.5c0,7.7-6.3,14-14,14H14c-7.7,0-14-6.3-14-14V14C0,6.3,6.3,0,14,0z"/>
		</defs>
		<clipPath id="SVGID_2_">
			<use xlink:href="#SVGID_1_"  overflow="visible"/>
		</clipPath>
		<g clip-path="url(#SVGID_2_)">
			<path fill="#F2F2F7" d="M14,0h242c7.7,0,14,6.3,14,14v152.5c0,7.7-6.3,14-14,14H14c-7.7,0-14-6.3-14-14V14C0,6.3,6.3,0,14,0z"/>
			<path d="M34.8,24h1.5l-1,5h-2.1L34.8,24z M38.3,24h1.5L39,29H37L38.3,24z M44.4,36h-2.1V24h2.1V36z M46.7,36v-9.1h2v1.5h0.1
				c0.2-0.5,0.6-0.9,1-1.2c0.5-0.3,1-0.4,1.7-0.4c1,0,1.8,0.3,2.3,0.9c0.5,0.6,0.8,1.4,0.8,2.5V36h-2.1v-5.4c0-1.4-0.6-2.1-1.8-2.1
				c-0.6,0-1.1,0.2-1.5,0.6c-0.4,0.4-0.5,0.9-0.5,1.6V36H46.7z M56.7,36v-9.1h2v1.5h0.1c0.2-0.5,0.6-0.9,1-1.2
				c0.5-0.3,1-0.4,1.7-0.4c1,0,1.8,0.3,2.3,0.9c0.5,0.6,0.8,1.4,0.8,2.5V36h-2.1v-5.4c0-1.4-0.6-2.1-1.8-2.1c-0.6,0-1.1,0.2-1.5,0.6
				c-0.4,0.4-0.5,0.9-0.5,1.6V36H56.7z M70.5,28.4c-0.6,0-1.1,0.2-1.5,0.6c-0.4,0.4-0.6,0.9-0.7,1.6h4.3c0-0.7-0.2-1.2-0.6-1.6
				C71.6,28.6,71.1,28.4,70.5,28.4z M72.6,33.5h2c-0.2,0.8-0.7,1.5-1.4,2c-0.7,0.5-1.6,0.7-2.7,0.7c-1.3,0-2.4-0.4-3.1-1.2
				c-0.8-0.8-1.1-2-1.1-3.4c0-1.5,0.4-2.6,1.1-3.5c0.8-0.9,1.8-1.3,3.1-1.3c1.3,0,2.3,0.4,3,1.2c0.7,0.8,1.1,1.9,1.1,3.4V32h-6.3
				v0.1c0,0.8,0.2,1.4,0.6,1.8c0.4,0.4,1,0.7,1.6,0.7C71.6,34.5,72.3,34.2,72.6,33.5z M76.3,36v-9.1h2v1.4h0.1
				c0.1-0.5,0.4-0.8,0.9-1.1c0.4-0.3,1-0.4,1.5-0.4c0.4,0,0.7,0,0.9,0.1v1.9c-0.2-0.1-0.6-0.1-1.1-0.1c-0.7,0-1.2,0.2-1.6,0.6
				c-0.4,0.4-0.6,0.9-0.6,1.5V36H76.3z M84.1,24.7h2.1V27H88v1.6h-1.9v4.5c0,0.4,0.1,0.8,0.3,1c0.2,0.2,0.5,0.3,0.9,0.3
				c0.2,0,0.4,0,0.7,0v1.6C87.7,36,87.3,36,87,36c-1,0-1.8-0.2-2.2-0.6c-0.4-0.4-0.7-1-0.7-1.9v-5h-1.4V27h1.4V24.7z M97.6,26.9V36
				h-2v-1.4h-0.1c-0.5,1.1-1.4,1.6-2.7,1.6c-1,0-1.8-0.3-2.3-0.9c-0.6-0.6-0.8-1.4-0.8-2.5v-5.9h2.1v5.4c0,0.7,0.1,1.2,0.4,1.6
				c0.3,0.3,0.7,0.5,1.4,0.5c0.7,0,1.2-0.2,1.5-0.6c0.4-0.4,0.5-0.9,0.5-1.6v-5.3H97.6z M99.7,36v-9.1h2v1.5h0.1
				c0.2-0.5,0.6-0.9,1-1.2c0.5-0.3,1-0.4,1.7-0.4c1,0,1.8,0.3,2.3,0.9c0.5,0.6,0.8,1.4,0.8,2.5V36h-2.1v-5.4c0-1.4-0.6-2.1-1.8-2.1
				c-0.6,0-1.1,0.2-1.5,0.6c-0.4,0.4-0.5,0.9-0.5,1.6V36H99.7z M113.5,28.4c-0.6,0-1.1,0.2-1.5,0.6c-0.4,0.4-0.6,0.9-0.7,1.6h4.3
				c0-0.7-0.2-1.2-0.6-1.6C114.6,28.6,114.1,28.4,113.5,28.4z M115.6,33.5h2c-0.2,0.8-0.7,1.5-1.4,2c-0.7,0.5-1.6,0.7-2.7,0.7
				c-1.3,0-2.4-0.4-3.1-1.2c-0.8-0.8-1.1-2-1.1-3.4c0-1.5,0.4-2.6,1.1-3.5c0.8-0.9,1.8-1.3,3.1-1.3c1.3,0,2.3,0.4,3,1.2
				c0.7,0.8,1.1,1.9,1.1,3.4V32h-6.3v0.1c0,0.8,0.2,1.4,0.6,1.8c0.4,0.4,1,0.7,1.6,0.7C114.6,34.5,115.3,34.2,115.6,33.5z M120.9,29
				h-1.5l0.8-5h2.1L120.9,29z M124.5,29H123l1-5h2.1L124.5,29z M139.2,27.5l-2.4,8.5h-2l-3.2-12h2.2l2,8.9h0.1l2.4-8.9h1.9l2.4,8.9
				h0.1l2.1-8.9h2.2l-3.2,12h-2l-2.4-8.5H139.2z M151.5,36.2c-1.4,0-2.4-0.4-3.2-1.3c-0.8-0.8-1.2-2-1.2-3.5c0-1.5,0.4-2.6,1.2-3.5
				c0.8-0.8,1.8-1.3,3.2-1.3c1.4,0,2.4,0.4,3.2,1.3c0.8,0.8,1.2,2,1.2,3.5c0,1.5-0.4,2.6-1.2,3.5C154,35.8,152.9,36.2,151.5,36.2z
				 M149.9,33.7c0.4,0.5,0.9,0.8,1.7,0.8c0.7,0,1.3-0.3,1.7-0.8c0.4-0.5,0.6-1.3,0.6-2.2c0-0.9-0.2-1.7-0.6-2.2
				c-0.4-0.5-0.9-0.8-1.7-0.8c-0.7,0-1.3,0.3-1.7,0.8c-0.4,0.5-0.6,1.3-0.6,2.2C149.3,32.4,149.5,33.2,149.9,33.7z M165.5,26.9V36
				h-2v-1.4h-0.1c-0.5,1.1-1.4,1.6-2.7,1.6c-1,0-1.8-0.3-2.3-0.9c-0.6-0.6-0.8-1.4-0.8-2.5v-5.9h2.1v5.4c0,0.7,0.1,1.2,0.4,1.6
				c0.3,0.3,0.7,0.5,1.4,0.5c0.7,0,1.2-0.2,1.5-0.6c0.4-0.4,0.5-0.9,0.5-1.6v-5.3H165.5z M167.7,36V23.4h2.1V36H167.7z M175.2,36.1
				c-1.2,0-2.1-0.4-2.7-1.3c-0.7-0.8-1-2-1-3.4c0-1.4,0.3-2.6,1-3.4c0.7-0.8,1.6-1.3,2.7-1.3c0.6,0,1.2,0.1,1.7,0.4
				c0.5,0.3,0.9,0.7,1.1,1.2h0.1v-5h2.1V36h-2v-1.4H178c-0.3,0.5-0.6,0.9-1.1,1.2C176.4,36,175.8,36.1,175.2,36.1z M177.5,29.3
				c-0.4-0.5-1-0.8-1.7-0.8c-0.7,0-1.3,0.3-1.7,0.8c-0.4,0.5-0.6,1.2-0.6,2.1c0,0.9,0.2,1.6,0.6,2.2c0.4,0.5,1,0.8,1.7,0.8
				c0.7,0,1.3-0.3,1.7-0.8c0.4-0.5,0.6-1.2,0.6-2.2C178.1,30.6,177.9,29.8,177.5,29.3z M194.3,34.1V36h-7.6V24h2.1v10.1H194.3z
				 M196,36v-9.1h2.1V36H196z M197.1,25.4c-0.4,0-0.7-0.1-0.9-0.3c-0.2-0.2-0.4-0.5-0.4-0.8c0-0.3,0.1-0.6,0.4-0.8
				c0.2-0.2,0.5-0.3,0.9-0.3c0.4,0,0.7,0.1,0.9,0.3c0.2,0.2,0.4,0.5,0.4,0.8c0,0.3-0.1,0.6-0.4,0.8
				C197.7,25.3,197.4,25.4,197.1,25.4z M202.5,30.6l3.4-3.7h2.4l-3.6,3.9l3.9,5.2H206l-2.9-3.9l-0.7,0.7V36h-2.1V23.4h2.1v7.2H202.5
				z M213,28.4c-0.6,0-1.1,0.2-1.5,0.6c-0.4,0.4-0.6,0.9-0.7,1.6h4.3c0-0.7-0.2-1.2-0.6-1.6C214.1,28.6,213.6,28.4,213,28.4z
				 M215.1,33.5h1.9c-0.2,0.8-0.7,1.5-1.4,2c-0.7,0.5-1.6,0.7-2.7,0.7c-1.3,0-2.4-0.4-3.1-1.2c-0.8-0.8-1.1-2-1.1-3.4
				c0-1.5,0.4-2.6,1.1-3.5c0.8-0.9,1.8-1.3,3.1-1.3c1.3,0,2.3,0.4,3,1.2c0.7,0.8,1.1,1.9,1.1,3.4V32h-6.3v0.1c0,0.8,0.2,1.4,0.6,1.8
				c0.4,0.4,1,0.7,1.6,0.7C214.1,34.5,214.8,34.2,215.1,33.5z M223.6,24.7h2.1V27h1.9v1.6h-1.9v4.5c0,0.4,0.1,0.8,0.3,1
				c0.2,0.2,0.5,0.3,0.9,0.3c0.2,0,0.4,0,0.7,0v1.6c-0.3,0.1-0.7,0.1-1.1,0.1c-1,0-1.8-0.2-2.2-0.6c-0.4-0.4-0.7-1-0.7-1.9v-5h-1.4
				V27h1.4V24.7z M233.1,36.2c-1.4,0-2.4-0.4-3.2-1.3c-0.8-0.8-1.2-2-1.2-3.5c0-1.5,0.4-2.6,1.2-3.5c0.8-0.8,1.8-1.3,3.2-1.3
				c1.4,0,2.4,0.4,3.2,1.3c0.8,0.8,1.2,2,1.2,3.5c0,1.5-0.4,2.6-1.2,3.5C235.5,35.8,234.4,36.2,233.1,36.2z M231.4,33.7
				c0.4,0.5,0.9,0.8,1.7,0.8c0.7,0,1.3-0.3,1.7-0.8c0.4-0.5,0.6-1.3,0.6-2.2c0-0.9-0.2-1.7-0.6-2.2c-0.4-0.5-0.9-0.8-1.7-0.8
				c-0.7,0-1.3,0.3-1.7,0.8c-0.4,0.5-0.6,1.3-0.6,2.2C230.8,32.4,231,33.2,231.4,33.7z M23.4,54.7h2.1c0.1,0.5,0.3,1,0.8,1.3
				c0.5,0.3,1.1,0.5,1.9,0.5c0.7,0,1.3-0.2,1.7-0.5c0.5-0.3,0.7-0.7,0.7-1.2c0-0.4-0.2-0.8-0.5-1.1c-0.3-0.3-0.9-0.5-1.7-0.7
				l-1.6-0.4c-1.1-0.2-1.9-0.6-2.4-1.2c-0.5-0.6-0.8-1.3-0.8-2.2c0-1.1,0.4-2,1.2-2.6c0.8-0.7,1.9-1,3.2-1c1.3,0,2.3,0.3,3.1,1
				c0.8,0.7,1.3,1.5,1.3,2.5h-2.1c-0.1-0.5-0.3-0.9-0.8-1.3c-0.4-0.3-1-0.5-1.6-0.5c-0.7,0-1.2,0.2-1.7,0.5
				c-0.4,0.3-0.6,0.7-0.6,1.2c0,0.4,0.2,0.7,0.5,1c0.3,0.2,0.9,0.5,1.6,0.6l1.4,0.3c1.2,0.3,2.1,0.7,2.6,1.2
				c0.5,0.5,0.8,1.3,0.8,2.2c0,1.2-0.4,2.1-1.3,2.8c-0.8,0.7-2,1-3.4,1c-1.4,0-2.5-0.3-3.3-1C23.9,56.7,23.5,55.8,23.4,54.7z
				 M38.4,50.4c-0.6,0-1.1,0.2-1.5,0.6c-0.4,0.4-0.6,0.9-0.7,1.6h4.3c0-0.7-0.2-1.2-0.6-1.6C39.5,50.6,39,50.4,38.4,50.4z
				 M40.5,55.5h2c-0.2,0.8-0.7,1.5-1.4,2c-0.7,0.5-1.6,0.7-2.7,0.7c-1.3,0-2.4-0.4-3.1-1.2c-0.8-0.8-1.1-2-1.1-3.4
				c0-1.5,0.4-2.6,1.1-3.5c0.8-0.9,1.8-1.3,3.1-1.3c1.3,0,2.3,0.4,3,1.2c0.7,0.8,1.1,1.9,1.1,3.4V54h-6.3v0.1c0,0.8,0.2,1.4,0.6,1.8
				c0.4,0.4,1,0.7,1.6,0.7C39.5,56.5,40.2,56.2,40.5,55.5z M44.2,58v-9.1h2v1.5h0.1c0.2-0.5,0.6-0.9,1-1.2c0.5-0.3,1-0.4,1.7-0.4
				c1,0,1.8,0.3,2.3,0.9c0.5,0.6,0.8,1.4,0.8,2.5V58h-2.1v-5.4c0-1.4-0.6-2.1-1.8-2.1c-0.6,0-1.1,0.2-1.5,0.6
				c-0.4,0.4-0.5,0.9-0.5,1.6V58H44.2z M57.5,58.1c-1.2,0-2.1-0.4-2.7-1.3c-0.7-0.8-1-2-1-3.4c0-1.4,0.3-2.6,1-3.4
				c0.7-0.8,1.6-1.3,2.7-1.3c0.6,0,1.2,0.1,1.7,0.4c0.5,0.3,0.9,0.7,1.1,1.2h0.1v-5h2.1V58h-2v-1.4h-0.1c-0.3,0.5-0.6,0.9-1.1,1.2
				C58.7,58,58.1,58.1,57.5,58.1z M59.8,51.3c-0.4-0.5-1-0.8-1.7-0.8c-0.7,0-1.3,0.3-1.7,0.8c-0.4,0.5-0.6,1.2-0.6,2.1
				c0,0.9,0.2,1.6,0.6,2.2c0.4,0.5,1,0.8,1.7,0.8c0.7,0,1.3-0.3,1.7-0.8c0.4-0.5,0.6-1.2,0.6-2.2C60.4,52.6,60.2,51.8,59.8,51.3z
				 M74.4,58h-2.1v-4.7L68.1,46h2.3l2.9,5.1h0.1l2.8-5.1h2.3l-4.2,7.3V58z M82.4,58.2c-1.4,0-2.4-0.4-3.2-1.3
				c-0.8-0.8-1.2-2-1.2-3.5c0-1.5,0.4-2.6,1.2-3.5c0.8-0.8,1.8-1.3,3.2-1.3c1.4,0,2.4,0.4,3.2,1.3c0.8,0.8,1.2,2,1.2,3.5
				c0,1.5-0.4,2.6-1.2,3.5C84.9,57.8,83.8,58.2,82.4,58.2z M80.8,55.7c0.4,0.5,0.9,0.8,1.7,0.8c0.7,0,1.3-0.3,1.7-0.8
				c0.4-0.5,0.6-1.3,0.6-2.2c0-0.9-0.2-1.7-0.6-2.2c-0.4-0.5-0.9-0.8-1.7-0.8c-0.7,0-1.3,0.3-1.7,0.8c-0.4,0.5-0.6,1.3-0.6,2.2
				C80.2,54.4,80.4,55.2,80.8,55.7z M96.4,48.9V58h-2v-1.4h-0.1c-0.5,1.1-1.4,1.6-2.7,1.6c-1,0-1.8-0.3-2.3-0.9
				c-0.6-0.6-0.8-1.4-0.8-2.5v-5.9h2.1v5.4c0,0.7,0.1,1.2,0.4,1.6c0.3,0.3,0.7,0.5,1.4,0.5c0.7,0,1.2-0.2,1.5-0.6
				c0.4-0.4,0.5-0.9,0.5-1.6v-5.3H96.4z M102.8,46h4.8c1.2,0,2.2,0.4,2.9,1.1c0.7,0.7,1.1,1.7,1.1,2.9c0,1.2-0.4,2.1-1.2,2.9
				c-0.8,0.7-1.8,1.1-3,1.1H105V58h-2.1V46z M105,47.8v4.5h2.1c0.8,0,1.4-0.2,1.8-0.6c0.4-0.4,0.6-0.9,0.6-1.6
				c0-0.7-0.2-1.3-0.6-1.7c-0.4-0.4-1-0.6-1.8-0.6H105z M121.3,48.9V58h-2v-1.4h-0.1c-0.5,1.1-1.4,1.6-2.7,1.6c-1,0-1.8-0.3-2.3-0.9
				c-0.6-0.6-0.8-1.4-0.8-2.5v-5.9h2.1v5.4c0,0.7,0.1,1.2,0.4,1.6c0.3,0.3,0.7,0.5,1.4,0.5c0.7,0,1.2-0.2,1.5-0.6
				c0.4-0.4,0.5-0.9,0.5-1.6v-5.3H121.3z M123.2,51.5c0-0.8,0.3-1.5,1-2c0.7-0.5,1.5-0.8,2.6-0.8c1.1,0,1.9,0.2,2.6,0.7
				c0.6,0.5,1,1.1,1.1,1.9h-1.9c-0.1-0.3-0.3-0.6-0.6-0.8c-0.3-0.2-0.7-0.3-1.2-0.3c-0.5,0-0.9,0.1-1.2,0.3
				c-0.3,0.2-0.5,0.5-0.5,0.8c0,0.3,0.1,0.5,0.3,0.6c0.2,0.2,0.6,0.3,1,0.4l1.6,0.4c0.9,0.2,1.5,0.5,1.9,0.9
				c0.4,0.4,0.6,0.9,0.6,1.6c0,0.9-0.4,1.6-1.1,2.1c-0.7,0.5-1.6,0.8-2.8,0.8c-1.1,0-2-0.2-2.7-0.7c-0.7-0.5-1.1-1.1-1.1-1.9h2
				c0.1,0.3,0.3,0.6,0.6,0.8c0.3,0.2,0.7,0.3,1.2,0.3c0.5,0,0.9-0.1,1.3-0.3c0.3-0.2,0.5-0.5,0.5-0.8c0-0.5-0.4-0.8-1.3-1l-1.6-0.4
				c-0.9-0.2-1.5-0.5-1.9-0.9C123.5,52.7,123.2,52.2,123.2,51.5z M132.5,58V45.4h2v5h0.1c0.2-0.5,0.6-0.9,1-1.2
				c0.5-0.3,1-0.4,1.7-0.4c1,0,1.7,0.3,2.3,0.9c0.6,0.6,0.8,1.4,0.8,2.5V58h-2.1v-5.4c0-0.7-0.2-1.2-0.5-1.6
				c-0.3-0.4-0.8-0.5-1.4-0.5c-0.7,0-1.2,0.2-1.6,0.6c-0.4,0.4-0.6,0.9-0.6,1.6V58H132.5z M149,58h-2.1V46h1.9l5.9,8.1h0.1V46h2.1
				v12H155l-5.9-8.2H149V58z M163.1,58.2c-1.4,0-2.4-0.4-3.2-1.3c-0.8-0.8-1.2-2-1.2-3.5c0-1.5,0.4-2.6,1.2-3.5
				c0.8-0.8,1.8-1.3,3.2-1.3c1.4,0,2.4,0.4,3.2,1.3c0.8,0.8,1.2,2,1.2,3.5c0,1.5-0.4,2.6-1.2,3.5C165.5,57.8,164.5,58.2,163.1,58.2z
				 M161.4,55.7c0.4,0.5,0.9,0.8,1.7,0.8c0.7,0,1.3-0.3,1.7-0.8c0.4-0.5,0.6-1.3,0.6-2.2c0-0.9-0.2-1.7-0.6-2.2
				c-0.4-0.5-0.9-0.8-1.7-0.8c-0.7,0-1.3,0.3-1.7,0.8c-0.4,0.5-0.6,1.3-0.6,2.2C160.9,54.4,161.1,55.2,161.4,55.7z M169.8,46.7h2.1
				V49h1.9v1.6h-1.9v4.5c0,0.4,0.1,0.8,0.3,1c0.2,0.2,0.5,0.3,0.9,0.3c0.2,0,0.4,0,0.7,0v1.6c-0.3,0.1-0.7,0.1-1.1,0.1
				c-1,0-1.8-0.2-2.2-0.6c-0.4-0.4-0.7-1-0.7-1.9v-5h-1.4V49h1.4V46.7z M175.5,58v-9.1h2.1V58H175.5z M176.5,47.4
				c-0.4,0-0.7-0.1-0.9-0.3c-0.2-0.2-0.4-0.5-0.4-0.8s0.1-0.6,0.4-0.8c0.2-0.2,0.5-0.3,0.9-0.3c0.4,0,0.7,0.1,0.9,0.3
				c0.2,0.2,0.4,0.5,0.4,0.8s-0.1,0.6-0.4,0.8C177.2,47.3,176.9,47.4,176.5,47.4z M180.3,58v-7.4h-1.5V49h1.5v-1
				c0-0.9,0.2-1.6,0.7-2c0.5-0.4,1.2-0.7,2.2-0.7c0.4,0,0.8,0,1.1,0.1v1.5c-0.2,0-0.4,0-0.7,0c-0.5,0-0.8,0.1-1,0.3
				c-0.2,0.2-0.3,0.5-0.3,1V49h2v1.6h-2V58H180.3z M185.9,58v-9.1h2.1V58H185.9z M187,47.4c-0.4,0-0.7-0.1-0.9-0.3
				c-0.2-0.2-0.4-0.5-0.4-0.8s0.1-0.6,0.4-0.8c0.2-0.2,0.5-0.3,0.9-0.3c0.4,0,0.7,0.1,0.9,0.3c0.2,0.2,0.4,0.5,0.4,0.8
				s-0.1,0.6-0.4,0.8C187.6,47.3,187.3,47.4,187,47.4z M198,52h-2c-0.1-0.5-0.3-0.8-0.7-1.1c-0.3-0.3-0.8-0.4-1.3-0.4
				c-0.7,0-1.3,0.3-1.7,0.8c-0.4,0.5-0.6,1.3-0.6,2.2c0,1,0.2,1.7,0.6,2.2c0.4,0.5,1,0.8,1.7,0.8c0.5,0,1-0.1,1.3-0.4
				c0.3-0.2,0.6-0.6,0.7-1.1h2c-0.1,1-0.5,1.7-1.2,2.3c-0.7,0.6-1.6,0.9-2.7,0.9c-1.4,0-2.4-0.4-3.2-1.3c-0.8-0.8-1.1-2-1.1-3.5
				c0-1.5,0.4-2.6,1.1-3.5c0.8-0.8,1.8-1.2,3.2-1.2c1.1,0,2.1,0.3,2.7,0.9C197.5,50.2,197.9,51,198,52z M202.6,56.5
				c0.6,0,1.1-0.2,1.6-0.5c0.4-0.4,0.6-0.8,0.6-1.3v-0.7l-2.1,0.1c-1.1,0.1-1.7,0.5-1.7,1.2c0,0.4,0.1,0.7,0.4,0.9
				C201.8,56.4,202.2,56.5,202.6,56.5z M202,58.1c-0.9,0-1.6-0.2-2.2-0.7c-0.6-0.5-0.8-1.2-0.8-2c0-0.8,0.3-1.5,0.9-1.9
				c0.6-0.5,1.4-0.7,2.6-0.8l2.3-0.1v-0.8c0-0.4-0.1-0.8-0.4-1c-0.3-0.2-0.7-0.4-1.3-0.4c-0.5,0-0.9,0.1-1.2,0.2
				c-0.3,0.2-0.5,0.4-0.6,0.7h-1.9c0.1-0.8,0.5-1.4,1.2-1.9c0.7-0.5,1.6-0.7,2.7-0.7c1.2,0,2.1,0.3,2.7,0.8c0.6,0.5,1,1.3,1,2.3V58
				h-2v-1.2h-0.1c-0.3,0.4-0.6,0.8-1.1,1C203.2,58,202.6,58.1,202,58.1z M209.6,46.7h2.1V49h1.9v1.6h-1.9v4.5c0,0.4,0.1,0.8,0.3,1
				c0.2,0.2,0.5,0.3,0.9,0.3c0.2,0,0.4,0,0.7,0v1.6c-0.3,0.1-0.7,0.1-1.1,0.1c-1,0-1.8-0.2-2.2-0.6c-0.4-0.4-0.7-1-0.7-1.9v-5h-1.4
				V49h1.4V46.7z M215.3,58v-9.1h2.1V58H215.3z M216.3,47.4c-0.4,0-0.7-0.1-0.9-0.3c-0.2-0.2-0.4-0.5-0.4-0.8s0.1-0.6,0.4-0.8
				c0.2-0.2,0.5-0.3,0.9-0.3c0.4,0,0.7,0.1,0.9,0.3c0.2,0.2,0.4,0.5,0.4,0.8s-0.1,0.6-0.4,0.8C217,47.3,216.7,47.4,216.3,47.4z
				 M223.4,58.2c-1.4,0-2.4-0.4-3.2-1.3c-0.8-0.8-1.2-2-1.2-3.5c0-1.5,0.4-2.6,1.2-3.5c0.8-0.8,1.8-1.3,3.2-1.3
				c1.4,0,2.4,0.4,3.2,1.3c0.8,0.8,1.2,2,1.2,3.5c0,1.5-0.4,2.6-1.2,3.5C225.8,57.8,224.7,58.2,223.4,58.2z M221.7,55.7
				c0.4,0.5,0.9,0.8,1.7,0.8c0.7,0,1.3-0.3,1.7-0.8c0.4-0.5,0.6-1.3,0.6-2.2c0-0.9-0.2-1.7-0.6-2.2c-0.4-0.5-0.9-0.8-1.7-0.8
				c-0.7,0-1.3,0.3-1.7,0.8c-0.4,0.5-0.6,1.3-0.6,2.2C221.1,54.4,221.3,55.2,221.7,55.7z M229.4,58v-9.1h2v1.5h0.1
				c0.2-0.5,0.6-0.9,1-1.2c0.5-0.3,1-0.4,1.7-0.4c1,0,1.8,0.3,2.3,0.9c0.5,0.6,0.8,1.4,0.8,2.5V58h-2.1v-5.4c0-1.4-0.6-2.1-1.8-2.1
				c-0.6,0-1.1,0.2-1.5,0.6c-0.4,0.4-0.5,0.9-0.5,1.6V58H229.4z M239.2,51.5c0-0.8,0.3-1.5,1-2c0.7-0.5,1.5-0.8,2.6-0.8
				c1.1,0,1.9,0.2,2.6,0.7c0.6,0.5,1,1.1,1.1,1.9h-1.9c-0.1-0.3-0.3-0.6-0.6-0.8c-0.3-0.2-0.7-0.3-1.2-0.3s-0.9,0.1-1.2,0.3
				c-0.3,0.2-0.5,0.5-0.5,0.8c0,0.3,0.1,0.5,0.3,0.6c0.2,0.2,0.6,0.3,1,0.4l1.6,0.4c0.9,0.2,1.5,0.5,1.9,0.9
				c0.4,0.4,0.6,0.9,0.6,1.6c0,0.9-0.4,1.6-1.1,2.1c-0.7,0.5-1.6,0.8-2.8,0.8c-1.1,0-2-0.2-2.7-0.7c-0.7-0.5-1.1-1.1-1.1-1.9h2
				c0.1,0.3,0.3,0.6,0.6,0.8c0.3,0.2,0.7,0.3,1.2,0.3c0.5,0,0.9-0.1,1.3-0.3c0.3-0.2,0.5-0.5,0.5-0.8c0-0.5-0.4-0.8-1.3-1l-1.6-0.4
				c-0.9-0.2-1.5-0.5-1.9-0.9C239.4,52.7,239.2,52.2,239.2,51.5z"/>
			<path d="M40.2,77h-1.1v-9.2h1.1l5,7.1h0.1v-7.1h1.1V77h-1.1l-5-7.1h-0.1V77z M53.6,76.2c-0.6,0.6-1.3,0.9-2.3,0.9
				c-1,0-1.7-0.3-2.3-0.9c-0.6-0.6-0.8-1.5-0.8-2.6c0-1.1,0.3-2,0.8-2.6c0.6-0.6,1.3-0.9,2.3-0.9c1,0,1.7,0.3,2.3,0.9
				c0.6,0.6,0.8,1.5,0.8,2.6C54.5,74.7,54.2,75.5,53.6,76.2z M49.8,75.5c0.4,0.4,0.9,0.7,1.5,0.7c0.6,0,1.1-0.2,1.5-0.7
				c0.4-0.4,0.5-1.1,0.5-1.9s-0.2-1.4-0.5-1.9C52.5,71.2,52,71,51.3,71c-0.6,0-1.1,0.2-1.5,0.7c-0.4,0.4-0.5,1.1-0.5,1.9
				S49.5,75,49.8,75.5z M56.6,68.4h1.1v1.8h1.5v0.9h-1.5v3.9c0,0.4,0.1,0.7,0.2,0.9c0.2,0.2,0.4,0.3,0.8,0.3c0.2,0,0.3,0,0.5,0V77
				c-0.2,0-0.5,0.1-0.6,0.1c-0.7,0-1.2-0.1-1.5-0.4c-0.3-0.3-0.5-0.8-0.5-1.4v-4.2h-1.1v-0.9h1.1V68.4z M60.8,77v-6.8h1.1V77H60.8z
				 M61.9,68.5c-0.1,0.1-0.3,0.2-0.5,0.2c-0.2,0-0.4-0.1-0.5-0.2c-0.1-0.2-0.2-0.3-0.2-0.5c0-0.2,0.1-0.4,0.2-0.5
				c0.1-0.2,0.3-0.2,0.5-0.2c0.2,0,0.4,0.1,0.5,0.2c0.1,0.1,0.2,0.3,0.2,0.5C62.1,68.2,62,68.4,61.9,68.5z M64.4,77v-5.9h-1.1v-0.9
				h1.1v-0.8c0-1.3,0.7-2,2-2c0.3,0,0.5,0,0.7,0.1v0.9c-0.1,0-0.3,0-0.5,0c-0.4,0-0.7,0.1-0.9,0.3c-0.2,0.2-0.3,0.5-0.3,0.9v0.7H67
				v0.9h-1.6V77H64.4z M68.6,77v-6.8h1.1V77H68.6z M69.6,68.5c-0.1,0.1-0.3,0.2-0.5,0.2s-0.4-0.1-0.5-0.2c-0.1-0.2-0.2-0.3-0.2-0.5
				c0-0.2,0.1-0.4,0.2-0.5c0.1-0.2,0.3-0.2,0.5-0.2s0.4,0.1,0.5,0.2c0.1,0.1,0.2,0.3,0.2,0.5C69.9,68.2,69.8,68.4,69.6,68.5z
				 M77.3,72.3h-1.1c-0.1-0.4-0.3-0.7-0.6-0.9c-0.3-0.2-0.7-0.3-1.2-0.3c-0.6,0-1.1,0.2-1.5,0.7c-0.4,0.5-0.5,1.1-0.5,1.8
				c0,0.8,0.2,1.4,0.5,1.9c0.4,0.5,0.9,0.7,1.5,0.7c0.5,0,0.8-0.1,1.1-0.3c0.3-0.2,0.5-0.5,0.6-0.9h1.1c-0.1,0.6-0.4,1.2-0.9,1.6
				c-0.5,0.4-1.2,0.6-2,0.6c-1,0-1.7-0.3-2.3-1c-0.6-0.6-0.9-1.5-0.9-2.6c0-1.1,0.3-1.9,0.9-2.6c0.6-0.6,1.3-1,2.3-1
				c0.8,0,1.5,0.2,2,0.6C76.9,71.1,77.2,71.6,77.3,72.3z M81,76.2c0.6,0,1-0.2,1.4-0.5c0.4-0.3,0.6-0.7,0.6-1.2v-0.6l-1.8,0.1
				c-0.5,0-0.9,0.1-1.1,0.3c-0.2,0.2-0.4,0.4-0.4,0.8c0,0.3,0.1,0.6,0.4,0.8C80.2,76.1,80.5,76.2,81,76.2z M80.8,77.1
				c-0.7,0-1.2-0.2-1.7-0.6c-0.4-0.4-0.6-0.9-0.6-1.5c0-0.6,0.2-1.1,0.6-1.4c0.4-0.3,1-0.5,1.8-0.6l2-0.1v-0.6c0-0.4-0.1-0.7-0.4-1
				c-0.3-0.2-0.6-0.3-1.2-0.3c-0.4,0-0.8,0.1-1,0.2c-0.3,0.1-0.4,0.4-0.5,0.6h-1.1c0.1-0.5,0.4-1,0.8-1.3c0.5-0.3,1.1-0.5,1.8-0.5
				c0.8,0,1.5,0.2,1.9,0.6c0.5,0.4,0.7,1,0.7,1.7V77h-1v-1h-0.1c-0.2,0.4-0.5,0.6-0.9,0.8C81.6,77,81.2,77.1,80.8,77.1z M86.4,68.4
				h1.1v1.8H89v0.9h-1.5v3.9c0,0.4,0.1,0.7,0.2,0.9c0.2,0.2,0.4,0.3,0.8,0.3c0.2,0,0.3,0,0.5,0V77c-0.2,0-0.5,0.1-0.6,0.1
				c-0.7,0-1.2-0.1-1.5-0.4c-0.3-0.3-0.5-0.8-0.5-1.4v-4.2h-1.1v-0.9h1.1V68.4z M90.6,77v-6.8h1.1V77H90.6z M91.7,68.5
				c-0.1,0.1-0.3,0.2-0.5,0.2c-0.2,0-0.4-0.1-0.5-0.2c-0.1-0.2-0.2-0.3-0.2-0.5c0-0.2,0.1-0.4,0.2-0.5c0.1-0.2,0.3-0.2,0.5-0.2
				c0.2,0,0.4,0.1,0.5,0.2c0.1,0.1,0.2,0.3,0.2,0.5C91.9,68.2,91.8,68.4,91.7,68.5z M98.8,76.2c-0.6,0.6-1.3,0.9-2.3,0.9
				s-1.7-0.3-2.3-0.9c-0.6-0.6-0.8-1.5-0.8-2.6c0-1.1,0.3-2,0.8-2.6c0.6-0.6,1.3-0.9,2.3-0.9s1.7,0.3,2.3,0.9
				c0.6,0.6,0.8,1.5,0.8,2.6C99.7,74.7,99.4,75.5,98.8,76.2z M95,75.5c0.4,0.4,0.9,0.7,1.5,0.7s1.1-0.2,1.5-0.7
				c0.4-0.4,0.5-1.1,0.5-1.9s-0.2-1.4-0.5-1.9c-0.4-0.4-0.9-0.7-1.5-0.7s-1.1,0.2-1.5,0.7c-0.4,0.4-0.5,1.1-0.5,1.9S94.7,75,95,75.5
				z M101.3,77v-6.8h1v1.1h0.1c0.4-0.8,1-1.2,2.1-1.2c0.8,0,1.4,0.2,1.8,0.7c0.4,0.4,0.6,1.1,0.6,1.9V77h-1.1v-4.2
				c0-0.6-0.1-1.1-0.4-1.4c-0.3-0.3-0.7-0.5-1.2-0.5c-0.6,0-1,0.2-1.3,0.5c-0.3,0.3-0.5,0.8-0.5,1.4v4H101.3z M108.7,72
				c0-0.6,0.2-1,0.7-1.4c0.5-0.4,1.1-0.6,1.8-0.6c0.7,0,1.3,0.2,1.8,0.5c0.5,0.3,0.7,0.8,0.8,1.3h-1.1c-0.1-0.3-0.2-0.5-0.5-0.7
				c-0.3-0.2-0.6-0.2-1-0.2c-0.4,0-0.8,0.1-1,0.3c-0.3,0.2-0.4,0.4-0.4,0.7c0,0.2,0.1,0.4,0.3,0.6c0.2,0.2,0.5,0.3,0.9,0.4l1.1,0.3
				c0.7,0.2,1.1,0.4,1.4,0.7c0.3,0.3,0.5,0.7,0.5,1.2c0,0.6-0.3,1.1-0.8,1.5c-0.5,0.4-1.2,0.6-2,0.6c-0.8,0-1.4-0.2-1.9-0.5
				c-0.5-0.3-0.8-0.8-0.8-1.4h1.1c0.1,0.3,0.3,0.5,0.6,0.7c0.3,0.2,0.6,0.2,1.1,0.2c0.5,0,0.8-0.1,1.1-0.3c0.3-0.2,0.4-0.5,0.4-0.8
				c0-0.5-0.4-0.8-1.1-1l-1.2-0.3c-0.6-0.2-1.1-0.4-1.4-0.7C108.8,72.9,108.7,72.5,108.7,72z M119.1,77v-6.8h1v1.1h0.1
				c0.2-0.4,0.4-0.7,0.7-0.9c0.3-0.2,0.7-0.3,1.2-0.3c0.4,0,0.8,0.1,1.2,0.3c0.3,0.2,0.6,0.5,0.7,0.9h0.1c0.2-0.4,0.5-0.7,0.8-0.9
				c0.4-0.2,0.8-0.3,1.3-0.3c0.7,0,1.2,0.2,1.6,0.6c0.4,0.4,0.6,0.9,0.6,1.7V77h-1.1v-4.5c0-1-0.5-1.5-1.4-1.5
				c-0.5,0-0.8,0.2-1.1,0.5c-0.3,0.3-0.4,0.7-0.4,1.1V77h-1.1v-4.6c0-0.4-0.1-0.7-0.4-1c-0.3-0.2-0.6-0.4-1-0.4
				c-0.4,0-0.8,0.2-1.1,0.5c-0.3,0.3-0.5,0.7-0.5,1.2V77H119.1z M132.5,76.2c0.6,0,1-0.2,1.4-0.5c0.4-0.3,0.6-0.7,0.6-1.2v-0.6
				l-1.8,0.1c-0.5,0-0.9,0.1-1.1,0.3c-0.2,0.2-0.4,0.4-0.4,0.8c0,0.3,0.1,0.6,0.4,0.8C131.7,76.1,132.1,76.2,132.5,76.2z
				 M132.3,77.1c-0.7,0-1.2-0.2-1.7-0.6c-0.4-0.4-0.6-0.9-0.6-1.5c0-0.6,0.2-1.1,0.6-1.4c0.4-0.3,1-0.5,1.8-0.6l2-0.1v-0.6
				c0-0.4-0.1-0.7-0.4-1c-0.3-0.2-0.6-0.3-1.2-0.3c-0.4,0-0.8,0.1-1,0.2c-0.3,0.1-0.4,0.4-0.5,0.6h-1.1c0.1-0.5,0.4-1,0.8-1.3
				c0.5-0.3,1.1-0.5,1.8-0.5c0.8,0,1.5,0.2,1.9,0.6c0.5,0.4,0.7,1,0.7,1.7V77h-1v-1h-0.1c-0.2,0.4-0.5,0.6-0.9,0.8
				C133.1,77,132.7,77.1,132.3,77.1z M137.8,79.5c-0.2,0-0.3,0-0.5,0v-0.9c0.1,0,0.3,0,0.5,0c0.3,0,0.6-0.1,0.8-0.3
				c0.2-0.2,0.4-0.5,0.5-0.9l0.1-0.4l-2.5-6.8h1.2l1.9,5.6h0.1l1.9-5.6h1.2l-2.7,7.3c-0.3,0.8-0.6,1.3-0.9,1.6
				C138.9,79.3,138.4,79.5,137.8,79.5z M147.8,77v-6.8h1.1V77H147.8z M148.9,68.5c-0.1,0.1-0.3,0.2-0.5,0.2c-0.2,0-0.4-0.1-0.5-0.2
				c-0.1-0.2-0.2-0.3-0.2-0.5c0-0.2,0.1-0.4,0.2-0.5c0.1-0.2,0.3-0.2,0.5-0.2c0.2,0,0.4,0.1,0.5,0.2c0.1,0.1,0.2,0.3,0.2,0.5
				C149.1,68.2,149,68.4,148.9,68.5z M150.9,77v-6.8h1v1.1h0.1c0.4-0.8,1-1.2,2.1-1.2c0.8,0,1.4,0.2,1.8,0.7
				c0.4,0.4,0.6,1.1,0.6,1.9V77h-1.1v-4.2c0-0.6-0.1-1.1-0.4-1.4c-0.3-0.3-0.7-0.5-1.2-0.5c-0.6,0-1,0.2-1.3,0.5
				c-0.3,0.3-0.5,0.8-0.5,1.4v4H150.9z M164.1,72.3H163c-0.1-0.4-0.3-0.7-0.6-0.9c-0.3-0.2-0.7-0.3-1.2-0.3c-0.6,0-1.1,0.2-1.5,0.7
				c-0.4,0.5-0.5,1.1-0.5,1.8c0,0.8,0.2,1.4,0.5,1.9c0.4,0.5,0.9,0.7,1.5,0.7c0.5,0,0.8-0.1,1.1-0.3c0.3-0.2,0.5-0.5,0.6-0.9h1.1
				c-0.1,0.6-0.4,1.2-0.9,1.6c-0.5,0.4-1.2,0.6-2,0.6c-1,0-1.7-0.3-2.3-1c-0.6-0.6-0.9-1.5-0.9-2.6c0-1.1,0.3-1.9,0.9-2.6
				s1.3-1,2.3-1c0.8,0,1.5,0.2,2,0.6C163.7,71.1,164,71.6,164.1,72.3z M165.7,77v-9.6h1.1V77H165.7z M174.4,70.2V77h-1v-1.1h-0.1
				c-0.2,0.4-0.4,0.7-0.8,0.9c-0.4,0.2-0.8,0.3-1.3,0.3c-0.8,0-1.3-0.2-1.7-0.7c-0.4-0.4-0.6-1.1-0.6-1.9v-4.4h1.1v4.2
				c0,0.6,0.1,1.1,0.4,1.4c0.2,0.3,0.6,0.4,1.2,0.4c0.6,0,1.1-0.2,1.4-0.5c0.3-0.3,0.5-0.8,0.5-1.4v-4H174.4z M178.9,77.1
				c-0.9,0-1.6-0.3-2.1-1c-0.5-0.6-0.8-1.5-0.8-2.6c0-1.1,0.3-1.9,0.8-2.6c0.5-0.6,1.2-1,2.1-1c0.5,0,0.9,0.1,1.3,0.3
				c0.4,0.2,0.7,0.5,0.9,0.9h0.1v-3.8h1.1V77h-1v-1.1h-0.1c-0.2,0.4-0.5,0.7-0.9,0.9C179.8,77,179.3,77.1,178.9,77.1z M179.1,71
				c-0.6,0-1.1,0.2-1.5,0.7c-0.4,0.5-0.5,1.1-0.5,1.9c0,0.8,0.2,1.4,0.5,1.9c0.4,0.5,0.8,0.7,1.5,0.7c0.6,0,1.1-0.2,1.5-0.7
				c0.4-0.5,0.5-1.1,0.5-1.9c0-0.8-0.2-1.4-0.5-1.9C180.2,71.3,179.7,71,179.1,71z M187,71c-0.5,0-1,0.2-1.3,0.6
				c-0.4,0.4-0.5,0.9-0.6,1.5h3.8c0-0.6-0.2-1.1-0.5-1.5C187.9,71.2,187.5,71,187,71z M188.8,75.2h1.1c-0.2,0.6-0.5,1.1-1,1.4
				c-0.5,0.3-1.1,0.5-1.9,0.5c-0.9,0-1.7-0.3-2.3-1c-0.6-0.6-0.8-1.5-0.8-2.6c0-1.1,0.3-1.9,0.8-2.6c0.6-0.6,1.3-1,2.2-1
				c0.9,0,1.6,0.3,2.2,0.9c0.5,0.6,0.8,1.5,0.8,2.5v0.4H185v0.1c0,0.7,0.2,1.2,0.6,1.6c0.4,0.4,0.8,0.6,1.4,0.6
				C187.9,76.2,188.5,75.8,188.8,75.2z M197.3,76.2c0.6,0,1-0.2,1.4-0.5c0.4-0.3,0.6-0.7,0.6-1.2v-0.6l-1.8,0.1
				c-0.5,0-0.9,0.1-1.1,0.3c-0.2,0.2-0.4,0.4-0.4,0.8c0,0.3,0.1,0.6,0.4,0.8C196.5,76.1,196.9,76.2,197.3,76.2z M197.1,77.1
				c-0.7,0-1.2-0.2-1.7-0.6c-0.4-0.4-0.6-0.9-0.6-1.5c0-0.6,0.2-1.1,0.6-1.4c0.4-0.3,1-0.5,1.8-0.6l2-0.1v-0.6c0-0.4-0.1-0.7-0.4-1
				c-0.3-0.2-0.6-0.3-1.2-0.3c-0.4,0-0.8,0.1-1,0.2c-0.3,0.1-0.4,0.4-0.5,0.6H195c0.1-0.5,0.4-1,0.8-1.3c0.5-0.3,1.1-0.5,1.8-0.5
				c0.8,0,1.5,0.2,1.9,0.6c0.5,0.4,0.7,1,0.7,1.7V77h-1v-1h-0.1c-0.2,0.4-0.5,0.6-0.9,0.8C197.9,77,197.5,77.1,197.1,77.1z
				 M202.3,77v-9.6h1.1V77H202.3z M208.2,71c-0.5,0-1,0.2-1.3,0.6c-0.4,0.4-0.5,0.9-0.6,1.5h3.8c0-0.6-0.2-1.1-0.5-1.5
				C209.2,71.2,208.7,71,208.2,71z M210,75.2h1.1c-0.2,0.6-0.5,1.1-1,1.4c-0.5,0.3-1.1,0.5-1.9,0.5c-0.9,0-1.7-0.3-2.3-1
				c-0.6-0.6-0.8-1.5-0.8-2.6c0-1.1,0.3-1.9,0.8-2.6c0.6-0.6,1.3-1,2.2-1c0.9,0,1.6,0.3,2.2,0.9c0.5,0.6,0.8,1.5,0.8,2.5v0.4h-4.9
				v0.1c0,0.7,0.2,1.2,0.6,1.6c0.4,0.4,0.8,0.6,1.4,0.6C209.1,76.2,209.7,75.8,210,75.2z M212.8,77v-6.8h1v1h0.1
				c0.1-0.3,0.3-0.6,0.7-0.8c0.4-0.2,0.8-0.3,1.2-0.3c0.2,0,0.4,0,0.5,0v1.1c-0.1,0-0.4-0.1-0.7-0.1c-0.5,0-0.9,0.2-1.3,0.5
				c-0.3,0.3-0.5,0.7-0.5,1.2V77H212.8z M218.5,68.4h1.1v1.8h1.5v0.9h-1.5v3.9c0,0.4,0.1,0.7,0.2,0.9c0.2,0.2,0.4,0.3,0.8,0.3
				c0.2,0,0.3,0,0.5,0V77c-0.2,0-0.5,0.1-0.6,0.1c-0.7,0-1.2-0.1-1.5-0.4c-0.3-0.3-0.5-0.8-0.5-1.4v-4.2h-1.1v-0.9h1.1V68.4z
				 M222.4,72c0-0.6,0.2-1,0.7-1.4c0.5-0.4,1.1-0.6,1.8-0.6c0.7,0,1.3,0.2,1.8,0.5c0.5,0.3,0.7,0.8,0.8,1.3h-1.1
				c-0.1-0.3-0.2-0.5-0.5-0.7c-0.3-0.2-0.6-0.2-1-0.2c-0.4,0-0.8,0.1-1,0.3c-0.3,0.2-0.4,0.4-0.4,0.7c0,0.2,0.1,0.4,0.3,0.6
				c0.2,0.2,0.5,0.3,0.9,0.4l1.1,0.3c0.7,0.2,1.1,0.4,1.4,0.7c0.3,0.3,0.5,0.7,0.5,1.2c0,0.6-0.3,1.1-0.8,1.5
				c-0.5,0.4-1.2,0.6-2,0.6c-0.8,0-1.4-0.2-1.9-0.5c-0.5-0.3-0.8-0.8-0.8-1.4h1.1c0.1,0.3,0.3,0.5,0.6,0.7c0.3,0.2,0.6,0.2,1.1,0.2
				c0.5,0,0.8-0.1,1.1-0.3c0.3-0.2,0.4-0.5,0.4-0.8c0-0.5-0.4-0.8-1.1-1l-1.2-0.3c-0.6-0.2-1.1-0.4-1.4-0.7
				C222.6,72.9,222.4,72.5,222.4,72z M230,79.3h-0.8l0.6-3.6h1.2L230,79.3z M17.7,90c0-0.6,0.2-1,0.7-1.4c0.5-0.4,1.1-0.6,1.8-0.6
				c0.7,0,1.3,0.2,1.8,0.5c0.5,0.3,0.7,0.8,0.8,1.3h-1.1c-0.1-0.3-0.2-0.5-0.5-0.7C21,89,20.6,89,20.2,89c-0.4,0-0.8,0.1-1,0.3
				c-0.3,0.2-0.4,0.4-0.4,0.7c0,0.2,0.1,0.4,0.3,0.6c0.2,0.2,0.5,0.3,0.9,0.4l1.1,0.3c0.7,0.2,1.1,0.4,1.4,0.7
				c0.3,0.3,0.5,0.7,0.5,1.2c0,0.6-0.3,1.1-0.8,1.5c-0.5,0.4-1.2,0.6-2,0.6c-0.8,0-1.4-0.2-1.9-0.5s-0.8-0.8-0.8-1.4h1.1
				c0.1,0.3,0.3,0.5,0.6,0.7c0.3,0.2,0.6,0.2,1.1,0.2c0.5,0,0.8-0.1,1.1-0.3c0.3-0.2,0.4-0.5,0.4-0.8c0-0.5-0.4-0.8-1.1-1l-1.2-0.3
				c-0.6-0.2-1.1-0.4-1.4-0.7C17.8,90.9,17.7,90.5,17.7,90z M29.7,94.2c-0.6,0.6-1.3,0.9-2.3,0.9c-1,0-1.7-0.3-2.3-0.9
				c-0.6-0.6-0.8-1.5-0.8-2.6c0-1.1,0.3-2,0.8-2.6c0.6-0.6,1.3-0.9,2.3-0.9c1,0,1.7,0.3,2.3,0.9c0.6,0.6,0.8,1.5,0.8,2.6
				C30.5,92.7,30.2,93.5,29.7,94.2z M25.9,93.5c0.4,0.4,0.9,0.7,1.5,0.7c0.6,0,1.1-0.2,1.5-0.7c0.4-0.4,0.5-1.1,0.5-1.9
				s-0.2-1.4-0.5-1.9C28.5,89.2,28,89,27.4,89c-0.6,0-1.1,0.2-1.5,0.7c-0.4,0.4-0.5,1.1-0.5,1.9S25.5,93,25.9,93.5z M37.7,88.2V95
				h-1v-1.1h-0.1c-0.2,0.4-0.4,0.7-0.8,0.9c-0.4,0.2-0.8,0.3-1.3,0.3c-0.8,0-1.3-0.2-1.7-0.7c-0.4-0.4-0.6-1.1-0.6-1.9v-4.4h1.1v4.2
				c0,0.6,0.1,1.1,0.4,1.4c0.2,0.3,0.6,0.4,1.2,0.4c0.6,0,1.1-0.2,1.4-0.5c0.3-0.3,0.5-0.8,0.5-1.4v-4H37.7z M39.7,95v-6.8h1v1.1
				h0.1c0.4-0.8,1-1.2,2.1-1.2c0.8,0,1.4,0.2,1.8,0.7c0.4,0.4,0.6,1.1,0.6,1.9V95h-1.1v-4.2c0-0.6-0.1-1.1-0.4-1.4
				c-0.3-0.3-0.7-0.5-1.2-0.5c-0.6,0-1,0.2-1.3,0.5c-0.3,0.3-0.5,0.8-0.5,1.4v4H39.7z M49.7,95.1c-0.9,0-1.6-0.3-2.1-1
				c-0.5-0.6-0.8-1.5-0.8-2.6c0-1.1,0.3-1.9,0.8-2.6c0.5-0.6,1.2-1,2.1-1c0.5,0,0.9,0.1,1.3,0.3c0.4,0.2,0.7,0.5,0.9,0.9H52v-3.8
				h1.1V95h-1v-1.1h-0.1c-0.2,0.4-0.5,0.7-0.9,0.9C50.6,95,50.2,95.1,49.7,95.1z M50,89c-0.6,0-1.1,0.2-1.5,0.7
				c-0.4,0.5-0.5,1.1-0.5,1.9c0,0.8,0.2,1.4,0.5,1.9c0.4,0.5,0.8,0.7,1.5,0.7c0.6,0,1.1-0.2,1.5-0.7c0.4-0.5,0.5-1.1,0.5-1.9
				c0-0.8-0.2-1.4-0.5-1.9C51.1,89.3,50.6,89,50,89z M54.9,90c0-0.6,0.2-1,0.7-1.4c0.5-0.4,1.1-0.6,1.8-0.6c0.7,0,1.3,0.2,1.8,0.5
				c0.5,0.3,0.7,0.8,0.8,1.3H59c-0.1-0.3-0.2-0.5-0.5-0.7c-0.3-0.2-0.6-0.2-1-0.2c-0.4,0-0.8,0.1-1,0.3C56.2,89.4,56,89.7,56,90
				c0,0.2,0.1,0.4,0.3,0.6c0.2,0.2,0.5,0.3,0.9,0.4l1.1,0.3c0.7,0.2,1.1,0.4,1.4,0.7c0.3,0.3,0.5,0.7,0.5,1.2c0,0.6-0.3,1.1-0.8,1.5
				c-0.5,0.4-1.2,0.6-2,0.6c-0.8,0-1.4-0.2-1.9-0.5c-0.5-0.3-0.8-0.8-0.8-1.4h1.1c0.1,0.3,0.3,0.5,0.6,0.7c0.3,0.2,0.6,0.2,1.1,0.2
				c0.5,0,0.8-0.1,1.1-0.3c0.3-0.2,0.4-0.5,0.4-0.8c0-0.5-0.4-0.8-1.1-1l-1.2-0.3c-0.6-0.2-1.1-0.4-1.4-0.7
				C55.1,90.9,54.9,90.5,54.9,90z M67.5,94.2c0.6,0,1-0.2,1.4-0.5c0.4-0.3,0.6-0.7,0.6-1.2v-0.6l-1.8,0.1c-0.5,0-0.9,0.1-1.1,0.3
				c-0.2,0.2-0.4,0.4-0.4,0.8c0,0.3,0.1,0.6,0.4,0.8C66.8,94.1,67.1,94.2,67.5,94.2z M67.3,95.1c-0.7,0-1.2-0.2-1.7-0.6
				c-0.4-0.4-0.6-0.9-0.6-1.5c0-0.6,0.2-1.1,0.6-1.4c0.4-0.3,1-0.5,1.8-0.6l2-0.1v-0.6c0-0.4-0.1-0.7-0.4-1
				c-0.3-0.2-0.6-0.3-1.2-0.3c-0.4,0-0.8,0.1-1,0.2c-0.3,0.1-0.4,0.4-0.5,0.6h-1.1c0.1-0.5,0.4-1,0.8-1.3c0.5-0.3,1.1-0.5,1.8-0.5
				c0.8,0,1.5,0.2,1.9,0.6c0.5,0.4,0.7,1,0.7,1.7V95h-1v-1h-0.1c-0.2,0.4-0.5,0.6-0.9,0.8C68.2,95,67.8,95.1,67.3,95.1z M72.5,95
				v-6.8h1v1.1h0.1c0.4-0.8,1-1.2,2.1-1.2c0.8,0,1.4,0.2,1.8,0.7c0.4,0.4,0.6,1.1,0.6,1.9V95H77v-4.2c0-0.6-0.1-1.1-0.4-1.4
				c-0.3-0.3-0.7-0.5-1.2-0.5c-0.6,0-1,0.2-1.3,0.5c-0.3,0.3-0.5,0.8-0.5,1.4v4H72.5z M82.6,95.1c-0.9,0-1.6-0.3-2.1-1
				c-0.5-0.6-0.8-1.5-0.8-2.6c0-1.1,0.3-1.9,0.8-2.6c0.5-0.6,1.2-1,2.1-1c0.5,0,0.9,0.1,1.3,0.3c0.4,0.2,0.7,0.5,0.9,0.9h0.1v-3.8
				h1.1V95h-1v-1.1h-0.1c-0.2,0.4-0.5,0.7-0.9,0.9C83.5,95,83,95.1,82.6,95.1z M82.8,89c-0.6,0-1.1,0.2-1.5,0.7
				c-0.4,0.5-0.5,1.1-0.5,1.9c0,0.8,0.2,1.4,0.5,1.9c0.4,0.5,0.8,0.7,1.5,0.7c0.6,0,1.1-0.2,1.5-0.7c0.4-0.5,0.5-1.1,0.5-1.9
				c0-0.8-0.2-1.4-0.5-1.9C83.9,89.3,83.4,89,82.8,89z M91.6,95v-6.8h1.1V95H91.6z M92.6,86.5c-0.1,0.1-0.3,0.2-0.5,0.2
				s-0.4-0.1-0.5-0.2c-0.1-0.2-0.2-0.3-0.2-0.5c0-0.2,0.1-0.4,0.2-0.5c0.1-0.2,0.3-0.2,0.5-0.2s0.4,0.1,0.5,0.2
				c0.1,0.1,0.2,0.3,0.2,0.5C92.9,86.2,92.8,86.4,92.6,86.5z M100.3,90.3h-1.1c-0.1-0.4-0.3-0.7-0.6-0.9c-0.3-0.2-0.7-0.3-1.2-0.3
				c-0.6,0-1.1,0.2-1.5,0.7c-0.4,0.5-0.5,1.1-0.5,1.8c0,0.8,0.2,1.4,0.5,1.9c0.4,0.5,0.9,0.7,1.5,0.7c0.5,0,0.8-0.1,1.1-0.3
				c0.3-0.2,0.5-0.5,0.6-0.9h1.1c-0.1,0.6-0.4,1.2-0.9,1.6c-0.5,0.4-1.2,0.6-2,0.6c-1,0-1.7-0.3-2.3-1c-0.6-0.6-0.9-1.5-0.9-2.6
				c0-1.1,0.3-1.9,0.9-2.6c0.6-0.6,1.3-1,2.3-1c0.8,0,1.5,0.2,2,0.6C99.9,89.1,100.2,89.6,100.3,90.3z M107,94.2
				c-0.6,0.6-1.3,0.9-2.3,0.9c-1,0-1.7-0.3-2.3-0.9c-0.6-0.6-0.8-1.5-0.8-2.6c0-1.1,0.3-2,0.8-2.6c0.6-0.6,1.3-0.9,2.3-0.9
				c1,0,1.7,0.3,2.3,0.9c0.6,0.6,0.8,1.5,0.8,2.6C107.8,92.7,107.5,93.5,107,94.2z M103.2,93.5c0.4,0.4,0.9,0.7,1.5,0.7
				c0.6,0,1.1-0.2,1.5-0.7c0.4-0.4,0.5-1.1,0.5-1.9s-0.2-1.4-0.5-1.9c-0.4-0.4-0.9-0.7-1.5-0.7c-0.6,0-1.1,0.2-1.5,0.7
				c-0.4,0.4-0.5,1.1-0.5,1.9S102.8,93,103.2,93.5z M109.4,95v-6.8h1v1.1h0.1c0.4-0.8,1-1.2,2.1-1.2c0.8,0,1.4,0.2,1.8,0.7
				c0.4,0.4,0.6,1.1,0.6,1.9V95h-1.1v-4.2c0-0.6-0.1-1.1-0.4-1.4c-0.3-0.3-0.7-0.5-1.2-0.5c-0.6,0-1,0.2-1.3,0.5
				c-0.3,0.3-0.5,0.8-0.5,1.4v4H109.4z M124,95.1c-0.5,0-0.9-0.1-1.3-0.3c-0.4-0.2-0.7-0.5-0.9-0.9h-0.1V95h-1v-9.6h1.1v3.8h0.1
				c0.2-0.4,0.5-0.7,0.9-0.9c0.4-0.2,0.8-0.3,1.3-0.3c0.9,0,1.6,0.3,2.1,1c0.5,0.6,0.8,1.5,0.8,2.6c0,1.1-0.3,1.9-0.8,2.6
				C125.5,94.8,124.8,95.1,124,95.1z M123.7,89c-0.6,0-1.1,0.2-1.5,0.7c-0.4,0.5-0.5,1.1-0.5,1.9c0,0.8,0.2,1.4,0.5,1.9
				c0.4,0.5,0.9,0.7,1.5,0.7c0.6,0,1.1-0.2,1.5-0.7c0.4-0.5,0.5-1.1,0.5-1.9c0-0.8-0.2-1.4-0.5-1.9S124.3,89,123.7,89z M130.6,94.2
				c0.6,0,1-0.2,1.4-0.5c0.4-0.3,0.6-0.7,0.6-1.2v-0.6l-1.8,0.1c-0.5,0-0.9,0.1-1.1,0.3c-0.2,0.2-0.4,0.4-0.4,0.8
				c0,0.3,0.1,0.6,0.4,0.8C129.8,94.1,130.2,94.2,130.6,94.2z M130.4,95.1c-0.7,0-1.2-0.2-1.7-0.6c-0.4-0.4-0.6-0.9-0.6-1.5
				c0-0.6,0.2-1.1,0.6-1.4c0.4-0.3,1-0.5,1.8-0.6l2-0.1v-0.6c0-0.4-0.1-0.7-0.4-1c-0.3-0.2-0.6-0.3-1.2-0.3c-0.4,0-0.8,0.1-1,0.2
				c-0.3,0.1-0.4,0.4-0.5,0.6h-1.1c0.1-0.5,0.4-1,0.8-1.3c0.5-0.3,1.1-0.5,1.8-0.5c0.8,0,1.5,0.2,1.9,0.6c0.5,0.4,0.7,1,0.7,1.7V95
				h-1v-1h-0.1c-0.2,0.4-0.5,0.6-0.9,0.8C131.2,95,130.8,95.1,130.4,95.1z M138.1,95.1c-0.9,0-1.6-0.3-2.1-1
				c-0.5-0.6-0.8-1.5-0.8-2.6c0-1.1,0.3-1.9,0.8-2.6c0.5-0.6,1.2-1,2.1-1c0.5,0,0.9,0.1,1.3,0.3c0.4,0.2,0.7,0.5,0.9,0.9h0.1v-3.8
				h1.1V95h-1v-1.1h-0.1c-0.2,0.4-0.5,0.7-0.9,0.9C139,95,138.6,95.1,138.1,95.1z M138.3,89c-0.6,0-1.1,0.2-1.5,0.7
				c-0.4,0.5-0.5,1.1-0.5,1.9c0,0.8,0.2,1.4,0.5,1.9c0.4,0.5,0.8,0.7,1.5,0.7c0.6,0,1.1-0.2,1.5-0.7c0.4-0.5,0.5-1.1,0.5-1.9
				c0-0.8-0.2-1.4-0.5-1.9C139.4,89.3,139,89,138.3,89z M146.2,93.9c0.6,0,1.1-0.2,1.5-0.7c0.4-0.4,0.5-1,0.5-1.8
				c0-0.7-0.2-1.3-0.5-1.8c-0.4-0.4-0.9-0.7-1.5-0.7c-0.6,0-1.1,0.2-1.5,0.7c-0.3,0.4-0.5,1-0.5,1.8c0,0.8,0.2,1.4,0.5,1.8
				S145.6,93.9,146.2,93.9z M146.3,97.6c-0.8,0-1.5-0.2-2-0.5c-0.5-0.3-0.8-0.8-0.9-1.4h1.2c0.1,0.3,0.2,0.5,0.5,0.7
				c0.3,0.2,0.7,0.2,1.2,0.2c0.6,0,1.1-0.1,1.4-0.4c0.3-0.3,0.5-0.7,0.5-1.2v-1.3h-0.1c-0.2,0.4-0.5,0.7-0.9,0.9
				c-0.4,0.2-0.8,0.3-1.3,0.3c-0.9,0-1.6-0.3-2.1-0.9c-0.5-0.6-0.8-1.5-0.8-2.5c0-1,0.3-1.9,0.8-2.5c0.5-0.6,1.2-0.9,2.1-0.9
				c0.5,0,0.9,0.1,1.3,0.3c0.4,0.2,0.7,0.5,0.9,0.9h0.1v-1.1h1v7c0,0.8-0.3,1.4-0.8,1.8S147.2,97.6,146.3,97.6z M154,89
				c-0.5,0-1,0.2-1.3,0.6c-0.4,0.4-0.5,0.9-0.6,1.5h3.8c0-0.6-0.2-1.1-0.5-1.5C155,89.2,154.6,89,154,89z M155.8,93.2h1.1
				c-0.2,0.6-0.5,1.1-1,1.4c-0.5,0.3-1.1,0.5-1.9,0.5c-0.9,0-1.7-0.3-2.3-1c-0.6-0.6-0.8-1.5-0.8-2.6c0-1.1,0.3-1.9,0.8-2.6
				c0.6-0.6,1.3-1,2.2-1c0.9,0,1.6,0.3,2.2,0.9c0.5,0.6,0.8,1.5,0.8,2.5v0.4h-4.9v0.1c0,0.7,0.2,1.2,0.6,1.6
				c0.4,0.4,0.8,0.6,1.4,0.6C155,94.2,155.5,93.8,155.8,93.2z M158.5,90c0-0.6,0.2-1,0.7-1.4c0.5-0.4,1.1-0.6,1.8-0.6
				c0.7,0,1.3,0.2,1.8,0.5c0.5,0.3,0.7,0.8,0.8,1.3h-1.1c-0.1-0.3-0.2-0.5-0.5-0.7c-0.3-0.2-0.6-0.2-1-0.2c-0.4,0-0.8,0.1-1,0.3
				c-0.3,0.2-0.4,0.4-0.4,0.7c0,0.2,0.1,0.4,0.3,0.6c0.2,0.2,0.5,0.3,0.9,0.4l1.1,0.3c0.7,0.2,1.1,0.4,1.4,0.7
				c0.3,0.3,0.5,0.7,0.5,1.2c0,0.6-0.3,1.1-0.8,1.5c-0.5,0.4-1.2,0.6-2,0.6c-0.8,0-1.4-0.2-1.9-0.5c-0.5-0.3-0.8-0.8-0.8-1.4h1.1
				c0.1,0.3,0.3,0.5,0.6,0.7c0.3,0.2,0.6,0.2,1.1,0.2c0.5,0,0.8-0.1,1.1-0.3c0.3-0.2,0.4-0.5,0.4-0.8c0-0.5-0.4-0.8-1.1-1l-1.2-0.3
				c-0.6-0.2-1.1-0.4-1.4-0.7C158.6,90.9,158.5,90.5,158.5,90z M166.3,95.1c-0.2,0-0.4-0.1-0.6-0.2c-0.2-0.2-0.2-0.4-0.2-0.6
				c0-0.2,0.1-0.4,0.2-0.6c0.2-0.2,0.4-0.2,0.6-0.2c0.2,0,0.4,0.1,0.6,0.2c0.2,0.2,0.2,0.4,0.2,0.6c0,0.2-0.1,0.4-0.2,0.6
				C166.7,95,166.5,95.1,166.3,95.1z M176.4,95h-1.1v-8.1h-3v-1h7v1h-3V95z M181,95v-9.6h1.1v3.8h0.1c0.2-0.4,0.4-0.7,0.8-0.9
				c0.4-0.2,0.8-0.3,1.3-0.3c0.7,0,1.3,0.2,1.7,0.7c0.4,0.4,0.6,1.1,0.6,1.9V95h-1.1v-4.2c0-1.2-0.5-1.8-1.6-1.8
				c-0.6,0-1.1,0.2-1.4,0.5c-0.3,0.3-0.5,0.8-0.5,1.4v4H181z M191.3,89c-0.5,0-1,0.2-1.3,0.6c-0.4,0.4-0.5,0.9-0.6,1.5h3.8
				c0-0.6-0.2-1.1-0.5-1.5C192.3,89.2,191.8,89,191.3,89z M193.1,93.2h1.1c-0.2,0.6-0.5,1.1-1,1.4c-0.5,0.3-1.1,0.5-1.9,0.5
				c-0.9,0-1.7-0.3-2.3-1c-0.6-0.6-0.8-1.5-0.8-2.6c0-1.1,0.3-1.9,0.8-2.6c0.6-0.6,1.3-1,2.2-1c0.9,0,1.6,0.3,2.2,0.9
				c0.5,0.6,0.8,1.5,0.8,2.5v0.4h-4.9v0.1c0,0.7,0.2,1.2,0.6,1.6c0.4,0.4,0.8,0.6,1.4,0.6C192.2,94.2,192.8,93.8,193.1,93.2z
				 M195.7,90c0-0.6,0.2-1,0.7-1.4c0.5-0.4,1.1-0.6,1.8-0.6c0.7,0,1.3,0.2,1.8,0.5c0.5,0.3,0.7,0.8,0.8,1.3h-1.1
				c-0.1-0.3-0.2-0.5-0.5-0.7c-0.3-0.2-0.6-0.2-1-0.2c-0.4,0-0.8,0.1-1,0.3c-0.3,0.2-0.4,0.4-0.4,0.7c0,0.2,0.1,0.4,0.3,0.6
				c0.2,0.2,0.5,0.3,0.9,0.4l1.1,0.3c0.7,0.2,1.1,0.4,1.4,0.7c0.3,0.3,0.5,0.7,0.5,1.2c0,0.6-0.3,1.1-0.8,1.5
				c-0.5,0.4-1.2,0.6-2,0.6c-0.8,0-1.4-0.2-1.9-0.5s-0.8-0.8-0.8-1.4h1.1c0.1,0.3,0.3,0.5,0.6,0.7c0.3,0.2,0.6,0.2,1.1,0.2
				c0.5,0,0.8-0.1,1.1-0.3c0.3-0.2,0.4-0.5,0.4-0.8c0-0.5-0.4-0.8-1.1-1l-1.2-0.3c-0.6-0.2-1.1-0.4-1.4-0.7
				C195.9,90.9,195.7,90.5,195.7,90z M205.4,89c-0.5,0-1,0.2-1.3,0.6c-0.4,0.4-0.5,0.9-0.6,1.5h3.8c0-0.6-0.2-1.1-0.5-1.5
				C206.3,89.2,205.9,89,205.4,89z M207.2,93.2h1.1c-0.2,0.6-0.5,1.1-1,1.4c-0.5,0.3-1.1,0.5-1.9,0.5c-0.9,0-1.7-0.3-2.3-1
				c-0.6-0.6-0.8-1.5-0.8-2.6c0-1.1,0.3-1.9,0.8-2.6c0.6-0.6,1.3-1,2.2-1c0.9,0,1.6,0.3,2.2,0.9c0.5,0.6,0.8,1.5,0.8,2.5v0.4h-4.9
				v0.1c0,0.7,0.2,1.2,0.6,1.6c0.4,0.4,0.8,0.6,1.4,0.6C206.3,94.2,206.9,93.8,207.2,93.2z M219.2,90.3h-1.1
				c-0.1-0.4-0.3-0.7-0.6-0.9c-0.3-0.2-0.7-0.3-1.2-0.3c-0.6,0-1.1,0.2-1.5,0.7c-0.4,0.5-0.5,1.1-0.5,1.8c0,0.8,0.2,1.4,0.5,1.9
				c0.4,0.5,0.9,0.7,1.5,0.7c0.5,0,0.8-0.1,1.1-0.3c0.3-0.2,0.5-0.5,0.6-0.9h1.1c-0.1,0.6-0.4,1.2-0.9,1.6c-0.5,0.4-1.2,0.6-2,0.6
				c-1,0-1.7-0.3-2.3-1c-0.6-0.6-0.9-1.5-0.9-2.6c0-1.1,0.3-1.9,0.9-2.6s1.3-1,2.3-1c0.8,0,1.5,0.2,2,0.6
				C218.8,89.1,219.1,89.6,219.2,90.3z M222.9,94.2c0.6,0,1-0.2,1.4-0.5c0.4-0.3,0.6-0.7,0.6-1.2v-0.6l-1.8,0.1
				c-0.5,0-0.9,0.1-1.1,0.3c-0.2,0.2-0.4,0.4-0.4,0.8c0,0.3,0.1,0.6,0.4,0.8C222.1,94.1,222.5,94.2,222.9,94.2z M222.7,95.1
				c-0.7,0-1.2-0.2-1.7-0.6c-0.4-0.4-0.6-0.9-0.6-1.5c0-0.6,0.2-1.1,0.6-1.4c0.4-0.3,1-0.5,1.8-0.6l2-0.1v-0.6c0-0.4-0.1-0.7-0.4-1
				c-0.3-0.2-0.6-0.3-1.2-0.3c-0.4,0-0.8,0.1-1,0.2c-0.3,0.1-0.4,0.4-0.5,0.6h-1.1c0.1-0.5,0.4-1,0.8-1.3c0.5-0.3,1.1-0.5,1.8-0.5
				c0.8,0,1.5,0.2,1.9,0.6c0.5,0.4,0.7,1,0.7,1.7V95h-1v-1h-0.1c-0.2,0.4-0.5,0.6-0.9,0.8C223.5,95,223.1,95.1,222.7,95.1z
				 M227.9,95v-6.8h1v1.1h0.1c0.4-0.8,1.1-1.2,2.1-1.2c0.8,0,1.4,0.2,1.8,0.7c0.4,0.4,0.6,1.1,0.6,1.9V95h-1.1v-4.2
				c0-0.6-0.1-1.1-0.4-1.4c-0.3-0.3-0.7-0.5-1.2-0.5c-0.6,0-1,0.2-1.3,0.5c-0.3,0.3-0.5,0.8-0.5,1.4v4H227.9z M242.4,95.1
				c-0.5,0-0.9-0.1-1.3-0.3c-0.4-0.2-0.7-0.5-0.9-0.9h-0.1V95h-1v-9.6h1.1v3.8h0.1c0.2-0.4,0.5-0.7,0.9-0.9c0.4-0.2,0.8-0.3,1.3-0.3
				c0.9,0,1.6,0.3,2.1,1c0.5,0.6,0.8,1.5,0.8,2.6c0,1.1-0.3,1.9-0.8,2.6C243.9,94.8,243.2,95.1,242.4,95.1z M242.1,89
				c-0.6,0-1.1,0.2-1.5,0.7c-0.4,0.5-0.5,1.1-0.5,1.9c0,0.8,0.2,1.4,0.5,1.9c0.4,0.5,0.9,0.7,1.5,0.7c0.6,0,1.1-0.2,1.5-0.7
				c0.4-0.5,0.5-1.1,0.5-1.9c0-0.8-0.2-1.4-0.5-1.9S242.7,89,242.1,89z M249.6,89c-0.5,0-1,0.2-1.3,0.6c-0.4,0.4-0.5,0.9-0.6,1.5
				h3.8c0-0.6-0.2-1.1-0.5-1.5C250.6,89.2,250.1,89,249.6,89z M251.4,93.2h1.1c-0.2,0.6-0.5,1.1-1,1.4c-0.5,0.3-1.1,0.5-1.9,0.5
				c-0.9,0-1.7-0.3-2.3-1c-0.6-0.6-0.8-1.5-0.8-2.6c0-1.1,0.3-1.9,0.8-2.6c0.6-0.6,1.3-1,2.2-1c0.9,0,1.6,0.3,2.2,0.9
				s0.8,1.5,0.8,2.5v0.4h-4.9v0.1c0,0.7,0.2,1.2,0.6,1.6c0.4,0.4,0.8,0.6,1.4,0.6C250.5,94.2,251.1,93.8,251.4,93.2z M75,108.3h-1.1
				c-0.1-0.4-0.3-0.7-0.6-0.9c-0.3-0.2-0.7-0.3-1.2-0.3c-0.6,0-1.1,0.2-1.5,0.7c-0.4,0.5-0.5,1.1-0.5,1.8c0,0.8,0.2,1.4,0.5,1.9
				c0.4,0.5,0.9,0.7,1.5,0.7c0.5,0,0.8-0.1,1.1-0.3c0.3-0.2,0.5-0.5,0.6-0.9H75c-0.1,0.6-0.4,1.2-0.9,1.6c-0.5,0.4-1.2,0.6-2,0.6
				c-1,0-1.7-0.3-2.3-1c-0.6-0.6-0.9-1.5-0.9-2.6c0-1.1,0.3-1.9,0.9-2.6c0.6-0.6,1.3-1,2.3-1c0.8,0,1.5,0.2,2,0.6
				C74.6,107.1,74.9,107.6,75,108.3z M81.7,112.2c-0.6,0.6-1.3,0.9-2.3,0.9c-1,0-1.7-0.3-2.3-0.9c-0.6-0.6-0.8-1.5-0.8-2.6
				c0-1.1,0.3-2,0.8-2.6c0.6-0.6,1.3-0.9,2.3-0.9c1,0,1.7,0.3,2.3,0.9c0.6,0.6,0.8,1.5,0.8,2.6C82.5,110.7,82.3,111.5,81.7,112.2z
				 M77.9,111.5c0.4,0.4,0.9,0.7,1.5,0.7c0.6,0,1.1-0.2,1.5-0.7c0.4-0.4,0.5-1.1,0.5-1.9c0-0.8-0.2-1.4-0.5-1.9
				c-0.4-0.4-0.9-0.7-1.5-0.7c-0.6,0-1.1,0.2-1.5,0.7c-0.4,0.4-0.5,1.1-0.5,1.9C77.4,110.4,77.5,111,77.9,111.5z M84.2,113v-6.8h1
				v1.1h0.1c0.4-0.8,1-1.2,2.1-1.2c0.8,0,1.4,0.2,1.8,0.7c0.4,0.4,0.6,1.1,0.6,1.9v4.4h-1.1v-4.2c0-0.6-0.1-1.1-0.4-1.4
				c-0.3-0.3-0.7-0.4-1.2-0.4c-0.6,0-1,0.2-1.3,0.5c-0.3,0.3-0.5,0.8-0.5,1.4v4.1H84.2z M92.1,113v-5.9H91v-0.9h1.1v-0.8
				c0-1.3,0.7-2,2-2c0.3,0,0.5,0,0.7,0.1v0.9c-0.1,0-0.3,0-0.5,0c-0.4,0-0.7,0.1-0.9,0.3c-0.2,0.2-0.3,0.5-0.3,0.8v0.7h1.6v0.9h-1.6
				v5.9H92.1z M96.3,113v-6.8h1.1v6.8H96.3z M97.4,104.5c-0.1,0.1-0.3,0.2-0.5,0.2s-0.4-0.1-0.5-0.2c-0.1-0.2-0.2-0.3-0.2-0.5
				c0-0.2,0.1-0.4,0.2-0.5c0.1-0.2,0.3-0.2,0.5-0.2s0.4,0.1,0.5,0.2c0.1,0.1,0.2,0.3,0.2,0.5C97.6,104.2,97.6,104.4,97.4,104.5z
				 M102.2,111.9c0.6,0,1.1-0.2,1.5-0.7c0.4-0.4,0.5-1,0.5-1.8c0-0.7-0.2-1.3-0.5-1.8s-0.9-0.7-1.5-0.7c-0.6,0-1.1,0.2-1.5,0.7
				s-0.5,1-0.5,1.8c0,0.8,0.2,1.4,0.5,1.8C101.1,111.7,101.6,111.9,102.2,111.9z M102.3,115.6c-0.8,0-1.5-0.2-2-0.5
				c-0.5-0.3-0.8-0.8-0.9-1.4h1.2c0.1,0.3,0.2,0.5,0.5,0.7c0.3,0.2,0.7,0.2,1.2,0.2c0.6,0,1.1-0.1,1.4-0.4c0.3-0.3,0.5-0.7,0.5-1.2
				v-1.3h-0.1c-0.2,0.4-0.5,0.7-0.9,0.9c-0.4,0.2-0.8,0.3-1.3,0.3c-0.9,0-1.6-0.3-2.1-0.9c-0.5-0.6-0.8-1.5-0.8-2.5
				c0-1,0.3-1.9,0.8-2.5c0.5-0.6,1.2-0.9,2.1-0.9c0.5,0,0.9,0.1,1.3,0.3c0.4,0.2,0.7,0.5,0.9,0.9h0.1v-1.1h1v7
				c0,0.8-0.3,1.4-0.8,1.8C103.9,115.4,103.2,115.6,102.3,115.6z M112.8,106.2v6.8h-1v-1.1h-0.1c-0.2,0.4-0.4,0.7-0.8,0.9
				c-0.4,0.2-0.8,0.3-1.3,0.3c-0.8,0-1.3-0.2-1.7-0.7c-0.4-0.4-0.6-1.1-0.6-1.9v-4.4h1.1v4.2c0,0.6,0.1,1.1,0.4,1.4
				c0.2,0.3,0.6,0.4,1.2,0.4c0.6,0,1.1-0.2,1.4-0.5c0.3-0.3,0.5-0.8,0.5-1.4v-4.1H112.8z M114.8,113v-6.8h1v1h0.1
				c0.1-0.3,0.3-0.6,0.7-0.8c0.4-0.2,0.8-0.3,1.2-0.3c0.2,0,0.4,0,0.5,0v1.1c-0.1,0-0.4-0.1-0.7-0.1c-0.5,0-0.9,0.2-1.3,0.5
				c-0.3,0.3-0.5,0.7-0.5,1.2v4.2H114.8z M122.2,107c-0.5,0-1,0.2-1.3,0.6c-0.4,0.4-0.5,0.9-0.6,1.5h3.8c0-0.6-0.2-1.1-0.5-1.5
				C123.2,107.2,122.7,107,122.2,107z M124,111.2h1.1c-0.2,0.6-0.5,1.1-1,1.4c-0.5,0.3-1.1,0.5-1.9,0.5c-0.9,0-1.7-0.3-2.3-1
				c-0.6-0.6-0.8-1.5-0.8-2.6c0-1.1,0.3-1.9,0.8-2.6c0.6-0.6,1.3-1,2.2-1c0.9,0,1.6,0.3,2.2,0.9s0.8,1.5,0.8,2.5v0.4h-4.9v0.1
				c0,0.7,0.2,1.2,0.6,1.6c0.4,0.4,0.8,0.6,1.4,0.6C123.1,112.2,123.7,111.8,124,111.2z M129.4,113.1c-0.9,0-1.6-0.3-2.1-1
				c-0.5-0.6-0.8-1.5-0.8-2.6c0-1.1,0.3-1.9,0.8-2.6c0.5-0.6,1.2-1,2.1-1c0.5,0,0.9,0.1,1.3,0.3c0.4,0.2,0.7,0.5,0.9,0.9h0.1v-3.8
				h1.1v9.6h-1v-1.1h-0.1c-0.2,0.4-0.5,0.7-0.9,0.9C130.3,113,129.8,113.1,129.4,113.1z M129.6,107c-0.6,0-1.1,0.2-1.5,0.7
				c-0.4,0.5-0.5,1.1-0.5,1.9c0,0.8,0.2,1.4,0.5,1.9c0.4,0.5,0.8,0.7,1.5,0.7c0.6,0,1.1-0.2,1.5-0.7c0.4-0.5,0.5-1.1,0.5-1.9
				c0-0.8-0.2-1.4-0.5-1.9C130.7,107.3,130.2,107,129.6,107z M138.4,113v-6.8h1.1v6.8H138.4z M139.4,104.5c-0.1,0.1-0.3,0.2-0.5,0.2
				c-0.2,0-0.4-0.1-0.5-0.2c-0.1-0.2-0.2-0.3-0.2-0.5c0-0.2,0.1-0.4,0.2-0.5c0.1-0.2,0.3-0.2,0.5-0.2c0.2,0,0.4,0.1,0.5,0.2
				c0.1,0.1,0.2,0.3,0.2,0.5C139.7,104.2,139.6,104.4,139.4,104.5z M141.4,113v-6.8h1v1.1h0.1c0.4-0.8,1.1-1.2,2.1-1.2
				c0.8,0,1.4,0.2,1.8,0.7c0.4,0.4,0.6,1.1,0.6,1.9v4.4h-1.1v-4.2c0-0.6-0.1-1.1-0.4-1.4c-0.3-0.3-0.7-0.4-1.2-0.4
				c-0.6,0-1,0.2-1.3,0.5c-0.3,0.3-0.5,0.8-0.5,1.4v4.1H141.4z M152.3,110.6h1.2c0.1,0.5,0.3,0.9,0.7,1.1c0.4,0.3,1,0.4,1.6,0.4
				c0.6,0,1.1-0.1,1.5-0.4c0.4-0.3,0.6-0.7,0.6-1.1c0-0.4-0.1-0.7-0.4-1c-0.3-0.3-0.8-0.5-1.4-0.6l-1.2-0.3
				c-0.8-0.2-1.4-0.5-1.8-0.9c-0.4-0.4-0.6-0.9-0.6-1.6c0-0.8,0.3-1.4,0.9-1.9c0.6-0.5,1.4-0.7,2.3-0.7c0.9,0,1.6,0.2,2.2,0.7
				c0.6,0.5,0.9,1.1,1,1.8h-1.1c-0.1-0.5-0.3-0.8-0.7-1.1c-0.4-0.3-0.8-0.4-1.4-0.4c-0.6,0-1.1,0.1-1.5,0.4
				c-0.4,0.3-0.6,0.7-0.6,1.1c0,0.4,0.1,0.7,0.4,0.9c0.3,0.2,0.7,0.4,1.4,0.6l1,0.3c0.9,0.2,1.6,0.6,2,1c0.4,0.4,0.6,0.9,0.6,1.6
				c0,0.8-0.3,1.5-0.9,2c-0.6,0.5-1.4,0.7-2.5,0.7c-1,0-1.8-0.2-2.4-0.7C152.7,112,152.3,111.4,152.3,110.6z M163.5,107
				c-0.5,0-1,0.2-1.3,0.6c-0.4,0.4-0.5,0.9-0.6,1.5h3.8c0-0.6-0.2-1.1-0.5-1.5C164.5,107.2,164,107,163.5,107z M165.3,111.2h1.1
				c-0.2,0.6-0.5,1.1-1,1.4c-0.5,0.3-1.1,0.5-1.9,0.5c-0.9,0-1.7-0.3-2.3-1c-0.6-0.6-0.8-1.5-0.8-2.6c0-1.1,0.3-1.9,0.8-2.6
				c0.6-0.6,1.3-1,2.2-1c0.9,0,1.6,0.3,2.2,0.9c0.5,0.6,0.8,1.5,0.8,2.5v0.4h-4.9v0.1c0,0.7,0.2,1.2,0.6,1.6
				c0.4,0.4,0.8,0.6,1.4,0.6C164.4,112.2,165,111.8,165.3,111.2z M168.6,104.4h1.1v1.8h1.5v0.9h-1.5v3.9c0,0.4,0.1,0.7,0.2,0.9
				c0.2,0.2,0.4,0.3,0.8,0.3c0.2,0,0.3,0,0.5,0v0.9c-0.2,0-0.5,0.1-0.6,0.1c-0.7,0-1.2-0.1-1.5-0.4c-0.3-0.3-0.5-0.8-0.5-1.4v-4.2
				h-1.1v-0.9h1.1V104.4z M173.2,104.4h1.1v1.8h1.5v0.9h-1.5v3.9c0,0.4,0.1,0.7,0.2,0.9s0.4,0.3,0.8,0.3c0.2,0,0.3,0,0.5,0v0.9
				c-0.2,0-0.5,0.1-0.6,0.1c-0.7,0-1.2-0.1-1.5-0.4c-0.3-0.3-0.5-0.8-0.5-1.4v-4.2h-1.1v-0.9h1.1V104.4z M177.4,113v-6.8h1.1v6.8
				H177.4z M178.5,104.5c-0.1,0.1-0.3,0.2-0.5,0.2c-0.2,0-0.4-0.1-0.5-0.2c-0.1-0.2-0.2-0.3-0.2-0.5c0-0.2,0.1-0.4,0.2-0.5
				c0.1-0.2,0.3-0.2,0.5-0.2c0.2,0,0.4,0.1,0.5,0.2c0.1,0.1,0.2,0.3,0.2,0.5C178.7,104.2,178.7,104.4,178.5,104.5z M180.5,113v-6.8
				h1v1.1h0.1c0.4-0.8,1.1-1.2,2.1-1.2c0.8,0,1.4,0.2,1.8,0.7c0.4,0.4,0.6,1.1,0.6,1.9v4.4H185v-4.2c0-0.6-0.1-1.1-0.4-1.4
				c-0.3-0.3-0.7-0.4-1.2-0.4c-0.6,0-1,0.2-1.3,0.5c-0.3,0.3-0.5,0.8-0.5,1.4v4.1H180.5z M190.8,111.9c0.6,0,1.1-0.2,1.5-0.7
				c0.4-0.4,0.5-1,0.5-1.8c0-0.7-0.2-1.3-0.5-1.8s-0.9-0.7-1.5-0.7c-0.6,0-1.1,0.2-1.5,0.7s-0.5,1-0.5,1.8c0,0.8,0.2,1.4,0.5,1.8
				C189.7,111.7,190.2,111.9,190.8,111.9z M190.9,115.6c-0.8,0-1.5-0.2-2-0.5c-0.5-0.3-0.8-0.8-0.9-1.4h1.2c0.1,0.3,0.2,0.5,0.5,0.7
				c0.3,0.2,0.7,0.2,1.2,0.2c0.6,0,1.1-0.1,1.4-0.4c0.3-0.3,0.5-0.7,0.5-1.2v-1.3h-0.1c-0.2,0.4-0.5,0.7-0.9,0.9
				c-0.4,0.2-0.8,0.3-1.3,0.3c-0.9,0-1.6-0.3-2.1-0.9c-0.5-0.6-0.8-1.5-0.8-2.5c0-1,0.3-1.9,0.8-2.5c0.5-0.6,1.2-0.9,2.1-0.9
				c0.5,0,0.9,0.1,1.3,0.3c0.4,0.2,0.7,0.5,0.9,0.9h0.1v-1.1h1v7c0,0.8-0.3,1.4-0.8,1.8C192.5,115.4,191.8,115.6,190.9,115.6z
				 M195.7,108c0-0.6,0.2-1,0.7-1.4c0.5-0.4,1.1-0.6,1.8-0.6c0.7,0,1.3,0.2,1.8,0.5c0.5,0.3,0.7,0.8,0.8,1.3h-1.1
				c-0.1-0.3-0.2-0.5-0.5-0.7c-0.3-0.2-0.6-0.2-1-0.2c-0.4,0-0.8,0.1-1,0.3c-0.3,0.2-0.4,0.4-0.4,0.7c0,0.2,0.1,0.4,0.3,0.6
				c0.2,0.2,0.5,0.3,0.9,0.4l1.1,0.3c0.7,0.2,1.1,0.4,1.4,0.7c0.3,0.3,0.5,0.7,0.5,1.2c0,0.6-0.3,1.1-0.8,1.5
				c-0.5,0.4-1.2,0.6-2,0.6c-0.8,0-1.4-0.2-1.9-0.5c-0.5-0.3-0.8-0.8-0.8-1.4h1.1c0.1,0.3,0.3,0.5,0.6,0.7c0.3,0.2,0.6,0.2,1.1,0.2
				c0.5,0,0.8-0.1,1.1-0.3s0.4-0.5,0.4-0.8c0-0.5-0.4-0.8-1.1-1l-1.2-0.3c-0.6-0.2-1.1-0.4-1.4-0.7
				C195.9,108.9,195.7,108.5,195.7,108z"/>
			<g>
				<defs>
					<rect id="SVGID_3_" x="0" y="136" width="270" height="0.5"/>
				</defs>
				<clipPath id="SVGID_4_">
					<use xlink:href="#SVGID_3_"  overflow="visible"/>
				</clipPath>
				<g clip-path="url(#SVGID_4_)">
					<rect x="0" y="136" fill="#3C3C43" fill-opacity="0.36" width="270" height="0.5"/>
				</g>
			</g>
			<path fill="#0A7AFF" d="M25.3,152.5h4.1c1.8,0,3.2,0.5,4.2,1.6c1,1.1,1.5,2.5,1.5,4.4c0,1.9-0.5,3.4-1.5,4.4
				c-1,1.1-2.4,1.6-4.2,1.6h-4.1V152.5z M26.8,153.9v9.3h2.5c1.3,0,2.4-0.4,3.1-1.2c0.7-0.8,1.1-2,1.1-3.4c0-1.5-0.4-2.6-1.1-3.4
				c-0.7-0.8-1.8-1.2-3.1-1.2H26.8z M43.8,163.4c-0.7,0.8-1.7,1.2-3,1.2c-1.3,0-2.3-0.4-3-1.2c-0.7-0.8-1.1-2-1.1-3.4
				c0-1.4,0.4-2.6,1.1-3.4c0.7-0.8,1.7-1.2,3-1.2c1.3,0,2.3,0.4,3,1.2c0.7,0.8,1.1,2,1.1,3.4C44.9,161.5,44.5,162.6,43.8,163.4z
				 M38.8,162.5c0.5,0.6,1.1,0.9,2,0.9c0.8,0,1.5-0.3,2-0.9c0.5-0.6,0.7-1.4,0.7-2.5c0-1.1-0.2-1.9-0.7-2.5c-0.5-0.6-1.1-0.9-2-0.9
				c-0.8,0-1.5,0.3-2,0.9c-0.5,0.6-0.7,1.4-0.7,2.5C38.1,161.1,38.3,161.9,38.8,162.5z M46.7,164.5v-8.9h1.4v1.4h0.1
				c0.5-1,1.4-1.6,2.7-1.6c1,0,1.8,0.3,2.3,0.9c0.5,0.6,0.8,1.4,0.8,2.4v5.8h-1.4v-5.4c0-0.8-0.2-1.4-0.5-1.8
				c-0.3-0.4-0.9-0.6-1.6-0.6c-0.7,0-1.3,0.2-1.7,0.7c-0.4,0.4-0.6,1.1-0.6,1.8v5.3H46.7z M57.4,157h-1l0.8-4.5h1.6L57.4,157z
				 M61.5,153.2h1.4v2.3h2v1.2h-2v5.1c0,0.5,0.1,0.9,0.3,1.1c0.2,0.2,0.5,0.4,1,0.4c0.2,0,0.4,0,0.7,0v1.2c-0.3,0.1-0.6,0.1-0.8,0.1
				c-0.9,0-1.6-0.2-2-0.6c-0.4-0.4-0.6-1-0.6-1.8v-5.4H60v-1.2h1.4V153.2z M79,164.5l-1.2-3.4H73l-1.2,3.4h-1.6l4.4-12h1.5l4.4,12
				H79z M75.3,154.5l-1.9,5.3h3.9l-1.9-5.3H75.3z M82.2,164.5V152h1.4v12.5H82.2z M86,164.5V152h1.4v12.5H86z M96.5,163.4
				c-0.7,0.8-1.7,1.2-3,1.2c-1.3,0-2.3-0.4-3-1.2c-0.7-0.8-1.1-2-1.1-3.4c0-1.4,0.4-2.6,1.1-3.4c0.7-0.8,1.7-1.2,3-1.2
				s2.3,0.4,3,1.2c0.7,0.8,1.1,2,1.1,3.4C97.6,161.5,97.3,162.6,96.5,163.4z M91.5,162.5c0.5,0.6,1.1,0.9,2,0.9s1.5-0.3,2-0.9
				c0.5-0.6,0.7-1.4,0.7-2.5c0-1.1-0.2-1.9-0.7-2.5c-0.5-0.6-1.1-0.9-2-0.9s-1.5,0.3-2,0.9c-0.5,0.6-0.7,1.4-0.7,2.5
				C90.9,161.1,91.1,161.9,91.5,162.5z M110.4,155.6l-2.5,8.9h-1.5l-2-6.9h-0.1l-2,6.9h-1.4l-2.5-8.9h1.4l1.8,7.2h0.1l2-7.2h1.4
				l2,7.2h0.1l1.8-7.2H110.4z"/>
			<g>
				<defs>
					<rect id="SVGID_5_" x="134.8" y="136.5" width="0.5" height="44"/>
				</defs>
				<clipPath id="SVGID_6_">
					<use xlink:href="#SVGID_5_"  overflow="visible"/>
				</clipPath>
				<g clip-path="url(#SVGID_6_)">
					<rect x="134.8" y="136.5" fill="#3C3C43" fill-opacity="0.36" width="0.5" height="44"/>
				</g>
			</g>
			<path fill="#0A7AFF" d="M197,152.2c1.7,0,3.1,0.6,4.1,1.7c1,1.1,1.5,2.7,1.5,4.6s-0.5,3.5-1.5,4.6c-1,1.1-2.4,1.7-4.1,1.7
				c-1.8,0-3.1-0.6-4.2-1.7c-1-1.1-1.5-2.7-1.5-4.6c0-1.9,0.5-3.5,1.5-4.6C193.8,152.8,195.2,152.2,197,152.2z M197,154.1
				c-1.1,0-1.9,0.4-2.5,1.2c-0.6,0.8-0.9,1.9-0.9,3.2c0,1.3,0.3,2.4,0.9,3.2c0.6,0.8,1.5,1.2,2.6,1.2c1.1,0,1.9-0.4,2.5-1.2
				c0.6-0.8,0.9-1.9,0.9-3.2c0-1.3-0.3-2.4-0.9-3.2C198.9,154.5,198,154.1,197,154.1z M206.8,164.5h-2.1v-12h2.1v5.5h0.1l4.7-5.5
				h2.5l-4.5,5.2l4.9,6.8h-2.6l-3.8-5.3l-1.3,1.5V164.5z"/>
		</g>
	</g>
</g>
</svg>
