<?xml version="1.0" encoding="utf-8"?>
<!-- Generator: Adobe Illustrator 27.2.0, SVG Export Plug-In . SVG Version: 6.00 Build 0)  -->
<svg version="1.1" id="Layer_1" xmlns="http://www.w3.org/2000/svg" xmlns:xlink="http://www.w3.org/1999/xlink" x="0px" y="0px"
	 viewBox="0 0 270 234" enable-background="new 0 0 270 234" xml:space="preserve">
<g>
	<g>
		<defs>
			<path id="SVGID_1_" d="M14,0h242c7.7,0,14,6.3,14,14v205.5c0,7.7-6.3,14-14,14H14c-7.7,0-14-6.3-14-14V14C0,6.3,6.3,0,14,0z"/>
		</defs>
		<clipPath id="SVGID_00000003063485761109517210000016906803667776227510_">
			<use xlink:href="#SVGID_1_"  overflow="visible"/>
		</clipPath>
		<g clip-path="url(#SVGID_00000003063485761109517210000016906803667776227510_)">
			<path fill="#F2F2F7" d="M14,0h242c7.7,0,14,6.3,14,14v205.5c0,7.7-6.3,14-14,14H14c-7.7,0-14-6.3-14-14V14C0,6.3,6.3,0,14,0z"/>
			<path d="M34.8,24h1.5l-1,5h-2.1L34.8,24z M38.3,24h1.5L39,29H37L38.3,24z M44.4,36h-2.1V24h2.1V36z M46.7,36v-9.1h2v1.5h0.1
				c0.2-0.5,0.6-0.9,1-1.2c0.5-0.3,1-0.4,1.7-0.4c1,0,1.8,0.3,2.3,0.9c0.5,0.6,0.8,1.4,0.8,2.5V36h-2.1v-5.4c0-1.4-0.6-2.1-1.8-2.1
				c-0.6,0-1.1,0.2-1.5,0.6c-0.4,0.4-0.5,0.9-0.5,1.6V36H46.7z M56.7,36v-9.1h2v1.5h0.1c0.2-0.5,0.6-0.9,1-1.2
				c0.5-0.3,1-0.4,1.7-0.4c1,0,1.8,0.3,2.3,0.9c0.5,0.6,0.8,1.4,0.8,2.5V36h-2.1v-5.4c0-1.4-0.6-2.1-1.8-2.1c-0.6,0-1.1,0.2-1.5,0.6
				c-0.4,0.4-0.5,0.9-0.5,1.6V36H56.7z M70.5,28.4c-0.6,0-1.1,0.2-1.5,0.6c-0.4,0.4-0.6,0.9-0.7,1.6h4.3c0-0.7-0.2-1.2-0.6-1.6
				C71.6,28.6,71.1,28.4,70.5,28.4z M72.6,33.5h2c-0.2,0.8-0.7,1.5-1.4,2c-0.7,0.5-1.6,0.7-2.7,0.7c-1.3,0-2.4-0.4-3.1-1.2
				c-0.8-0.8-1.1-2-1.1-3.4c0-1.5,0.4-2.6,1.1-3.5c0.8-0.9,1.8-1.3,3.1-1.3c1.3,0,2.3,0.4,3,1.2c0.7,0.8,1.1,1.9,1.1,3.4V32h-6.3
				v0.1c0,0.8,0.2,1.4,0.6,1.8c0.4,0.4,1,0.7,1.6,0.7C71.6,34.5,72.3,34.2,72.6,33.5z M76.3,36v-9.1h2v1.4h0.1
				c0.1-0.5,0.4-0.8,0.9-1.1c0.4-0.3,1-0.4,1.5-0.4c0.4,0,0.7,0,0.9,0.1v1.9c-0.2-0.1-0.6-0.1-1.1-0.1c-0.7,0-1.2,0.2-1.6,0.6
				c-0.4,0.4-0.6,0.9-0.6,1.5V36H76.3z M84.1,24.7h2.1V27H88v1.6h-1.9v4.5c0,0.4,0.1,0.8,0.3,1c0.2,0.2,0.5,0.3,0.9,0.3
				c0.2,0,0.4,0,0.7,0v1.6C87.7,36,87.3,36,87,36c-1,0-1.8-0.2-2.2-0.6c-0.4-0.4-0.7-1-0.7-1.9v-5h-1.4V27h1.4V24.7z M97.6,26.9V36
				h-2v-1.4h-0.1c-0.5,1.1-1.4,1.6-2.7,1.6c-1,0-1.8-0.3-2.3-0.9c-0.6-0.6-0.8-1.4-0.8-2.5v-5.9h2.1v5.4c0,0.7,0.1,1.2,0.4,1.6
				c0.3,0.3,0.7,0.5,1.4,0.5c0.7,0,1.2-0.2,1.5-0.6c0.4-0.4,0.5-0.9,0.5-1.6v-5.3H97.6z M99.7,36v-9.1h2v1.5h0.1
				c0.2-0.5,0.6-0.9,1-1.2c0.5-0.3,1-0.4,1.7-0.4c1,0,1.8,0.3,2.3,0.9c0.5,0.6,0.8,1.4,0.8,2.5V36h-2.1v-5.4c0-1.4-0.6-2.1-1.8-2.1
				c-0.6,0-1.1,0.2-1.5,0.6c-0.4,0.4-0.5,0.9-0.5,1.6V36H99.7z M113.5,28.4c-0.6,0-1.1,0.2-1.5,0.6c-0.4,0.4-0.6,0.9-0.7,1.6h4.3
				c0-0.7-0.2-1.2-0.6-1.6C114.6,28.6,114.1,28.4,113.5,28.4z M115.6,33.5h2c-0.2,0.8-0.7,1.5-1.4,2c-0.7,0.5-1.6,0.7-2.7,0.7
				c-1.3,0-2.4-0.4-3.1-1.2c-0.8-0.8-1.1-2-1.1-3.4c0-1.5,0.4-2.6,1.1-3.5c0.8-0.9,1.8-1.3,3.1-1.3c1.3,0,2.3,0.4,3,1.2
				c0.7,0.8,1.1,1.9,1.1,3.4V32h-6.3v0.1c0,0.8,0.2,1.4,0.6,1.8c0.4,0.4,1,0.7,1.6,0.7C114.6,34.5,115.3,34.2,115.6,33.5z M120.9,29
				h-1.5l0.8-5h2.1L120.9,29z M124.5,29H123l1-5h2.1L124.5,29z M139.2,27.5l-2.4,8.5h-2l-3.2-12h2.2l2,8.9h0.1l2.4-8.9h1.9l2.4,8.9
				h0.1l2.1-8.9h2.2l-3.2,12h-2l-2.4-8.5H139.2z M151.5,36.2c-1.4,0-2.4-0.4-3.2-1.3c-0.8-0.8-1.2-2-1.2-3.5c0-1.5,0.4-2.6,1.2-3.5
				c0.8-0.8,1.8-1.3,3.2-1.3c1.4,0,2.4,0.4,3.2,1.3c0.8,0.8,1.2,2,1.2,3.5c0,1.5-0.4,2.6-1.2,3.5C154,35.8,152.9,36.2,151.5,36.2z
				 M149.9,33.7c0.4,0.5,0.9,0.8,1.7,0.8c0.7,0,1.3-0.3,1.7-0.8c0.4-0.5,0.6-1.3,0.6-2.2c0-0.9-0.2-1.7-0.6-2.2
				c-0.4-0.5-0.9-0.8-1.7-0.8c-0.7,0-1.3,0.3-1.7,0.8c-0.4,0.5-0.6,1.3-0.6,2.2C149.3,32.4,149.5,33.2,149.9,33.7z M165.5,26.9V36
				h-2v-1.4h-0.1c-0.5,1.1-1.4,1.6-2.7,1.6c-1,0-1.8-0.3-2.3-0.9c-0.6-0.6-0.8-1.4-0.8-2.5v-5.9h2.1v5.4c0,0.7,0.1,1.2,0.4,1.6
				c0.3,0.3,0.7,0.5,1.4,0.5c0.7,0,1.2-0.2,1.5-0.6c0.4-0.4,0.5-0.9,0.5-1.6v-5.3H165.5z M167.7,36V23.4h2.1V36H167.7z M175.2,36.1
				c-1.2,0-2.1-0.4-2.7-1.3c-0.7-0.8-1-2-1-3.4c0-1.4,0.3-2.6,1-3.4c0.7-0.8,1.6-1.3,2.7-1.3c0.6,0,1.2,0.1,1.7,0.4
				c0.5,0.3,0.9,0.7,1.1,1.2h0.1v-5h2.1V36h-2v-1.4H178c-0.3,0.5-0.6,0.9-1.1,1.2C176.4,36,175.8,36.1,175.2,36.1z M177.5,29.3
				c-0.4-0.5-1-0.8-1.7-0.8c-0.7,0-1.3,0.3-1.7,0.8c-0.4,0.5-0.6,1.2-0.6,2.1c0,0.9,0.2,1.6,0.6,2.2c0.4,0.5,1,0.8,1.7,0.8
				c0.7,0,1.3-0.3,1.7-0.8c0.4-0.5,0.6-1.2,0.6-2.2C178.1,30.6,177.9,29.8,177.5,29.3z M194.3,34.1V36h-7.6V24h2.1v10.1H194.3z
				 M196,36v-9.1h2.1V36H196z M197.1,25.4c-0.4,0-0.7-0.1-0.9-0.3c-0.2-0.2-0.4-0.5-0.4-0.8c0-0.3,0.1-0.6,0.4-0.8
				c0.2-0.2,0.5-0.3,0.9-0.3c0.4,0,0.7,0.1,0.9,0.3c0.2,0.2,0.4,0.5,0.4,0.8c0,0.3-0.1,0.6-0.4,0.8
				C197.7,25.3,197.4,25.4,197.1,25.4z M202.5,30.6l3.4-3.7h2.4l-3.6,3.9l3.9,5.2H206l-2.9-3.9l-0.7,0.7V36h-2.1V23.4h2.1v7.2H202.5
				z M213,28.4c-0.6,0-1.1,0.2-1.5,0.6c-0.4,0.4-0.6,0.9-0.7,1.6h4.3c0-0.7-0.2-1.2-0.6-1.6C214.1,28.6,213.6,28.4,213,28.4z
				 M215.1,33.5h1.9c-0.2,0.8-0.7,1.5-1.4,2c-0.7,0.5-1.6,0.7-2.7,0.7c-1.3,0-2.4-0.4-3.1-1.2c-0.8-0.8-1.1-2-1.1-3.4
				c0-1.5,0.4-2.6,1.1-3.5c0.8-0.9,1.8-1.3,3.1-1.3c1.3,0,2.3,0.4,3,1.2c0.7,0.8,1.1,1.9,1.1,3.4V32h-6.3v0.1c0,0.8,0.2,1.4,0.6,1.8
				c0.4,0.4,1,0.7,1.6,0.7C214.1,34.5,214.8,34.2,215.1,33.5z M223.6,24.7h2.1V27h1.9v1.6h-1.9v4.5c0,0.4,0.1,0.8,0.3,1
				c0.2,0.2,0.5,0.3,0.9,0.3c0.2,0,0.4,0,0.7,0v1.6c-0.3,0.1-0.7,0.1-1.1,0.1c-1,0-1.8-0.2-2.2-0.6c-0.4-0.4-0.7-1-0.7-1.9v-5h-1.4
				V27h1.4V24.7z M233.1,36.2c-1.4,0-2.4-0.4-3.2-1.3c-0.8-0.8-1.2-2-1.2-3.5c0-1.5,0.4-2.6,1.2-3.5c0.8-0.8,1.8-1.3,3.2-1.3
				c1.4,0,2.4,0.4,3.2,1.3c0.8,0.8,1.2,2,1.2,3.5c0,1.5-0.4,2.6-1.2,3.5C235.5,35.8,234.4,36.2,233.1,36.2z M231.4,33.7
				c0.4,0.5,0.9,0.8,1.7,0.8c0.7,0,1.3-0.3,1.7-0.8c0.4-0.5,0.6-1.3,0.6-2.2c0-0.9-0.2-1.7-0.6-2.2c-0.4-0.5-0.9-0.8-1.7-0.8
				c-0.7,0-1.3,0.3-1.7,0.8c-0.4,0.5-0.6,1.3-0.6,2.2C230.8,32.4,231,33.2,231.4,33.7z M65,58l-1-3.1h-4.4l-1,3.1h-2.2l4.2-12H63
				l4.3,12H65z M61.7,48.3l-1.6,4.9h3.4l-1.6-4.9H61.7z M76.1,52h-2c-0.1-0.5-0.3-0.8-0.7-1.1c-0.3-0.3-0.8-0.4-1.3-0.4
				c-0.7,0-1.3,0.3-1.7,0.8c-0.4,0.5-0.6,1.3-0.6,2.2c0,1,0.2,1.7,0.6,2.2c0.4,0.5,0.9,0.8,1.7,0.8c0.5,0,1-0.1,1.3-0.4
				c0.3-0.2,0.6-0.6,0.7-1.1h2c-0.1,1-0.5,1.7-1.2,2.3c-0.7,0.6-1.6,0.9-2.7,0.9c-1.4,0-2.4-0.4-3.2-1.3c-0.8-0.8-1.1-2-1.1-3.5
				c0-1.5,0.4-2.6,1.1-3.5c0.8-0.8,1.8-1.2,3.2-1.2c1.1,0,2.1,0.3,2.7,0.9C75.5,50.2,75.9,51,76.1,52z M85.5,52h-2
				c-0.1-0.5-0.3-0.8-0.7-1.1c-0.3-0.3-0.8-0.4-1.3-0.4c-0.7,0-1.3,0.3-1.7,0.8c-0.4,0.5-0.6,1.3-0.6,2.2c0,1,0.2,1.7,0.6,2.2
				c0.4,0.5,0.9,0.8,1.7,0.8c0.5,0,1-0.1,1.3-0.4c0.3-0.2,0.6-0.6,0.7-1.1h2c-0.1,1-0.5,1.7-1.2,2.3c-0.7,0.6-1.6,0.9-2.7,0.9
				c-1.4,0-2.4-0.4-3.2-1.3c-0.8-0.8-1.1-2-1.1-3.5c0-1.5,0.4-2.6,1.1-3.5c0.8-0.8,1.8-1.2,3.2-1.2c1.1,0,2.1,0.3,2.7,0.9
				C84.9,50.2,85.3,51,85.5,52z M90.8,50.4c-0.6,0-1.1,0.2-1.5,0.6c-0.4,0.4-0.6,0.9-0.7,1.6h4.3c0-0.7-0.2-1.2-0.6-1.6
				C91.9,50.6,91.4,50.4,90.8,50.4z M92.9,55.5h2c-0.2,0.8-0.7,1.5-1.4,2c-0.7,0.5-1.6,0.7-2.7,0.7c-1.3,0-2.4-0.4-3.1-1.2
				c-0.8-0.8-1.1-2-1.1-3.4c0-1.5,0.4-2.6,1.1-3.5c0.8-0.9,1.8-1.3,3.1-1.3c1.3,0,2.3,0.4,3,1.2c0.7,0.8,1.1,1.9,1.1,3.4V54h-6.3
				v0.1c0,0.8,0.2,1.4,0.6,1.8c0.4,0.4,1,0.7,1.6,0.7C91.9,56.5,92.6,56.2,92.9,55.5z M96.4,51.5c0-0.8,0.3-1.5,1-2
				c0.7-0.5,1.5-0.8,2.6-0.8c1.1,0,1.9,0.2,2.6,0.7c0.6,0.5,1,1.1,1.1,1.9h-1.9c-0.1-0.3-0.3-0.6-0.6-0.8c-0.3-0.2-0.7-0.3-1.2-0.3
				c-0.5,0-0.9,0.1-1.2,0.3c-0.3,0.2-0.5,0.5-0.5,0.8c0,0.3,0.1,0.5,0.3,0.6c0.2,0.2,0.6,0.3,1,0.4l1.6,0.4c0.9,0.2,1.5,0.5,1.9,0.9
				c0.4,0.4,0.6,0.9,0.6,1.6c0,0.9-0.4,1.6-1.1,2.1c-0.7,0.5-1.6,0.8-2.8,0.8c-1.1,0-2-0.2-2.7-0.7c-0.7-0.5-1.1-1.1-1.1-1.9h2
				c0.1,0.3,0.3,0.6,0.6,0.8c0.3,0.2,0.7,0.3,1.2,0.3c0.5,0,0.9-0.1,1.3-0.3c0.3-0.2,0.5-0.5,0.5-0.8c0-0.5-0.4-0.8-1.3-1L99,54.1
				c-0.9-0.2-1.5-0.5-1.9-0.9C96.6,52.7,96.4,52.2,96.4,51.5z M105.2,51.5c0-0.8,0.3-1.5,1-2c0.7-0.5,1.5-0.8,2.6-0.8
				c1.1,0,1.9,0.2,2.6,0.7c0.6,0.5,1,1.1,1.1,1.9h-1.9c-0.1-0.3-0.3-0.6-0.6-0.8c-0.3-0.2-0.7-0.3-1.2-0.3s-0.9,0.1-1.2,0.3
				c-0.3,0.2-0.5,0.5-0.5,0.8c0,0.3,0.1,0.5,0.3,0.6c0.2,0.2,0.6,0.3,1,0.4l1.6,0.4c0.9,0.2,1.5,0.5,1.9,0.9
				c0.4,0.4,0.6,0.9,0.6,1.6c0,0.9-0.4,1.6-1.1,2.1c-0.7,0.5-1.6,0.8-2.8,0.8c-1.1,0-2-0.2-2.7-0.7c-0.7-0.5-1.1-1.1-1.1-1.9h2
				c0.1,0.3,0.3,0.6,0.6,0.8c0.3,0.2,0.7,0.3,1.2,0.3c0.5,0,0.9-0.1,1.3-0.3c0.3-0.2,0.5-0.5,0.5-0.8c0-0.5-0.4-0.8-1.3-1l-1.6-0.4
				c-0.9-0.2-1.5-0.5-1.9-0.9C105.4,52.7,105.2,52.2,105.2,51.5z M124.2,58H122v-4.7l-4.2-7.3h2.3l2.9,5.1h0.1L126,46h2.3l-4.2,7.3
				V58z M132.2,58.2c-1.4,0-2.4-0.4-3.2-1.3c-0.8-0.8-1.2-2-1.2-3.5c0-1.5,0.4-2.6,1.2-3.5c0.8-0.8,1.8-1.3,3.2-1.3
				c1.4,0,2.4,0.4,3.2,1.3c0.8,0.8,1.2,2,1.2,3.5c0,1.5-0.4,2.6-1.2,3.5C134.6,57.8,133.5,58.2,132.2,58.2z M130.5,55.7
				c0.4,0.5,0.9,0.8,1.7,0.8c0.7,0,1.3-0.3,1.7-0.8c0.4-0.5,0.6-1.3,0.6-2.2c0-0.9-0.2-1.7-0.6-2.2c-0.4-0.5-0.9-0.8-1.7-0.8
				c-0.7,0-1.3,0.3-1.7,0.8c-0.4,0.5-0.6,1.3-0.6,2.2C129.9,54.4,130.1,55.2,130.5,55.7z M146.1,48.9V58h-2v-1.4H144
				c-0.5,1.1-1.4,1.6-2.7,1.6c-1,0-1.8-0.3-2.3-0.9c-0.6-0.6-0.8-1.4-0.8-2.5v-5.9h2.1v5.4c0,0.7,0.1,1.2,0.4,1.6
				c0.3,0.3,0.7,0.5,1.4,0.5c0.7,0,1.2-0.2,1.5-0.6c0.4-0.4,0.5-0.9,0.5-1.6v-5.3H146.1z M148.2,58v-9.1h2v1.4h0.1
				c0.1-0.5,0.4-0.8,0.9-1.1c0.4-0.3,1-0.4,1.5-0.4c0.4,0,0.7,0,0.9,0.1v1.9c-0.2-0.1-0.6-0.1-1.1-0.1c-0.7,0-1.2,0.2-1.6,0.6
				c-0.4,0.4-0.6,0.9-0.6,1.5V58H148.2z M159.2,46h4.8c1.2,0,2.2,0.4,2.9,1.1c0.7,0.7,1.1,1.7,1.1,2.9c0,1.2-0.4,2.1-1.2,2.9
				c-0.8,0.7-1.8,1.1-3,1.1h-2.6V58h-2.1V46z M161.4,47.8v4.5h2.1c0.8,0,1.4-0.2,1.8-0.6c0.4-0.4,0.6-0.9,0.6-1.6
				c0-0.7-0.2-1.3-0.6-1.7c-0.4-0.4-1-0.6-1.8-0.6H161.4z M169.9,58V45.4h2v5h0.1c0.2-0.5,0.6-0.9,1-1.2c0.5-0.3,1-0.4,1.7-0.4
				c1,0,1.7,0.3,2.3,0.9c0.6,0.6,0.8,1.4,0.8,2.5V58h-2.1v-5.4c0-0.7-0.2-1.2-0.5-1.6c-0.3-0.4-0.8-0.5-1.4-0.5
				c-0.7,0-1.2,0.2-1.6,0.6c-0.4,0.4-0.6,0.9-0.6,1.6V58H169.9z M183.9,58.2c-1.4,0-2.4-0.4-3.2-1.3c-0.8-0.8-1.2-2-1.2-3.5
				c0-1.5,0.4-2.6,1.2-3.5c0.8-0.8,1.8-1.3,3.2-1.3c1.4,0,2.4,0.4,3.2,1.3c0.8,0.8,1.2,2,1.2,3.5c0,1.5-0.4,2.6-1.2,3.5
				C186.4,57.8,185.3,58.2,183.9,58.2z M182.3,55.7c0.4,0.5,0.9,0.8,1.7,0.8c0.7,0,1.3-0.3,1.7-0.8c0.4-0.5,0.6-1.3,0.6-2.2
				c0-0.9-0.2-1.7-0.6-2.2c-0.4-0.5-0.9-0.8-1.7-0.8c-0.7,0-1.3,0.3-1.7,0.8c-0.4,0.5-0.6,1.3-0.6,2.2
				C181.7,54.4,181.9,55.2,182.3,55.7z M190.6,46.7h2.1V49h1.9v1.6h-1.9v4.5c0,0.4,0.1,0.8,0.3,1c0.2,0.2,0.5,0.3,0.9,0.3
				c0.2,0,0.4,0,0.7,0v1.6c-0.3,0.1-0.7,0.1-1.1,0.1c-1,0-1.8-0.2-2.2-0.6c-0.4-0.4-0.7-1-0.7-1.9v-5h-1.4V49h1.4V46.7z M200.1,58.2
				c-1.4,0-2.4-0.4-3.2-1.3c-0.8-0.8-1.2-2-1.2-3.5c0-1.5,0.4-2.6,1.2-3.5c0.8-0.8,1.8-1.3,3.2-1.3c1.4,0,2.4,0.4,3.2,1.3
				c0.8,0.8,1.2,2,1.2,3.5c0,1.5-0.4,2.6-1.2,3.5C202.5,57.8,201.5,58.2,200.1,58.2z M198.4,55.7c0.4,0.5,0.9,0.8,1.7,0.8
				c0.7,0,1.3-0.3,1.7-0.8c0.4-0.5,0.6-1.3,0.6-2.2c0-0.9-0.2-1.7-0.6-2.2c-0.4-0.5-0.9-0.8-1.7-0.8c-0.7,0-1.3,0.3-1.7,0.8
				c-0.4,0.5-0.6,1.3-0.6,2.2C197.8,54.4,198,55.2,198.4,55.7z M205.9,51.5c0-0.8,0.3-1.5,1-2c0.7-0.5,1.5-0.8,2.6-0.8
				c1.1,0,1.9,0.2,2.6,0.7c0.6,0.5,1,1.1,1.1,1.9h-1.9c-0.1-0.3-0.3-0.6-0.6-0.8c-0.3-0.2-0.7-0.3-1.2-0.3c-0.5,0-0.9,0.1-1.2,0.3
				c-0.3,0.2-0.5,0.5-0.5,0.8c0,0.3,0.1,0.5,0.3,0.6c0.2,0.2,0.6,0.3,1,0.4l1.6,0.4c0.9,0.2,1.5,0.5,1.9,0.9
				c0.4,0.4,0.6,0.9,0.6,1.6c0,0.9-0.4,1.6-1.1,2.1c-0.7,0.5-1.6,0.8-2.8,0.8c-1.1,0-2-0.2-2.7-0.7c-0.7-0.5-1.1-1.1-1.1-1.9h2
				c0.1,0.3,0.3,0.6,0.6,0.8c0.3,0.2,0.7,0.3,1.2,0.3c0.5,0,0.9-0.1,1.3-0.3c0.3-0.2,0.5-0.5,0.5-0.8c0-0.5-0.4-0.8-1.3-1l-1.6-0.4
				c-0.9-0.2-1.5-0.5-1.9-0.9C206.1,52.7,205.9,52.2,205.9,51.5z"/>
			<path d="M70.8,77h-1.1v-9.2h1.1l5,7.1h0.1v-7.1H77V77h-1.1l-5-7.1h-0.1V77z M81.8,71c-0.5,0-1,0.2-1.3,0.6
				c-0.4,0.4-0.5,0.9-0.6,1.5h3.8c0-0.6-0.2-1.1-0.5-1.5C82.8,71.2,82.4,71,81.8,71z M83.6,75.2h1.1c-0.2,0.6-0.5,1.1-1,1.4
				c-0.5,0.3-1.1,0.5-1.9,0.5c-0.9,0-1.7-0.3-2.3-1c-0.6-0.6-0.8-1.5-0.8-2.6c0-1.1,0.3-1.9,0.8-2.6c0.6-0.6,1.3-1,2.2-1
				c0.9,0,1.6,0.3,2.2,0.9c0.5,0.6,0.8,1.5,0.8,2.5v0.4h-4.9v0.1c0,0.7,0.2,1.2,0.6,1.6c0.4,0.4,0.8,0.6,1.4,0.6
				C82.8,76.2,83.4,75.8,83.6,75.2z M89.2,71c-0.5,0-1,0.2-1.3,0.6c-0.4,0.4-0.5,0.9-0.6,1.5H91c0-0.6-0.2-1.1-0.5-1.5
				C90.2,71.2,89.7,71,89.2,71z M91,75.2h1.1c-0.2,0.6-0.5,1.1-1,1.4c-0.5,0.3-1.1,0.5-1.9,0.5c-0.9,0-1.7-0.3-2.3-1
				c-0.6-0.6-0.8-1.5-0.8-2.6c0-1.1,0.3-1.9,0.8-2.6c0.6-0.6,1.3-1,2.2-1c0.9,0,1.6,0.3,2.2,0.9s0.8,1.5,0.8,2.5v0.4h-4.9v0.1
				c0,0.7,0.2,1.2,0.6,1.6c0.4,0.4,0.8,0.6,1.4,0.6C90.1,76.2,90.7,75.8,91,75.2z M96.3,77.1c-0.9,0-1.6-0.3-2.1-1
				c-0.5-0.6-0.8-1.5-0.8-2.6c0-1.1,0.3-1.9,0.8-2.6c0.5-0.6,1.2-1,2.1-1c0.5,0,0.9,0.1,1.3,0.3c0.4,0.2,0.7,0.5,0.9,0.9h0.1v-3.8
				h1.1V77h-1v-1.1h-0.1c-0.2,0.4-0.5,0.7-0.9,0.9C97.2,77,96.8,77.1,96.3,77.1z M96.6,71c-0.6,0-1.1,0.2-1.5,0.7
				c-0.4,0.5-0.5,1.1-0.5,1.9c0,0.8,0.2,1.4,0.5,1.9c0.4,0.5,0.8,0.7,1.5,0.7c0.6,0,1.1-0.2,1.5-0.7c0.4-0.5,0.5-1.1,0.5-1.9
				c0-0.8-0.2-1.4-0.5-1.9C97.7,71.3,97.2,71,96.6,71z M105.8,68.4h1.1v1.8h1.5v0.9h-1.5v3.9c0,0.4,0.1,0.7,0.2,0.9
				c0.2,0.2,0.4,0.3,0.8,0.3c0.2,0,0.3,0,0.5,0V77c-0.2,0-0.5,0.1-0.6,0.1c-0.7,0-1.2-0.1-1.5-0.4c-0.3-0.3-0.5-0.8-0.5-1.4v-4.2
				h-1.1v-0.9h1.1V68.4z M115,76.2c-0.6,0.6-1.3,0.9-2.3,0.9c-1,0-1.7-0.3-2.3-0.9c-0.6-0.6-0.8-1.5-0.8-2.6c0-1.1,0.3-2,0.8-2.6
				c0.6-0.6,1.3-0.9,2.3-0.9c1,0,1.7,0.3,2.3,0.9c0.6,0.6,0.8,1.5,0.8,2.6C115.8,74.7,115.5,75.5,115,76.2z M111.2,75.5
				c0.4,0.4,0.8,0.7,1.5,0.7c0.6,0,1.1-0.2,1.5-0.7c0.4-0.4,0.5-1.1,0.5-1.9s-0.2-1.4-0.5-1.9c-0.4-0.4-0.9-0.7-1.5-0.7
				c-0.6,0-1.1,0.2-1.5,0.7c-0.4,0.4-0.5,1.1-0.5,1.9S110.8,75,111.2,75.5z M126.6,70.2V77h-1v-1.1h-0.1c-0.2,0.4-0.4,0.7-0.8,0.9
				c-0.4,0.2-0.8,0.3-1.3,0.3c-0.8,0-1.3-0.2-1.7-0.7c-0.4-0.4-0.6-1.1-0.6-1.9v-4.4h1.1v4.2c0,0.6,0.1,1.1,0.4,1.4
				c0.2,0.3,0.6,0.4,1.2,0.4c0.6,0,1.1-0.2,1.4-0.5c0.3-0.3,0.5-0.8,0.5-1.4v-4H126.6z M131.9,70c0.9,0,1.6,0.3,2.1,1
				c0.5,0.6,0.8,1.5,0.8,2.6c0,1.1-0.3,1.9-0.8,2.6c-0.5,0.6-1.2,1-2.1,1c-0.5,0-0.9-0.1-1.3-0.3c-0.4-0.2-0.7-0.5-0.8-0.9h-0.1v3.3
				h-1.1v-9.1h1v1.1h0.1c0.2-0.4,0.5-0.7,0.9-0.9C131,70.1,131.4,70,131.9,70z M131.6,76.1c0.6,0,1.1-0.2,1.5-0.7
				c0.4-0.5,0.5-1.1,0.5-1.9c0-0.8-0.2-1.4-0.5-1.9c-0.4-0.5-0.8-0.7-1.5-0.7c-0.6,0-1.1,0.2-1.5,0.7c-0.4,0.5-0.5,1.1-0.5,1.9
				c0,0.8,0.2,1.4,0.5,1.9C130.5,75.9,131,76.1,131.6,76.1z M136.5,77v-9.6h1.1V77H136.5z M144.7,76.2c-0.6,0.6-1.3,0.9-2.3,0.9
				c-1,0-1.7-0.3-2.3-0.9c-0.6-0.6-0.8-1.5-0.8-2.6c0-1.1,0.3-2,0.8-2.6c0.6-0.6,1.3-0.9,2.3-0.9c1,0,1.7,0.3,2.3,0.9
				c0.6,0.6,0.8,1.5,0.8,2.6C145.6,74.7,145.3,75.5,144.7,76.2z M140.9,75.5c0.4,0.4,0.9,0.7,1.5,0.7c0.6,0,1.1-0.2,1.5-0.7
				c0.4-0.4,0.5-1.1,0.5-1.9s-0.2-1.4-0.5-1.9c-0.4-0.4-0.8-0.7-1.5-0.7c-0.6,0-1.1,0.2-1.5,0.7c-0.4,0.4-0.5,1.1-0.5,1.9
				S140.6,75,140.9,75.5z M149.3,76.2c0.6,0,1-0.2,1.4-0.5c0.4-0.3,0.6-0.7,0.6-1.2v-0.6l-1.8,0.1c-0.5,0-0.9,0.1-1.1,0.3
				c-0.2,0.2-0.4,0.4-0.4,0.8c0,0.3,0.1,0.6,0.4,0.8C148.6,76.1,148.9,76.2,149.3,76.2z M149.1,77.1c-0.7,0-1.2-0.2-1.7-0.6
				c-0.4-0.4-0.6-0.9-0.6-1.5c0-0.6,0.2-1.1,0.6-1.4c0.4-0.3,1-0.5,1.8-0.6l2-0.1v-0.6c0-0.4-0.1-0.7-0.4-1
				c-0.3-0.2-0.6-0.3-1.2-0.3c-0.4,0-0.8,0.1-1,0.2c-0.3,0.1-0.4,0.4-0.5,0.6h-1.1c0.1-0.5,0.4-1,0.8-1.3c0.5-0.3,1.1-0.5,1.8-0.5
				c0.8,0,1.5,0.2,1.9,0.6c0.5,0.4,0.7,1,0.7,1.7V77h-1v-1h-0.1c-0.2,0.4-0.5,0.6-0.9,0.8C150,77,149.6,77.1,149.1,77.1z
				 M156.8,77.1c-0.9,0-1.6-0.3-2.1-1c-0.5-0.6-0.8-1.5-0.8-2.6c0-1.1,0.3-1.9,0.8-2.6c0.5-0.6,1.2-1,2.1-1c0.5,0,0.9,0.1,1.3,0.3
				c0.4,0.2,0.7,0.5,0.9,0.9h0.1v-3.8h1.1V77h-1v-1.1H159c-0.2,0.4-0.5,0.7-0.9,0.9C157.7,77,157.3,77.1,156.8,77.1z M157.1,71
				c-0.6,0-1.1,0.2-1.5,0.7c-0.4,0.5-0.5,1.1-0.5,1.9c0,0.8,0.2,1.4,0.5,1.9c0.4,0.5,0.8,0.7,1.5,0.7c0.6,0,1.1-0.2,1.5-0.7
				c0.4-0.5,0.5-1.1,0.5-1.9c0-0.8-0.2-1.4-0.5-1.9C158.2,71.3,157.7,71,157.1,71z M165.8,77v-6.8h1.1V77H165.8z M166.9,68.5
				c-0.1,0.1-0.3,0.2-0.5,0.2c-0.2,0-0.4-0.1-0.5-0.2c-0.1-0.2-0.2-0.3-0.2-0.5c0-0.2,0.1-0.4,0.2-0.5c0.1-0.2,0.3-0.2,0.5-0.2
				c0.2,0,0.4,0.1,0.5,0.2c0.1,0.1,0.2,0.3,0.2,0.5C167.1,68.2,167.1,68.4,166.9,68.5z M168.9,77v-6.8h1v1.1h0.1
				c0.2-0.4,0.4-0.7,0.7-0.9c0.3-0.2,0.7-0.3,1.2-0.3c0.4,0,0.8,0.1,1.2,0.3c0.3,0.2,0.6,0.5,0.7,0.9h0.1c0.2-0.4,0.5-0.7,0.8-0.9
				c0.4-0.2,0.8-0.3,1.3-0.3c0.7,0,1.2,0.2,1.6,0.6c0.4,0.4,0.6,0.9,0.6,1.7V77h-1.1v-4.5c0-1-0.5-1.5-1.4-1.5
				c-0.5,0-0.8,0.2-1.1,0.5c-0.3,0.3-0.4,0.7-0.4,1.1V77H173v-4.6c0-0.4-0.1-0.7-0.4-1c-0.3-0.2-0.6-0.4-1-0.4
				c-0.4,0-0.8,0.2-1.1,0.5c-0.3,0.3-0.5,0.7-0.5,1.2V77H168.9z M182.3,76.2c0.6,0,1-0.2,1.4-0.5c0.4-0.3,0.6-0.7,0.6-1.2v-0.6
				l-1.8,0.1c-0.5,0-0.9,0.1-1.1,0.3c-0.2,0.2-0.4,0.4-0.4,0.8c0,0.3,0.1,0.6,0.4,0.8C181.5,76.1,181.9,76.2,182.3,76.2z
				 M182.1,77.1c-0.7,0-1.2-0.2-1.7-0.6c-0.4-0.4-0.6-0.9-0.6-1.5c0-0.6,0.2-1.1,0.6-1.4c0.4-0.3,1-0.5,1.8-0.6l2-0.1v-0.6
				c0-0.4-0.1-0.7-0.4-1c-0.3-0.2-0.6-0.3-1.2-0.3c-0.4,0-0.8,0.1-1,0.2c-0.3,0.1-0.4,0.4-0.5,0.6H180c0.1-0.5,0.4-1,0.8-1.3
				c0.5-0.3,1.1-0.5,1.8-0.5c0.8,0,1.5,0.2,1.9,0.6c0.5,0.4,0.7,1,0.7,1.7V77h-1v-1h-0.1c-0.2,0.4-0.5,0.6-0.9,0.8
				C182.9,77,182.5,77.1,182.1,77.1z M190,75.9c0.6,0,1.1-0.2,1.5-0.7c0.4-0.4,0.5-1,0.5-1.8c0-0.7-0.2-1.3-0.5-1.8
				c-0.4-0.4-0.9-0.7-1.5-0.7c-0.6,0-1.1,0.2-1.5,0.7c-0.3,0.4-0.5,1-0.5,1.8c0,0.8,0.2,1.4,0.5,1.8S189.4,75.9,190,75.9z
				 M190.1,79.6c-0.8,0-1.5-0.2-2-0.5c-0.5-0.3-0.8-0.8-0.9-1.4h1.2c0.1,0.3,0.2,0.5,0.5,0.7c0.3,0.2,0.7,0.2,1.2,0.2
				c0.6,0,1.1-0.1,1.4-0.4c0.3-0.3,0.5-0.7,0.5-1.2v-1.3h-0.1c-0.2,0.4-0.5,0.7-0.9,0.9c-0.4,0.2-0.8,0.3-1.3,0.3
				c-0.9,0-1.6-0.3-2.1-0.9c-0.5-0.6-0.8-1.5-0.8-2.5c0-1,0.3-1.9,0.8-2.5c0.5-0.6,1.2-0.9,2.1-0.9c0.5,0,0.9,0.1,1.3,0.3
				c0.4,0.2,0.7,0.5,0.9,0.9h0.1v-1.1h1v7c0,0.8-0.3,1.4-0.8,1.8S191,79.6,190.1,79.6z M197.8,71c-0.5,0-1,0.2-1.3,0.6
				c-0.4,0.4-0.5,0.9-0.6,1.5h3.8c0-0.6-0.2-1.1-0.5-1.5C198.8,71.2,198.4,71,197.8,71z M199.6,75.2h1.1c-0.2,0.6-0.5,1.1-1,1.4
				c-0.5,0.3-1.1,0.5-1.9,0.5c-0.9,0-1.7-0.3-2.3-1c-0.6-0.6-0.8-1.5-0.8-2.6c0-1.1,0.3-1.9,0.8-2.6c0.6-0.6,1.3-1,2.2-1
				c0.9,0,1.6,0.3,2.2,0.9c0.5,0.6,0.8,1.5,0.8,2.5v0.4h-4.9v0.1c0,0.7,0.2,1.2,0.6,1.6c0.4,0.4,0.8,0.6,1.4,0.6
				C198.7,76.2,199.3,75.8,199.6,75.2z"/>
			<g>
				<defs>
					<rect id="SVGID_00000101788805381221843350000013763522946229352605_" y="100" width="270" height="0.5"/>
				</defs>
				<clipPath id="SVGID_00000173846102747085509120000016466900168497810845_">
					<use xlink:href="#SVGID_00000101788805381221843350000013763522946229352605_"  overflow="visible"/>
				</clipPath>
				<g clip-path="url(#SVGID_00000173846102747085509120000016466900168497810845_)">
					<rect y="100" fill="#3C3C43" fill-opacity="0.36" width="270" height="0.5"/>
				</g>
			</g>
			<path fill="#0A7AFF" d="M79.5,125.6H81c0.1,0.6,0.4,1.1,0.9,1.4c0.5,0.3,1.2,0.5,2,0.5c0.8,0,1.4-0.2,1.9-0.5
				c0.5-0.4,0.8-0.8,0.8-1.4c0-0.5-0.2-0.9-0.5-1.2c-0.4-0.3-0.9-0.6-1.7-0.8l-1.4-0.4c-1-0.3-1.8-0.6-2.2-1.1
				c-0.5-0.5-0.7-1.1-0.7-1.9c0-1,0.4-1.7,1.1-2.3c0.7-0.6,1.7-0.9,2.9-0.9c1.1,0,2,0.3,2.7,0.9c0.7,0.6,1.1,1.3,1.2,2.2h-1.4
				c-0.1-0.6-0.4-1-0.8-1.4c-0.4-0.3-1-0.5-1.7-0.5c-0.8,0-1.4,0.2-1.8,0.5c-0.5,0.3-0.7,0.8-0.7,1.4c0,0.4,0.2,0.8,0.5,1.1
				c0.3,0.3,0.9,0.5,1.7,0.7l1.2,0.3c1.2,0.3,2,0.7,2.5,1.2c0.5,0.5,0.8,1.1,0.8,2c0,1-0.4,1.9-1.1,2.5c-0.8,0.6-1.8,0.9-3.1,0.9
				c-1.2,0-2.2-0.3-2.9-0.9C80,127.3,79.6,126.5,79.5,125.6z M93.1,121.1c-0.7,0-1.2,0.2-1.7,0.7c-0.4,0.5-0.7,1.1-0.7,1.8h4.6
				c0-0.7-0.2-1.3-0.6-1.8C94.3,121.3,93.7,121.1,93.1,121.1z M95.3,126.3h1.3c-0.2,0.7-0.6,1.3-1.2,1.7c-0.6,0.4-1.4,0.6-2.3,0.6
				c-1.2,0-2.1-0.4-2.8-1.2c-0.7-0.8-1-1.8-1-3.2c0-1.3,0.3-2.4,1-3.2c0.7-0.8,1.6-1.2,2.8-1.2c1.1,0,2,0.4,2.7,1.1
				c0.7,0.8,1,1.8,1,3.1v0.5h-6.1v0.1c0,0.8,0.3,1.5,0.7,2c0.4,0.5,1,0.7,1.7,0.7C94.2,127.5,94.9,127.1,95.3,126.3z M98.5,128.5
				v-11.8h1.3v11.8H98.5z M105.4,121.1c-0.7,0-1.2,0.2-1.7,0.7c-0.4,0.5-0.7,1.1-0.7,1.8h4.6c0-0.7-0.2-1.3-0.6-1.8
				C106.6,121.3,106.1,121.1,105.4,121.1z M107.6,126.3h1.3c-0.2,0.7-0.6,1.3-1.2,1.7c-0.6,0.4-1.4,0.6-2.3,0.6
				c-1.2,0-2.1-0.4-2.8-1.2c-0.7-0.8-1-1.8-1-3.2c0-1.3,0.3-2.4,1-3.2c0.7-0.8,1.6-1.2,2.8-1.2c1.1,0,2,0.4,2.7,1.1
				c0.7,0.8,1,1.8,1,3.1v0.5H103v0.1c0,0.8,0.3,1.5,0.7,2c0.4,0.5,1,0.7,1.7,0.7C106.6,127.5,107.3,127.1,107.6,126.3z M117.8,122.7
				h-1.4c-0.1-0.4-0.4-0.8-0.7-1.1c-0.4-0.3-0.9-0.4-1.4-0.4c-0.8,0-1.4,0.3-1.8,0.8c-0.4,0.6-0.7,1.3-0.7,2.3c0,1,0.2,1.7,0.7,2.3
				c0.4,0.6,1,0.9,1.8,0.9c0.6,0,1-0.1,1.4-0.4c0.4-0.3,0.6-0.6,0.8-1.1h1.4c-0.1,0.8-0.5,1.4-1.1,1.9c-0.6,0.5-1.4,0.7-2.4,0.7
				c-1.2,0-2.1-0.4-2.8-1.2c-0.7-0.8-1-1.9-1-3.2c0-1.3,0.3-2.4,1-3.1c0.7-0.8,1.6-1.2,2.8-1.2c1,0,1.8,0.3,2.4,0.8
				C117.3,121.2,117.6,121.9,117.8,122.7z M120.1,117.9h1.3v2.2h1.9v1.1h-1.9v4.8c0,0.5,0.1,0.9,0.3,1.1c0.2,0.2,0.5,0.3,1,0.3
				c0.2,0,0.4,0,0.6,0v1.1c-0.3,0.1-0.6,0.1-0.8,0.1c-0.9,0-1.5-0.2-1.9-0.5s-0.6-0.9-0.6-1.7v-5.1h-1.4v-1.1h1.4V117.9z
				 M129.2,117.2h4.3c1.1,0,1.9,0.3,2.6,1c0.7,0.7,1,1.6,1,2.6c0,1.1-0.3,1.9-1,2.6c-0.7,0.7-1.5,1-2.6,1h-2.8v4h-1.4V117.2z
				 M130.6,118.5v4.8h2.5c0.8,0,1.4-0.2,1.9-0.6c0.4-0.4,0.7-1,0.7-1.7c0-0.8-0.2-1.4-0.7-1.8c-0.4-0.4-1.1-0.6-1.9-0.6H130.6z
				 M138.8,128.5v-11.8h1.3v4.7h0.1c0.2-0.5,0.5-0.8,1-1.1c0.4-0.3,1-0.4,1.6-0.4c0.9,0,1.6,0.3,2.1,0.8c0.5,0.5,0.8,1.3,0.8,2.3
				v5.5h-1.3v-5.1c0-1.5-0.6-2.2-1.9-2.2c-0.7,0-1.3,0.2-1.7,0.6c-0.4,0.4-0.6,1-0.6,1.7v5H138.8z M154.2,127.5
				c-0.7,0.8-1.6,1.2-2.8,1.2c-1.2,0-2.1-0.4-2.8-1.2c-0.7-0.8-1-1.8-1-3.2c0-1.4,0.3-2.4,1-3.2c0.7-0.8,1.6-1.2,2.8-1.2
				c1.2,0,2.2,0.4,2.8,1.2c0.7,0.8,1,1.8,1,3.2C155.2,125.6,154.9,126.7,154.2,127.5z M149.5,126.6c0.4,0.5,1,0.8,1.8,0.8
				c0.8,0,1.4-0.3,1.8-0.8c0.4-0.6,0.6-1.3,0.6-2.3s-0.2-1.8-0.6-2.3c-0.4-0.6-1-0.8-1.8-0.8c-0.8,0-1.4,0.3-1.8,0.8
				c-0.4,0.5-0.6,1.3-0.6,2.3S149,126.1,149.5,126.6z M157.5,117.9h1.3v2.2h1.9v1.1h-1.9v4.8c0,0.5,0.1,0.9,0.3,1.1
				c0.2,0.2,0.5,0.3,1,0.3c0.2,0,0.4,0,0.6,0v1.1c-0.3,0.1-0.6,0.1-0.8,0.1c-0.9,0-1.5-0.2-1.9-0.5s-0.6-0.9-0.6-1.7v-5.1h-1.4v-1.1
				h1.4V117.9z M168.5,127.5c-0.7,0.8-1.6,1.2-2.8,1.2s-2.1-0.4-2.8-1.2c-0.7-0.8-1-1.8-1-3.2c0-1.4,0.3-2.4,1-3.2
				c0.7-0.8,1.6-1.2,2.8-1.2s2.2,0.4,2.8,1.2c0.7,0.8,1,1.8,1,3.2C169.5,125.6,169.2,126.7,168.5,127.5z M163.8,126.6
				c0.4,0.5,1,0.8,1.8,0.8s1.4-0.3,1.8-0.8c0.4-0.6,0.6-1.3,0.6-2.3s-0.2-1.8-0.6-2.3c-0.4-0.6-1-0.8-1.8-0.8s-1.4,0.3-1.8,0.8
				c-0.4,0.5-0.6,1.3-0.6,2.3S163.4,126.1,163.8,126.6z M171,122.4c0-0.7,0.3-1.3,0.9-1.8c0.6-0.5,1.3-0.7,2.2-0.7
				c0.9,0,1.6,0.2,2.2,0.6c0.6,0.4,0.9,1,1,1.6H176c-0.1-0.3-0.3-0.6-0.6-0.8c-0.3-0.2-0.7-0.3-1.2-0.3c-0.5,0-0.9,0.1-1.3,0.4
				c-0.3,0.2-0.5,0.5-0.5,0.9c0,0.3,0.1,0.5,0.4,0.7c0.2,0.2,0.6,0.3,1.1,0.5l1.3,0.3c0.8,0.2,1.4,0.5,1.8,0.8
				c0.4,0.4,0.6,0.8,0.6,1.4c0,0.7-0.3,1.4-1,1.8c-0.6,0.5-1.4,0.7-2.4,0.7c-0.9,0-1.7-0.2-2.3-0.6c-0.6-0.4-0.9-1-1-1.7h1.4
				c0.1,0.4,0.3,0.7,0.7,0.9c0.3,0.2,0.8,0.3,1.3,0.3c0.6,0,1-0.1,1.4-0.4c0.4-0.2,0.5-0.6,0.5-0.9c0-0.6-0.4-1-1.3-1.2l-1.4-0.4
				c-0.8-0.2-1.4-0.5-1.8-0.8C171.2,123.5,171,123,171,122.4z M180.3,128.6c-0.3,0-0.5-0.1-0.7-0.3c-0.2-0.2-0.3-0.4-0.3-0.7
				c0-0.3,0.1-0.5,0.3-0.7c0.2-0.2,0.4-0.3,0.7-0.3c0.3,0,0.5,0.1,0.7,0.3s0.3,0.4,0.3,0.7c0,0.3-0.1,0.5-0.3,0.7
				C180.8,128.5,180.6,128.6,180.3,128.6z M184.6,128.6c-0.3,0-0.5-0.1-0.7-0.3c-0.2-0.2-0.3-0.4-0.3-0.7c0-0.3,0.1-0.5,0.3-0.7
				c0.2-0.2,0.4-0.3,0.7-0.3c0.3,0,0.5,0.1,0.7,0.3s0.3,0.4,0.3,0.7c0,0.3-0.1,0.5-0.3,0.7C185.2,128.5,184.9,128.6,184.6,128.6z
				 M189,128.6c-0.3,0-0.5-0.1-0.7-0.3c-0.2-0.2-0.3-0.4-0.3-0.7c0-0.3,0.1-0.5,0.3-0.7c0.2-0.2,0.4-0.3,0.7-0.3
				c0.3,0,0.5,0.1,0.7,0.3c0.2,0.2,0.3,0.4,0.3,0.7c0,0.3-0.1,0.5-0.3,0.7C189.5,128.5,189.3,128.6,189,128.6z"/>
			<g>
				<defs>
					<rect id="SVGID_00000074416859469066200450000007015023644771333798_" y="144.5" width="270" height="0.5"/>
				</defs>
				<clipPath id="SVGID_00000114769579287272285500000016547763866617239742_">
					<use xlink:href="#SVGID_00000074416859469066200450000007015023644771333798_"  overflow="visible"/>
				</clipPath>
				<g clip-path="url(#SVGID_00000114769579287272285500000016547763866617239742_)">
					<rect y="144.5" fill="#3C3C43" fill-opacity="0.36" width="270" height="0.5"/>
				</g>
			</g>
			<path fill="#0A7AFF" d="M50.3,173l-1.1-3.2h-4.5l-1.1,3.2h-1.5l4.2-11.3h1.4l4.2,11.3H50.3z M46.9,163.5l-1.8,5h3.7l-1.8-5H46.9z
				 M53.3,173v-11.8h1.3V173H53.3z M56.9,173v-11.8h1.3V173H56.9z M66.8,172c-0.7,0.8-1.6,1.2-2.8,1.2c-1.2,0-2.1-0.4-2.8-1.2
				c-0.7-0.8-1-1.8-1-3.2c0-1.4,0.3-2.4,1-3.2s1.6-1.2,2.8-1.2c1.2,0,2.2,0.4,2.8,1.2c0.7,0.8,1,1.8,1,3.2
				C67.8,170.1,67.4,171.2,66.8,172z M62.1,171.1c0.4,0.5,1,0.8,1.8,0.8c0.8,0,1.4-0.3,1.8-0.8c0.4-0.6,0.6-1.3,0.6-2.3
				s-0.2-1.8-0.6-2.3c-0.4-0.6-1-0.8-1.8-0.8c-0.8,0-1.4,0.3-1.8,0.8c-0.4,0.5-0.6,1.3-0.6,2.3S61.6,170.6,62.1,171.1z M79.8,164.6
				l-2.4,8.4h-1.4l-1.9-6.5H74l-1.9,6.5h-1.4l-2.4-8.4h1.4l1.7,6.7h0.1l1.9-6.7h1.3l1.9,6.7h0.1l1.7-6.7H79.8z M92.8,173l-1.1-3.2
				h-4.5L86,173h-1.5l4.2-11.3h1.4l4.2,11.3H92.8z M89.3,163.5l-1.8,5h3.7l-1.8-5H89.3z M102.2,167.2h-1.4c-0.1-0.4-0.4-0.8-0.7-1.1
				c-0.4-0.3-0.9-0.4-1.4-0.4c-0.8,0-1.4,0.3-1.8,0.8c-0.4,0.6-0.7,1.3-0.7,2.3c0,1,0.2,1.7,0.7,2.3c0.4,0.6,1,0.9,1.8,0.9
				c0.6,0,1-0.1,1.4-0.4c0.4-0.3,0.6-0.6,0.8-1.1h1.4c-0.1,0.8-0.5,1.4-1.1,1.9c-0.6,0.5-1.4,0.7-2.4,0.7c-1.2,0-2.1-0.4-2.8-1.2
				c-0.7-0.8-1-1.9-1-3.2c0-1.3,0.3-2.4,1-3.1c0.7-0.8,1.6-1.2,2.8-1.2c1,0,1.8,0.3,2.4,0.8C101.7,165.7,102,166.4,102.2,167.2z
				 M110.7,167.2h-1.4c-0.1-0.4-0.4-0.8-0.7-1.1c-0.4-0.3-0.9-0.4-1.4-0.4c-0.8,0-1.4,0.3-1.8,0.8c-0.4,0.6-0.7,1.3-0.7,2.3
				c0,1,0.2,1.7,0.7,2.3c0.4,0.6,1,0.9,1.8,0.9c0.6,0,1-0.1,1.4-0.4c0.4-0.3,0.6-0.6,0.8-1.1h1.4c-0.1,0.8-0.5,1.4-1.1,1.9
				c-0.6,0.5-1.4,0.7-2.4,0.7c-1.2,0-2.1-0.4-2.8-1.2c-0.7-0.8-1-1.9-1-3.2c0-1.3,0.3-2.4,1-3.1c0.7-0.8,1.6-1.2,2.8-1.2
				c1,0,1.8,0.3,2.4,0.8C110.2,165.7,110.6,166.4,110.7,167.2z M115.6,165.6c-0.7,0-1.2,0.2-1.7,0.7s-0.7,1.1-0.7,1.8h4.6
				c0-0.7-0.2-1.3-0.6-1.8C116.8,165.8,116.3,165.6,115.6,165.6z M117.8,170.8h1.3c-0.2,0.7-0.6,1.3-1.2,1.7
				c-0.6,0.4-1.4,0.6-2.3,0.6c-1.2,0-2.1-0.4-2.8-1.2c-0.7-0.8-1-1.8-1-3.2c0-1.3,0.3-2.4,1-3.2c0.7-0.8,1.6-1.2,2.8-1.2
				c1.1,0,2,0.4,2.7,1.1c0.7,0.8,1,1.8,1,3.1v0.5h-6.1v0.1c0,0.8,0.3,1.5,0.7,2c0.4,0.5,1,0.7,1.7,0.7
				C116.8,172,117.5,171.6,117.8,170.8z M120.8,166.9c0-0.7,0.3-1.3,0.9-1.8c0.6-0.5,1.3-0.7,2.2-0.7c0.9,0,1.6,0.2,2.2,0.6
				c0.6,0.4,0.9,1,1,1.6h-1.3c-0.1-0.3-0.3-0.6-0.6-0.8c-0.3-0.2-0.7-0.3-1.2-0.3c-0.5,0-0.9,0.1-1.3,0.4c-0.3,0.2-0.5,0.5-0.5,0.9
				c0,0.3,0.1,0.5,0.4,0.7c0.2,0.2,0.6,0.3,1.1,0.5l1.3,0.3c0.8,0.2,1.4,0.5,1.8,0.8c0.4,0.4,0.6,0.8,0.6,1.4c0,0.7-0.3,1.4-1,1.8
				c-0.6,0.5-1.4,0.7-2.4,0.7c-0.9,0-1.7-0.2-2.3-0.6c-0.6-0.4-0.9-1-1-1.7h1.4c0.1,0.4,0.3,0.7,0.7,0.9c0.3,0.2,0.8,0.3,1.3,0.3
				c0.6,0,1-0.1,1.4-0.4c0.4-0.2,0.5-0.6,0.5-0.9c0-0.6-0.4-1-1.3-1.2l-1.4-0.4c-0.8-0.2-1.4-0.5-1.8-0.8
				C121,168,120.8,167.5,120.8,166.9z M128.6,166.9c0-0.7,0.3-1.3,0.9-1.8c0.6-0.5,1.3-0.7,2.2-0.7c0.9,0,1.6,0.2,2.2,0.6
				s0.9,1,1,1.6h-1.3c-0.1-0.3-0.3-0.6-0.6-0.8c-0.3-0.2-0.7-0.3-1.2-0.3c-0.5,0-0.9,0.1-1.3,0.4c-0.3,0.2-0.5,0.5-0.5,0.9
				c0,0.3,0.1,0.5,0.4,0.7c0.2,0.2,0.6,0.3,1.1,0.5l1.3,0.3c0.8,0.2,1.4,0.5,1.8,0.8c0.4,0.4,0.6,0.8,0.6,1.4c0,0.7-0.3,1.4-1,1.8
				c-0.6,0.5-1.4,0.7-2.4,0.7c-0.9,0-1.7-0.2-2.3-0.6c-0.6-0.4-0.9-1-1-1.7h1.4c0.1,0.4,0.3,0.7,0.7,0.9c0.3,0.2,0.8,0.3,1.3,0.3
				c0.6,0,1-0.1,1.4-0.4c0.4-0.2,0.5-0.6,0.5-0.9c0-0.6-0.4-1-1.3-1.2l-1.4-0.4c-0.8-0.2-1.4-0.5-1.8-0.8
				C128.8,168,128.6,167.5,128.6,166.9z M141.5,162.4h1.3v2.2h1.9v1.1h-1.9v4.8c0,0.5,0.1,0.9,0.3,1.1s0.5,0.3,1,0.3
				c0.2,0,0.4,0,0.6,0v1.1c-0.3,0.1-0.6,0.1-0.8,0.1c-0.9,0-1.5-0.2-1.9-0.5s-0.6-0.9-0.6-1.7v-5.1h-1.4v-1.1h1.4V162.4z M152.5,172
				c-0.7,0.8-1.6,1.2-2.8,1.2s-2.1-0.4-2.8-1.2c-0.7-0.8-1-1.8-1-3.2c0-1.4,0.3-2.4,1-3.2c0.7-0.8,1.6-1.2,2.8-1.2
				c1.2,0,2.2,0.4,2.8,1.2c0.7,0.8,1,1.8,1,3.2C153.5,170.1,153.2,171.2,152.5,172z M147.8,171.1c0.4,0.5,1,0.8,1.8,0.8
				c0.8,0,1.4-0.3,1.8-0.8c0.4-0.6,0.6-1.3,0.6-2.3s-0.2-1.8-0.6-2.3c-0.4-0.6-1-0.8-1.8-0.8c-0.8,0-1.4,0.3-1.8,0.8
				c-0.4,0.5-0.6,1.3-0.6,2.3S147.4,170.6,147.8,171.1z M161.9,172c0.7,0,1.3-0.2,1.7-0.6c0.5-0.4,0.7-0.9,0.7-1.5v-0.8l-2.3,0.1
				c-0.6,0-1.1,0.2-1.4,0.4c-0.3,0.2-0.4,0.5-0.4,1c0,0.4,0.2,0.8,0.5,1C161,171.8,161.4,172,161.9,172z M161.7,173.1
				c-0.8,0-1.5-0.2-2-0.7c-0.5-0.5-0.8-1.1-0.8-1.8c0-0.8,0.3-1.3,0.8-1.8c0.5-0.4,1.3-0.7,2.3-0.7l2.4-0.1v-0.8
				c0-0.5-0.2-0.9-0.5-1.2s-0.8-0.4-1.4-0.4c-0.5,0-0.9,0.1-1.3,0.3c-0.3,0.2-0.5,0.4-0.6,0.8h-1.4c0.1-0.7,0.4-1.2,1-1.6
				c0.6-0.4,1.4-0.6,2.3-0.6c1,0,1.8,0.2,2.4,0.7c0.6,0.5,0.8,1.2,0.8,2.1v5.8h-1.3v-1.2h-0.1c-0.3,0.4-0.6,0.8-1.1,1
				S162.2,173.1,161.7,173.1z M167.8,173v-11.8h1.3V173H167.8z M171.4,173v-11.8h1.3V173H171.4z M179.3,161.7h4.3
				c1.1,0,1.9,0.3,2.6,1c0.7,0.7,1,1.6,1,2.6c0,1.1-0.3,1.9-1,2.6c-0.7,0.7-1.5,1-2.6,1h-2.8v4h-1.4V161.7z M180.7,163v4.8h2.5
				c0.8,0,1.4-0.2,1.9-0.6c0.4-0.4,0.7-1,0.7-1.7c0-0.8-0.2-1.4-0.7-1.8c-0.4-0.4-1.1-0.6-1.9-0.6H180.7z M188.9,173v-11.8h1.3v4.7
				h0.1c0.2-0.5,0.5-0.8,1-1.1c0.4-0.3,1-0.4,1.6-0.4c0.9,0,1.6,0.3,2.1,0.8c0.5,0.5,0.8,1.3,0.8,2.3v5.5h-1.3v-5.1
				c0-1.5-0.6-2.2-1.9-2.2c-0.7,0-1.3,0.2-1.7,0.6c-0.4,0.4-0.6,1-0.6,1.7v5H188.9z M204.2,172c-0.7,0.8-1.6,1.2-2.8,1.2
				s-2.1-0.4-2.8-1.2c-0.7-0.8-1-1.8-1-3.2c0-1.4,0.3-2.4,1-3.2c0.7-0.8,1.6-1.2,2.8-1.2c1.2,0,2.2,0.4,2.8,1.2c0.7,0.8,1,1.8,1,3.2
				C205.3,170.1,204.9,171.2,204.2,172z M199.6,171.1c0.4,0.5,1,0.8,1.8,0.8c0.8,0,1.4-0.3,1.8-0.8c0.4-0.6,0.6-1.3,0.6-2.3
				s-0.2-1.8-0.6-2.3c-0.4-0.6-1-0.8-1.8-0.8c-0.8,0-1.4,0.3-1.8,0.8c-0.4,0.5-0.6,1.3-0.6,2.3S199.1,170.6,199.6,171.1z
				 M207.6,162.4h1.3v2.2h1.9v1.1h-1.9v4.8c0,0.5,0.1,0.9,0.3,1.1s0.5,0.3,1,0.3c0.2,0,0.4,0,0.6,0v1.1c-0.3,0.1-0.6,0.1-0.8,0.1
				c-0.9,0-1.5-0.2-1.9-0.5s-0.6-0.9-0.6-1.7v-5.1h-1.4v-1.1h1.4V162.4z M218.6,172c-0.7,0.8-1.6,1.2-2.8,1.2
				c-1.2,0-2.1-0.4-2.8-1.2c-0.7-0.8-1-1.8-1-3.2c0-1.4,0.3-2.4,1-3.2c0.7-0.8,1.6-1.2,2.8-1.2c1.2,0,2.2,0.4,2.8,1.2
				c0.7,0.8,1,1.8,1,3.2C219.6,170.1,219.3,171.2,218.6,172z M213.9,171.1c0.4,0.5,1,0.8,1.8,0.8c0.8,0,1.4-0.3,1.8-0.8
				c0.4-0.6,0.6-1.3,0.6-2.3s-0.2-1.8-0.6-2.3c-0.4-0.6-1-0.8-1.8-0.8c-0.8,0-1.4,0.3-1.8,0.8c-0.4,0.5-0.6,1.3-0.6,2.3
				S213.5,170.6,213.9,171.1z M221.1,166.9c0-0.7,0.3-1.3,0.9-1.8c0.6-0.5,1.3-0.7,2.2-0.7c0.9,0,1.6,0.2,2.2,0.6
				c0.6,0.4,0.9,1,1,1.6h-1.3c-0.1-0.3-0.3-0.6-0.6-0.8c-0.3-0.2-0.7-0.3-1.2-0.3c-0.5,0-0.9,0.1-1.3,0.4c-0.3,0.2-0.5,0.5-0.5,0.9
				c0,0.3,0.1,0.5,0.4,0.7c0.2,0.2,0.6,0.3,1.1,0.5l1.3,0.3c0.8,0.2,1.4,0.5,1.8,0.8c0.4,0.4,0.6,0.8,0.6,1.4c0,0.7-0.3,1.4-1,1.8
				c-0.6,0.5-1.4,0.7-2.4,0.7c-0.9,0-1.7-0.2-2.3-0.6c-0.6-0.4-0.9-1-1-1.7h1.4c0.1,0.4,0.3,0.7,0.7,0.9c0.3,0.2,0.8,0.3,1.3,0.3
				c0.6,0,1-0.1,1.4-0.4c0.4-0.2,0.5-0.6,0.5-0.9c0-0.6-0.4-1-1.3-1.2l-1.4-0.4c-0.8-0.2-1.4-0.5-1.8-0.8
				C221.3,168,221.1,167.5,221.1,166.9z"/>
			<g>
				<defs>
					<rect id="SVGID_00000121245053509388240560000008814759390609210250_" y="189" width="270" height="0.5"/>
				</defs>
				<clipPath id="SVGID_00000176755438800056487430000006342195069540990634_">
					<use xlink:href="#SVGID_00000121245053509388240560000008814759390609210250_"  overflow="visible"/>
				</clipPath>
				<g clip-path="url(#SVGID_00000176755438800056487430000006342195069540990634_)">
					<rect y="189" fill="#3C3C43" fill-opacity="0.36" width="270" height="0.5"/>
				</g>
			</g>
			<path fill="#0A7AFF" d="M95.5,206.2h3.9c1.7,0,3,0.5,3.9,1.5c0.9,1,1.4,2.4,1.4,4.1c0,1.8-0.5,3.2-1.4,4.2
				c-0.9,1-2.2,1.5-3.9,1.5h-3.9V206.2z M97,207.5v8.7h2.4c1.3,0,2.2-0.4,2.9-1.1c0.7-0.8,1-1.8,1-3.2c0-1.4-0.4-2.5-1.1-3.2
				c-0.7-0.8-1.7-1.2-2.9-1.2H97z M112.9,216.5c-0.7,0.8-1.6,1.2-2.8,1.2s-2.1-0.4-2.8-1.2c-0.7-0.8-1-1.8-1-3.2
				c0-1.4,0.3-2.4,1-3.2s1.6-1.2,2.8-1.2s2.2,0.4,2.8,1.2c0.7,0.8,1,1.8,1,3.2C113.9,214.6,113.6,215.7,112.9,216.5z M108.2,215.6
				c0.4,0.5,1,0.8,1.8,0.8s1.4-0.3,1.8-0.8c0.4-0.6,0.6-1.3,0.6-2.3s-0.2-1.8-0.6-2.3c-0.4-0.6-1-0.8-1.8-0.8s-1.4,0.3-1.8,0.8
				c-0.4,0.5-0.6,1.3-0.6,2.3S107.8,215.1,108.2,215.6z M115.6,217.5v-8.4h1.3v1.3h0.1c0.4-1,1.3-1.5,2.5-1.5c0.9,0,1.7,0.3,2.2,0.8
				c0.5,0.5,0.8,1.3,0.8,2.3v5.5h-1.3v-5.1c0-0.8-0.2-1.3-0.5-1.7c-0.3-0.4-0.8-0.6-1.5-0.6c-0.7,0-1.2,0.2-1.6,0.6
				c-0.4,0.4-0.6,1-0.6,1.7v5H115.6z M125.7,210.4h-1l0.7-4.2h1.5L125.7,210.4z M129.5,206.9h1.3v2.2h1.9v1.1h-1.9v4.8
				c0,0.5,0.1,0.9,0.3,1.1s0.5,0.3,1,0.3c0.2,0,0.4,0,0.6,0v1.1c-0.3,0.1-0.6,0.1-0.8,0.1c-0.9,0-1.5-0.2-1.9-0.5s-0.6-0.9-0.6-1.7
				v-5.1h-1.4v-1.1h1.4V206.9z M145.9,217.5l-1.1-3.2h-4.5l-1.1,3.2h-1.5l4.2-11.3h1.4l4.2,11.3H145.9z M142.5,208l-1.8,5h3.7
				l-1.8-5H142.5z M148.9,217.5v-11.8h1.3v11.8H148.9z M152.5,217.5v-11.8h1.3v11.8H152.5z M162.3,216.5c-0.7,0.8-1.6,1.2-2.8,1.2
				s-2.1-0.4-2.8-1.2c-0.7-0.8-1-1.8-1-3.2c0-1.4,0.3-2.4,1-3.2c0.7-0.8,1.6-1.2,2.8-1.2s2.2,0.4,2.8,1.2c0.7,0.8,1,1.8,1,3.2
				C163.4,214.6,163,215.7,162.3,216.5z M157.6,215.6c0.4,0.5,1,0.8,1.8,0.8s1.4-0.3,1.8-0.8c0.4-0.6,0.6-1.3,0.6-2.3
				s-0.2-1.8-0.6-2.3c-0.4-0.6-1-0.8-1.8-0.8s-1.4,0.3-1.8,0.8c-0.4,0.5-0.6,1.3-0.6,2.3S157.2,215.1,157.6,215.6z M175.4,209.1
				l-2.4,8.4h-1.4l-1.9-6.5h-0.1l-1.9,6.5h-1.4l-2.4-8.4h1.4l1.7,6.7h0.1l1.9-6.7h1.3l1.9,6.7h0.1l1.7-6.7H175.4z"/>
		</g>
	</g>
</g>
</svg>
