<?xml version="1.0" encoding="utf-8"?>
<!-- Generator: Adobe Illustrator 26.0.3, SVG Export Plug-In . SVG Version: 6.00 Build 0)  -->
<svg version="1.1" id="Layer_1" xmlns="http://www.w3.org/2000/svg" xmlns:xlink="http://www.w3.org/1999/xlink" x="0px" y="0px"
	 viewBox="0 0 270 162.5" enable-background="new 0 0 270 162.5" xml:space="preserve">
<g>
	<g>
		<defs>
			<path id="SVGID_1_" d="M14,0h242c7.7,0,14,6.3,14,14v134.5c0,7.7-6.3,14-14,14H14c-7.7,0-14-6.3-14-14V14C0,6.3,6.3,0,14,0z"/>
		</defs>
		<clipPath id="SVGID_00000179614886740778659510000016299562649177732517_">
			<use xlink:href="#SVGID_1_"  overflow="visible"/>
		</clipPath>
		<g clip-path="url(#SVGID_00000179614886740778659510000016299562649177732517_)">
			<path fill="#F2F2F7" d="M14,0h242c7.7,0,14,6.3,14,14v134.5c0,7.7-6.3,14-14,14H14c-7.7,0-14-6.3-14-14V14C0,6.3,6.3,0,14,0z"/>
			<path d="M34.8,24h1.5l-1,5h-2.1L34.8,24z M38.3,24h1.5L39,29H37L38.3,24z M44.4,36h-2.1V24h2.1V36z M46.7,36v-9.1h2v1.5h0.1
				c0.2-0.5,0.6-0.9,1-1.2c0.5-0.3,1-0.4,1.7-0.4c1,0,1.8,0.3,2.3,0.9c0.5,0.6,0.8,1.4,0.8,2.5V36h-2.1v-5.4c0-1.4-0.6-2.1-1.8-2.1
				c-0.6,0-1.1,0.2-1.5,0.6c-0.4,0.4-0.5,0.9-0.5,1.6V36H46.7z M56.7,36v-9.1h2v1.5h0.1c0.2-0.5,0.6-0.9,1-1.2
				c0.5-0.3,1-0.4,1.7-0.4c1,0,1.8,0.3,2.3,0.9c0.5,0.6,0.8,1.4,0.8,2.5V36h-2.1v-5.4c0-1.4-0.6-2.1-1.8-2.1c-0.6,0-1.1,0.2-1.5,0.6
				c-0.4,0.4-0.5,0.9-0.5,1.6V36H56.7z M70.5,28.4c-0.6,0-1.1,0.2-1.5,0.6c-0.4,0.4-0.6,0.9-0.7,1.6h4.3c0-0.7-0.2-1.2-0.6-1.6
				C71.6,28.6,71.1,28.4,70.5,28.4z M72.6,33.5h2c-0.2,0.8-0.7,1.5-1.4,2c-0.7,0.5-1.6,0.7-2.7,0.7c-1.3,0-2.4-0.4-3.1-1.2
				c-0.8-0.8-1.1-2-1.1-3.4c0-1.5,0.4-2.6,1.1-3.5c0.8-0.9,1.8-1.3,3.1-1.3c1.3,0,2.3,0.4,3,1.2c0.7,0.8,1.1,1.9,1.1,3.4V32h-6.3
				v0.1c0,0.8,0.2,1.4,0.6,1.8c0.4,0.4,1,0.7,1.6,0.7C71.6,34.5,72.3,34.2,72.6,33.5z M76.3,36v-9.1h2v1.4h0.1
				c0.1-0.5,0.4-0.8,0.9-1.1c0.4-0.3,1-0.4,1.5-0.4c0.4,0,0.7,0,0.9,0.1v1.9c-0.2-0.1-0.6-0.1-1.1-0.1c-0.7,0-1.2,0.2-1.6,0.6
				c-0.4,0.4-0.6,0.9-0.6,1.5V36H76.3z M84.1,24.7h2.1V27H88v1.6h-1.9v4.5c0,0.4,0.1,0.8,0.3,1c0.2,0.2,0.5,0.3,0.9,0.3
				c0.2,0,0.4,0,0.7,0v1.6C87.7,36,87.3,36,87,36c-1,0-1.8-0.2-2.2-0.6c-0.4-0.4-0.7-1-0.7-1.9v-5h-1.4V27h1.4V24.7z M97.6,26.9V36
				h-2v-1.4h-0.1c-0.5,1.1-1.4,1.6-2.7,1.6c-1,0-1.8-0.3-2.3-0.9c-0.6-0.6-0.8-1.4-0.8-2.5v-5.9h2.1v5.4c0,0.7,0.1,1.2,0.4,1.6
				c0.3,0.3,0.7,0.5,1.4,0.5c0.7,0,1.2-0.2,1.5-0.6c0.4-0.4,0.5-0.9,0.5-1.6v-5.3H97.6z M99.7,36v-9.1h2v1.5h0.1
				c0.2-0.5,0.6-0.9,1-1.2c0.5-0.3,1-0.4,1.7-0.4c1,0,1.8,0.3,2.3,0.9c0.5,0.6,0.8,1.4,0.8,2.5V36h-2.1v-5.4c0-1.4-0.6-2.1-1.8-2.1
				c-0.6,0-1.1,0.2-1.5,0.6c-0.4,0.4-0.5,0.9-0.5,1.6V36H99.7z M113.5,28.4c-0.6,0-1.1,0.2-1.5,0.6c-0.4,0.4-0.6,0.9-0.7,1.6h4.3
				c0-0.7-0.2-1.2-0.6-1.6C114.6,28.6,114.1,28.4,113.5,28.4z M115.6,33.5h2c-0.2,0.8-0.7,1.5-1.4,2c-0.7,0.5-1.6,0.7-2.7,0.7
				c-1.3,0-2.4-0.4-3.1-1.2c-0.8-0.8-1.1-2-1.1-3.4c0-1.5,0.4-2.6,1.1-3.5c0.8-0.9,1.8-1.3,3.1-1.3c1.3,0,2.3,0.4,3,1.2
				c0.7,0.8,1.1,1.9,1.1,3.4V32h-6.3v0.1c0,0.8,0.2,1.4,0.6,1.8c0.4,0.4,1,0.7,1.6,0.7C114.6,34.5,115.3,34.2,115.6,33.5z M120.9,29
				h-1.5l0.8-5h2.1L120.9,29z M124.5,29H123l1-5h2.1L124.5,29z M139.2,27.5l-2.4,8.5h-2l-3.2-12h2.2l2,8.9h0.1l2.4-8.9h1.9l2.4,8.9
				h0.1l2.1-8.9h2.2l-3.2,12h-2l-2.4-8.5H139.2z M151.5,36.2c-1.4,0-2.4-0.4-3.2-1.3c-0.8-0.8-1.2-2-1.2-3.5c0-1.5,0.4-2.6,1.2-3.5
				c0.8-0.8,1.8-1.3,3.2-1.3c1.4,0,2.4,0.4,3.2,1.3c0.8,0.8,1.2,2,1.2,3.5c0,1.5-0.4,2.6-1.2,3.5C154,35.8,152.9,36.2,151.5,36.2z
				 M149.9,33.7c0.4,0.5,0.9,0.8,1.7,0.8c0.7,0,1.3-0.3,1.7-0.8c0.4-0.5,0.6-1.3,0.6-2.2c0-0.9-0.2-1.7-0.6-2.2
				c-0.4-0.5-0.9-0.8-1.7-0.8c-0.7,0-1.3,0.3-1.7,0.8c-0.4,0.5-0.6,1.3-0.6,2.2C149.3,32.4,149.5,33.2,149.9,33.7z M165.5,26.9V36
				h-2v-1.4h-0.1c-0.5,1.1-1.4,1.6-2.7,1.6c-1,0-1.8-0.3-2.3-0.9c-0.6-0.6-0.8-1.4-0.8-2.5v-5.9h2.1v5.4c0,0.7,0.1,1.2,0.4,1.6
				c0.3,0.3,0.7,0.5,1.4,0.5c0.7,0,1.2-0.2,1.5-0.6c0.4-0.4,0.5-0.9,0.5-1.6v-5.3H165.5z M167.7,36V23.4h2.1V36H167.7z M175.2,36.1
				c-1.2,0-2.1-0.4-2.7-1.3c-0.7-0.8-1-2-1-3.4c0-1.4,0.3-2.6,1-3.4c0.7-0.8,1.6-1.3,2.7-1.3c0.6,0,1.2,0.1,1.7,0.4
				c0.5,0.3,0.9,0.7,1.1,1.2h0.1v-5h2.1V36h-2v-1.4H178c-0.3,0.5-0.6,0.9-1.1,1.2C176.4,36,175.8,36.1,175.2,36.1z M177.5,29.3
				c-0.4-0.5-1-0.8-1.7-0.8c-0.7,0-1.3,0.3-1.7,0.8c-0.4,0.5-0.6,1.2-0.6,2.1c0,0.9,0.2,1.6,0.6,2.2c0.4,0.5,1,0.8,1.7,0.8
				c0.7,0,1.3-0.3,1.7-0.8c0.4-0.5,0.6-1.2,0.6-2.2C178.1,30.6,177.9,29.8,177.5,29.3z M194.3,34.1V36h-7.6V24h2.1v10.1H194.3z
				 M196,36v-9.1h2.1V36H196z M197.1,25.4c-0.4,0-0.7-0.1-0.9-0.3c-0.2-0.2-0.4-0.5-0.4-0.8c0-0.3,0.1-0.6,0.4-0.8
				c0.2-0.2,0.5-0.3,0.9-0.3c0.4,0,0.7,0.1,0.9,0.3c0.2,0.2,0.4,0.5,0.4,0.8c0,0.3-0.1,0.6-0.4,0.8
				C197.7,25.3,197.4,25.4,197.1,25.4z M202.5,30.6l3.4-3.7h2.4l-3.6,3.9l3.9,5.2H206l-2.9-3.9l-0.7,0.7V36h-2.1V23.4h2.1v7.2H202.5
				z M213,28.4c-0.6,0-1.1,0.2-1.5,0.6c-0.4,0.4-0.6,0.9-0.7,1.6h4.3c0-0.7-0.2-1.2-0.6-1.6C214.1,28.6,213.6,28.4,213,28.4z
				 M215.1,33.5h1.9c-0.2,0.8-0.7,1.5-1.4,2c-0.7,0.5-1.6,0.7-2.7,0.7c-1.3,0-2.4-0.4-3.1-1.2c-0.8-0.8-1.1-2-1.1-3.4
				c0-1.5,0.4-2.6,1.1-3.5c0.8-0.9,1.8-1.3,3.1-1.3c1.3,0,2.3,0.4,3,1.2c0.7,0.8,1.1,1.9,1.1,3.4V32h-6.3v0.1c0,0.8,0.2,1.4,0.6,1.8
				c0.4,0.4,1,0.7,1.6,0.7C214.1,34.5,214.8,34.2,215.1,33.5z M223.6,24.7h2.1V27h1.9v1.6h-1.9v4.5c0,0.4,0.1,0.8,0.3,1
				c0.2,0.2,0.5,0.3,0.9,0.3c0.2,0,0.4,0,0.7,0v1.6c-0.3,0.1-0.7,0.1-1.1,0.1c-1,0-1.8-0.2-2.2-0.6c-0.4-0.4-0.7-1-0.7-1.9v-5h-1.4
				V27h1.4V24.7z M233.1,36.2c-1.4,0-2.4-0.4-3.2-1.3c-0.8-0.8-1.2-2-1.2-3.5c0-1.5,0.4-2.6,1.2-3.5c0.8-0.8,1.8-1.3,3.2-1.3
				c1.4,0,2.4,0.4,3.2,1.3c0.8,0.8,1.2,2,1.2,3.5c0,1.5-0.4,2.6-1.2,3.5C235.5,35.8,234.4,36.2,233.1,36.2z M231.4,33.7
				c0.4,0.5,0.9,0.8,1.7,0.8c0.7,0,1.3-0.3,1.7-0.8c0.4-0.5,0.6-1.3,0.6-2.2c0-0.9-0.2-1.7-0.6-2.2c-0.4-0.5-0.9-0.8-1.7-0.8
				c-0.7,0-1.3,0.3-1.7,0.8c-0.4,0.5-0.6,1.3-0.6,2.2C230.8,32.4,231,33.2,231.4,33.7z M45.5,58l-1-3.1h-4.4l-1,3.1h-2.2l4.2-12h2.4
				l4.3,12H45.5z M42.2,48.3l-1.6,4.9H44l-1.6-4.9H42.2z M56.6,52h-2c-0.1-0.5-0.3-0.8-0.7-1.1c-0.3-0.3-0.8-0.4-1.3-0.4
				c-0.7,0-1.3,0.3-1.7,0.8c-0.4,0.5-0.6,1.3-0.6,2.2c0,1,0.2,1.7,0.6,2.2c0.4,0.5,0.9,0.8,1.7,0.8c0.5,0,1-0.1,1.3-0.4
				c0.3-0.2,0.6-0.6,0.7-1.1h2c-0.1,1-0.5,1.7-1.2,2.3c-0.7,0.6-1.6,0.9-2.7,0.9c-1.4,0-2.4-0.4-3.2-1.3c-0.8-0.8-1.1-2-1.1-3.5
				c0-1.5,0.4-2.6,1.1-3.5c0.8-0.8,1.8-1.2,3.2-1.2c1.1,0,2.1,0.3,2.7,0.9C56.1,50.2,56.5,51,56.6,52z M66,52h-2
				c-0.1-0.5-0.3-0.8-0.7-1.1c-0.3-0.3-0.8-0.4-1.3-0.4c-0.7,0-1.3,0.3-1.7,0.8c-0.4,0.5-0.6,1.3-0.6,2.2c0,1,0.2,1.7,0.6,2.2
				c0.4,0.5,0.9,0.8,1.7,0.8c0.5,0,1-0.1,1.3-0.4c0.3-0.2,0.6-0.6,0.7-1.1h2c-0.1,1-0.5,1.7-1.2,2.3c-0.7,0.6-1.6,0.9-2.7,0.9
				c-1.4,0-2.4-0.4-3.2-1.3c-0.8-0.8-1.1-2-1.1-3.5c0-1.5,0.4-2.6,1.1-3.5c0.8-0.8,1.8-1.2,3.2-1.2c1.1,0,2.1,0.3,2.7,0.9
				C65.5,50.2,65.9,51,66,52z M71.4,50.4c-0.6,0-1.1,0.2-1.5,0.6c-0.4,0.4-0.6,0.9-0.7,1.6h4.3c0-0.7-0.2-1.2-0.6-1.6
				C72.5,50.6,72,50.4,71.4,50.4z M73.5,55.5h2c-0.2,0.8-0.7,1.5-1.4,2c-0.7,0.5-1.6,0.7-2.7,0.7c-1.3,0-2.4-0.4-3.1-1.2
				c-0.8-0.8-1.1-2-1.1-3.4c0-1.5,0.4-2.6,1.1-3.5c0.8-0.9,1.8-1.3,3.1-1.3c1.3,0,2.3,0.4,3,1.2c0.7,0.8,1.1,1.9,1.1,3.4V54h-6.3
				v0.1c0,0.8,0.2,1.4,0.6,1.8c0.4,0.4,1,0.7,1.6,0.7C72.5,56.5,73.2,56.2,73.5,55.5z M77,51.5c0-0.8,0.3-1.5,1-2
				c0.7-0.5,1.5-0.8,2.6-0.8c1.1,0,1.9,0.2,2.6,0.7c0.6,0.5,1,1.1,1.1,1.9h-1.9c-0.1-0.3-0.3-0.6-0.6-0.8c-0.3-0.2-0.7-0.3-1.2-0.3
				s-0.9,0.1-1.2,0.3c-0.3,0.2-0.5,0.5-0.5,0.8c0,0.3,0.1,0.5,0.3,0.6c0.2,0.2,0.6,0.3,1,0.4l1.6,0.4c0.9,0.2,1.5,0.5,1.9,0.9
				c0.4,0.4,0.6,0.9,0.6,1.6c0,0.9-0.4,1.6-1.1,2.1c-0.7,0.5-1.6,0.8-2.8,0.8c-1.1,0-2-0.2-2.7-0.7c-0.7-0.5-1.1-1.1-1.1-1.9h2
				c0.1,0.3,0.3,0.6,0.6,0.8c0.3,0.2,0.7,0.3,1.2,0.3c0.5,0,0.9-0.1,1.3-0.3c0.3-0.2,0.5-0.5,0.5-0.8c0-0.5-0.4-0.8-1.3-1l-1.6-0.4
				c-0.9-0.2-1.5-0.5-1.9-0.9C77.2,52.7,77,52.2,77,51.5z M85.7,51.5c0-0.8,0.3-1.5,1-2c0.7-0.5,1.5-0.8,2.6-0.8
				c1.1,0,1.9,0.2,2.6,0.7c0.6,0.5,1,1.1,1.1,1.9h-1.9c-0.1-0.3-0.3-0.6-0.6-0.8c-0.3-0.2-0.7-0.3-1.2-0.3s-0.9,0.1-1.2,0.3
				c-0.3,0.2-0.5,0.5-0.5,0.8c0,0.3,0.1,0.5,0.3,0.6c0.2,0.2,0.6,0.3,1,0.4l1.6,0.4c0.9,0.2,1.5,0.5,1.9,0.9
				c0.4,0.4,0.6,0.9,0.6,1.6c0,0.9-0.4,1.6-1.1,2.1c-0.7,0.5-1.6,0.8-2.8,0.8c-1.1,0-2-0.2-2.7-0.7c-0.7-0.5-1.1-1.1-1.1-1.9h2
				c0.1,0.3,0.3,0.6,0.6,0.8c0.3,0.2,0.7,0.3,1.2,0.3c0.5,0,0.9-0.1,1.3-0.3c0.3-0.2,0.5-0.5,0.5-0.8c0-0.5-0.4-0.8-1.3-1l-1.6-0.4
				c-0.9-0.2-1.5-0.5-1.9-0.9C86,52.7,85.7,52.2,85.7,51.5z M104.7,58h-2.1v-4.7L98.4,46h2.3l2.9,5.1h0.1l2.8-5.1h2.3l-4.2,7.3V58z
				 M112.7,58.2c-1.4,0-2.4-0.4-3.2-1.3c-0.8-0.8-1.2-2-1.2-3.5c0-1.5,0.4-2.6,1.2-3.5c0.8-0.8,1.8-1.3,3.2-1.3
				c1.4,0,2.4,0.4,3.2,1.3c0.8,0.8,1.2,2,1.2,3.5c0,1.5-0.4,2.6-1.2,3.5C115.1,57.8,114.1,58.2,112.7,58.2z M111.1,55.7
				c0.4,0.5,0.9,0.8,1.7,0.8c0.7,0,1.3-0.3,1.7-0.8c0.4-0.5,0.6-1.3,0.6-2.2c0-0.9-0.2-1.7-0.6-2.2c-0.4-0.5-0.9-0.8-1.7-0.8
				c-0.7,0-1.3,0.3-1.7,0.8c-0.4,0.5-0.6,1.3-0.6,2.2C110.5,54.4,110.7,55.2,111.1,55.7z M126.7,48.9V58h-2v-1.4h-0.1
				c-0.5,1.1-1.4,1.6-2.7,1.6c-1,0-1.8-0.3-2.3-0.9c-0.6-0.6-0.8-1.4-0.8-2.5v-5.9h2.1v5.4c0,0.7,0.1,1.2,0.4,1.6
				c0.3,0.3,0.7,0.5,1.4,0.5c0.7,0,1.2-0.2,1.5-0.6c0.4-0.4,0.5-0.9,0.5-1.6v-5.3H126.7z M128.8,58v-9.1h2v1.4h0.1
				c0.1-0.5,0.4-0.8,0.9-1.1c0.4-0.3,1-0.4,1.5-0.4c0.4,0,0.7,0,0.9,0.1v1.9c-0.2-0.1-0.6-0.1-1.1-0.1c-0.7,0-1.2,0.2-1.6,0.6
				c-0.4,0.4-0.6,0.9-0.6,1.5V58H128.8z M152.1,58h-2v-8.4H150l-3.3,8h-1.5l-3.3-8h-0.1V58h-2V46h2.5l3.6,8.7h0.1l3.6-8.7h2.5V58z
				 M154.5,58v-9.1h2.1V58H154.5z M155.5,47.4c-0.4,0-0.7-0.1-0.9-0.3c-0.2-0.2-0.4-0.5-0.4-0.8s0.1-0.6,0.4-0.8
				c0.2-0.2,0.5-0.3,0.9-0.3c0.4,0,0.7,0.1,0.9,0.3c0.2,0.2,0.4,0.5,0.4,0.8s-0.1,0.6-0.4,0.8C156.2,47.3,155.9,47.4,155.5,47.4z
				 M166.5,52h-2c-0.1-0.5-0.3-0.8-0.7-1.1c-0.3-0.3-0.8-0.4-1.3-0.4c-0.7,0-1.3,0.3-1.7,0.8c-0.4,0.5-0.6,1.3-0.6,2.2
				c0,1,0.2,1.7,0.6,2.2c0.4,0.5,0.9,0.8,1.7,0.8c0.5,0,1-0.1,1.3-0.4c0.3-0.2,0.6-0.6,0.7-1.1h2c-0.1,1-0.5,1.7-1.2,2.3
				c-0.7,0.6-1.6,0.9-2.7,0.9c-1.4,0-2.4-0.4-3.2-1.3c-0.8-0.8-1.1-2-1.1-3.5c0-1.5,0.4-2.6,1.1-3.5c0.8-0.8,1.8-1.2,3.2-1.2
				c1.1,0,2.1,0.3,2.7,0.9C166,50.2,166.4,51,166.5,52z M168.1,58v-9.1h2v1.4h0.1c0.1-0.5,0.4-0.8,0.9-1.1c0.4-0.3,1-0.4,1.5-0.4
				c0.4,0,0.7,0,0.9,0.1v1.9c-0.2-0.1-0.6-0.1-1.1-0.1c-0.7,0-1.2,0.2-1.6,0.6c-0.4,0.4-0.6,0.9-0.6,1.5V58H168.1z M178.5,58.2
				c-1.4,0-2.4-0.4-3.2-1.3c-0.8-0.8-1.2-2-1.2-3.5c0-1.5,0.4-2.6,1.2-3.5c0.8-0.8,1.8-1.3,3.2-1.3c1.4,0,2.4,0.4,3.2,1.3
				c0.8,0.8,1.2,2,1.2,3.5c0,1.5-0.4,2.6-1.2,3.5C180.9,57.8,179.8,58.2,178.5,58.2z M176.8,55.7c0.4,0.5,0.9,0.8,1.7,0.8
				c0.7,0,1.3-0.3,1.7-0.8c0.4-0.5,0.6-1.3,0.6-2.2c0-0.9-0.2-1.7-0.6-2.2c-0.4-0.5-0.9-0.8-1.7-0.8c-0.7,0-1.3,0.3-1.7,0.8
				c-0.4,0.5-0.6,1.3-0.6,2.2C176.2,54.4,176.4,55.2,176.8,55.7z M189.4,48.8c1.2,0,2.1,0.4,2.7,1.3c0.7,0.8,1,2,1,3.4
				c0,1.4-0.3,2.6-1,3.4c-0.7,0.8-1.6,1.3-2.7,1.3c-0.6,0-1.2-0.1-1.7-0.4c-0.5-0.3-0.8-0.6-1.1-1.1h-0.1V61h-2.1V48.9h2v1.5h0.1
				c0.3-0.5,0.6-0.9,1.1-1.2C188.3,48.9,188.8,48.8,189.4,48.8z M188.8,56.4c0.7,0,1.3-0.3,1.7-0.8c0.4-0.5,0.6-1.2,0.6-2.2
				c0-0.9-0.2-1.6-0.6-2.2c-0.4-0.5-1-0.8-1.7-0.8c-0.7,0-1.3,0.3-1.7,0.8c-0.4,0.5-0.6,1.2-0.6,2.1c0,0.9,0.2,1.6,0.6,2.1
				C187.5,56.1,188.1,56.4,188.8,56.4z M194.9,58V45.4h2v5h0.2c0.2-0.5,0.6-0.9,1-1.2c0.5-0.3,1-0.4,1.7-0.4c1,0,1.7,0.3,2.3,0.9
				c0.6,0.6,0.8,1.4,0.8,2.5V58h-2.1v-5.4c0-0.7-0.2-1.2-0.5-1.6c-0.3-0.4-0.8-0.5-1.4-0.5c-0.7,0-1.2,0.2-1.6,0.6
				c-0.4,0.4-0.6,0.9-0.6,1.6V58H194.9z M208.9,58.2c-1.4,0-2.4-0.4-3.2-1.3c-0.8-0.8-1.2-2-1.2-3.5c0-1.5,0.4-2.6,1.2-3.5
				c0.8-0.8,1.8-1.3,3.2-1.3c1.4,0,2.4,0.4,3.2,1.3c0.8,0.8,1.2,2,1.2,3.5c0,1.5-0.4,2.6-1.2,3.5C211.3,57.8,210.3,58.2,208.9,58.2z
				 M207.3,55.7c0.4,0.5,0.9,0.8,1.7,0.8c0.7,0,1.3-0.3,1.7-0.8c0.4-0.5,0.6-1.3,0.6-2.2c0-0.9-0.2-1.7-0.6-2.2
				c-0.4-0.5-0.9-0.8-1.7-0.8c-0.7,0-1.3,0.3-1.7,0.8c-0.4,0.5-0.6,1.3-0.6,2.2C206.7,54.4,206.9,55.2,207.3,55.7z M215,58v-9.1h2
				v1.5h0.1c0.2-0.5,0.6-0.9,1-1.2c0.5-0.3,1-0.4,1.7-0.4c1,0,1.8,0.3,2.3,0.9c0.5,0.6,0.8,1.4,0.8,2.5V58h-2.1v-5.4
				c0-1.4-0.6-2.1-1.8-2.1c-0.6,0-1.1,0.2-1.5,0.6c-0.4,0.4-0.5,0.9-0.5,1.6V58H215z M228.7,50.4c-0.6,0-1.1,0.2-1.5,0.6
				c-0.4,0.4-0.6,0.9-0.7,1.6h4.3c0-0.7-0.2-1.2-0.6-1.6C229.9,50.6,229.4,50.4,228.7,50.4z M230.9,55.5h2c-0.2,0.8-0.7,1.5-1.4,2
				c-0.7,0.5-1.6,0.7-2.7,0.7c-1.3,0-2.4-0.4-3.1-1.2c-0.8-0.8-1.1-2-1.1-3.4c0-1.5,0.4-2.6,1.1-3.5c0.8-0.9,1.8-1.3,3.1-1.3
				c1.3,0,2.3,0.4,3,1.2c0.7,0.8,1.1,1.9,1.1,3.4V54h-6.3v0.1c0,0.8,0.2,1.4,0.6,1.8c0.4,0.4,1,0.7,1.6,0.7
				C229.9,56.5,230.5,56.2,230.9,55.5z"/>
			<path d="M23.9,77L23,74.4h-3.6L18.4,77h-1.2l3.4-9.2h1.1l3.4,9.2H23.9z M21.1,69.3l-1.4,4.1h3l-1.4-4.1H21.1z M31.8,72.3h-1.1
				c-0.1-0.4-0.3-0.7-0.6-0.9c-0.3-0.2-0.7-0.3-1.2-0.3c-0.6,0-1.1,0.2-1.5,0.7c-0.4,0.5-0.5,1.1-0.5,1.8c0,0.8,0.2,1.4,0.5,1.9
				c0.4,0.5,0.9,0.7,1.5,0.7c0.5,0,0.8-0.1,1.1-0.3c0.3-0.2,0.5-0.5,0.6-0.9h1.1c-0.1,0.6-0.4,1.2-0.9,1.6c-0.5,0.4-1.2,0.6-2,0.6
				c-1,0-1.7-0.3-2.3-1c-0.6-0.6-0.9-1.5-0.9-2.6c0-1.1,0.3-1.9,0.9-2.6c0.6-0.6,1.3-1,2.3-1c0.8,0,1.5,0.2,2,0.6
				C31.4,71.1,31.7,71.6,31.8,72.3z M39,72.3h-1.1c-0.1-0.4-0.3-0.7-0.6-0.9C37,71.1,36.6,71,36.1,71c-0.6,0-1.1,0.2-1.5,0.7
				c-0.4,0.5-0.5,1.1-0.5,1.8c0,0.8,0.2,1.4,0.5,1.9c0.4,0.5,0.9,0.7,1.5,0.7c0.5,0,0.8-0.1,1.1-0.3c0.3-0.2,0.5-0.5,0.6-0.9H39
				c-0.1,0.6-0.4,1.2-0.9,1.6c-0.5,0.4-1.2,0.6-2,0.6c-1,0-1.7-0.3-2.3-1c-0.6-0.6-0.9-1.5-0.9-2.6c0-1.1,0.3-1.9,0.9-2.6
				c0.6-0.6,1.3-1,2.3-1c0.8,0,1.5,0.2,2,0.6C38.6,71.1,38.9,71.6,39,72.3z M43.2,71c-0.5,0-1,0.2-1.3,0.6c-0.4,0.4-0.5,0.9-0.6,1.5
				h3.8c0-0.6-0.2-1.1-0.5-1.5C44.2,71.2,43.8,71,43.2,71z M45,75.2h1.1c-0.2,0.6-0.5,1.1-1,1.4c-0.5,0.3-1.1,0.5-1.9,0.5
				c-0.9,0-1.7-0.3-2.3-1c-0.6-0.6-0.8-1.5-0.8-2.6c0-1.1,0.3-1.9,0.8-2.6c0.6-0.6,1.3-1,2.2-1c0.9,0,1.6,0.3,2.2,0.9
				c0.5,0.6,0.8,1.5,0.8,2.5v0.4h-4.9v0.1c0,0.7,0.2,1.2,0.6,1.6c0.4,0.4,0.8,0.6,1.4,0.6C44.2,76.2,44.8,75.8,45,75.2z M47.7,72
				c0-0.6,0.2-1,0.7-1.4c0.5-0.4,1.1-0.6,1.8-0.6c0.7,0,1.3,0.2,1.8,0.5c0.5,0.3,0.7,0.8,0.8,1.3h-1.1c-0.1-0.3-0.2-0.5-0.5-0.7
				C51,71,50.7,71,50.2,71c-0.4,0-0.8,0.1-1,0.3c-0.3,0.2-0.4,0.4-0.4,0.7c0,0.2,0.1,0.4,0.3,0.6c0.2,0.2,0.5,0.3,0.9,0.4l1.1,0.3
				c0.7,0.2,1.1,0.4,1.4,0.7c0.3,0.3,0.5,0.7,0.5,1.2c0,0.6-0.3,1.1-0.8,1.5c-0.5,0.4-1.2,0.6-2,0.6c-0.8,0-1.4-0.2-1.9-0.5
				c-0.5-0.3-0.8-0.8-0.8-1.4h1.1c0.1,0.3,0.3,0.5,0.6,0.7c0.3,0.2,0.6,0.2,1.1,0.2c0.5,0,0.8-0.1,1.1-0.3c0.3-0.2,0.4-0.5,0.4-0.8
				c0-0.5-0.4-0.8-1.1-1l-1.2-0.3c-0.6-0.2-1.1-0.4-1.4-0.7C47.8,72.9,47.7,72.5,47.7,72z M54.3,72c0-0.6,0.2-1,0.7-1.4
				c0.5-0.4,1.1-0.6,1.8-0.6c0.7,0,1.3,0.2,1.8,0.5c0.5,0.3,0.7,0.8,0.8,1.3h-1.1c-0.1-0.3-0.2-0.5-0.5-0.7c-0.3-0.2-0.6-0.2-1-0.2
				c-0.4,0-0.8,0.1-1,0.3c-0.3,0.2-0.4,0.4-0.4,0.7c0,0.2,0.1,0.4,0.3,0.6c0.2,0.2,0.5,0.3,0.9,0.4l1.1,0.3c0.7,0.2,1.1,0.4,1.4,0.7
				c0.3,0.3,0.5,0.7,0.5,1.2c0,0.6-0.3,1.1-0.8,1.5c-0.5,0.4-1.2,0.6-2,0.6c-0.8,0-1.4-0.2-1.9-0.5c-0.5-0.3-0.8-0.8-0.8-1.4h1.1
				c0.1,0.3,0.3,0.5,0.6,0.7c0.3,0.2,0.6,0.2,1.1,0.2c0.5,0,0.8-0.1,1.1-0.3c0.3-0.2,0.4-0.5,0.4-0.8c0-0.5-0.4-0.8-1.1-1l-1.2-0.3
				c-0.6-0.2-1.1-0.4-1.4-0.7C54.4,72.9,54.3,72.5,54.3,72z M65.2,68.4h1.1v1.8h1.5v0.9h-1.5v3.9c0,0.4,0.1,0.7,0.2,0.9
				c0.2,0.2,0.4,0.3,0.8,0.3c0.2,0,0.3,0,0.5,0V77c-0.2,0-0.5,0.1-0.6,0.1c-0.7,0-1.2-0.1-1.5-0.4c-0.3-0.3-0.5-0.8-0.5-1.4v-4.2
				h-1.1v-0.9h1.1V68.4z M74.4,76.2c-0.6,0.6-1.3,0.9-2.3,0.9c-1,0-1.7-0.3-2.3-0.9c-0.6-0.6-0.8-1.5-0.8-2.6c0-1.1,0.3-2,0.8-2.6
				c0.6-0.6,1.3-0.9,2.3-0.9c1,0,1.7,0.3,2.3,0.9c0.6,0.6,0.8,1.5,0.8,2.6C75.3,74.7,75,75.5,74.4,76.2z M70.6,75.5
				c0.4,0.4,0.9,0.7,1.5,0.7c0.6,0,1.1-0.2,1.5-0.7c0.4-0.4,0.5-1.1,0.5-1.9s-0.2-1.4-0.5-1.9c-0.4-0.4-0.9-0.7-1.5-0.7
				c-0.6,0-1.1,0.2-1.5,0.7c-0.4,0.4-0.5,1.1-0.5,1.9S70.3,75,70.6,75.5z M81,68.4h1.1v1.8h1.5v0.9h-1.5v3.9c0,0.4,0.1,0.7,0.2,0.9
				c0.2,0.2,0.4,0.3,0.8,0.3c0.2,0,0.3,0,0.5,0V77c-0.2,0-0.5,0.1-0.6,0.1c-0.7,0-1.2-0.1-1.5-0.4c-0.3-0.3-0.5-0.8-0.5-1.4v-4.2
				h-1.1v-0.9H81V68.4z M85.2,77v-9.6h1.1v3.8h0.1c0.2-0.4,0.4-0.7,0.8-0.9c0.4-0.2,0.8-0.3,1.3-0.3c0.7,0,1.3,0.2,1.7,0.7
				c0.4,0.4,0.6,1.1,0.6,1.9V77h-1.1v-4.2c0-1.2-0.5-1.8-1.6-1.8c-0.6,0-1.1,0.2-1.4,0.5c-0.3,0.3-0.5,0.8-0.5,1.4v4H85.2z M95.5,71
				c-0.5,0-1,0.2-1.3,0.6c-0.4,0.4-0.5,0.9-0.6,1.5h3.8c0-0.6-0.2-1.1-0.5-1.5C96.5,71.2,96.1,71,95.5,71z M97.3,75.2h1.1
				c-0.2,0.6-0.5,1.1-1,1.4c-0.5,0.3-1.1,0.5-1.9,0.5c-0.9,0-1.7-0.3-2.3-1c-0.6-0.6-0.8-1.5-0.8-2.6c0-1.1,0.3-1.9,0.8-2.6
				c0.6-0.6,1.3-1,2.2-1c0.9,0,1.6,0.3,2.2,0.9s0.8,1.5,0.8,2.5v0.4h-4.9v0.1c0,0.7,0.2,1.2,0.6,1.6c0.4,0.4,0.8,0.6,1.4,0.6
				C96.5,76.2,97,75.8,97.3,75.2z M103.7,77v-6.8h1v1.1h0.1c0.2-0.4,0.4-0.7,0.7-0.9c0.3-0.2,0.7-0.3,1.2-0.3c0.4,0,0.8,0.1,1.2,0.3
				c0.3,0.2,0.6,0.5,0.7,0.9h0.1c0.2-0.4,0.5-0.7,0.8-0.9c0.4-0.2,0.8-0.3,1.3-0.3c0.7,0,1.2,0.2,1.6,0.6c0.4,0.4,0.6,0.9,0.6,1.7
				V77H112v-4.5c0-1-0.5-1.5-1.4-1.5c-0.5,0-0.8,0.2-1.1,0.5c-0.3,0.3-0.4,0.7-0.4,1.1V77h-1.1v-4.6c0-0.4-0.1-0.7-0.4-1
				c-0.3-0.2-0.6-0.4-1-0.4c-0.4,0-0.8,0.2-1.1,0.5c-0.3,0.3-0.5,0.7-0.5,1.2V77H103.7z M115,77v-6.8h1.1V77H115z M116.1,68.5
				c-0.1,0.1-0.3,0.2-0.5,0.2c-0.2,0-0.4-0.1-0.5-0.2c-0.1-0.2-0.2-0.3-0.2-0.5c0-0.2,0.1-0.4,0.2-0.5c0.1-0.2,0.3-0.2,0.5-0.2
				c0.2,0,0.4,0.1,0.5,0.2c0.1,0.1,0.2,0.3,0.2,0.5C116.3,68.2,116.2,68.4,116.1,68.5z M123.8,72.3h-1.1c-0.1-0.4-0.3-0.7-0.6-0.9
				c-0.3-0.2-0.7-0.3-1.2-0.3c-0.6,0-1.1,0.2-1.5,0.7c-0.4,0.5-0.5,1.1-0.5,1.8c0,0.8,0.2,1.4,0.5,1.9c0.4,0.5,0.9,0.7,1.5,0.7
				c0.5,0,0.8-0.1,1.1-0.3c0.3-0.2,0.5-0.5,0.6-0.9h1.1c-0.1,0.6-0.4,1.2-0.9,1.6c-0.5,0.4-1.2,0.6-2,0.6c-1,0-1.7-0.3-2.3-1
				c-0.6-0.6-0.8-1.5-0.8-2.6c0-1.1,0.3-1.9,0.8-2.6c0.6-0.6,1.3-1,2.3-1c0.8,0,1.5,0.2,2,0.6C123.3,71.1,123.7,71.6,123.8,72.3z
				 M125.3,77v-6.8h1v1h0.1c0.1-0.3,0.3-0.6,0.7-0.8c0.4-0.2,0.8-0.3,1.2-0.3c0.2,0,0.4,0,0.5,0v1.1c-0.1,0-0.4-0.1-0.7-0.1
				c-0.5,0-1,0.2-1.3,0.5c-0.3,0.3-0.5,0.7-0.5,1.2V77H125.3z M135.1,76.2c-0.6,0.6-1.3,0.9-2.3,0.9c-1,0-1.7-0.3-2.3-0.9
				c-0.6-0.6-0.8-1.5-0.8-2.6c0-1.1,0.3-2,0.8-2.6c0.6-0.6,1.3-0.9,2.3-0.9c1,0,1.7,0.3,2.3,0.9c0.6,0.6,0.8,1.5,0.8,2.6
				C135.9,74.7,135.7,75.5,135.1,76.2z M131.3,75.5c0.4,0.4,0.9,0.7,1.5,0.7c0.6,0,1.1-0.2,1.5-0.7c0.4-0.4,0.5-1.1,0.5-1.9
				s-0.2-1.4-0.5-1.9c-0.4-0.4-0.9-0.7-1.5-0.7c-0.6,0-1.1,0.2-1.5,0.7c-0.4,0.4-0.5,1.1-0.5,1.9S130.9,75,131.3,75.5z M140.9,70
				c0.9,0,1.6,0.3,2.1,1c0.5,0.6,0.8,1.5,0.8,2.6c0,1.1-0.3,1.9-0.8,2.6c-0.5,0.6-1.2,1-2.1,1c-0.5,0-0.9-0.1-1.3-0.3
				c-0.4-0.2-0.7-0.5-0.8-0.9h-0.1v3.3h-1.1v-9.1h1v1.1h0.1c0.2-0.4,0.5-0.7,0.9-0.9C140,70.1,140.4,70,140.9,70z M140.6,76.1
				c0.6,0,1.1-0.2,1.5-0.7c0.4-0.5,0.5-1.1,0.5-1.9c0-0.8-0.2-1.4-0.5-1.9c-0.4-0.5-0.8-0.7-1.5-0.7c-0.6,0-1.1,0.2-1.5,0.7
				c-0.4,0.5-0.5,1.1-0.5,1.9c0,0.8,0.2,1.4,0.5,1.9C139.5,75.9,140,76.1,140.6,76.1z M145.5,77v-9.6h1.1v3.8h0.1
				c0.2-0.4,0.4-0.7,0.8-0.9c0.4-0.2,0.8-0.3,1.3-0.3c0.7,0,1.3,0.2,1.7,0.7c0.4,0.4,0.6,1.1,0.6,1.9V77h-1.1v-4.2
				c0-1.2-0.5-1.8-1.6-1.8c-0.6,0-1.1,0.2-1.4,0.5c-0.3,0.3-0.5,0.8-0.5,1.4v4H145.5z M158.2,76.2c-0.6,0.6-1.3,0.9-2.3,0.9
				c-1,0-1.7-0.3-2.3-0.9c-0.6-0.6-0.8-1.5-0.8-2.6c0-1.1,0.3-2,0.8-2.6c0.6-0.6,1.3-0.9,2.3-0.9c1,0,1.7,0.3,2.3,0.9
				c0.6,0.6,0.8,1.5,0.8,2.6C159,74.7,158.7,75.5,158.2,76.2z M154.4,75.5c0.4,0.4,0.9,0.7,1.5,0.7c0.6,0,1.1-0.2,1.5-0.7
				c0.4-0.4,0.5-1.1,0.5-1.9s-0.2-1.4-0.5-1.9c-0.4-0.4-0.9-0.7-1.5-0.7c-0.6,0-1.1,0.2-1.5,0.7c-0.4,0.4-0.5,1.1-0.5,1.9
				S154,75,154.4,75.5z M160.7,77v-6.8h1v1.1h0.1c0.4-0.8,1.1-1.2,2.1-1.2c0.8,0,1.4,0.2,1.8,0.7c0.4,0.4,0.6,1.1,0.6,1.9V77h-1.1
				v-4.2c0-0.6-0.1-1.1-0.4-1.4c-0.3-0.3-0.7-0.5-1.2-0.5c-0.6,0-1,0.2-1.3,0.5c-0.3,0.3-0.5,0.8-0.5,1.4v4H160.7z M170.9,71
				c-0.5,0-1,0.2-1.3,0.6c-0.4,0.4-0.5,0.9-0.6,1.5h3.8c0-0.6-0.2-1.1-0.5-1.5C171.9,71.2,171.4,71,170.9,71z M172.7,75.2h1.1
				c-0.2,0.6-0.5,1.1-1,1.4c-0.5,0.3-1.1,0.5-1.9,0.5c-0.9,0-1.7-0.3-2.3-1c-0.6-0.6-0.8-1.5-0.8-2.6c0-1.1,0.3-1.9,0.8-2.6
				c0.6-0.6,1.3-1,2.2-1c0.9,0,1.6,0.3,2.2,0.9s0.8,1.5,0.8,2.5v0.4H169v0.1c0,0.7,0.2,1.2,0.6,1.6c0.4,0.4,0.8,0.6,1.4,0.6
				C171.8,76.2,172.4,75.8,172.7,75.2z M179.1,77v-6.8h1.1V77H179.1z M180.2,68.5c-0.1,0.1-0.3,0.2-0.5,0.2c-0.2,0-0.4-0.1-0.5-0.2
				c-0.1-0.2-0.2-0.3-0.2-0.5c0-0.2,0.1-0.4,0.2-0.5c0.1-0.2,0.3-0.2,0.5-0.2c0.2,0,0.4,0.1,0.5,0.2c0.1,0.1,0.2,0.3,0.2,0.5
				C180.4,68.2,180.4,68.4,180.2,68.5z M182.1,72c0-0.6,0.2-1,0.7-1.4c0.5-0.4,1.1-0.6,1.8-0.6c0.7,0,1.3,0.2,1.8,0.5
				c0.5,0.3,0.7,0.8,0.8,1.3h-1.1c-0.1-0.3-0.2-0.5-0.5-0.7c-0.3-0.2-0.6-0.2-1-0.2c-0.4,0-0.8,0.1-1,0.3c-0.3,0.2-0.4,0.4-0.4,0.7
				c0,0.2,0.1,0.4,0.3,0.6c0.2,0.2,0.5,0.3,0.9,0.4l1.1,0.3c0.7,0.2,1.1,0.4,1.4,0.7c0.3,0.3,0.5,0.7,0.5,1.2c0,0.6-0.3,1.1-0.8,1.5
				c-0.5,0.4-1.2,0.6-2,0.6c-0.8,0-1.4-0.2-1.9-0.5c-0.5-0.3-0.8-0.8-0.8-1.4h1.1c0.1,0.3,0.3,0.5,0.6,0.7c0.3,0.2,0.6,0.2,1.1,0.2
				c0.5,0,0.8-0.1,1.1-0.3c0.3-0.2,0.4-0.5,0.4-0.8c0-0.5-0.4-0.8-1.1-1l-1.2-0.3c-0.6-0.2-1.1-0.4-1.4-0.7
				C182.2,72.9,182.1,72.5,182.1,72z M192.6,77v-6.8h1v1.1h0.1c0.4-0.8,1.1-1.2,2.1-1.2c0.8,0,1.4,0.2,1.8,0.7
				c0.4,0.4,0.6,1.1,0.6,1.9V77h-1.1v-4.2c0-0.6-0.1-1.1-0.4-1.4c-0.3-0.3-0.7-0.5-1.2-0.5c-0.6,0-1,0.2-1.3,0.5
				c-0.3,0.3-0.5,0.8-0.5,1.4v4H192.6z M202.8,71c-0.5,0-1,0.2-1.3,0.6c-0.4,0.4-0.5,0.9-0.6,1.5h3.8c0-0.6-0.2-1.1-0.5-1.5
				C203.8,71.2,203.3,71,202.8,71z M204.6,75.2h1.1c-0.2,0.6-0.5,1.1-1,1.4c-0.5,0.3-1.1,0.5-1.9,0.5c-0.9,0-1.7-0.3-2.3-1
				c-0.6-0.6-0.8-1.5-0.8-2.6c0-1.1,0.3-1.9,0.8-2.6c0.6-0.6,1.3-1,2.2-1c0.9,0,1.6,0.3,2.2,0.9c0.5,0.6,0.8,1.5,0.8,2.5v0.4h-4.9
				v0.1c0,0.7,0.2,1.2,0.6,1.6c0.4,0.4,0.8,0.6,1.4,0.6C203.7,76.2,204.3,75.8,204.6,75.2z M213.1,72.3H212
				c-0.1-0.4-0.3-0.7-0.6-0.9c-0.3-0.2-0.7-0.3-1.2-0.3c-0.6,0-1.1,0.2-1.5,0.7c-0.4,0.5-0.5,1.1-0.5,1.8c0,0.8,0.2,1.4,0.5,1.9
				c0.4,0.5,0.9,0.7,1.5,0.7c0.5,0,0.8-0.1,1.1-0.3c0.3-0.2,0.5-0.5,0.6-0.9h1.1c-0.1,0.6-0.4,1.2-0.9,1.6c-0.5,0.4-1.2,0.6-2,0.6
				c-1,0-1.7-0.3-2.3-1c-0.6-0.6-0.8-1.5-0.8-2.6c0-1.1,0.3-1.9,0.8-2.6s1.3-1,2.3-1c0.8,0,1.5,0.2,2,0.6
				C212.7,71.1,213,71.6,213.1,72.3z M217.3,71c-0.5,0-1,0.2-1.3,0.6c-0.4,0.4-0.5,0.9-0.6,1.5h3.8c0-0.6-0.2-1.1-0.5-1.5
				C218.3,71.2,217.9,71,217.3,71z M219.1,75.2h1.1c-0.2,0.6-0.5,1.1-1,1.4c-0.5,0.3-1.1,0.5-1.9,0.5c-0.9,0-1.7-0.3-2.3-1
				c-0.6-0.6-0.8-1.5-0.8-2.6c0-1.1,0.3-1.9,0.8-2.6c0.6-0.6,1.3-1,2.2-1c0.9,0,1.6,0.3,2.2,0.9c0.5,0.6,0.8,1.5,0.8,2.5v0.4h-4.9
				v0.1c0,0.7,0.2,1.2,0.6,1.6c0.4,0.4,0.8,0.6,1.4,0.6C218.3,76.2,218.9,75.8,219.1,75.2z M221.8,72c0-0.6,0.2-1,0.7-1.4
				c0.5-0.4,1.1-0.6,1.8-0.6c0.7,0,1.3,0.2,1.8,0.5c0.5,0.3,0.7,0.8,0.8,1.3h-1.1c-0.1-0.3-0.2-0.5-0.5-0.7c-0.3-0.2-0.6-0.2-1-0.2
				c-0.4,0-0.8,0.1-1,0.3c-0.3,0.2-0.4,0.4-0.4,0.7c0,0.2,0.1,0.4,0.3,0.6c0.2,0.2,0.5,0.3,0.9,0.4l1.1,0.3c0.7,0.2,1.1,0.4,1.4,0.7
				c0.3,0.3,0.5,0.7,0.5,1.2c0,0.6-0.3,1.1-0.8,1.5c-0.5,0.4-1.2,0.6-2,0.6c-0.8,0-1.4-0.2-1.9-0.5c-0.5-0.3-0.8-0.8-0.8-1.4h1.1
				c0.1,0.3,0.3,0.5,0.6,0.7c0.3,0.2,0.6,0.2,1.1,0.2c0.5,0,0.8-0.1,1.1-0.3c0.3-0.2,0.4-0.5,0.4-0.8c0-0.5-0.4-0.8-1.1-1l-1.2-0.3
				c-0.6-0.2-1.1-0.4-1.4-0.7C222,72.9,221.8,72.5,221.8,72z M228.4,72c0-0.6,0.2-1,0.7-1.4c0.5-0.4,1.1-0.6,1.8-0.6
				c0.7,0,1.3,0.2,1.8,0.5c0.5,0.3,0.7,0.8,0.8,1.3h-1.1c-0.1-0.3-0.2-0.5-0.5-0.7c-0.3-0.2-0.6-0.2-1-0.2c-0.4,0-0.8,0.1-1,0.3
				c-0.3,0.2-0.4,0.4-0.4,0.7c0,0.2,0.1,0.4,0.3,0.6c0.2,0.2,0.5,0.3,0.9,0.4l1.1,0.3c0.7,0.2,1.1,0.4,1.4,0.7
				c0.3,0.3,0.5,0.7,0.5,1.2c0,0.6-0.3,1.1-0.8,1.5c-0.5,0.4-1.2,0.6-2,0.6c-0.8,0-1.4-0.2-1.9-0.5c-0.5-0.3-0.8-0.8-0.8-1.4h1.1
				c0.1,0.3,0.3,0.5,0.6,0.7c0.3,0.2,0.6,0.2,1.1,0.2c0.5,0,0.8-0.1,1.1-0.3c0.3-0.2,0.4-0.5,0.4-0.8c0-0.5-0.4-0.8-1.1-1l-1.2-0.3
				c-0.6-0.2-1.1-0.4-1.4-0.7C228.6,72.9,228.4,72.5,228.4,72z M237.4,76.2c0.6,0,1-0.2,1.4-0.5c0.4-0.3,0.6-0.7,0.6-1.2v-0.6
				l-1.8,0.1c-0.5,0-0.9,0.1-1.1,0.3c-0.2,0.2-0.4,0.4-0.4,0.8c0,0.3,0.1,0.6,0.4,0.8C236.7,76.1,237,76.2,237.4,76.2z M237.2,77.1
				c-0.7,0-1.2-0.2-1.7-0.6c-0.4-0.4-0.6-0.9-0.6-1.5c0-0.6,0.2-1.1,0.6-1.4c0.4-0.3,1-0.5,1.8-0.6l2-0.1v-0.6c0-0.4-0.1-0.7-0.4-1
				c-0.3-0.2-0.6-0.3-1.2-0.3c-0.4,0-0.8,0.1-1,0.2c-0.3,0.1-0.4,0.4-0.5,0.6h-1.1c0.1-0.5,0.4-1,0.8-1.3c0.5-0.3,1.1-0.5,1.8-0.5
				c0.8,0,1.5,0.2,1.9,0.6c0.5,0.4,0.7,1,0.7,1.7V77h-1v-1h-0.1c-0.2,0.4-0.5,0.6-0.9,0.8C238.1,77,237.7,77.1,237.2,77.1z
				 M242.4,77v-6.8h1v1h0.1c0.1-0.3,0.3-0.6,0.7-0.8c0.4-0.2,0.8-0.3,1.2-0.3c0.2,0,0.4,0,0.5,0v1.1c-0.1,0-0.4-0.1-0.7-0.1
				c-0.5,0-0.9,0.2-1.3,0.5c-0.3,0.3-0.5,0.7-0.5,1.2V77H242.4z M247.8,79.5c-0.2,0-0.3,0-0.5,0v-0.9c0.1,0,0.3,0,0.5,0
				c0.3,0,0.6-0.1,0.8-0.3c0.2-0.2,0.4-0.5,0.5-0.9l0.1-0.4l-2.5-6.8h1.2l1.9,5.6h0.1l1.9-5.6h1.2l-2.7,7.3
				c-0.3,0.8-0.6,1.3-0.9,1.6C248.9,79.3,248.5,79.5,247.8,79.5z M39,86.4h1.1v1.8h1.5v0.9h-1.5v3.9c0,0.4,0.1,0.7,0.2,0.9
				c0.2,0.2,0.4,0.3,0.8,0.3c0.2,0,0.3,0,0.5,0V95c-0.2,0-0.5,0.1-0.6,0.1c-0.7,0-1.2-0.1-1.5-0.4c-0.3-0.3-0.5-0.8-0.5-1.4v-4.2
				h-1.1v-0.9H39V86.4z M48.2,94.2c-0.6,0.6-1.3,0.9-2.3,0.9c-1,0-1.7-0.3-2.3-0.9c-0.6-0.6-0.8-1.5-0.8-2.6c0-1.1,0.3-2,0.8-2.6
				c0.6-0.6,1.3-0.9,2.3-0.9c1,0,1.7,0.3,2.3,0.9c0.6,0.6,0.8,1.5,0.8,2.6C49.1,92.7,48.8,93.5,48.2,94.2z M44.4,93.5
				c0.4,0.4,0.9,0.7,1.5,0.7c0.6,0,1.1-0.2,1.5-0.7c0.4-0.4,0.5-1.1,0.5-1.9s-0.2-1.4-0.5-1.9C47,89.2,46.5,89,45.9,89
				c-0.6,0-1.1,0.2-1.5,0.7c-0.4,0.4-0.5,1.1-0.5,1.9S44.1,93,44.4,93.5z M57.7,95.1c-0.5,0-0.9-0.1-1.3-0.3
				c-0.4-0.2-0.7-0.5-0.9-0.9h-0.1V95h-1v-9.6h1.1v3.8h0.1c0.2-0.4,0.5-0.7,0.9-0.9c0.4-0.2,0.8-0.3,1.3-0.3c0.9,0,1.6,0.3,2.1,1
				c0.5,0.6,0.8,1.5,0.8,2.6c0,1.1-0.3,1.9-0.8,2.6C59.2,94.8,58.6,95.1,57.7,95.1z M57.4,89c-0.6,0-1.1,0.2-1.5,0.7
				c-0.4,0.5-0.5,1.1-0.5,1.9c0,0.8,0.2,1.4,0.5,1.9c0.4,0.5,0.9,0.7,1.5,0.7c0.6,0,1.1-0.2,1.5-0.7c0.4-0.5,0.5-1.1,0.5-1.9
				c0-0.8-0.2-1.4-0.5-1.9C58.5,89.2,58.1,89,57.4,89z M64.9,89c-0.5,0-1,0.2-1.3,0.6C63.2,89.9,63,90.4,63,91h3.8
				c0-0.6-0.2-1.1-0.5-1.5C65.9,89.2,65.5,89,64.9,89z M66.7,93.2h1.1c-0.2,0.6-0.5,1.1-1,1.4c-0.5,0.3-1.1,0.5-1.9,0.5
				c-0.9,0-1.7-0.3-2.3-1c-0.6-0.6-0.8-1.5-0.8-2.6c0-1.1,0.3-1.9,0.8-2.6c0.6-0.6,1.3-1,2.2-1c0.9,0,1.6,0.3,2.2,0.9
				c0.5,0.6,0.8,1.5,0.8,2.5v0.4H63v0.1c0,0.7,0.2,1.2,0.6,1.6c0.4,0.4,0.8,0.6,1.4,0.6C65.8,94.2,66.4,93.8,66.7,93.2z M75.2,94.2
				c0.6,0,1-0.2,1.4-0.5c0.4-0.3,0.6-0.7,0.6-1.2v-0.6l-1.8,0.1c-0.5,0-0.9,0.1-1.1,0.3c-0.2,0.2-0.4,0.4-0.4,0.8
				c0,0.3,0.1,0.6,0.4,0.8C74.5,94.1,74.8,94.2,75.2,94.2z M75,95.1c-0.7,0-1.2-0.2-1.7-0.6c-0.4-0.4-0.6-0.9-0.6-1.5
				c0-0.6,0.2-1.1,0.6-1.4c0.4-0.3,1-0.5,1.8-0.6l2-0.1v-0.6c0-0.4-0.1-0.7-0.4-1c-0.3-0.2-0.6-0.3-1.2-0.3c-0.4,0-0.8,0.1-1,0.2
				c-0.3,0.1-0.4,0.4-0.5,0.6H73c0.1-0.5,0.4-1,0.8-1.3c0.5-0.3,1.1-0.5,1.8-0.5c0.8,0,1.5,0.2,1.9,0.6c0.5,0.4,0.7,1,0.7,1.7V95h-1
				v-1h-0.1c-0.2,0.4-0.5,0.6-0.9,0.8C75.9,95,75.5,95.1,75,95.1z M83.6,95.1c-0.5,0-0.9-0.1-1.3-0.3c-0.4-0.2-0.7-0.5-0.9-0.9h-0.1
				V95h-1v-9.6h1.1v3.8h0.1c0.2-0.4,0.5-0.7,0.9-0.9c0.4-0.2,0.8-0.3,1.3-0.3c0.9,0,1.6,0.3,2.1,1c0.5,0.6,0.8,1.5,0.8,2.6
				c0,1.1-0.3,1.9-0.8,2.6C85.2,94.8,84.5,95.1,83.6,95.1z M83.4,89c-0.6,0-1.1,0.2-1.5,0.7c-0.4,0.5-0.5,1.1-0.5,1.9
				c0,0.8,0.2,1.4,0.5,1.9c0.4,0.5,0.9,0.7,1.5,0.7c0.6,0,1.1-0.2,1.5-0.7c0.4-0.5,0.5-1.1,0.5-1.9c0-0.8-0.2-1.4-0.5-1.9
				C84.5,89.2,84,89,83.4,89z M88.2,95v-9.6h1.1V95H88.2z M94.1,89c-0.5,0-1,0.2-1.3,0.6c-0.4,0.4-0.5,0.9-0.6,1.5h3.8
				c0-0.6-0.2-1.1-0.5-1.5C95,89.2,94.6,89,94.1,89z M95.9,93.2H97c-0.2,0.6-0.5,1.1-1,1.4c-0.5,0.3-1.1,0.5-1.9,0.5
				c-0.9,0-1.7-0.3-2.3-1c-0.6-0.6-0.8-1.5-0.8-2.6c0-1.1,0.3-1.9,0.8-2.6c0.6-0.6,1.3-1,2.2-1c0.9,0,1.6,0.3,2.2,0.9
				c0.5,0.6,0.8,1.5,0.8,2.5v0.4h-4.9v0.1c0,0.7,0.2,1.2,0.6,1.6c0.4,0.4,0.8,0.6,1.4,0.6C95,94.2,95.6,93.8,95.9,93.2z M102.7,86.4
				h1.1v1.8h1.5v0.9h-1.5v3.9c0,0.4,0.1,0.7,0.2,0.9c0.2,0.2,0.4,0.3,0.8,0.3c0.2,0,0.3,0,0.5,0V95c-0.2,0-0.5,0.1-0.6,0.1
				c-0.7,0-1.2-0.1-1.5-0.4c-0.3-0.3-0.5-0.8-0.5-1.4v-4.2h-1.1v-0.9h1.1V86.4z M111.9,94.2c-0.6,0.6-1.3,0.9-2.3,0.9
				s-1.7-0.3-2.3-0.9c-0.6-0.6-0.8-1.5-0.8-2.6c0-1.1,0.3-2,0.8-2.6c0.6-0.6,1.3-0.9,2.3-0.9c1,0,1.7,0.3,2.3,0.9
				c0.6,0.6,0.8,1.5,0.8,2.6C112.8,92.7,112.5,93.5,111.9,94.2z M108.1,93.5c0.4,0.4,0.9,0.7,1.5,0.7c0.6,0,1.1-0.2,1.5-0.7
				c0.4-0.4,0.5-1.1,0.5-1.9s-0.2-1.4-0.5-1.9c-0.4-0.4-0.8-0.7-1.5-0.7c-0.6,0-1.1,0.2-1.5,0.7c-0.4,0.4-0.5,1.1-0.5,1.9
				S107.8,93,108.1,93.5z M118,95v-6.8h1v1h0.1c0.1-0.3,0.3-0.6,0.7-0.8c0.4-0.2,0.8-0.3,1.2-0.3c0.2,0,0.4,0,0.5,0v1.1
				c-0.1,0-0.4-0.1-0.7-0.1c-0.5,0-0.9,0.2-1.3,0.5c-0.3,0.3-0.5,0.7-0.5,1.2V95H118z M125.4,89c-0.5,0-1,0.2-1.3,0.6
				c-0.4,0.4-0.5,0.9-0.6,1.5h3.8c0-0.6-0.2-1.1-0.5-1.5C126.4,89.2,126,89,125.4,89z M127.2,93.2h1.1c-0.2,0.6-0.5,1.1-1,1.4
				c-0.5,0.3-1.1,0.5-1.9,0.5c-0.9,0-1.7-0.3-2.3-1c-0.6-0.6-0.8-1.5-0.8-2.6c0-1.1,0.3-1.9,0.8-2.6c0.6-0.6,1.3-1,2.2-1
				c0.9,0,1.6,0.3,2.2,0.9s0.8,1.5,0.8,2.5v0.4h-4.9v0.1c0,0.7,0.2,1.2,0.6,1.6c0.4,0.4,0.8,0.6,1.4,0.6
				C126.3,94.2,126.9,93.8,127.2,93.2z M135.7,90.3h-1.1c-0.1-0.4-0.3-0.7-0.6-0.9c-0.3-0.2-0.7-0.3-1.2-0.3c-0.6,0-1.1,0.2-1.5,0.7
				c-0.4,0.5-0.5,1.1-0.5,1.8c0,0.8,0.2,1.4,0.5,1.9c0.4,0.5,0.9,0.7,1.5,0.7c0.5,0,0.8-0.1,1.1-0.3c0.3-0.2,0.5-0.5,0.6-0.9h1.1
				c-0.1,0.6-0.4,1.2-0.9,1.6c-0.5,0.4-1.2,0.6-2,0.6c-1,0-1.7-0.3-2.3-1c-0.6-0.6-0.9-1.5-0.9-2.6c0-1.1,0.3-1.9,0.9-2.6
				c0.6-0.6,1.3-1,2.3-1c0.8,0,1.5,0.2,2,0.6C135.3,89.1,135.6,89.6,135.7,90.3z M142.3,94.2c-0.6,0.6-1.3,0.9-2.3,0.9
				c-1,0-1.7-0.3-2.3-0.9c-0.6-0.6-0.8-1.5-0.8-2.6c0-1.1,0.3-2,0.8-2.6c0.6-0.6,1.3-0.9,2.3-0.9c1,0,1.7,0.3,2.3,0.9
				c0.6,0.6,0.8,1.5,0.8,2.6C143.2,92.7,142.9,93.5,142.3,94.2z M138.5,93.5c0.4,0.4,0.9,0.7,1.5,0.7c0.6,0,1.1-0.2,1.5-0.7
				c0.4-0.4,0.5-1.1,0.5-1.9s-0.2-1.4-0.5-1.9c-0.4-0.4-0.9-0.7-1.5-0.7c-0.6,0-1.1,0.2-1.5,0.7c-0.4,0.4-0.5,1.1-0.5,1.9
				S138.2,93,138.5,93.5z M144.8,95v-6.8h1v1h0.1c0.1-0.3,0.3-0.6,0.7-0.8c0.4-0.2,0.8-0.3,1.2-0.3c0.2,0,0.4,0,0.5,0v1.1
				c-0.1,0-0.4-0.1-0.7-0.1c-0.5,0-1,0.2-1.3,0.5c-0.3,0.3-0.5,0.7-0.5,1.2V95H144.8z M152.1,95.1c-0.9,0-1.6-0.3-2.1-1
				c-0.5-0.6-0.8-1.5-0.8-2.6c0-1.1,0.3-1.9,0.8-2.6c0.5-0.6,1.2-1,2.1-1c0.5,0,0.9,0.1,1.3,0.3c0.4,0.2,0.7,0.5,0.9,0.9h0.1v-3.8
				h1.1V95h-1v-1.1h-0.1c-0.2,0.4-0.5,0.7-0.9,0.9C153,95,152.5,95.1,152.1,95.1z M152.3,89c-0.6,0-1.1,0.2-1.5,0.7
				c-0.4,0.5-0.5,1.1-0.5,1.9c0,0.8,0.2,1.4,0.5,1.9c0.4,0.5,0.8,0.7,1.5,0.7c0.6,0,1.1-0.2,1.5-0.7c0.4-0.5,0.5-1.1,0.5-1.9
				c0-0.8-0.2-1.4-0.5-1.9C153.4,89.3,152.9,89,152.3,89z M163.1,94.2c0.6,0,1-0.2,1.4-0.5c0.4-0.3,0.6-0.7,0.6-1.2v-0.6l-1.8,0.1
				c-0.5,0-0.9,0.1-1.1,0.3c-0.2,0.2-0.4,0.4-0.4,0.8c0,0.3,0.1,0.6,0.4,0.8C162.4,94.1,162.7,94.2,163.1,94.2z M162.9,95.1
				c-0.7,0-1.2-0.2-1.7-0.6c-0.4-0.4-0.6-0.9-0.6-1.5c0-0.6,0.2-1.1,0.6-1.4c0.4-0.3,1-0.5,1.8-0.6l2-0.1v-0.6c0-0.4-0.1-0.7-0.4-1
				c-0.3-0.2-0.6-0.3-1.2-0.3c-0.4,0-0.8,0.1-1,0.2c-0.3,0.1-0.4,0.4-0.5,0.6h-1.1c0.1-0.5,0.4-1,0.8-1.3c0.5-0.3,1.1-0.5,1.8-0.5
				c0.8,0,1.5,0.2,1.9,0.6c0.5,0.4,0.7,1,0.7,1.7V95h-1v-1H165c-0.2,0.4-0.5,0.6-0.9,0.8C163.8,95,163.4,95.1,162.9,95.1z M168.6,95
				v-5.9h-1.1v-0.9h1.1v-0.8c0-1.3,0.7-2,2-2c0.3,0,0.5,0,0.7,0.1v0.9c-0.1,0-0.3,0-0.5,0c-0.4,0-0.7,0.1-0.8,0.3
				c-0.2,0.2-0.3,0.5-0.3,0.9v0.7h1.6v0.9h-1.6V95H168.6z M173.2,95v-5.9h-1.1v-0.9h1.1v-0.8c0-1.3,0.7-2,2-2c0.3,0,0.5,0,0.7,0.1
				v0.9c-0.1,0-0.3,0-0.5,0c-0.4,0-0.7,0.1-0.9,0.3c-0.2,0.2-0.3,0.5-0.3,0.9v0.7h1.6v0.9h-1.6V95H173.2z M177.4,95v-6.8h1.1V95
				H177.4z M178.5,86.5c-0.1,0.1-0.3,0.2-0.5,0.2c-0.2,0-0.4-0.1-0.5-0.2c-0.1-0.2-0.2-0.3-0.2-0.5c0-0.2,0.1-0.4,0.2-0.5
				c0.1-0.2,0.3-0.2,0.5-0.2c0.2,0,0.4,0.1,0.5,0.2c0.1,0.1,0.2,0.3,0.2,0.5C178.7,86.2,178.6,86.4,178.5,86.5z M180.5,95v-6.8h1v1
				h0.1c0.1-0.3,0.3-0.6,0.7-0.8c0.4-0.2,0.8-0.3,1.2-0.3c0.2,0,0.4,0,0.5,0v1.1c-0.1,0-0.4-0.1-0.7-0.1c-0.5,0-0.9,0.2-1.3,0.5
				c-0.3,0.3-0.5,0.7-0.5,1.2V95H180.5z M185.5,95v-6.8h1v1.1h0.1c0.2-0.4,0.4-0.7,0.7-0.9c0.3-0.2,0.7-0.3,1.2-0.3
				c0.4,0,0.8,0.1,1.2,0.3c0.3,0.2,0.6,0.5,0.7,0.9h0.1c0.2-0.4,0.5-0.7,0.8-0.9c0.4-0.2,0.8-0.3,1.3-0.3c0.7,0,1.2,0.2,1.6,0.6
				c0.4,0.4,0.6,0.9,0.6,1.7V95h-1.1v-4.5c0-1-0.5-1.5-1.4-1.5c-0.5,0-0.8,0.2-1.1,0.5c-0.3,0.3-0.4,0.7-0.4,1.1V95h-1.1v-4.6
				c0-0.4-0.1-0.7-0.4-1c-0.3-0.2-0.6-0.4-1-0.4c-0.4,0-0.8,0.2-1.1,0.5c-0.3,0.3-0.5,0.7-0.5,1.2V95H185.5z M198.8,94.2
				c0.6,0,1-0.2,1.4-0.5c0.4-0.3,0.6-0.7,0.6-1.2v-0.6l-1.8,0.1c-0.5,0-0.9,0.1-1.1,0.3c-0.2,0.2-0.4,0.4-0.4,0.8
				c0,0.3,0.1,0.6,0.4,0.8C198.1,94.1,198.4,94.2,198.8,94.2z M198.6,95.1c-0.7,0-1.2-0.2-1.7-0.6c-0.4-0.4-0.6-0.9-0.6-1.5
				c0-0.6,0.2-1.1,0.6-1.4c0.4-0.3,1-0.5,1.8-0.6l2-0.1v-0.6c0-0.4-0.1-0.7-0.4-1c-0.3-0.2-0.6-0.3-1.2-0.3c-0.4,0-0.8,0.1-1,0.2
				c-0.3,0.1-0.4,0.4-0.5,0.6h-1.1c0.1-0.5,0.4-1,0.8-1.3c0.5-0.3,1.1-0.5,1.8-0.5c0.8,0,1.5,0.2,1.9,0.6c0.5,0.4,0.7,1,0.7,1.7V95
				h-1v-1h-0.1c-0.2,0.4-0.5,0.6-0.9,0.8C199.5,95,199.1,95.1,198.6,95.1z M204.3,86.4h1.1v1.8h1.5v0.9h-1.5v3.9
				c0,0.4,0.1,0.7,0.2,0.9c0.2,0.2,0.4,0.3,0.8,0.3c0.2,0,0.3,0,0.5,0V95c-0.2,0-0.5,0.1-0.6,0.1c-0.7,0-1.2-0.1-1.5-0.4
				c-0.3-0.3-0.5-0.8-0.5-1.4v-4.2h-1.1v-0.9h1.1V86.4z M208.5,95v-6.8h1.1V95H208.5z M209.6,86.5c-0.1,0.1-0.3,0.2-0.5,0.2
				c-0.2,0-0.4-0.1-0.5-0.2c-0.1-0.2-0.2-0.3-0.2-0.5c0-0.2,0.1-0.4,0.2-0.5c0.1-0.2,0.3-0.2,0.5-0.2c0.2,0,0.4,0.1,0.5,0.2
				c0.1,0.1,0.2,0.3,0.2,0.5C209.8,86.2,209.7,86.4,209.6,86.5z M216.7,94.2c-0.6,0.6-1.3,0.9-2.3,0.9c-1,0-1.7-0.3-2.3-0.9
				c-0.6-0.6-0.8-1.5-0.8-2.6c0-1.1,0.3-2,0.8-2.6c0.6-0.6,1.3-0.9,2.3-0.9c1,0,1.7,0.3,2.3,0.9c0.6,0.6,0.8,1.5,0.8,2.6
				C217.6,92.7,217.3,93.5,216.7,94.2z M212.9,93.5c0.4,0.4,0.9,0.7,1.5,0.7c0.6,0,1.1-0.2,1.5-0.7c0.4-0.4,0.5-1.1,0.5-1.9
				s-0.2-1.4-0.5-1.9c-0.4-0.4-0.9-0.7-1.5-0.7c-0.6,0-1.1,0.2-1.5,0.7c-0.4,0.4-0.5,1.1-0.5,1.9S212.6,93,212.9,93.5z M219.2,95
				v-6.8h1v1.1h0.1c0.4-0.8,1-1.2,2.1-1.2c0.8,0,1.4,0.2,1.8,0.7c0.4,0.4,0.6,1.1,0.6,1.9V95h-1.1v-4.2c0-0.6-0.1-1.1-0.4-1.4
				c-0.3-0.3-0.7-0.5-1.2-0.5c-0.5,0-1,0.2-1.3,0.5c-0.3,0.3-0.5,0.8-0.5,1.4v4H219.2z M226.5,90c0-0.6,0.2-1,0.7-1.4
				c0.5-0.4,1.1-0.6,1.8-0.6c0.7,0,1.3,0.2,1.8,0.5c0.5,0.3,0.7,0.8,0.8,1.3h-1.1c-0.1-0.3-0.2-0.5-0.5-0.7c-0.3-0.2-0.6-0.2-1-0.2
				c-0.4,0-0.8,0.1-1,0.3c-0.3,0.2-0.4,0.4-0.4,0.7c0,0.2,0.1,0.4,0.3,0.6c0.2,0.2,0.5,0.3,0.9,0.4l1.1,0.3c0.7,0.2,1.1,0.4,1.4,0.7
				c0.3,0.3,0.5,0.7,0.5,1.2c0,0.6-0.3,1.1-0.8,1.5c-0.5,0.4-1.2,0.6-2,0.6c-0.8,0-1.4-0.2-1.9-0.5s-0.8-0.8-0.8-1.4h1.1
				c0.1,0.3,0.3,0.5,0.6,0.7c0.3,0.2,0.6,0.2,1.1,0.2c0.5,0,0.8-0.1,1.1-0.3c0.3-0.2,0.4-0.5,0.4-0.8c0-0.5-0.4-0.8-1.1-1l-1.2-0.3
				c-0.6-0.2-1.1-0.4-1.4-0.7C226.7,90.9,226.5,90.5,226.5,90z"/>
			<g>
				<defs>
					<rect id="SVGID_00000093874886160330255110000015921890341462154656_" y="118" width="270" height="0.5"/>
				</defs>
				<clipPath id="SVGID_00000034055150272548622230000007707430559092959360_">
					<use xlink:href="#SVGID_00000093874886160330255110000015921890341462154656_"  overflow="visible"/>
				</clipPath>
				<g clip-path="url(#SVGID_00000034055150272548622230000007707430559092959360_)">
					<rect y="118" fill="#3C3C43" fill-opacity="0.36" width="270" height="0.5"/>
				</g>
			</g>
			<path fill="#0A7AFF" d="M37,146.5h-1.5v-12H37l6.5,9.3h0.1v-9.3h1.5v12h-1.5l-6.5-9.3H37V146.5z M54.3,145.4
				c-0.7,0.8-1.7,1.2-3,1.2s-2.3-0.4-3-1.2c-0.7-0.8-1.1-2-1.1-3.4c0-1.4,0.4-2.6,1.1-3.4c0.7-0.8,1.7-1.2,3-1.2
				c1.3,0,2.3,0.4,3,1.2c0.7,0.8,1.1,2,1.1,3.4C55.4,143.5,55,144.6,54.3,145.4z M49.3,144.5c0.5,0.6,1.1,0.9,2,0.9
				c0.8,0,1.5-0.3,2-0.9c0.5-0.6,0.7-1.4,0.7-2.5c0-1.1-0.2-1.9-0.7-2.5c-0.5-0.6-1.1-0.9-2-0.9c-0.8,0-1.5,0.3-2,0.9
				c-0.5,0.6-0.7,1.4-0.7,2.5C48.6,143.1,48.8,143.9,49.3,144.5z M57.8,135.2h1.4v2.3h2v1.2h-2v5.1c0,0.5,0.1,0.9,0.3,1.1
				c0.2,0.2,0.5,0.4,1,0.4c0.2,0,0.4,0,0.7,0v1.2c-0.3,0.1-0.6,0.1-0.8,0.1c-0.9,0-1.6-0.2-2-0.6c-0.4-0.4-0.6-1-0.6-1.8v-5.4h-1.4
				v-1.2h1.4V135.2z M69,146.5h-1.5v-12H69l6.5,9.3h0.1v-9.3h1.5v12h-1.5l-6.5-9.3H69V146.5z M86.3,145.4c-0.7,0.8-1.7,1.2-3,1.2
				c-1.3,0-2.3-0.4-3-1.2c-0.7-0.8-1.1-2-1.1-3.4c0-1.4,0.4-2.6,1.1-3.4c0.7-0.8,1.7-1.2,3-1.2c1.3,0,2.3,0.4,3,1.2
				c0.7,0.8,1.1,2,1.1,3.4C87.4,143.5,87,144.6,86.3,145.4z M81.3,144.5c0.5,0.6,1.1,0.9,2,0.9c0.8,0,1.5-0.3,2-0.9
				c0.5-0.6,0.7-1.4,0.7-2.5c0-1.1-0.2-1.9-0.7-2.5c-0.5-0.6-1.1-0.9-2-0.9c-0.8,0-1.5,0.3-2,0.9c-0.5,0.6-0.7,1.4-0.7,2.5
				C80.6,143.1,80.9,143.9,81.3,144.5z M100.2,137.6l-2.5,8.9h-1.5l-2-6.9h-0.1l-2,6.9h-1.4l-2.5-8.9h1.4l1.8,7.2h0.1l2-7.2h1.4
				l2,7.2H97l1.8-7.2H100.2z"/>
			<g>
				<defs>
					<rect id="SVGID_00000173867888247515420480000016111883567559057052_" x="134.8" y="118.5" width="0.5" height="44"/>
				</defs>
				<clipPath id="SVGID_00000113337793166850983680000001309276404923593865_">
					<use xlink:href="#SVGID_00000173867888247515420480000016111883567559057052_"  overflow="visible"/>
				</clipPath>
				<g clip-path="url(#SVGID_00000113337793166850983680000001309276404923593865_)">
					<rect x="134.8" y="118.5" fill="#3C3C43" fill-opacity="0.36" width="0.5" height="44"/>
				</g>
			</g>
			<path fill="#0A7AFF" d="M189.9,146.5l-1-3.1h-4.4l-1,3.1h-2.2l4.2-12h2.4l4.3,12H189.9z M186.6,136.8l-1.6,4.9h3.4l-1.6-4.9
				H186.6z M193.7,146.5v-12.6h2.1v12.6H193.7z M198,146.5v-12.6h2.1v12.6H198z M206.2,146.7c-1.4,0-2.4-0.4-3.2-1.3
				c-0.8-0.8-1.2-2-1.2-3.5c0-1.5,0.4-2.6,1.2-3.5c0.8-0.8,1.8-1.3,3.2-1.3c1.4,0,2.4,0.4,3.2,1.3c0.8,0.8,1.2,2,1.2,3.5
				c0,1.5-0.4,2.6-1.2,3.5C208.6,146.3,207.6,146.7,206.2,146.7z M204.5,144.2c0.4,0.5,0.9,0.8,1.7,0.8c0.7,0,1.3-0.3,1.7-0.8
				c0.4-0.5,0.6-1.3,0.6-2.2c0-0.9-0.2-1.7-0.6-2.2c-0.4-0.5-0.9-0.8-1.7-0.8c-0.7,0-1.3,0.3-1.7,0.8c-0.4,0.5-0.6,1.3-0.6,2.2
				C203.9,142.9,204.1,143.6,204.5,144.2z M224,137.4l-2.5,9.1h-2.2l-1.8-6.5h-0.1l-1.8,6.5h-2.1l-2.5-9.1h2.1l1.5,6.8h0.1l1.7-6.8
				h2l1.8,6.8h0.1l1.5-6.8H224z"/>
		</g>
	</g>
</g>
</svg>
