<?xml version="1.0" encoding="utf-8"?>
<!-- Generator: Adobe Illustrator 24.2.3, SVG Export Plug-In . SVG Version: 6.00 Build 0)  -->
<svg version="1.1" id="Layer_1" xmlns="http://www.w3.org/2000/svg" xmlns:xlink="http://www.w3.org/1999/xlink" x="0px" y="0px"
	 viewBox="0 0 96 94" enable-background="new 0 0 96 94" xml:space="preserve">
<path fill-rule="evenodd" clip-rule="evenodd" fill="#2B2628" d="M72.5,26c-1.7-1.6-3.7-3.1-5.9-4.3c-5.6-3.1-12.4-4.5-18.8-3.9
	c-8.7,0.7-16.6,4.8-21.3,12.2c6.6,0.1,12.4,3.4,16.7,8.3c1.6-1.8,3.3-3.5,4.9-4.9c5.8-5,13.6-9.2,21.5-8.1
	C70.7,25.4,71.6,25.7,72.5,26z M80.7,42.6c-0.1,0.5-0.1,1-0.2,1.5c-1.3,8.2-6,16-11.4,22.1C64,72,56.4,78.3,48.3,81
	c4.8,0.3,9.7-0.3,14.4-1.7c6.3-4.5,11.4-10.7,14.6-17.7C80,55.7,81.4,49,80.7,42.6z M12.2,40.3c-0.8,1.3-1.5,2.6-2,4.1
	c-2.5,7.1-1,15.1,1.6,21.9C15,72,19.7,76.9,25.6,80.8c9.5,6.2,20.2,6.9,30.2,2.4c-10.5,1.2-21.3-1.4-29.9-8.1
	c-6.9-5.4-11.6-12.8-13.5-21.4c-0.5-2.4-0.8-4.8-0.7-7.2C11.6,44.4,11.8,42.3,12.2,40.3z M8.6,41.7c1.2-2.7,3-5.1,5.2-7
	C17,25.6,23.7,17.7,32.1,13c6.4-3.6,13.6-5.3,21-4.9c4.6,0.3,8.9,1.3,13.1,3c-4.8-3.3-9.9-5.7-14.8-6.8c-2.8-0.6-5.5-0.9-8.3-0.8
	c-0.7,0.2-1.4,0.4-2.1,0.6c-10.3,3.1-19,10.4-24.9,19.2C12.5,28.8,9.8,35.1,8.6,41.7z M17.6,32.1c0.8-0.4,1.5-0.7,2.4-1
	c1.2-0.4,2.4-0.7,3.7-0.9c0,0,0,0,0-0.1c3.5-6.3,9-10.8,15.8-13.1c9.2-3.2,20.1-2.2,28.5,2.5c6.7,3.7,11.6,9.3,14,16.6
	c2.8,8.7,1.5,18.2-2.2,26.4c-2.3,4.9-5.4,9.5-9.2,13.4C87.7,66.2,93,45.4,82.6,28.1c-1.8-3-4.1-6-6.8-8.8
	c-6.7-4.8-14.5-8.1-22.8-8.7c-6.9-0.4-13.6,1.2-19.7,4.6C26.6,19,20.9,25.1,17.6,32.1z M63.9,81.5c-1.2,0.9-2.5,1.7-3.9,2.4
	c-11.6,6.5-24.6,6.4-35.8-1c-10.7-7-17.6-17.3-18.7-30.2c-0.9-10.9,2.6-21.9,8.6-30.9c4-5.9,9.2-11.2,15.2-15.1
	c-2.8,1.2-5.4,2.8-7.9,4.6C14.6,16.5,9.3,23.6,6,31.5C1.5,42.5,1.1,55.1,6.3,66.1c4.9,10.1,13.6,18.4,24.2,22.5
	c13.5,5.1,27.3,3.5,39.7-3.6c9.7-5.6,17.2-12.7,20.7-23.6c1.7-5.2,2.8-10.6,2.5-16c-0.3-6.5-2.2-12.9-5.3-18.6
	c-3.3-6-8.6-12.7-14.3-16.7C68.1,5.9,61.7,3.3,55,2.7c8,2.6,16.2,8.2,22.5,14.7c0,0,0.1,0.1,0.1,0.1c2.8,3,5.3,6.1,7.2,9.3
	c11.7,19.7,4.6,43.6-16.5,53C66.8,80.4,65.4,81,63.9,81.5z M37.8,56.3c0.3,0.8,0.8,1.5,1.6,2c2,1.1,4.6,0.3,6-1.3
	c2.6-2.9,1.5-7.4,0.1-10.7c-0.4-1-1-1.9-1.5-2.8c-0.2-0.4-0.5-0.8-0.8-1.1c-2.2,2.8-4,5.9-5.1,9c-0.3,0.9-0.6,2-0.7,3.1
	C37.5,55,37.6,55.6,37.8,56.3z M47.7,45.1c1.9,4.2,2.9,9.7-0.4,13.5c-2.2,2.5-6.2,3.6-9.2,1.8c-1.3-0.7-2.2-1.8-2.6-3.1
	c-0.3-0.9-0.4-1.7-0.4-2.7c0-1.4,0.3-2.8,0.8-4.2c1.2-3.5,3.4-7,5.9-10.2c-4.3-5.1-10.5-8.5-17.5-7.6c-1.2,0.1-2.3,0.4-3.5,0.8
	c-1.8,0.6-3.4,1.5-4.9,2.7c-1.1,3.3-1.8,6.8-1.8,10.4c0,2.2,0.2,4.5,0.7,6.7c1.7,8,6.1,14.9,12.6,19.9c4,3.1,8.4,5.2,13.1,6.5
	c4.3,0.1,8.8-1.5,12.6-3.5c5.4-2.9,10.1-7.1,14.2-11.6c5.1-5.7,9.6-13.1,10.8-20.8c0.7-4.7,0.2-10.5-3.6-13.8
	c-1.4-1.2-3.2-1.9-5.1-2.2c-0.7-0.1-1.3-0.1-2-0.2c-6.4-0.1-12.7,3.6-17.4,7.6c-1.7,1.4-3.4,3.2-5,5c0.4,0.6,0.9,1.2,1.2,1.8
	C46.7,43.1,47.3,44.1,47.7,45.1z M42.8,1c11.6-2.7,22.8,0.1,32.6,7c5.9,4.2,11.6,11.2,15,17.5c3.2,6,5.3,12.8,5.6,19.7
	c0.2,5.8-0.9,11.5-2.7,16.9c-3.8,11.5-11.6,19-21.9,24.9c-13,7.5-27.7,9.2-41.9,3.8C18.4,86.6,9.2,77.9,4,67.1
	c-5.5-11.6-5.1-24.9-0.3-36.6c3.4-8.3,9-15.7,16.2-21.1C26.6,4.5,34.6,1.4,42.8,1z"/>
</svg>
