<svg width="135" height="21" viewBox="0 0 135 21" fill="none" xmlns="http://www.w3.org/2000/svg">
<mask id="path-1-outside-1_8375_33112" maskUnits="userSpaceOnUse" x="0" y="-0.25" width="22" height="21" fill="black">
<rect fill="white" y="-0.25" width="22" height="21"/>
<path fill-rule="evenodd" clip-rule="evenodd" d="M16.1097 6.15848C15.749 5.8193 15.336 5.52253 14.8851 5.26815C13.7175 4.61336 12.3078 4.34013 10.974 4.45319C9.15141 4.60394 7.51864 5.45658 6.54562 6.99228C7.91734 7.0017 9.13243 7.69417 10.02 8.71169C10.3523 8.33012 10.6988 7.98624 11.0452 7.68475C12.2508 6.64368 13.8694 5.76749 15.5211 6.00773C15.7252 6.036 15.9246 6.0831 16.1097 6.15848ZM17.8137 9.61144C17.8042 9.71508 17.7899 9.814 17.7757 9.91764C17.5099 11.6182 16.5274 13.234 15.393 14.5059C14.325 15.7071 12.7445 17.0308 11.0595 17.5773C12.0657 17.6385 13.0862 17.516 14.064 17.2146C15.3787 16.2818 16.4467 15.0005 17.1159 13.5355C17.6713 12.3201 17.9561 10.9446 17.8137 9.61144ZM3.55062 9.11681C3.38449 9.3759 3.24685 9.65855 3.13768 9.96003C2.62032 11.4298 2.92409 13.0927 3.48417 14.5059C4.12019 15.7213 5.09796 16.7435 6.32728 17.5537C8.29706 18.8492 10.5279 18.9811 12.6116 18.0531C10.4235 18.3074 8.1689 17.7516 6.3795 16.3666C4.93658 15.2502 3.95407 13.7051 3.5696 11.9244C3.46044 11.4298 3.41297 10.9257 3.41772 10.417C3.42246 9.97888 3.46518 9.54549 3.55062 9.11681ZM2.79119 9.42301C3.0475 8.85772 3.41297 8.35839 3.86863 7.95797C4.54737 6.07368 5.93808 4.43906 7.68477 3.44981C9.02326 2.69138 10.5279 2.33808 12.0705 2.43229C13.0198 2.48882 13.9311 2.71022 14.7949 3.05882C13.8029 2.38047 12.735 1.867 11.705 1.63618C11.1307 1.50899 10.5516 1.45717 9.97729 1.47601C9.8349 1.50899 9.68776 1.55138 9.54537 1.59378C7.40947 2.23915 5.59159 3.756 4.37175 5.58377C3.60758 6.7379 3.04275 8.0569 2.79119 9.42301ZM4.66128 7.42566C4.81792 7.34558 4.98404 7.27492 5.15491 7.21368C5.40173 7.12889 5.65804 7.06294 5.91434 7.02996C5.91434 7.02525 5.91909 7.02054 5.91909 7.01583C6.64055 5.71096 7.78919 4.78294 9.20363 4.29303C11.1117 3.62881 13.3805 3.82666 15.1414 4.81121C16.5321 5.58848 17.5621 6.75203 18.0557 8.26417C18.6443 10.0637 18.369 12.0469 17.5906 13.7475C17.1207 14.7744 16.4657 15.7165 15.673 16.5221C19.2708 14.5059 20.3672 10.1909 18.2076 6.57773C17.8374 5.96063 17.3533 5.33881 16.7884 4.74997C15.3882 3.756 13.7792 3.05882 12.042 2.95518C10.6038 2.86568 9.19888 3.20014 7.95057 3.90675C6.53138 4.70286 5.36376 5.96063 4.66128 7.42566ZM14.3013 17.6856C14.0402 17.8646 13.7697 18.0342 13.4944 18.1897C11.069 19.5369 8.36825 19.5181 6.03775 17.9824C3.81167 16.5174 2.36875 14.3834 2.15042 11.7124C1.96531 9.45599 2.69151 7.17128 3.93983 5.30112C4.76571 4.06691 5.84789 2.96931 7.11045 2.16378C6.53138 2.42287 5.98554 2.7432 5.47293 3.12477C4.0395 4.17997 2.92883 5.65443 2.25484 7.28905C1.3103 9.5926 1.22961 12.2118 2.31654 14.4776C3.32754 16.588 5.14067 18.3122 7.34777 19.146C10.1577 20.2059 13.0387 19.8808 15.6161 18.3969C17.6333 17.2334 19.1949 15.7589 19.9353 13.5025C20.2913 12.4285 20.5096 11.3073 20.4669 10.1673C20.4147 8.82475 20.0065 7.48219 19.3705 6.2998C18.6918 5.04674 17.5716 3.65237 16.404 2.8327C15.1841 1.98006 13.8504 1.44304 12.4597 1.30171C14.1352 1.83874 15.8391 3.007 17.1492 4.36369C17.1539 4.3684 17.1634 4.37782 17.1681 4.38253C17.7615 4.99964 18.2741 5.65443 18.6633 6.30922C21.1077 10.4028 19.6315 15.3632 15.2269 17.3229C14.9231 17.4689 14.6146 17.5867 14.3013 17.6856ZM8.86663 12.4426C8.92359 12.6169 9.03275 12.7582 9.19888 12.8524C9.61182 13.088 10.1577 12.9184 10.4614 12.5792C10.9978 11.9715 10.7794 11.0294 10.4852 10.3557C10.3997 10.1579 10.2858 9.96474 10.1719 9.78103C10.1197 9.70094 10.0722 9.62086 10.0153 9.54549C9.56435 10.1343 9.17989 10.7797 8.96156 11.4062C8.89036 11.6041 8.8334 11.8255 8.82391 12.0469C8.81442 12.1788 8.82391 12.3154 8.86663 12.4426ZM10.9456 10.1155C11.3395 10.9917 11.5484 12.1317 10.8506 12.9184C10.3855 13.4413 9.5691 13.658 8.93783 13.2999C8.67202 13.1492 8.48691 12.9231 8.38724 12.6499C8.32079 12.4709 8.29231 12.2871 8.29706 12.0987C8.29706 11.8066 8.36825 11.5052 8.46318 11.2319C8.71474 10.5112 9.16091 9.77632 9.68301 9.1121C8.78594 8.05219 7.5044 7.355 6.04724 7.53872C5.80043 7.57169 5.55836 7.62822 5.32579 7.70831C4.95082 7.84021 4.61382 8.02864 4.31479 8.26888C4.07747 8.96136 3.94457 9.69152 3.93983 10.4311C3.93508 10.8975 3.98254 11.3638 4.07747 11.8208C4.4382 13.4789 5.34952 14.9204 6.69751 15.9615C7.52339 16.5975 8.44894 17.0497 9.42671 17.3135C10.3285 17.3417 11.2636 17.0073 12.0467 16.5833C13.1622 15.9803 14.1637 15.1089 14.999 14.1667C16.0622 12.9702 17.0068 11.4392 17.2536 9.84227C17.4055 8.86715 17.3058 7.67062 16.4989 6.98285C16.1999 6.72847 15.8391 6.57773 15.4452 6.5212C15.3075 6.50236 15.1651 6.48823 15.0228 6.48823C13.6795 6.46467 12.3695 7.22781 11.387 8.07574C11.0405 8.37723 10.6845 8.73524 10.3475 9.12624C10.4377 9.24871 10.5231 9.38061 10.6086 9.51252C10.732 9.70094 10.8506 9.90822 10.9456 10.1155ZM9.91084 0.962542C12.3173 0.397255 14.6668 0.986096 16.7077 2.41345C17.9418 3.28022 19.1189 4.73584 19.8356 6.05955C20.5144 7.3126 20.9368 8.73053 20.9938 10.1485C21.0412 11.3497 20.8134 12.5274 20.4384 13.6627C19.6553 16.0416 18.0178 17.615 15.8819 18.8445C13.1669 20.4084 10.1197 20.7476 7.16266 19.6312C4.83216 18.7503 2.9146 16.9319 1.8419 14.7037C0.693262 12.3013 0.769205 9.53136 1.7707 7.09591C2.48267 5.36707 3.65029 3.82195 5.15966 2.70551C6.54562 1.67857 8.20213 1.0332 9.91084 0.962542Z"/>
</mask>
<path fill-rule="evenodd" clip-rule="evenodd" d="M16.1097 6.15848C15.749 5.8193 15.336 5.52253 14.8851 5.26815C13.7175 4.61336 12.3078 4.34013 10.974 4.45319C9.15141 4.60394 7.51864 5.45658 6.54562 6.99228C7.91734 7.0017 9.13243 7.69417 10.02 8.71169C10.3523 8.33012 10.6988 7.98624 11.0452 7.68475C12.2508 6.64368 13.8694 5.76749 15.5211 6.00773C15.7252 6.036 15.9246 6.0831 16.1097 6.15848ZM17.8137 9.61144C17.8042 9.71508 17.7899 9.814 17.7757 9.91764C17.5099 11.6182 16.5274 13.234 15.393 14.5059C14.325 15.7071 12.7445 17.0308 11.0595 17.5773C12.0657 17.6385 13.0862 17.516 14.064 17.2146C15.3787 16.2818 16.4467 15.0005 17.1159 13.5355C17.6713 12.3201 17.9561 10.9446 17.8137 9.61144ZM3.55062 9.11681C3.38449 9.3759 3.24685 9.65855 3.13768 9.96003C2.62032 11.4298 2.92409 13.0927 3.48417 14.5059C4.12019 15.7213 5.09796 16.7435 6.32728 17.5537C8.29706 18.8492 10.5279 18.9811 12.6116 18.0531C10.4235 18.3074 8.1689 17.7516 6.3795 16.3666C4.93658 15.2502 3.95407 13.7051 3.5696 11.9244C3.46044 11.4298 3.41297 10.9257 3.41772 10.417C3.42246 9.97888 3.46518 9.54549 3.55062 9.11681ZM2.79119 9.42301C3.0475 8.85772 3.41297 8.35839 3.86863 7.95797C4.54737 6.07368 5.93808 4.43906 7.68477 3.44981C9.02326 2.69138 10.5279 2.33808 12.0705 2.43229C13.0198 2.48882 13.9311 2.71022 14.7949 3.05882C13.8029 2.38047 12.735 1.867 11.705 1.63618C11.1307 1.50899 10.5516 1.45717 9.97729 1.47601C9.8349 1.50899 9.68776 1.55138 9.54537 1.59378C7.40947 2.23915 5.59159 3.756 4.37175 5.58377C3.60758 6.7379 3.04275 8.0569 2.79119 9.42301ZM4.66128 7.42566C4.81792 7.34558 4.98404 7.27492 5.15491 7.21368C5.40173 7.12889 5.65804 7.06294 5.91434 7.02996C5.91434 7.02525 5.91909 7.02054 5.91909 7.01583C6.64055 5.71096 7.78919 4.78294 9.20363 4.29303C11.1117 3.62881 13.3805 3.82666 15.1414 4.81121C16.5321 5.58848 17.5621 6.75203 18.0557 8.26417C18.6443 10.0637 18.369 12.0469 17.5906 13.7475C17.1207 14.7744 16.4657 15.7165 15.673 16.5221C19.2708 14.5059 20.3672 10.1909 18.2076 6.57773C17.8374 5.96063 17.3533 5.33881 16.7884 4.74997C15.3882 3.756 13.7792 3.05882 12.042 2.95518C10.6038 2.86568 9.19888 3.20014 7.95057 3.90675C6.53138 4.70286 5.36376 5.96063 4.66128 7.42566ZM14.3013 17.6856C14.0402 17.8646 13.7697 18.0342 13.4944 18.1897C11.069 19.5369 8.36825 19.5181 6.03775 17.9824C3.81167 16.5174 2.36875 14.3834 2.15042 11.7124C1.96531 9.45599 2.69151 7.17128 3.93983 5.30112C4.76571 4.06691 5.84789 2.96931 7.11045 2.16378C6.53138 2.42287 5.98554 2.7432 5.47293 3.12477C4.0395 4.17997 2.92883 5.65443 2.25484 7.28905C1.3103 9.5926 1.22961 12.2118 2.31654 14.4776C3.32754 16.588 5.14067 18.3122 7.34777 19.146C10.1577 20.2059 13.0387 19.8808 15.6161 18.3969C17.6333 17.2334 19.1949 15.7589 19.9353 13.5025C20.2913 12.4285 20.5096 11.3073 20.4669 10.1673C20.4147 8.82475 20.0065 7.48219 19.3705 6.2998C18.6918 5.04674 17.5716 3.65237 16.404 2.8327C15.1841 1.98006 13.8504 1.44304 12.4597 1.30171C14.1352 1.83874 15.8391 3.007 17.1492 4.36369C17.1539 4.3684 17.1634 4.37782 17.1681 4.38253C17.7615 4.99964 18.2741 5.65443 18.6633 6.30922C21.1077 10.4028 19.6315 15.3632 15.2269 17.3229C14.9231 17.4689 14.6146 17.5867 14.3013 17.6856ZM8.86663 12.4426C8.92359 12.6169 9.03275 12.7582 9.19888 12.8524C9.61182 13.088 10.1577 12.9184 10.4614 12.5792C10.9978 11.9715 10.7794 11.0294 10.4852 10.3557C10.3997 10.1579 10.2858 9.96474 10.1719 9.78103C10.1197 9.70094 10.0722 9.62086 10.0153 9.54549C9.56435 10.1343 9.17989 10.7797 8.96156 11.4062C8.89036 11.6041 8.8334 11.8255 8.82391 12.0469C8.81442 12.1788 8.82391 12.3154 8.86663 12.4426ZM10.9456 10.1155C11.3395 10.9917 11.5484 12.1317 10.8506 12.9184C10.3855 13.4413 9.5691 13.658 8.93783 13.2999C8.67202 13.1492 8.48691 12.9231 8.38724 12.6499C8.32079 12.4709 8.29231 12.2871 8.29706 12.0987C8.29706 11.8066 8.36825 11.5052 8.46318 11.2319C8.71474 10.5112 9.16091 9.77632 9.68301 9.1121C8.78594 8.05219 7.5044 7.355 6.04724 7.53872C5.80043 7.57169 5.55836 7.62822 5.32579 7.70831C4.95082 7.84021 4.61382 8.02864 4.31479 8.26888C4.07747 8.96136 3.94457 9.69152 3.93983 10.4311C3.93508 10.8975 3.98254 11.3638 4.07747 11.8208C4.4382 13.4789 5.34952 14.9204 6.69751 15.9615C7.52339 16.5975 8.44894 17.0497 9.42671 17.3135C10.3285 17.3417 11.2636 17.0073 12.0467 16.5833C13.1622 15.9803 14.1637 15.1089 14.999 14.1667C16.0622 12.9702 17.0068 11.4392 17.2536 9.84227C17.4055 8.86715 17.3058 7.67062 16.4989 6.98285C16.1999 6.72847 15.8391 6.57773 15.4452 6.5212C15.3075 6.50236 15.1651 6.48823 15.0228 6.48823C13.6795 6.46467 12.3695 7.22781 11.387 8.07574C11.0405 8.37723 10.6845 8.73524 10.3475 9.12624C10.4377 9.24871 10.5231 9.38061 10.6086 9.51252C10.732 9.70094 10.8506 9.90822 10.9456 10.1155ZM9.91084 0.962542C12.3173 0.397255 14.6668 0.986096 16.7077 2.41345C17.9418 3.28022 19.1189 4.73584 19.8356 6.05955C20.5144 7.3126 20.9368 8.73053 20.9938 10.1485C21.0412 11.3497 20.8134 12.5274 20.4384 13.6627C19.6553 16.0416 18.0178 17.615 15.8819 18.8445C13.1669 20.4084 10.1197 20.7476 7.16266 19.6312C4.83216 18.7503 2.9146 16.9319 1.8419 14.7037C0.693262 12.3013 0.769205 9.53136 1.7707 7.09591C2.48267 5.36707 3.65029 3.82195 5.15966 2.70551C6.54562 1.67857 8.20213 1.0332 9.91084 0.962542Z" fill="white"/>
<path fill-rule="evenodd" clip-rule="evenodd" d="M16.1097 6.15848C15.749 5.8193 15.336 5.52253 14.8851 5.26815C13.7175 4.61336 12.3078 4.34013 10.974 4.45319C9.15141 4.60394 7.51864 5.45658 6.54562 6.99228C7.91734 7.0017 9.13243 7.69417 10.02 8.71169C10.3523 8.33012 10.6988 7.98624 11.0452 7.68475C12.2508 6.64368 13.8694 5.76749 15.5211 6.00773C15.7252 6.036 15.9246 6.0831 16.1097 6.15848ZM17.8137 9.61144C17.8042 9.71508 17.7899 9.814 17.7757 9.91764C17.5099 11.6182 16.5274 13.234 15.393 14.5059C14.325 15.7071 12.7445 17.0308 11.0595 17.5773C12.0657 17.6385 13.0862 17.516 14.064 17.2146C15.3787 16.2818 16.4467 15.0005 17.1159 13.5355C17.6713 12.3201 17.9561 10.9446 17.8137 9.61144ZM3.55062 9.11681C3.38449 9.3759 3.24685 9.65855 3.13768 9.96003C2.62032 11.4298 2.92409 13.0927 3.48417 14.5059C4.12019 15.7213 5.09796 16.7435 6.32728 17.5537C8.29706 18.8492 10.5279 18.9811 12.6116 18.0531C10.4235 18.3074 8.1689 17.7516 6.3795 16.3666C4.93658 15.2502 3.95407 13.7051 3.5696 11.9244C3.46044 11.4298 3.41297 10.9257 3.41772 10.417C3.42246 9.97888 3.46518 9.54549 3.55062 9.11681ZM2.79119 9.42301C3.0475 8.85772 3.41297 8.35839 3.86863 7.95797C4.54737 6.07368 5.93808 4.43906 7.68477 3.44981C9.02326 2.69138 10.5279 2.33808 12.0705 2.43229C13.0198 2.48882 13.9311 2.71022 14.7949 3.05882C13.8029 2.38047 12.735 1.867 11.705 1.63618C11.1307 1.50899 10.5516 1.45717 9.97729 1.47601C9.8349 1.50899 9.68776 1.55138 9.54537 1.59378C7.40947 2.23915 5.59159 3.756 4.37175 5.58377C3.60758 6.7379 3.04275 8.0569 2.79119 9.42301ZM4.66128 7.42566C4.81792 7.34558 4.98404 7.27492 5.15491 7.21368C5.40173 7.12889 5.65804 7.06294 5.91434 7.02996C5.91434 7.02525 5.91909 7.02054 5.91909 7.01583C6.64055 5.71096 7.78919 4.78294 9.20363 4.29303C11.1117 3.62881 13.3805 3.82666 15.1414 4.81121C16.5321 5.58848 17.5621 6.75203 18.0557 8.26417C18.6443 10.0637 18.369 12.0469 17.5906 13.7475C17.1207 14.7744 16.4657 15.7165 15.673 16.5221C19.2708 14.5059 20.3672 10.1909 18.2076 6.57773C17.8374 5.96063 17.3533 5.33881 16.7884 4.74997C15.3882 3.756 13.7792 3.05882 12.042 2.95518C10.6038 2.86568 9.19888 3.20014 7.95057 3.90675C6.53138 4.70286 5.36376 5.96063 4.66128 7.42566ZM14.3013 17.6856C14.0402 17.8646 13.7697 18.0342 13.4944 18.1897C11.069 19.5369 8.36825 19.5181 6.03775 17.9824C3.81167 16.5174 2.36875 14.3834 2.15042 11.7124C1.96531 9.45599 2.69151 7.17128 3.93983 5.30112C4.76571 4.06691 5.84789 2.96931 7.11045 2.16378C6.53138 2.42287 5.98554 2.7432 5.47293 3.12477C4.0395 4.17997 2.92883 5.65443 2.25484 7.28905C1.3103 9.5926 1.22961 12.2118 2.31654 14.4776C3.32754 16.588 5.14067 18.3122 7.34777 19.146C10.1577 20.2059 13.0387 19.8808 15.6161 18.3969C17.6333 17.2334 19.1949 15.7589 19.9353 13.5025C20.2913 12.4285 20.5096 11.3073 20.4669 10.1673C20.4147 8.82475 20.0065 7.48219 19.3705 6.2998C18.6918 5.04674 17.5716 3.65237 16.404 2.8327C15.1841 1.98006 13.8504 1.44304 12.4597 1.30171C14.1352 1.83874 15.8391 3.007 17.1492 4.36369C17.1539 4.3684 17.1634 4.37782 17.1681 4.38253C17.7615 4.99964 18.2741 5.65443 18.6633 6.30922C21.1077 10.4028 19.6315 15.3632 15.2269 17.3229C14.9231 17.4689 14.6146 17.5867 14.3013 17.6856ZM8.86663 12.4426C8.92359 12.6169 9.03275 12.7582 9.19888 12.8524C9.61182 13.088 10.1577 12.9184 10.4614 12.5792C10.9978 11.9715 10.7794 11.0294 10.4852 10.3557C10.3997 10.1579 10.2858 9.96474 10.1719 9.78103C10.1197 9.70094 10.0722 9.62086 10.0153 9.54549C9.56435 10.1343 9.17989 10.7797 8.96156 11.4062C8.89036 11.6041 8.8334 11.8255 8.82391 12.0469C8.81442 12.1788 8.82391 12.3154 8.86663 12.4426ZM10.9456 10.1155C11.3395 10.9917 11.5484 12.1317 10.8506 12.9184C10.3855 13.4413 9.5691 13.658 8.93783 13.2999C8.67202 13.1492 8.48691 12.9231 8.38724 12.6499C8.32079 12.4709 8.29231 12.2871 8.29706 12.0987C8.29706 11.8066 8.36825 11.5052 8.46318 11.2319C8.71474 10.5112 9.16091 9.77632 9.68301 9.1121C8.78594 8.05219 7.5044 7.355 6.04724 7.53872C5.80043 7.57169 5.55836 7.62822 5.32579 7.70831C4.95082 7.84021 4.61382 8.02864 4.31479 8.26888C4.07747 8.96136 3.94457 9.69152 3.93983 10.4311C3.93508 10.8975 3.98254 11.3638 4.07747 11.8208C4.4382 13.4789 5.34952 14.9204 6.69751 15.9615C7.52339 16.5975 8.44894 17.0497 9.42671 17.3135C10.3285 17.3417 11.2636 17.0073 12.0467 16.5833C13.1622 15.9803 14.1637 15.1089 14.999 14.1667C16.0622 12.9702 17.0068 11.4392 17.2536 9.84227C17.4055 8.86715 17.3058 7.67062 16.4989 6.98285C16.1999 6.72847 15.8391 6.57773 15.4452 6.5212C15.3075 6.50236 15.1651 6.48823 15.0228 6.48823C13.6795 6.46467 12.3695 7.22781 11.387 8.07574C11.0405 8.37723 10.6845 8.73524 10.3475 9.12624C10.4377 9.24871 10.5231 9.38061 10.6086 9.51252C10.732 9.70094 10.8506 9.90822 10.9456 10.1155ZM9.91084 0.962542C12.3173 0.397255 14.6668 0.986096 16.7077 2.41345C17.9418 3.28022 19.1189 4.73584 19.8356 6.05955C20.5144 7.3126 20.9368 8.73053 20.9938 10.1485C21.0412 11.3497 20.8134 12.5274 20.4384 13.6627C19.6553 16.0416 18.0178 17.615 15.8819 18.8445C13.1669 20.4084 10.1197 20.7476 7.16266 19.6312C4.83216 18.7503 2.9146 16.9319 1.8419 14.7037C0.693262 12.3013 0.769205 9.53136 1.7707 7.09591C2.48267 5.36707 3.65029 3.82195 5.15966 2.70551C6.54562 1.67857 8.20213 1.0332 9.91084 0.962542Z" stroke="white" stroke-width="0.4" mask="url(#path-1-outside-1_8375_33112)"/>
<path d="M33.8215 19.9732H31V0.71582H33.8215V19.9732Z" fill="white"/>
<path d="M37.692 7.07692C37.7301 7.40331 37.7605 7.77323 37.7757 8.17941C37.7909 8.58559 37.8061 8.9265 37.8061 9.20212H37.8898C38.0647 8.86122 38.2928 8.53482 38.5894 8.23744C38.886 7.94005 39.2207 7.67894 39.6009 7.44683C39.9812 7.22198 40.3994 7.04065 40.8558 6.91734C41.3121 6.79404 41.7836 6.72876 42.2855 6.72876C43.1601 6.72876 43.913 6.86657 44.5366 7.14945C45.1678 7.43233 45.685 7.80949 46.1033 8.28096C46.5216 8.75242 46.8334 9.30366 47.0311 9.94195C47.2288 10.5802 47.3277 11.2548 47.3277 11.9801V19.9805H44.6431V12.8287C44.6431 12.3065 44.5975 11.806 44.5138 11.3346C44.4302 10.8631 44.2704 10.4497 44.0423 10.0798C43.8141 9.7171 43.5023 9.42697 43.0993 9.20937C42.6962 8.99177 42.1866 8.88298 41.5554 8.88298C40.4907 8.88298 39.6237 9.2674 38.9469 10.0362C38.27 10.8051 37.9354 11.835 37.9354 13.1261V19.9805H35.2508V9.85491C35.2508 9.51401 35.2432 9.06431 35.2204 8.52031C35.1976 7.97632 35.1747 7.4976 35.1367 7.07692H37.692Z" fill="white"/>
<path d="M51.1764 7.07692C51.2144 7.40331 51.2449 7.77323 51.2601 8.17941C51.2753 8.58559 51.2905 8.9265 51.2905 9.20212H51.3741C51.5491 8.86122 51.7772 8.53482 52.0738 8.23744C52.3704 7.94005 52.705 7.67894 53.0853 7.44683C53.4655 7.22198 53.8838 7.04065 54.3401 6.91734C54.7964 6.79404 55.268 6.72876 55.7699 6.72876C56.6445 6.72876 57.3974 6.86657 58.021 7.14945C58.6522 7.43233 59.1694 7.80949 59.5876 8.28096C60.0059 8.75242 60.3177 9.30366 60.5155 9.94195C60.7132 10.5802 60.8121 11.2548 60.8121 11.9801V19.9805H58.1275V12.8287C58.1275 12.3065 58.0818 11.806 57.9982 11.3346C57.9145 10.8631 57.7548 10.4497 57.5267 10.0798C57.2985 9.7171 56.9867 9.42697 56.5836 9.20937C56.1806 8.99177 55.671 8.88298 55.0398 8.88298C53.9751 8.88298 53.1081 9.2674 52.4312 10.0362C51.7544 10.8051 51.4198 11.835 51.4198 13.1261V19.9805H48.7352V9.85491C48.7352 9.51401 48.7276 9.06431 48.7047 8.52031C48.6819 7.97632 48.6591 7.4976 48.6211 7.07692H51.1764Z" fill="white"/>
<path d="M75.6432 13.4162C75.6432 13.5613 75.6432 13.7063 75.6432 13.8514C75.6432 13.9964 75.6356 14.1415 75.6128 14.2866H64.8667C64.882 14.8306 65.0112 15.3383 65.2546 15.8098C65.4904 16.2885 65.8098 16.7019 66.2128 17.0501C66.6083 17.3982 67.0722 17.6738 67.597 17.8769C68.1217 18.0728 68.6769 18.1743 69.2625 18.1743C70.1751 18.1743 70.966 17.9857 71.6277 17.6013C72.2893 17.2169 72.8141 16.7599 73.1943 16.2159L75.0728 17.6593C74.3503 18.5733 73.4985 19.2478 72.5175 19.6757C71.5364 20.1037 70.4489 20.3213 69.2549 20.3213C68.2282 20.3213 67.2776 20.1545 66.403 19.8281C65.5284 19.5017 64.7755 19.0447 64.1519 18.4572C63.5206 17.8697 63.0263 17.1589 62.6689 16.3247C62.3038 15.4906 62.1289 14.5695 62.1289 13.5467C62.1289 12.5531 62.3038 11.6319 62.6537 10.7833C63.0035 9.94188 63.4978 9.21656 64.1291 8.62179C64.7603 8.01977 65.498 7.55556 66.3573 7.22191C67.2167 6.88826 68.1369 6.72144 69.1332 6.72144C70.1219 6.72144 71.0269 6.87375 71.833 7.18564C72.6392 7.49753 73.3312 7.93998 73.894 8.52024C74.4568 9.1005 74.8903 9.80407 75.1945 10.6309C75.4911 11.4578 75.6432 12.3862 75.6432 13.4162ZM72.9053 12.3862C72.8825 11.8785 72.7989 11.3998 72.6315 10.9573C72.4718 10.5149 72.2361 10.1305 71.9167 9.80407C71.6049 9.47767 71.2094 9.21655 70.7455 9.02797C70.2816 8.83939 69.734 8.74509 69.1028 8.74509C68.5324 8.74509 67.9924 8.83939 67.4905 9.02797C66.9886 9.21655 66.5475 9.47767 66.1748 9.80407C65.8022 10.1305 65.498 10.5149 65.2622 10.9573C65.0265 11.3998 64.8896 11.8785 64.8515 12.3862H72.9053Z" fill="white"/>
<path d="M76.988 8.52024C76.9651 7.97625 76.9423 7.49753 76.9043 7.07685H79.4444C79.4824 7.40324 79.5128 7.78041 79.5281 8.20835C79.5433 8.63629 79.5585 8.98445 79.5585 9.25282H79.6421C80.0224 8.49123 80.5776 7.88196 81.3077 7.41775C82.0377 6.95354 82.8591 6.72144 83.7717 6.72144C84.19 6.72144 84.5398 6.7577 84.8288 6.83023L84.7147 9.1948C84.3345 9.10776 83.9238 9.05698 83.4903 9.05698C82.8439 9.05698 82.2811 9.17304 81.8096 9.39789C81.3305 9.62274 80.9426 9.92737 80.6232 10.3118C80.3114 10.689 80.0756 11.1314 79.9235 11.6319C79.7714 12.1324 79.6954 12.6546 79.6954 13.1986V19.9731H77.0108V9.85484C77.0108 9.50669 77.0032 9.06424 76.988 8.52024Z" fill="white"/>
<path d="M94.3955 9.1731H90.7983V15.8751C90.7983 16.6512 90.9504 17.2097 91.2546 17.5434C91.5588 17.877 92.0455 18.0438 92.7072 18.0438C92.9505 18.0438 93.2167 18.0221 93.5057 17.9713C93.7947 17.9205 94.0457 17.848 94.2738 17.7464L94.3575 19.8426C94.0305 19.9514 93.6806 20.0385 93.2852 20.1038C92.8973 20.169 92.4942 20.198 92.076 20.198C90.7983 20.198 89.8248 19.8644 89.1556 19.1898C88.4787 18.5225 88.1441 17.5143 88.1441 16.1725V9.18036H85.5508V7.08417H88.1441V3.38501H90.7983V7.08417H94.3955V9.1731Z" fill="white"/>
<path d="M104.929 19.9732C104.891 19.6468 104.86 19.2769 104.845 18.8707C104.822 18.4645 104.815 18.1236 104.815 17.848H104.762C104.419 18.537 103.841 19.1246 103.035 19.6033C102.229 20.082 101.332 20.3213 100.343 20.3213C99.4684 20.3213 98.7155 20.1835 98.0766 19.9152C97.4378 19.6395 96.9131 19.2696 96.51 18.7837C96.0993 18.3049 95.7951 17.7464 95.5974 17.1082C95.3996 16.4771 95.3008 15.7953 95.3008 15.07V7.0769H97.9854V14.2069C97.9854 14.7363 98.031 15.2368 98.1147 15.7155C98.1983 16.1942 98.358 16.6149 98.5862 16.9776C98.8143 17.3403 99.1261 17.6304 99.5292 17.848C99.9323 18.0656 100.442 18.1744 101.073 18.1744C102.161 18.1744 103.028 17.79 103.697 17.0211C104.358 16.2523 104.693 15.2223 104.693 13.9312V7.0769H107.378V17.1952C107.378 17.5433 107.385 17.9858 107.408 18.5298C107.423 19.0738 107.454 19.5525 107.492 19.9732H104.929Z" fill="white"/>
<path d="M110.922 7.07692C110.961 7.40331 110.991 7.77323 111.006 8.17941C111.021 8.58559 111.037 8.9265 111.037 9.20212H111.12C111.295 8.86122 111.523 8.53482 111.82 8.23744C112.117 7.94005 112.451 7.67894 112.831 7.44683C113.212 7.22198 113.63 7.04065 114.086 6.91734C114.543 6.79404 115.014 6.72876 115.516 6.72876C116.391 6.72876 117.143 6.86657 117.767 7.14945C118.398 7.43233 118.915 7.80949 119.334 8.28096C119.752 8.75242 120.064 9.30366 120.262 9.94195C120.459 10.5802 120.558 11.2548 120.558 11.9801V19.9805H117.874V12.8287C117.874 12.3065 117.828 11.806 117.744 11.3346C117.661 10.8631 117.501 10.4497 117.273 10.0798C117.045 9.7171 116.733 9.42697 116.33 9.20937C115.934 8.99177 115.417 8.88298 114.786 8.88298C113.721 8.88298 112.854 9.2674 112.177 10.0362C111.5 10.8051 111.166 11.835 111.166 13.1261V19.9805H108.481V9.85491C108.481 9.51401 108.474 9.06431 108.451 8.52031C108.428 7.97632 108.405 7.4976 108.367 7.07692H110.922Z" fill="white"/>
<path d="M135.001 13.4162C135.001 13.5613 135.001 13.7063 135.001 13.8514C135.001 13.9964 134.993 14.1415 134.97 14.2866H124.217C124.232 14.8306 124.361 15.3383 124.604 15.8098C124.84 16.2885 125.16 16.7019 125.563 17.0501C125.958 17.3982 126.422 17.6738 126.947 17.8769C127.472 18.0728 128.027 18.1743 128.612 18.1743C129.525 18.1743 130.316 17.9857 130.977 17.6013C131.639 17.2169 132.164 16.7599 132.544 16.2159L134.43 17.6593C133.708 18.5733 132.856 19.2478 131.875 19.6757C130.894 20.1037 129.806 20.3213 128.612 20.3213C127.586 20.3213 126.635 20.1545 125.76 19.8281C124.886 19.5017 124.133 19.0447 123.509 18.4572C122.878 17.8697 122.384 17.1589 122.026 16.3247C121.661 15.4906 121.486 14.5695 121.486 13.5467C121.486 12.5531 121.661 11.6319 122.011 10.7833C122.361 9.94188 122.855 9.21656 123.486 8.62179C124.118 8.01977 124.855 7.55556 125.715 7.22191C126.574 6.88826 127.494 6.72144 128.491 6.72144C129.479 6.72144 130.384 6.87375 131.19 7.18564C131.997 7.49753 132.689 7.93998 133.251 8.52024C133.814 9.1005 134.248 9.80407 134.552 10.6309C134.848 11.4578 135.001 12.3862 135.001 13.4162ZM132.263 12.3862C132.24 11.8785 132.156 11.3998 131.989 10.9573C131.829 10.5149 131.594 10.1305 131.274 9.80407C130.962 9.47767 130.567 9.21655 130.103 9.02797C129.639 8.83939 129.091 8.74509 128.46 8.74509C127.89 8.74509 127.35 8.83939 126.848 9.02797C126.346 9.21655 125.905 9.47767 125.532 9.80407C125.16 10.1305 124.855 10.5149 124.62 10.9573C124.384 11.3998 124.247 11.8785 124.209 12.3862H132.263Z" fill="white"/>
</svg>
