<svg width="18" height="18" viewBox="0 0 18 18" fill="none" xmlns="http://www.w3.org/2000/svg">
<path d="M1.29717 7.45381C1.03431 7.45381 0.809375 7.35676 0.622361 7.16265C0.435348 6.96854 0.357389 6.74207 0.388486 6.48325C0.487459 5.57622 0.724007 4.7074 1.09813 3.87679C1.47226 3.0462 1.97182 2.29092 2.59682 1.61096C2.77676 1.41047 3.00254 1.31288 3.27413 1.31817C3.54572 1.32345 3.78175 1.43327 3.98224 1.64765C4.14831 1.81402 4.22787 2.02168 4.22092 2.27061C4.21398 2.51955 4.13149 2.73964 3.97347 2.93088C3.51567 3.44772 3.14708 4.00822 2.86767 4.61238C2.58826 5.21654 2.40485 5.8627 2.31745 6.55086C2.28389 6.80348 2.17117 7.01713 1.9793 7.19181C1.78741 7.36648 1.56003 7.45381 1.29717 7.45381ZM16.6422 7.45381C16.3938 7.45381 16.1768 7.36648 15.9912 7.19181C15.8056 7.01713 15.6953 6.80178 15.6602 6.54575C15.5564 5.87516 15.3632 5.23257 15.0807 4.618C14.7982 4.00345 14.4352 3.44071 13.9918 2.92979C13.829 2.73485 13.7442 2.51741 13.7372 2.27748C13.7303 2.03754 13.8168 1.82759 13.9967 1.64765C14.1941 1.45048 14.4294 1.34843 14.7025 1.34148C14.9757 1.33454 15.2022 1.43131 15.3822 1.63179C16.0072 2.31175 16.5063 3.06213 16.8797 3.88292C17.253 4.70372 17.4899 5.5705 17.5905 6.48325C17.6216 6.74207 17.5421 6.96854 17.352 7.16265C17.1619 7.35676 16.9253 7.45381 16.6422 7.45381ZM3.03647 14.9778C2.77205 14.9778 2.54141 14.8794 2.34455 14.6825C2.14769 14.4857 2.04926 14.2542 2.04926 13.9882C2.04926 13.7222 2.14769 13.4908 2.34455 13.2939C2.54141 13.0971 2.77284 12.9986 3.03884 12.9986H3.7499V7.44606C3.7499 6.26584 4.10626 5.20788 4.81897 4.27219C5.53167 3.33651 6.45657 2.72479 7.59365 2.43704V1.88361C7.59365 1.49298 7.73061 1.16095 8.00453 0.887502C8.27844 0.614071 8.61106 0.477356 9.00236 0.477356C9.39367 0.477356 9.72546 0.614071 9.99774 0.887502C10.27 1.16095 10.4062 1.49298 10.4062 1.88361V2.43704C11.5481 2.72479 12.4707 3.33651 13.1741 4.27219C13.8774 5.20788 14.2291 6.26584 14.2291 7.44606V12.9986H14.9659C15.2319 12.9986 15.4634 13.0971 15.6602 13.2939C15.8571 13.4908 15.9555 13.7222 15.9555 13.9882C15.9555 14.2542 15.8571 14.4857 15.6602 14.6825C15.4634 14.8794 15.2327 14.9778 14.9683 14.9778H3.03647ZM9.00488 17.5027C8.51622 17.5027 8.10631 17.3376 7.77515 17.0075C7.44401 16.6773 7.27845 16.2685 7.27845 15.7813H10.7264C10.7264 16.2701 10.5613 16.6792 10.2311 17.0086C9.90091 17.338 9.49217 17.5027 9.00488 17.5027ZM5.72907 12.9986H12.2499V7.45381C12.2499 6.56006 11.9339 5.79496 11.302 5.1585C10.67 4.52204 9.90385 4.20381 9.0034 4.20381C8.10296 4.20381 7.33213 4.52204 6.6909 5.1585C6.04968 5.79496 5.72907 6.56006 5.72907 7.45381V12.9986Z" fill="#949494"/>
</svg>