<svg width="46" height="49" viewBox="0 0 46 49" fill="none" xmlns="http://www.w3.org/2000/svg">
<path d="M1.39996 17.5333C1.17774 17.5333 0.999959 17.4667 0.866626 17.3333C0.733293 17.2 0.666626 17.0222 0.666626 16.8C0.755515 13.7333 1.45552 10.8333 2.76663 8.10001C4.07774 5.36668 5.86663 2.93335 8.13329 0.800012C8.26663 0.666679 8.43329 0.600012 8.63329 0.600012C8.83329 0.600012 9.02218 0.688901 9.19996 0.866679C9.33329 1.00001 9.39996 1.16668 9.39996 1.36668C9.39996 1.56668 9.31107 1.73335 9.13329 1.86668C7.0444 3.77779 5.38885 6.02223 4.16663 8.60001C2.9444 11.1778 2.26663 13.9111 2.13329 16.8C2.13329 17.0222 2.06663 17.2 1.93329 17.3333C1.79996 17.4667 1.62218 17.5333 1.39996 17.5333ZM44.6 17.5333C44.3777 17.5333 44.2 17.4667 44.0666 17.3333C43.9333 17.2 43.8666 17.0222 43.8666 16.8C43.7777 13.9111 43.1333 11.1889 41.9333 8.63335C40.7333 6.07779 39.0888 3.84446 37 1.93335C36.8222 1.75557 36.7333 1.56668 36.7333 1.36668C36.7333 1.16668 36.8 0.97779 36.9333 0.800012C37.0666 0.666679 37.2333 0.600012 37.4333 0.600012C37.6333 0.600012 37.8 0.666679 37.9333 0.800012C40.2 2.8889 41.9777 5.31112 43.2666 8.06668C44.5555 10.8222 45.2444 13.7333 45.3333 16.8C45.3333 17.0222 45.2666 17.2 45.1333 17.3333C45 17.4667 44.8222 17.5333 44.6 17.5333ZM4.13329 40.7333C3.91107 40.7333 3.73329 40.6667 3.59996 40.5333C3.46663 40.4 3.39996 40.2222 3.39996 40C3.39996 39.7778 3.46663 39.6 3.59996 39.4667C3.73329 39.3333 3.91107 39.2667 4.13329 39.2667H8.79996V18.3333C8.79996 15 9.91107 11.9556 12.1333 9.20001C14.3555 6.44446 17.2444 4.77779 20.8 4.20001V2.33335C20.8 1.66668 21 1.14446 21.4 0.766679C21.8 0.388901 22.3333 0.200012 23 0.200012C23.6666 0.200012 24.2 0.388901 24.6 0.766679C25 1.14446 25.2 1.66668 25.2 2.33335V4.20001C28.7555 4.77779 31.6444 6.44446 33.8666 9.20001C36.0888 11.9556 37.2 15 37.2 18.3333V39.2667H41.8666C42.0888 39.2667 42.2666 39.3333 42.4 39.4667C42.5333 39.6 42.6 39.7778 42.6 40C42.6 40.2222 42.5333 40.4 42.4 40.5333C42.2666 40.6667 42.0888 40.7333 41.8666 40.7333H4.13329ZM23 48.3333C21.9333 48.3333 21 47.9556 20.2 47.2C19.4 46.4445 19 45.4889 19 44.3333H27C27 45.4889 26.6222 46.4445 25.8666 47.2C25.1111 47.9556 24.1555 48.3333 23 48.3333ZM10.2666 39.2667H35.7333V18.3333C35.7333 14.8222 34.5 11.8222 32.0333 9.33335C29.5666 6.84446 26.5555 5.60001 23 5.60001C19.4888 5.60001 16.4888 6.84446 14 9.33335C11.5111 11.8222 10.2666 14.8222 10.2666 18.3333V39.2667Z" fill="#1C1B1F"/>
</svg>
