<svg width="200" height="202" viewBox="0 0 200 202" fill="none" xmlns="http://www.w3.org/2000/svg">
<g clip-path="url(#clip0_204_7)">
<path d="M21.3513 128.725C21.3513 127.055 20.4013 125.815 19.7113 124.465C14.3213 113.905 8.87127 103.295 7.34127 91.3655C6.44127 84.3655 6.79126 77.3655 9.57126 70.5855C13.0444 62.3447 17.7664 54.6882 23.5713 47.8855C29.8413 40.3355 37.8713 34.8855 46.6513 30.6155C53.8613 27.0755 61.1013 23.6155 69.0613 22.0055C79.7582 20.0556 90.6655 19.5244 101.501 20.4255C108.776 20.9381 115.983 22.1572 123.021 24.0655C132.891 26.7331 141.798 32.1542 148.701 39.6955C153.441 44.6955 158.051 49.8255 161.261 55.9655C164.358 61.6753 166.17 67.9925 166.571 74.4755C166.813 76.5399 167.345 78.5598 168.151 80.4755C170.051 86.0755 171.511 91.8155 171.481 97.7255C171.431 107.515 168.551 116.525 163.711 125.095C159.811 131.995 154.091 137.225 149.021 143.095C145.811 146.785 143.361 151.095 140.021 154.645C132.301 162.855 122.681 167.035 111.711 168.735C102.301 170.172 92.7218 170.108 83.3313 168.545C77.5613 167.615 71.6613 167.545 66.0013 165.795C60.4448 164.17 55.1531 161.748 50.2913 158.605C40.7724 152.163 31.7474 145.02 23.2913 137.235C17.2913 131.805 12.8613 125.065 9.29126 117.765C6.11704 111.199 3.52704 104.366 1.55126 97.3455C1.34596 96.6302 1.18894 95.9019 1.08126 95.1655C1.00442 94.9009 0.981736 94.6235 1.01454 94.3498C1.04735 94.0762 1.13498 93.8121 1.2722 93.5731C1.40942 93.3341 1.59342 93.1253 1.81319 92.959C2.03295 92.7928 2.28397 92.6725 2.55126 92.6055C3.98126 92.2455 4.48126 93.3755 4.79126 94.4155C6.23126 99.3555 7.92126 104.205 9.79126 108.995C12.2325 115.505 15.5317 121.659 19.6013 127.295C19.9413 127.755 20.3113 128.205 20.7013 128.635C20.7913 128.705 21.0113 128.675 21.3513 128.725ZM160.951 65.2055C160.101 60.6155 157.951 57.3555 155.751 54.1155C152.351 49.3312 148.504 44.8812 144.261 40.8255C139.334 35.7764 133.366 31.8621 126.771 29.3555C117.53 26.0842 107.831 24.2856 98.0313 24.0255C83.0313 23.3655 68.1913 24.3855 54.3513 31.2655C46.0013 35.4155 37.5813 39.3155 30.8013 46.0655C24.5173 52.346 19.2387 59.5572 15.1513 67.4455C9.96126 77.4455 9.52126 87.9255 12.8413 98.6255C16.6913 111.045 22.5313 122.525 29.3913 133.515C33.5421 140.188 39.4472 145.592 46.4613 149.135C54.827 153.472 63.4459 157.303 72.2713 160.605C79.1813 163.215 86.1313 165.105 93.8313 163.915C106.231 162.005 118.421 159.505 129.241 152.915C136.781 148.325 144.301 143.665 148.821 135.335C152.737 128.447 155.911 121.163 158.291 113.605C161.291 103.295 162.551 92.6755 163.191 81.9955C163.348 79.8335 163.005 77.6644 162.191 75.6555C158.781 67.4455 153.641 60.3955 147.611 53.9455C144.891 51.0355 141.971 48.3555 139.081 45.6355C134.645 41.531 129.645 38.0826 124.231 35.3955C121.061 33.7855 117.671 32.6155 114.451 31.1155C113.561 30.6955 112.361 29.9555 113.061 28.6055C113.761 27.2555 114.861 27.3555 116.061 27.9055C118.781 29.1255 121.631 29.9955 124.351 31.2555C135.921 36.6055 144.801 45.2555 153.191 54.4855C156.071 57.6055 157.931 61.4355 160.951 65.2055ZM157.451 126.985C165.201 119.985 170.391 98.0655 166.311 89.4955C165.031 102.385 162.441 114.955 157.451 126.985ZM111.011 164.655C120.601 163.655 129.201 160.435 135.881 153.155C128.381 158.605 119.741 161.655 111.011 164.655Z" fill="#FBFBF9"/>
<path d="M45.199 93.7657C44.7648 93.7121 44.3487 93.767 43.9507 93.9304C43.5614 94.087 43.2047 94.3302 42.8805 94.6602C42.5651 94.9834 42.2997 95.3796 42.0843 95.8489C41.8689 96.3182 41.7267 96.832 41.6578 97.3903C41.587 97.9641 41.6493 98.511 41.8448 99.0311C42.0491 99.5443 42.3575 100.011 42.7699 100.432C43.1911 100.846 43.6994 101.193 44.2948 101.471C44.8979 101.75 45.5678 101.935 46.3044 102.026C46.8394 102.092 47.3491 102.108 47.8336 102.073C48.3267 102.032 48.7617 101.952 49.1385 101.833C49.5153 101.714 49.8217 101.559 50.0579 101.368C50.295 101.169 50.4289 100.945 50.4595 100.697C50.4835 100.503 50.4682 100.34 50.4137 100.207C50.3602 100.067 50.2932 99.9405 50.2126 99.8282C50.1407 99.7091 50.0761 99.5949 50.0187 99.4855C49.9624 99.3683 49.9442 99.2283 49.9643 99.0655C49.9835 98.9104 50.0404 98.7679 50.1352 98.6379C50.23 98.5079 50.35 98.3968 50.4952 98.3045C50.6482 98.2132 50.8138 98.147 50.992 98.1061C51.178 98.0661 51.364 98.0575 51.5501 98.0805C51.775 98.1083 51.9772 98.1923 52.1566 98.3325C52.3439 98.4737 52.4943 98.6576 52.608 98.8842C52.7305 99.104 52.8132 99.3582 52.8563 99.6469C52.9081 99.9289 52.9148 100.225 52.8765 100.535C52.7989 101.163 52.56 101.728 52.1595 102.229C51.7601 102.723 51.2417 103.128 50.6046 103.443C49.9675 103.757 49.2318 103.978 48.3977 104.103C47.5645 104.22 46.6749 104.221 45.729 104.104C44.6822 103.975 43.7342 103.716 42.8847 103.328C42.0362 102.932 41.3213 102.442 40.74 101.858C40.1665 101.276 39.7439 100.618 39.4725 99.8835C39.201 99.1493 39.1161 98.3713 39.2176 97.5495C39.3286 96.65 39.5885 95.8202 39.9973 95.0599C40.4138 94.3005 40.9303 93.6558 41.5468 93.1258C42.1633 92.5958 42.8536 92.2009 43.6178 91.941C44.3897 91.6821 45.1866 91.6034 46.0085 91.7049C46.3729 91.7499 46.701 91.8337 46.9929 91.9563C47.2935 92.0721 47.5471 92.2176 47.7537 92.3927C47.9604 92.5678 48.1133 92.7638 48.2125 92.9807C48.3204 93.1908 48.3599 93.4122 48.3312 93.6448C48.3082 93.8309 48.2436 94.0039 48.1372 94.164C48.0396 94.3172 47.9167 94.4516 47.7686 94.5672C47.6215 94.6749 47.454 94.7566 47.2661 94.8121C47.0859 94.8686 46.8989 94.8848 46.7051 94.8609C46.5035 94.836 46.3464 94.7694 46.2338 94.661C46.129 94.5536 46.0329 94.4394 45.9455 94.3184C45.8591 94.1897 45.7635 94.0716 45.6586 93.9642C45.5538 93.8568 45.4006 93.7906 45.199 93.7657ZM60.2828 96.9745C60.2933 96.8892 60.2897 96.7588 60.272 96.5835C60.2543 96.4081 60.2317 96.2085 60.2043 95.9847C60.1777 95.7532 60.1449 95.509 60.1058 95.2523C60.0676 94.9878 60.0362 94.732 60.0116 94.485C59.987 94.2379 59.9683 94.0073 59.9553 93.7932C59.9424 93.579 59.9446 93.4022 59.9618 93.2626C59.9838 93.0843 60.052 92.9471 60.1662 92.851C60.2813 92.7471 60.4203 92.6737 60.583 92.6309C60.7457 92.588 60.9177 92.5659 61.0989 92.5647C61.2801 92.5634 61.4521 92.5729 61.6149 92.593C61.8165 92.6179 62.0032 92.7 62.1749 92.8392C62.3554 92.9717 62.4628 93.1857 62.4971 93.4812C62.5451 93.7942 62.577 94.109 62.593 94.4259C62.6177 94.7359 62.6351 95.0411 62.6452 95.3415C62.6563 95.6342 62.6645 95.9186 62.6698 96.1947C62.6828 96.4718 62.6982 96.7296 62.716 96.9679C62.7395 97.1598 62.7795 97.3143 62.8359 97.4314C62.9 97.5496 62.9786 97.6459 63.0718 97.7203C63.1736 97.788 63.2817 97.8368 63.3961 97.8667C63.5183 97.8975 63.6491 97.9215 63.7887 97.9387C63.9437 97.9579 64.1124 97.963 64.2945 97.954C64.4767 97.945 64.6531 97.951 64.8236 97.9721C64.9322 97.9855 65.0345 98.0178 65.1305 98.069C65.2352 98.1134 65.3245 98.1874 65.3983 98.291C65.473 98.3868 65.5241 98.5152 65.5515 98.676C65.5866 98.8377 65.5893 99.0388 65.5596 99.2792C65.5347 99.4808 65.4749 99.6466 65.3801 99.7765C65.2863 99.8988 65.128 99.9698 64.9051 99.9895L64.4749 100.031C64.3403 100.038 64.2138 100.042 64.0956 100.043C63.9861 100.037 63.8451 100.032 63.6726 100.026C63.3034 100.02 63.1015 100.156 63.0671 100.436C63.0642 100.459 63.0668 100.565 63.0748 100.755C63.0829 100.945 63.0929 101.183 63.105 101.467C63.1257 101.746 63.1465 102.055 63.1674 102.396C63.1892 102.73 63.2086 103.051 63.2255 103.36C63.2502 103.67 63.271 103.948 63.2878 104.194C63.3056 104.432 63.3199 104.603 63.3307 104.707C63.3484 104.882 63.3632 105.018 63.3749 105.114C63.3867 105.21 63.3825 105.339 63.3624 105.502C63.3471 105.626 63.2969 105.746 63.2118 105.861C63.1276 105.969 63.01 106.061 62.859 106.137C62.7157 106.213 62.5438 106.267 62.3432 106.297C62.1417 106.335 61.9169 106.339 61.6688 106.308C61.3974 106.275 61.2098 106.169 61.1058 105.991C61.0106 105.806 60.9531 105.602 60.9334 105.379C60.8824 104.964 60.8367 104.537 60.7963 104.099C60.7637 103.662 60.7306 103.229 60.697 102.8C60.6711 102.371 60.6439 101.955 60.6152 101.55C60.5952 101.138 60.5767 100.746 60.5596 100.374C60.5419 100.198 60.4875 100.066 60.3963 99.9758C60.306 99.8781 60.1833 99.8197 60.0282 99.8005C59.501 99.7354 58.9675 99.6892 58.4277 99.6619C57.8966 99.6278 57.3738 99.5908 56.8592 99.5509C56.6789 99.5443 56.5322 99.5853 56.4189 99.6736C56.3057 99.762 56.239 99.8876 56.2189 100.05C56.1739 100.415 56.1333 100.776 56.097 101.133C56.0607 101.491 56.0196 101.856 55.9736 102.228C55.9209 102.655 55.8591 103.092 55.788 103.54C55.7248 103.988 55.6556 104.421 55.5807 104.836C55.546 104.99 55.4837 105.112 55.3937 105.203C55.3115 105.295 55.2084 105.365 55.0844 105.413C54.9682 105.461 54.835 105.488 54.6848 105.493C54.5424 105.499 54.3975 105.493 54.2502 105.475C53.8858 105.43 53.6104 105.333 53.4241 105.184C53.2369 105.043 53.161 104.829 53.1964 104.542C53.2501 104.108 53.3177 103.656 53.3994 103.185C53.481 102.715 53.5515 102.24 53.6109 101.759C53.6511 101.434 53.686 101.119 53.7156 100.816C53.7462 100.505 53.7815 100.186 53.8217 99.8606C53.8399 99.7133 53.8185 99.6005 53.7573 99.5221C53.7048 99.4369 53.635 99.3653 53.5477 99.3072C53.4604 99.2492 53.361 99.1937 53.2494 99.1405C53.1389 99.0796 53.0423 99.0008 52.9598 98.904C52.8773 98.8073 52.8112 98.6731 52.7616 98.5017C52.7196 98.3312 52.7164 98.1025 52.7518 97.8156C52.771 97.6606 52.8129 97.5437 52.8777 97.4652C52.9513 97.3798 53.034 97.3152 53.126 97.2715C53.2258 97.2287 53.3279 97.198 53.4326 97.1794C53.5382 97.1531 53.6369 97.1181 53.7289 97.0743C53.8287 97.0316 53.9105 96.9747 53.9743 96.9039C54.0469 96.8263 54.0927 96.7099 54.1119 96.5549C54.1234 96.4618 54.1329 96.3528 54.1405 96.2278C54.149 96.095 54.1566 95.97 54.1632 95.8527C54.1698 95.7355 54.1745 95.6337 54.1773 95.5475C54.181 95.4535 54.1848 95.391 54.1886 95.3599C54.2212 95.0963 54.2819 94.8913 54.3708 94.7448C54.4685 94.5916 54.5764 94.4829 54.6945 94.4188C54.8136 94.3469 54.9404 94.3074 55.0751 94.3005C55.2185 94.2867 55.3523 94.2874 55.4763 94.3028C55.9415 94.3602 56.2523 94.4891 56.4086 94.6895C56.5736 94.883 56.6433 95.1475 56.6176 95.4828L56.5134 96.7097C56.5059 96.8977 56.5386 97.0474 56.6114 97.1587C56.6852 97.2623 56.819 97.326 57.0129 97.35L59.6645 97.583C59.8912 97.5952 60.0423 97.5509 60.1178 97.45C60.201 97.3501 60.256 97.1916 60.2828 96.9745ZM65.6208 104.234C65.489 104.218 65.3963 104.14 65.3428 103.999C65.2971 103.86 65.289 103.67 65.3187 103.429C65.3235 103.391 65.3288 103.348 65.3345 103.301C65.3412 103.247 65.3614 103.147 65.3951 103.002C65.4873 102.447 65.8028 102.155 66.3415 102.127L66.6119 102.137C66.7931 102.135 66.9393 102.098 67.0507 102.026C67.163 101.945 67.2524 101.826 67.319 101.669C67.5054 101.243 67.6923 100.814 67.8796 100.38C68.067 99.947 68.2616 99.5184 68.4635 99.0946C68.5717 98.8561 68.6818 98.602 68.7938 98.3325C68.9145 98.0561 69.0386 97.7841 69.1661 97.5165C69.3014 97.2498 69.4478 96.9884 69.6054 96.7324C69.7707 96.4773 69.9486 96.2473 70.1392 96.0426C70.2205 95.9582 70.3294 95.8732 70.4659 95.7877C70.6024 95.7023 70.753 95.6303 70.9176 95.5719C71.091 95.5068 71.2697 95.4619 71.4538 95.4374C71.6466 95.4061 71.8321 95.4015 72.0105 95.4235C72.2431 95.4522 72.4627 95.5541 72.6694 95.7292C72.9459 95.9759 73.2133 96.2648 73.4716 96.5958C73.7298 96.9268 74.0129 97.3436 74.3208 97.846C74.6288 98.3485 74.9829 98.955 75.3832 99.6657C75.7844 100.369 76.2658 101.219 76.8274 102.217C76.9139 102.346 77.0075 102.448 77.1084 102.524C77.218 102.592 77.3504 102.636 77.5054 102.655L78.1684 102.737C78.4397 102.771 78.6409 102.863 78.772 103.013C78.9117 103.156 78.9677 103.34 78.94 103.565C78.9342 103.611 78.9236 103.665 78.9082 103.726C78.9006 103.788 78.8813 103.849 78.8504 103.908L78.549 104.532C78.5258 104.592 78.5075 104.645 78.494 104.69C78.4805 104.736 78.4708 104.782 78.4651 104.828C78.445 104.991 78.4787 105.165 78.5662 105.349L79.6009 107.2C79.7146 107.427 79.76 107.633 79.737 107.819C79.7026 108.098 79.5134 108.323 79.1697 108.493L78.689 108.753C78.5718 108.809 78.4604 108.85 78.3548 108.877C78.257 108.904 78.1577 108.911 78.0569 108.899C77.9173 108.882 77.7908 108.823 77.6773 108.722C77.5705 108.63 77.4715 108.508 77.3802 108.355C77.0731 107.782 76.7612 107.216 76.4445 106.657C76.1355 106.099 75.8183 105.545 75.4929 104.993C75.3452 104.723 75.124 104.569 74.8294 104.533C73.8786 104.455 72.9337 104.393 71.9947 104.348C71.0644 104.296 70.1282 104.259 69.1863 104.238C68.8491 104.227 68.6177 104.38 68.4922 104.695L67.7319 106.549C67.5291 107.044 67.1874 107.261 66.7066 107.202L66.5205 107.179L66.1657 107.088C65.905 107.032 65.7135 106.926 65.5911 106.769C65.4765 106.613 65.4331 106.423 65.4609 106.198C65.4667 106.152 65.4768 106.102 65.4912 106.048C65.5057 105.995 65.5245 105.938 65.5476 105.878C65.6056 105.728 65.664 105.574 65.7228 105.416C65.7895 105.259 65.8556 105.105 65.9213 104.956C65.9445 104.896 65.9628 104.843 65.9763 104.798C65.9907 104.744 66.0008 104.694 66.0066 104.648C66.0363 104.407 65.9581 104.276 65.772 104.253L65.6208 104.234ZM71.9152 98.777C71.8463 98.6976 71.7837 98.6308 71.7274 98.5766C71.6711 98.5225 71.6081 98.4911 71.5383 98.4825C71.3444 98.4585 71.192 98.5774 71.0809 98.8392C70.8694 99.2776 70.6622 99.7125 70.4593 100.144C70.2652 100.569 70.0657 101.005 69.861 101.452C69.8407 101.488 69.8286 101.522 69.8248 101.553C69.8209 101.584 69.8166 101.619 69.8118 101.658C69.7764 101.945 69.9099 102.107 70.2123 102.144L70.3286 102.159C70.8015 102.154 71.2724 102.165 71.7415 102.192C72.2115 102.21 72.6805 102.237 73.1486 102.271C73.3056 102.275 73.4306 102.251 73.5235 102.199C73.6252 102.141 73.6827 102.057 73.6961 101.949C73.7086 101.848 73.6769 101.722 73.6011 101.571C73.329 101.097 73.0522 100.629 72.7705 100.17C72.4975 99.703 72.2124 99.2387 71.9152 98.777ZM82.987 102.825C82.9467 103.15 82.9206 103.489 82.9085 103.842C82.8965 104.195 82.8883 104.548 82.8839 104.902C82.8874 105.256 82.8826 105.614 82.8695 105.975C82.8575 106.327 82.8304 106.674 82.7882 107.015C82.7413 107.395 82.5712 107.689 82.2779 107.897C81.9856 108.097 81.6184 108.17 81.1765 108.115C80.9594 108.088 80.762 107.997 80.5845 107.841C80.4147 107.687 80.3358 107.464 80.348 107.175C80.3542 106.805 80.3657 106.393 80.3825 105.939C80.408 105.478 80.4349 105.005 80.4632 104.52C80.5003 104.029 80.5374 103.538 80.5744 103.046C80.6124 102.547 80.6515 102.072 80.6915 101.62C80.7325 101.161 80.7725 100.741 80.8117 100.36C80.8518 99.971 80.8882 99.6449 80.9207 99.3813C80.9494 99.1487 80.9922 98.9296 81.0491 98.7241C81.106 98.5186 81.1944 98.3445 81.3143 98.2019C81.4343 98.0593 81.5853 97.952 81.7673 97.88C81.9572 97.809 82.1994 97.7916 82.494 97.828C82.7189 97.8558 82.9608 97.9683 83.2198 98.1656C83.4798 98.3552 83.752 98.6052 84.0364 98.9159C84.3285 99.2275 84.6348 99.5841 84.9552 99.9858C85.2765 100.38 85.6071 100.794 85.9469 101.23C86.2867 101.666 86.6333 102.11 86.9867 102.563C87.3488 103.009 87.7172 103.436 88.0918 103.845C88.2578 104.03 88.4437 104.246 88.6495 104.492C88.863 104.739 89.0819 104.974 89.3061 105.199C89.538 105.424 89.7694 105.622 90.0003 105.792C90.2399 105.956 90.476 106.052 90.7086 106.081C90.9257 106.107 91.0768 106.032 91.1618 105.853C91.2555 105.668 91.3282 105.366 91.3799 104.947C91.4182 104.637 91.4385 104.25 91.4407 103.786C91.4507 103.323 91.4412 102.826 91.4123 102.295C91.3834 101.764 91.3313 101.23 91.2558 100.693C91.1814 100.148 91.0818 99.6481 90.9571 99.1919C90.9298 99.0941 90.902 99.0001 90.8738 98.9101C90.8543 98.8132 90.8512 98.7105 90.8646 98.6019C90.8867 98.4236 90.9644 98.2718 91.098 98.1466C91.2315 98.0214 91.3854 97.9223 91.5598 97.8494C91.7341 97.7765 91.9133 97.7278 92.0973 97.7033C92.2824 97.671 92.433 97.6621 92.5493 97.6764C92.8052 97.708 93.0167 97.8758 93.1838 98.1798C93.3519 98.4761 93.4823 98.8543 93.5751 99.3145C93.6765 99.7678 93.7437 100.276 93.7765 100.839C93.8103 101.394 93.8242 101.951 93.8182 102.509C93.82 103.068 93.8014 103.601 93.7625 104.108C93.7322 104.608 93.6965 105.025 93.6553 105.358C93.5777 105.986 93.4822 106.537 93.3685 107.011C93.2636 107.478 93.1096 107.865 92.9066 108.17C92.7113 108.477 92.4519 108.697 92.1285 108.83C91.806 108.955 91.3927 108.987 90.8887 108.925C90.4855 108.875 90.073 108.741 89.6512 108.524C89.2303 108.299 88.8083 108.019 88.3853 107.683C87.9711 107.341 87.5538 106.958 87.1336 106.537C86.7211 106.116 86.3183 105.68 85.9252 105.23C85.5321 104.78 85.1506 104.332 84.7807 103.884C84.4186 103.438 84.0803 103.023 83.7658 102.637C83.6366 102.472 83.51 102.381 83.386 102.366C83.2774 102.353 83.1864 102.389 83.1129 102.474C83.0481 102.553 83.0061 102.669 82.987 102.825ZM101.49 98.8041C101.666 98.7234 101.841 98.6742 102.016 98.6565C102.192 98.6388 102.353 98.6391 102.5 98.6573C102.694 98.6812 102.864 98.7376 103.011 98.8266C103.158 98.9077 103.28 99.0054 103.376 99.1196C103.472 99.2338 103.539 99.3602 103.577 99.4987C103.624 99.6304 103.64 99.7583 103.624 99.8824C103.603 100.053 103.525 100.209 103.389 100.349C103.262 100.491 103.09 100.604 102.875 100.687C102.443 100.87 102.082 101.026 101.79 101.155C101.499 101.285 101.248 101.403 101.038 101.511C100.836 101.62 100.657 101.724 100.503 101.823C100.35 101.922 100.194 102.033 100.037 102.155C99.8128 102.316 99.5926 102.506 99.3768 102.723C99.1611 102.94 98.9647 103.16 98.7877 103.382C98.6194 103.598 98.4753 103.808 98.3555 104.014C98.2434 104.22 98.1787 104.394 98.1615 104.533C98.1471 104.649 98.1666 104.746 98.2201 104.824C98.2735 104.901 98.3583 104.947 98.4746 104.961C98.5987 104.977 98.7396 104.951 98.8975 104.884C99.403 104.679 99.9284 104.503 100.474 104.358C101.027 104.214 101.58 104.101 102.133 104.02C102.686 103.939 103.235 103.896 103.778 103.892C104.323 103.881 104.847 103.906 105.351 103.969C106.15 104.067 106.872 104.247 107.516 104.508C108.162 104.76 108.706 105.072 109.149 105.441C109.591 105.811 109.917 106.233 110.126 106.707C110.336 107.174 110.409 107.667 110.345 108.187C110.273 108.768 110.037 109.306 109.638 109.8C109.238 110.293 108.723 110.706 108.092 111.037C107.46 111.369 106.734 111.606 105.914 111.749C105.093 111.891 104.225 111.906 103.311 111.793C102.093 111.643 100.993 111.377 100.008 110.996C99.031 110.623 98.2057 110.167 97.5324 109.627C96.8669 109.088 96.3708 108.484 96.0442 107.814C95.7263 107.137 95.6134 106.426 95.7053 105.682C95.7962 104.946 95.9861 104.237 96.2748 103.556C96.5722 102.869 96.9618 102.232 97.4435 101.646C97.9339 101.053 98.5155 100.519 99.1883 100.043C99.862 99.5595 100.629 99.1465 101.49 98.8041ZM107.957 108.305C107.989 108.041 107.934 107.79 107.79 107.552C107.654 107.315 107.444 107.1 107.161 106.908C106.885 106.716 106.54 106.552 106.124 106.414C105.716 106.277 105.256 106.177 104.744 106.113C103.775 105.994 102.808 106.012 101.844 106.169C100.889 106.318 99.9732 106.595 99.0969 106.998C98.8877 107.098 98.7721 107.238 98.7501 107.416C98.7348 107.54 98.7888 107.677 98.912 107.826C99.0363 107.967 99.2114 108.111 99.4374 108.257C99.6634 108.403 99.9325 108.55 100.245 108.699C100.557 108.847 100.891 108.983 101.245 109.106C101.6 109.228 101.969 109.337 102.351 109.431C102.733 109.525 103.11 109.596 103.482 109.642C104.079 109.715 104.639 109.737 105.162 109.707C105.694 109.671 106.16 109.594 106.56 109.479C106.969 109.356 107.296 109.196 107.541 108.997C107.785 108.799 107.924 108.569 107.957 108.305ZM111.454 109.339C111.431 109.336 111.391 109.335 111.336 109.336C111.289 109.338 111.233 109.339 111.171 109.339C111.115 109.34 111.06 109.342 111.005 109.343C110.95 109.344 110.906 109.342 110.875 109.338C110.658 109.312 110.479 109.199 110.339 109.001C110.199 108.794 110.147 108.54 110.185 108.238C110.21 108.036 110.3 107.85 110.454 107.681C110.609 107.511 110.834 107.381 111.128 107.291C111.218 107.263 111.289 107.229 111.342 107.188C111.403 107.14 111.439 107.07 111.45 106.977C111.481 106.729 111.506 106.464 111.525 106.183C111.552 105.895 111.578 105.56 111.602 105.177C111.604 105.099 111.586 105.022 111.548 104.946C111.518 104.872 111.481 104.788 111.437 104.696C111.402 104.598 111.372 104.492 111.346 104.378C111.321 104.265 111.318 104.127 111.338 103.964C111.357 103.817 111.397 103.652 111.458 103.471C111.529 103.283 111.64 103.116 111.792 102.969C111.952 102.816 112.16 102.7 112.413 102.621C112.676 102.535 113.005 102.517 113.4 102.566C113.563 102.586 113.697 102.618 113.802 102.662C113.906 102.707 113.995 102.757 114.066 102.813C114.147 102.862 114.216 102.906 114.274 102.945C114.34 102.985 114.408 103.009 114.478 103.017C114.602 103.033 114.853 103.04 115.231 103.04C115.609 103.039 116.063 103.028 116.593 103.007C117.131 102.987 117.72 102.961 118.362 102.93C119.011 102.9 119.669 102.863 120.335 102.82C121.003 102.768 121.655 102.715 122.292 102.66C122.928 102.605 123.506 102.546 124.026 102.484C124.185 102.465 124.323 102.462 124.44 102.476C124.603 102.497 124.726 102.551 124.809 102.64C124.901 102.722 124.964 102.821 124.997 102.935C125.03 103.049 125.042 103.177 125.033 103.317C125.032 103.451 125.024 103.576 125.01 103.692C124.985 103.894 124.892 104.075 124.73 104.236C124.577 104.391 124.34 104.499 124.017 104.561C123.222 104.692 122.422 104.793 121.618 104.867C120.822 104.934 120.02 104.989 119.212 105.031C118.405 105.065 117.596 105.087 116.784 105.097C115.972 105.107 115.163 105.117 114.359 105.128C114.249 105.13 114.162 105.163 114.099 105.226C114.037 105.281 113.999 105.363 113.986 105.472L113.927 105.949C113.911 106.08 113.898 106.217 113.889 106.357C113.879 106.498 113.879 106.627 113.888 106.747C113.904 106.867 113.931 106.968 113.968 107.052C114.006 107.127 114.064 107.17 114.141 107.179C114.327 107.202 114.619 107.199 115.016 107.169C115.421 107.141 115.875 107.102 116.377 107.054C116.887 106.999 117.418 106.939 117.969 106.873C118.529 106.8 119.056 106.739 119.551 106.69C120.046 106.633 120.48 106.589 120.854 106.556C121.228 106.524 121.489 106.516 121.636 106.535C121.853 106.561 122.006 106.663 122.094 106.839C122.192 107.009 122.245 107.216 122.254 107.461C122.249 107.5 122.249 107.535 122.253 107.567C122.256 107.599 122.256 107.634 122.251 107.673C122.223 107.898 122.128 108.099 121.964 108.275C121.81 108.445 121.552 108.555 121.192 108.605C121.095 108.625 120.902 108.652 120.615 108.687C120.328 108.715 119.989 108.752 119.597 108.798C119.207 108.836 118.784 108.878 118.33 108.925C117.876 108.971 117.429 109.018 116.99 109.066C116.552 109.107 116.141 109.15 115.758 109.197C115.383 109.238 115.076 109.271 114.836 109.296C114.62 109.325 114.487 109.351 114.437 109.377C114.394 109.403 114.37 109.439 114.364 109.486C114.359 109.658 114.424 109.828 114.561 109.994C114.706 110.162 114.891 110.322 115.116 110.476C115.348 110.631 115.61 110.777 115.9 110.915C116.197 111.054 116.505 111.179 116.822 111.289C117.148 111.392 117.467 111.483 117.78 111.561C118.093 111.639 118.385 111.695 118.657 111.728C118.773 111.742 118.94 111.763 119.157 111.79C119.374 111.817 119.611 111.842 119.868 111.866C120.133 111.883 120.403 111.897 120.678 111.907C120.96 111.918 121.211 111.918 121.433 111.906C121.664 111.887 121.853 111.855 122 111.81C122.156 111.759 122.24 111.686 122.251 111.593C122.262 111.508 122.242 111.415 122.191 111.314C122.148 111.215 122.134 111.11 122.147 111.002C122.166 110.847 122.228 110.701 122.331 110.564C122.436 110.42 122.561 110.297 122.707 110.197C122.862 110.09 123.029 110.013 123.208 109.964C123.396 109.908 123.579 109.892 123.758 109.914C123.982 109.942 124.182 110.013 124.357 110.129C124.532 110.238 124.677 110.374 124.79 110.537C124.913 110.694 124.997 110.87 125.044 111.064C125.099 111.26 125.114 111.455 125.09 111.649C125.027 112.16 124.782 112.579 124.356 112.904C123.938 113.23 123.412 113.476 122.778 113.642C122.142 113.815 121.437 113.913 120.663 113.936C119.888 113.966 119.117 113.934 118.349 113.839C117.45 113.728 116.635 113.564 115.906 113.349C115.176 113.14 114.533 112.868 113.976 112.532C113.419 112.195 112.954 111.791 112.579 111.32C112.205 110.841 111.92 110.282 111.723 109.644C111.652 109.454 111.562 109.352 111.454 109.339ZM36.6063 113.341C36.5443 113.333 36.4222 113.334 36.24 113.343C36.0666 113.345 35.8611 113.351 35.6238 113.361C35.3864 113.371 35.1364 113.387 34.8738 113.41C34.6122 113.425 34.3666 113.438 34.1369 113.449C33.9073 113.46 33.7091 113.471 33.5425 113.482C33.369 113.484 33.2552 113.482 33.2009 113.475C32.6814 113.411 32.4552 113.108 32.5222 112.565C32.5404 112.417 32.5736 112.276 32.6218 112.14C32.6633 111.996 32.7261 111.87 32.8102 111.762C32.8953 111.647 33.0013 111.553 33.1281 111.482C33.255 111.411 33.4095 111.372 33.5916 111.363C34.516 111.335 35.4375 111.299 36.3561 111.255C37.2747 111.211 38.202 111.16 39.1379 111.103C39.3443 111.089 39.5308 111.077 39.6975 111.066C39.8651 111.047 40.0535 111.019 40.2628 110.982C40.4876 110.947 40.7312 110.918 40.9938 110.895C41.2573 110.865 41.5199 110.842 41.7815 110.827C42.0509 110.813 42.3077 110.805 42.5518 110.804C42.8038 110.804 43.0306 110.816 43.2322 110.841C43.4803 110.872 43.6563 110.976 43.7603 111.154C43.8729 111.325 43.9115 111.555 43.8761 111.841C43.8579 111.989 43.8286 112.131 43.7881 112.267C43.7485 112.396 43.6911 112.511 43.6156 112.612C43.5402 112.713 43.4439 112.792 43.3267 112.848C43.2095 112.904 43.0647 112.93 42.8922 112.924C42.4426 112.932 41.9601 112.951 41.4446 112.982C40.9301 113.005 40.48 113.048 40.0944 113.11C39.9336 113.138 39.8078 113.201 39.7168 113.3C39.6268 113.391 39.5606 113.513 39.5182 113.665C39.4768 113.809 39.4426 113.959 39.4157 114.113C39.3975 114.26 39.3798 114.403 39.3625 114.543C39.3223 114.869 39.2938 115.196 39.2768 115.524C39.2676 115.854 39.2545 116.183 39.2376 116.511C39.1695 117.636 39.1377 118.754 39.1423 119.865C39.1546 120.976 39.1771 122.101 39.2098 123.238C39.2205 123.279 39.2235 123.319 39.2187 123.357C39.2139 123.396 39.2091 123.435 39.2043 123.474C39.1517 123.9 38.874 124.173 38.3712 124.292L37.8278 124.39C37.6824 124.419 37.5439 124.426 37.4121 124.41C37.2105 124.385 37.0558 124.299 36.948 124.152C36.8393 124.012 36.7808 123.816 36.7727 123.563C36.7203 122.203 36.6941 120.853 36.694 119.515C36.6949 118.169 36.7549 116.823 36.874 115.476C36.8853 115.256 36.9029 115.019 36.9268 114.762C36.9506 114.505 36.9793 114.241 37.0128 113.969C37.0597 113.59 36.9242 113.38 36.6063 113.341ZM50.865 115.963C50.8756 115.878 50.872 115.748 50.8543 115.572C50.8366 115.397 50.814 115.197 50.7865 114.974C50.76 114.742 50.7272 114.498 50.688 114.241C50.6498 113.977 50.6185 113.721 50.5939 113.474C50.5693 113.227 50.5505 112.996 50.5376 112.782C50.5247 112.568 50.5268 112.391 50.5441 112.252C50.5661 112.073 50.6342 111.936 50.7484 111.84C50.8636 111.736 51.0025 111.663 51.1652 111.62C51.328 111.577 51.4999 111.555 51.6812 111.554C51.8624 111.552 52.0344 111.562 52.1972 111.582C52.3988 111.607 52.5855 111.689 52.7572 111.828C52.9376 111.961 53.045 112.175 53.0794 112.47C53.1273 112.783 53.1593 113.098 53.1753 113.415C53.1999 113.725 53.2174 114.03 53.2275 114.33C53.2386 114.623 53.2468 114.907 53.252 115.184C53.265 115.461 53.2804 115.719 53.2982 115.957C53.3218 116.149 53.3617 116.303 53.4181 116.42C53.4822 116.538 53.5609 116.635 53.654 116.709C53.7559 116.777 53.864 116.826 53.9784 116.856C54.1005 116.886 54.2314 116.91 54.3709 116.928C54.526 116.947 54.6946 116.952 54.8768 116.943C55.0589 116.934 55.2353 116.94 55.4059 116.961C55.5144 116.974 55.6167 117.007 55.7127 117.058C55.8175 117.102 55.9067 117.176 55.9805 117.28C56.0553 117.376 56.1063 117.504 56.1337 117.665C56.1688 117.827 56.1716 118.028 56.1419 118.268C56.117 118.47 56.0571 118.636 55.9624 118.765C55.8686 118.888 55.7102 118.959 55.4874 118.978L55.0572 119.02C54.9225 119.027 54.7961 119.031 54.6779 119.032C54.5683 119.026 54.4273 119.021 54.2548 119.015C53.8856 119.009 53.6838 119.145 53.6493 119.424C53.6465 119.448 53.649 119.554 53.6571 119.744C53.6651 119.934 53.6752 120.172 53.6872 120.456C53.708 120.735 53.7288 121.044 53.7496 121.385C53.7715 121.718 53.7908 122.04 53.8078 122.349C53.8325 122.659 53.8532 122.937 53.8701 123.183C53.8879 123.421 53.9022 123.592 53.913 123.696C53.9307 123.871 53.9454 124.007 53.9572 124.103C53.969 124.199 53.9648 124.328 53.9447 124.491C53.9294 124.615 53.8792 124.735 53.7941 124.85C53.7099 124.958 53.5923 125.05 53.4413 125.126C53.298 125.202 53.126 125.256 52.9255 125.286C52.724 125.324 52.4992 125.328 52.2511 125.297C51.9797 125.264 51.792 125.158 51.6881 124.98C51.5928 124.795 51.5354 124.591 51.5156 124.368C51.4646 123.953 51.4189 123.526 51.3786 123.088C51.3459 122.651 51.3128 122.218 51.2792 121.789C51.2534 121.36 51.2261 120.944 51.1974 120.539C51.1774 120.127 51.1589 119.735 51.1419 119.363C51.1242 119.187 51.0697 119.055 50.9785 118.965C50.8882 118.867 50.7656 118.809 50.6105 118.789C50.0833 118.724 49.5497 118.678 49.01 118.651C48.4789 118.617 47.956 118.58 47.4414 118.54C47.2612 118.533 47.1144 118.574 47.0012 118.663C46.8879 118.751 46.8213 118.876 46.8012 119.039C46.7562 119.404 46.7155 119.765 46.6792 120.122C46.6429 120.48 46.6018 120.845 46.5559 121.217C46.5032 121.644 46.4413 122.081 46.3703 122.528C46.307 122.977 46.2379 123.409 46.1629 123.825C46.1283 123.978 46.0659 124.101 45.976 124.192C45.8937 124.284 45.7906 124.354 45.6667 124.402C45.5505 124.45 45.4173 124.477 45.2671 124.482C45.1246 124.488 44.9798 124.482 44.8324 124.464C44.468 124.419 44.1927 124.322 44.0064 124.173C43.8192 124.032 43.7433 123.818 43.7787 123.531C43.8323 123.097 43.9 122.645 43.9816 122.174C44.0633 121.704 44.1338 121.229 44.1932 120.748C44.2334 120.423 44.2683 120.108 44.2979 119.805C44.3284 119.494 44.3638 119.175 44.404 118.85C44.4222 118.702 44.4007 118.589 44.3395 118.511C44.2871 118.426 44.2172 118.354 44.1299 118.296C44.0426 118.238 43.9432 118.183 43.8317 118.129C43.7211 118.069 43.6246 117.99 43.5421 117.893C43.4596 117.796 43.3935 117.662 43.3438 117.491C43.3019 117.32 43.2986 117.091 43.3341 116.805C43.3532 116.65 43.3952 116.533 43.46 116.454C43.5335 116.369 43.6163 116.304 43.7083 116.26C43.808 116.218 43.9102 116.187 44.0148 116.168C44.1204 116.142 44.2192 116.107 44.3112 116.063C44.4109 116.021 44.4927 115.964 44.5566 115.893C44.6291 115.815 44.675 115.699 44.6941 115.544C44.7056 115.451 44.7152 115.342 44.7227 115.217C44.7313 115.084 44.7388 114.959 44.7454 114.842C44.752 114.724 44.7567 114.623 44.7595 114.536C44.7632 114.442 44.767 114.38 44.7709 114.349C44.8034 114.085 44.8642 113.88 44.9531 113.734C45.0507 113.581 45.1586 113.472 45.2767 113.408C45.3958 113.336 45.5227 113.296 45.6574 113.289C45.8008 113.276 45.9345 113.276 46.0586 113.292C46.5238 113.349 46.8345 113.478 46.9909 113.678C47.1559 113.872 47.2256 114.136 47.1999 114.472L47.0956 115.699C47.0881 115.887 47.1208 116.036 47.1937 116.148C47.2675 116.251 47.4013 116.315 47.5951 116.339L50.2467 116.572C50.4735 116.584 50.6246 116.54 50.7 116.439C50.7832 116.339 50.8382 116.181 50.865 115.963ZM57.3987 122.816C57.3754 122.813 57.3362 122.812 57.2809 122.813C57.2335 122.815 57.1782 122.816 57.1153 122.816C57.06 122.817 57.0048 122.818 56.9496 122.819C56.8943 122.82 56.8512 122.819 56.8202 122.815C56.6031 122.788 56.4241 122.676 56.2833 122.477C56.1435 122.271 56.0922 122.017 56.1296 121.714C56.1545 121.513 56.2443 121.327 56.3991 121.157C56.5539 120.988 56.7785 120.858 57.073 120.768C57.163 120.74 57.2342 120.706 57.2865 120.665C57.3474 120.617 57.3837 120.547 57.3952 120.454C57.4258 120.206 57.4506 119.941 57.4696 119.66C57.4972 119.372 57.5229 119.037 57.5466 118.654C57.5484 118.576 57.5303 118.499 57.4924 118.423C57.4623 118.349 57.4253 118.265 57.3816 118.173C57.3466 118.074 57.3164 117.968 57.291 117.855C57.2656 117.742 57.263 117.604 57.2831 117.441C57.3013 117.293 57.3413 117.129 57.403 116.948C57.4735 116.76 57.5847 116.592 57.7366 116.446C57.8972 116.293 58.1044 116.176 58.3582 116.098C58.6207 116.012 58.9496 115.994 59.3451 116.042C59.5079 116.062 59.6417 116.095 59.7464 116.139C59.8511 116.184 59.9394 116.234 60.0111 116.29C60.0916 116.339 60.161 116.383 60.2192 116.422C60.2851 116.461 60.353 116.486 60.4228 116.494C60.5469 116.51 60.7978 116.517 61.1758 116.516C61.5537 116.516 62.0076 116.505 62.5377 116.484C63.0755 116.464 63.6651 116.438 64.3065 116.407C64.9557 116.377 65.6136 116.34 66.2802 116.297C66.9478 116.245 67.5999 116.192 68.2365 116.137C68.873 116.081 69.451 116.023 69.9703 115.961C70.1301 115.941 70.2682 115.939 70.3845 115.953C70.5473 115.973 70.6705 116.028 70.754 116.117C70.8461 116.199 70.9088 116.297 70.9419 116.412C70.975 116.526 70.9868 116.653 70.9774 116.794C70.9766 116.928 70.969 117.053 70.9547 117.169C70.9298 117.371 70.8365 117.552 70.6749 117.713C70.5221 117.867 70.2843 117.976 69.9617 118.038C69.1664 118.168 68.3666 118.27 67.5624 118.344C66.7669 118.411 65.9652 118.466 65.157 118.508C64.3499 118.542 63.5403 118.564 62.7283 118.574C61.9163 118.584 61.1081 118.594 60.3038 118.605C60.1934 118.607 60.1067 118.64 60.0438 118.703C59.9819 118.758 59.9442 118.84 59.9308 118.949L59.8719 119.425C59.8556 119.557 59.8428 119.693 59.8333 119.834C59.8238 119.974 59.8235 120.104 59.8324 120.223C59.8491 120.344 59.8759 120.445 59.9128 120.529C59.9507 120.604 60.0084 120.647 60.086 120.656C60.272 120.679 60.5637 120.676 60.961 120.646C61.366 120.617 61.8194 120.579 62.3213 120.531C62.8319 120.476 63.3628 120.415 63.9141 120.35C64.4741 120.277 65.0012 120.216 65.4953 120.167C65.9904 120.11 66.4249 120.065 66.7989 120.033C67.1729 120 67.4336 119.993 67.5809 120.011C67.798 120.038 67.9507 120.14 68.0392 120.316C68.1363 120.485 68.1895 120.693 68.1986 120.938C68.1938 120.977 68.1933 121.012 68.1973 121.044C68.2012 121.076 68.2007 121.111 68.196 121.15C68.1682 121.375 68.0726 121.576 67.9091 121.752C67.7543 121.922 67.4967 122.032 67.1363 122.082C67.0394 122.101 66.8471 122.129 66.5593 122.164C66.2726 122.192 65.9334 122.228 65.542 122.275C65.1516 122.313 64.7291 122.355 64.2747 122.401C63.8203 122.448 63.3737 122.495 62.9348 122.543C62.4969 122.583 62.0861 122.627 61.7024 122.674C61.3274 122.715 61.0203 122.747 60.781 122.773C60.5649 122.801 60.4317 122.828 60.3814 122.854C60.3388 122.88 60.3146 122.916 60.3089 122.963C60.3033 123.135 60.369 123.305 60.5059 123.471C60.6505 123.639 60.8353 123.799 61.0604 123.953C61.2932 124.108 61.5545 124.254 61.8445 124.392C62.1422 124.531 62.4496 124.656 62.7666 124.766C63.0923 124.869 63.4118 124.96 63.7249 125.038C64.038 125.116 64.3302 125.171 64.6016 125.205C64.7179 125.219 64.8846 125.24 65.1017 125.267C65.3188 125.293 65.5558 125.319 65.8126 125.343C66.0781 125.36 66.348 125.373 66.6223 125.384C66.9043 125.395 67.1562 125.394 67.3781 125.382C67.6087 125.364 67.7976 125.332 67.9449 125.287C68.1008 125.235 68.1845 125.163 68.196 125.07C68.2065 124.985 68.1865 124.892 68.136 124.791C68.0932 124.691 68.0785 124.587 68.0919 124.479C68.1111 124.324 68.1724 124.178 68.2759 124.041C68.3803 123.896 68.5056 123.774 68.6518 123.674C68.8067 123.567 68.9737 123.489 69.1529 123.441C69.3408 123.385 69.5239 123.368 69.7023 123.391C69.9271 123.418 70.1268 123.49 70.3014 123.606C70.477 123.714 70.6216 123.85 70.7352 124.014C70.8575 124.171 70.9421 124.347 70.9889 124.541C71.0434 124.737 71.0588 124.932 71.0348 125.126C70.9716 125.637 70.7271 126.056 70.3012 126.381C69.8831 126.707 69.3568 126.953 68.7223 127.119C68.0869 127.292 67.3821 127.39 66.6079 127.413C65.8327 127.443 65.0613 127.411 64.2937 127.316C63.3943 127.205 62.58 127.041 61.851 126.825C61.121 126.617 60.4777 126.345 59.921 126.008C59.3642 125.672 58.8985 125.268 58.5238 124.797C58.15 124.318 57.8647 123.759 57.668 123.121C57.597 122.931 57.5072 122.829 57.3987 122.816ZM79.5575 123.616C79.5001 124.081 79.5589 124.529 79.734 124.96C79.9178 125.384 80.1771 125.77 80.5119 126.119C80.8477 126.459 81.2454 126.745 81.7051 126.974C82.1657 127.197 82.648 127.339 83.152 127.401C83.307 127.42 83.4674 127.428 83.6331 127.425C83.7998 127.414 83.9533 127.382 84.0937 127.329C84.2342 127.275 84.3537 127.199 84.4524 127.101C84.5521 126.995 84.6124 126.857 84.6335 126.687C84.6737 126.361 84.5971 126.025 84.4038 125.678C84.2182 125.333 83.9585 124.982 83.6246 124.626C83.2917 124.262 82.904 123.895 82.4616 123.526C82.0201 123.148 81.5704 122.774 81.1125 122.403C80.6545 122.031 80.2044 121.661 79.7619 121.291C79.3205 120.914 78.9328 120.547 78.5989 120.191C78.266 119.827 78.0029 119.472 77.8095 119.125C77.6249 118.772 77.5527 118.432 77.5929 118.107C77.6312 117.797 77.7441 117.519 77.9318 117.275C78.1281 117.024 78.3715 116.806 78.6619 116.621C78.9524 116.437 79.2826 116.281 79.6525 116.153C80.0225 116.026 80.4046 115.927 80.7989 115.858C81.1932 115.788 81.5837 115.75 81.9703 115.743C82.3657 115.728 82.7378 115.743 83.0867 115.786C83.3426 115.818 83.6207 115.86 83.9212 115.913C84.2304 115.959 84.513 116.029 84.7689 116.124C85.0336 116.211 85.2479 116.325 85.4119 116.463C85.5759 116.601 85.6445 116.779 85.6176 116.996C85.609 117.066 85.5864 117.153 85.5497 117.259C85.514 117.357 85.427 117.52 85.2888 117.746C85.1525 117.958 85.0035 118.113 84.8418 118.211C84.6888 118.302 84.4999 118.334 84.2751 118.306C83.9572 118.267 83.6242 118.19 83.2762 118.077C82.9368 117.956 82.5888 117.874 82.2322 117.83C82.0383 117.806 81.8392 117.793 81.6347 117.791C81.4389 117.783 81.2563 117.796 81.0868 117.83C80.9182 117.856 80.7773 117.914 80.664 118.002C80.5518 118.083 80.4865 118.196 80.4683 118.344C80.4501 118.491 80.5342 118.671 80.7206 118.883C80.9147 119.096 81.1723 119.336 81.4935 119.604C81.8224 119.873 82.1949 120.171 82.6111 120.498C83.0283 120.817 83.4503 121.16 83.8772 121.528C84.3129 121.889 84.734 122.271 85.1406 122.676C85.5482 123.072 85.9025 123.486 86.2036 123.917C86.5133 124.341 86.7465 124.779 86.9032 125.231C87.0676 125.684 87.1216 126.14 87.0651 126.597C86.9962 127.156 86.8075 127.632 86.4989 128.027C86.1904 128.422 85.8168 128.738 85.3782 128.975C84.9396 129.212 84.4674 129.37 83.9617 129.449C83.4551 129.536 82.9691 129.551 82.5039 129.494C82.0309 129.435 81.5574 129.318 81.0833 129.141C80.6159 128.973 80.1704 128.757 79.7465 128.492C79.3217 128.235 78.9293 127.938 78.5693 127.603C78.218 127.26 77.9209 126.893 77.6781 126.501C77.4362 126.101 77.2558 125.681 77.1369 125.241C77.0258 124.803 76.9985 124.354 77.055 123.897C77.0789 123.703 77.1145 123.511 77.1617 123.32C77.2176 123.122 77.2895 122.954 77.3775 122.815C77.4664 122.669 77.5787 122.557 77.7142 122.479C77.8507 122.393 78.0159 122.363 78.2097 122.387C78.2718 122.394 78.3406 122.411 78.4162 122.436C78.4928 122.453 78.6242 122.505 78.8104 122.591C79.0266 122.688 79.2104 122.825 79.3619 123.001C79.522 123.17 79.5872 123.375 79.5575 123.616ZM90.9203 120.048C90.8583 120.04 90.7362 120.041 90.554 120.05C90.3806 120.052 90.1752 120.058 89.9378 120.068C89.7004 120.078 89.4504 120.095 89.1878 120.117C88.9262 120.132 88.6806 120.145 88.4509 120.156C88.2213 120.167 88.0231 120.178 87.8565 120.189C87.683 120.191 87.5692 120.189 87.5149 120.182C86.9954 120.118 86.7692 119.815 86.8362 119.272C86.8544 119.125 86.8876 118.983 86.9358 118.847C86.9773 118.703 87.0401 118.577 87.1242 118.469C87.2093 118.354 87.3153 118.26 87.4422 118.19C87.569 118.119 87.7235 118.079 87.9056 118.07C88.8301 118.042 89.7515 118.006 90.6701 117.962C91.5887 117.918 92.516 117.868 93.4519 117.81C93.6583 117.796 93.8448 117.784 94.0115 117.773C94.1791 117.754 94.3675 117.726 94.5768 117.689C94.8016 117.654 95.0452 117.625 95.3078 117.602C95.5713 117.572 95.8339 117.549 96.0955 117.534C96.3649 117.52 96.6217 117.513 96.8659 117.511C97.1178 117.511 97.3446 117.523 97.5462 117.548C97.7943 117.579 97.9703 117.683 98.0743 117.861C98.1869 118.033 98.2255 118.262 98.1901 118.549C98.1719 118.696 98.1426 118.838 98.1021 118.975C98.0625 119.103 98.0051 119.218 97.9296 119.319C97.8542 119.42 97.7579 119.499 97.6407 119.555C97.5236 119.612 97.3787 119.637 97.2062 119.631C96.7566 119.639 96.2741 119.658 95.7586 119.689C95.2441 119.712 94.794 119.755 94.4085 119.817C94.2476 119.845 94.1218 119.908 94.0308 120.007C93.9408 120.098 93.8746 120.22 93.8322 120.372C93.7908 120.516 93.7566 120.666 93.7297 120.82C93.7115 120.967 93.6938 121.111 93.6766 121.25C93.6363 121.576 93.6078 121.903 93.5908 122.231C93.5816 122.561 93.5685 122.89 93.5516 123.218C93.4835 124.343 93.4517 125.461 93.4563 126.572C93.4686 127.683 93.4911 128.808 93.5238 129.945C93.5345 129.986 93.5375 130.026 93.5327 130.065C93.5279 130.103 93.5231 130.142 93.5183 130.181C93.4657 130.607 93.188 130.88 92.6852 130.999L92.1418 131.097C91.9964 131.126 91.8579 131.133 91.7261 131.117C91.5245 131.092 91.3698 131.006 91.262 130.859C91.1533 130.719 91.0948 130.523 91.0867 130.27C91.0343 128.91 91.0081 127.56 91.008 126.222C91.0089 124.876 91.0689 123.53 91.188 122.183C91.1993 121.964 91.2169 121.726 91.2408 121.469C91.2646 121.212 91.2933 120.948 91.3268 120.677C91.3737 120.297 91.2382 120.087 90.9203 120.048ZM95.6898 120.342C95.4433 120.106 95.3373 119.849 95.3718 119.57C95.3852 119.462 95.4175 119.359 95.4687 119.263C95.5209 119.16 95.6041 119.06 95.7183 118.964L96.1029 118.621C96.3352 118.398 96.587 118.303 96.8584 118.337C96.9514 118.348 97.0498 118.38 97.1536 118.432C97.2505 118.476 97.348 118.547 97.446 118.646C98.431 119.594 99.3695 120.568 100.262 121.567C101.162 122.56 102.018 123.63 102.829 124.777C102.959 124.935 103.078 125.021 103.187 125.034C103.396 125.06 103.541 124.936 103.622 124.663L105.15 120.707C105.323 120.264 105.587 120.064 105.944 120.108C106.022 120.118 106.102 120.139 106.184 120.173C106.274 120.208 106.362 120.262 106.447 120.336L106.827 120.607C107.181 120.863 107.336 121.17 107.292 121.526C107.278 121.643 107.239 121.768 107.175 121.902C106.792 122.838 106.398 123.829 105.993 124.873C105.598 125.91 105.19 126.978 104.771 128.075C104.353 129.165 103.926 130.269 103.488 131.388C103.051 132.507 102.608 133.614 102.158 134.707C101.975 135.165 101.678 135.368 101.268 135.318C101.151 135.303 101.026 135.264 100.892 135.201L100.523 135.037C100.29 134.945 100.128 134.823 100.037 134.67C99.9455 134.517 99.9123 134.34 99.9372 134.138C99.943 134.091 99.9497 134.037 99.9573 133.975C99.9727 133.914 99.9959 133.854 100.027 133.795C100.389 132.903 100.746 132.018 101.098 131.14C101.451 130.263 101.796 129.381 102.134 128.494C102.156 128.441 102.173 128.396 102.186 128.358C102.198 128.32 102.208 128.278 102.213 128.232C102.225 128.139 102.213 128.047 102.177 127.956C102.148 127.866 102.105 127.774 102.045 127.68C101.102 126.335 100.098 125.058 99.0352 123.848C97.9801 122.64 96.865 121.471 95.6898 120.342ZM110.82 133.12C110.59 133.131 110.383 133.149 110.199 133.174C110.014 133.206 109.79 133.206 109.526 133.173C109.239 133.138 109.028 133.029 108.893 132.847C108.758 132.665 108.703 132.473 108.728 132.272C108.748 132.109 108.801 131.903 108.887 131.654C108.974 131.397 109.034 131.136 109.066 130.873C109.136 129.866 109.184 128.868 109.212 127.88C109.248 126.885 109.274 125.975 109.289 125.15C109.304 124.325 109.316 123.622 109.325 123.041C109.335 122.452 109.353 122.052 109.379 121.843C109.396 121.703 109.446 121.58 109.531 121.472C109.616 121.357 109.726 121.26 109.862 121.182C109.997 121.105 110.149 121.053 110.318 121.026C110.495 120.993 110.677 120.988 110.863 121.011C111.227 121.056 111.488 121.147 111.644 121.284C111.801 121.414 111.884 121.605 111.892 121.858C111.903 123.552 111.869 125.102 111.79 126.51C111.719 127.91 111.628 129.221 111.516 130.443C111.494 130.622 111.524 130.763 111.606 130.868C111.695 130.973 111.817 131.035 111.972 131.055C112.282 131.093 112.598 131.116 112.92 131.124C113.243 131.125 113.565 131.125 113.888 131.126C114.211 131.126 114.529 131.13 114.843 131.137C115.166 131.138 115.474 131.156 115.769 131.193C115.963 131.217 116.115 131.259 116.226 131.32C116.344 131.382 116.429 131.455 116.482 131.541C116.542 131.627 116.574 131.721 116.577 131.824C116.589 131.92 116.589 132.014 116.577 132.107C116.559 132.255 116.525 132.4 116.476 132.544C116.427 132.687 116.356 132.816 116.263 132.93C116.171 133.037 116.054 133.121 115.913 133.182C115.771 133.251 115.598 133.281 115.394 133.272C114.429 133.247 113.548 133.209 112.752 133.158C111.963 133.108 111.319 133.095 110.82 133.12ZM117.877 130.284C117.854 130.281 117.814 130.28 117.759 130.281C117.712 130.283 117.656 130.284 117.593 130.285C117.538 130.286 117.483 130.287 117.428 130.288C117.372 130.289 117.329 130.287 117.298 130.283C117.081 130.257 116.902 130.144 116.761 129.946C116.622 129.739 116.57 129.485 116.608 129.183C116.633 128.981 116.722 128.795 116.877 128.626C117.032 128.456 117.257 128.326 117.551 128.237C117.641 128.208 117.712 128.174 117.765 128.133C117.826 128.085 117.862 128.015 117.873 127.922C117.904 127.674 117.929 127.409 117.948 127.128C117.975 126.841 118.001 126.505 118.025 126.122C118.027 126.044 118.008 125.967 117.971 125.891C117.94 125.817 117.903 125.734 117.86 125.642C117.825 125.543 117.794 125.437 117.769 125.323C117.744 125.21 117.741 125.072 117.761 124.909C117.779 124.762 117.819 124.597 117.881 124.416C117.952 124.228 118.063 124.061 118.215 123.914C118.375 123.761 118.583 123.645 118.836 123.566C119.099 123.48 119.428 123.462 119.823 123.511C119.986 123.531 120.12 123.563 120.224 123.607C120.329 123.652 120.417 123.702 120.489 123.758C120.57 123.807 120.639 123.851 120.697 123.89C120.763 123.93 120.831 123.954 120.901 123.963C121.025 123.978 121.276 123.985 121.654 123.985C122.032 123.984 122.486 123.973 123.016 123.952C123.554 123.932 124.143 123.906 124.785 123.875C125.434 123.845 126.092 123.808 126.758 123.765C127.426 123.713 128.078 123.66 128.715 123.605C129.351 123.55 129.929 123.491 130.448 123.429C130.608 123.41 130.746 123.407 130.863 123.422C131.025 123.442 131.149 123.496 131.232 123.585C131.324 123.667 131.387 123.766 131.42 123.88C131.453 123.994 131.465 124.122 131.455 124.262C131.455 124.396 131.447 124.521 131.433 124.637C131.408 124.839 131.315 125.02 131.153 125.181C131 125.336 130.762 125.444 130.44 125.506C129.644 125.637 128.845 125.739 128.041 125.812C127.245 125.879 126.443 125.934 125.635 125.976C124.828 126.01 124.018 126.032 123.206 126.042C122.394 126.052 121.586 126.062 120.782 126.073C120.672 126.075 120.585 126.108 120.522 126.171C120.46 126.226 120.422 126.308 120.409 126.417L120.35 126.894C120.334 127.025 120.321 127.162 120.311 127.302C120.302 127.443 120.302 127.573 120.311 127.692C120.327 127.812 120.354 127.914 120.391 127.997C120.429 128.072 120.487 128.115 120.564 128.124C120.75 128.147 121.042 128.144 121.439 128.114C121.844 128.086 122.298 128.047 122.799 127.999C123.31 127.944 123.841 127.884 124.392 127.818C124.952 127.745 125.479 127.684 125.973 127.635C126.468 127.578 126.903 127.534 127.277 127.501C127.651 127.469 127.912 127.461 128.059 127.48C128.276 127.506 128.429 127.608 128.517 127.784C128.614 127.954 128.668 128.161 128.677 128.406C128.672 128.445 128.671 128.48 128.675 128.512C128.679 128.544 128.679 128.579 128.674 128.618C128.646 128.843 128.551 129.044 128.387 129.22C128.232 129.39 127.975 129.5 127.614 129.55C127.518 129.57 127.325 129.597 127.037 129.632C126.751 129.66 126.412 129.697 126.02 129.743C125.63 129.781 125.207 129.824 124.753 129.87C124.298 129.916 123.852 129.963 123.413 130.011C122.975 130.052 122.564 130.095 122.181 130.142C121.806 130.183 121.498 130.216 121.259 130.241C121.043 130.27 120.91 130.297 120.86 130.322C120.817 130.348 120.793 130.384 120.787 130.431C120.781 130.603 120.847 130.773 120.984 130.939C121.129 131.107 121.313 131.267 121.539 131.421C121.771 131.576 122.033 131.722 122.323 131.86C122.62 131.999 122.928 132.124 123.245 132.234C123.57 132.337 123.89 132.428 124.203 132.506C124.516 132.584 124.808 132.64 125.08 132.673C125.196 132.687 125.363 132.708 125.58 132.735C125.797 132.762 126.034 132.787 126.291 132.811C126.556 132.828 126.826 132.842 127.1 132.852C127.382 132.863 127.634 132.863 127.856 132.851C128.087 132.832 128.276 132.8 128.423 132.755C128.579 132.704 128.663 132.631 128.674 132.538C128.685 132.453 128.665 132.36 128.614 132.259C128.571 132.16 128.557 132.056 128.57 131.947C128.589 131.792 128.65 131.646 128.754 131.509C128.858 131.365 128.984 131.242 129.13 131.142C129.285 131.036 129.452 130.958 129.631 130.909C129.819 130.854 130.002 130.837 130.18 130.859C130.405 130.887 130.605 130.958 130.78 131.074C130.955 131.183 131.1 131.319 131.213 131.482C131.336 131.639 131.42 131.815 131.467 132.01C131.522 132.205 131.537 132.4 131.513 132.594C131.45 133.106 131.205 133.524 130.779 133.849C130.361 134.175 129.835 134.421 129.2 134.587C128.565 134.761 127.86 134.858 127.086 134.881C126.311 134.911 125.539 134.879 124.772 134.784C123.872 134.673 123.058 134.51 122.329 134.294C121.599 134.085 120.956 133.813 120.399 133.477C119.842 133.14 119.377 132.736 119.002 132.265C118.628 131.786 118.343 131.227 118.146 130.589C118.075 130.399 117.985 130.297 117.877 130.284Z" fill="#FBFBF9"/>
<path d="M93.9006 78.3341C89.906 82.2885 84.5215 84.5212 78.9006 84.5541C77.5838 84.5379 76.274 84.3599 75.0006 84.0241C71.1806 83.0241 68.0706 81.0241 67.2006 76.9441C66.3306 72.8641 68.4006 69.7141 71.3706 67.2241C74.027 64.9558 77.3372 63.5932 80.8206 63.3341C82.7406 63.2041 82.8806 62.8641 81.8206 61.3341C79.4306 57.7441 79.9406 54.8641 83.0606 53.0841C83.9811 52.6108 84.9899 52.3342 86.023 52.272C87.0561 52.2097 88.0909 52.3631 89.0615 52.7224C90.0322 53.0816 90.9174 53.639 91.661 54.3589C92.4045 55.0788 92.9902 55.9456 93.3806 56.9041C93.7206 57.8541 94.0706 59.0241 92.9106 59.5141C91.7506 60.0041 91.4606 58.8141 91.0306 58.0241C89.6973 55.5041 87.8206 54.5641 85.4006 55.2041C83.1506 55.8041 82.4006 57.2941 83.6706 59.2841C84.9119 61.3535 86.7535 62.9962 88.9506 63.9941C90.0206 64.4741 91.7406 64.6141 90.9506 66.3841C90.2906 67.8541 89.0106 67.0141 87.9506 66.6641C85.3279 65.7431 82.5048 65.5497 79.781 66.1043C77.0571 66.6589 74.5344 67.9409 72.4806 69.8141C70.2206 71.7241 69.0806 74.2441 69.9806 77.1141C70.8806 79.9841 73.4906 81.2741 76.2906 81.6141C82.3606 82.3641 87.7406 80.8141 92.0406 76.2341C92.4189 75.917 92.7252 75.5228 92.9391 75.0779C93.1529 74.633 93.2694 74.1476 93.2806 73.6541C93.2806 72.5041 93.5306 71.2541 94.9206 71.4341C96.3106 71.6141 96.5806 73.0341 96.3106 74.1641C96.1271 75.0555 96.1487 75.9771 96.374 76.8589C96.5992 77.7408 97.0221 78.5598 97.6106 79.2541C98.0453 79.9184 98.6386 80.4641 99.3369 80.8417C100.035 81.2194 100.817 81.4171 101.611 81.4171C102.405 81.4171 103.186 81.2194 103.884 80.8417C104.583 80.4641 105.176 79.9184 105.611 79.2541C106.287 78.2622 106.758 77.1457 106.999 75.9697C107.239 74.7937 107.243 73.5816 107.011 72.4041C106.944 71.8653 106.718 71.3587 106.362 70.949C106.005 70.5393 105.535 70.2451 105.011 70.1041C103.871 69.6741 102.521 68.7341 103.241 67.3341C104.081 65.7141 105.541 66.6441 106.671 67.2641C107.943 67.9139 109.384 68.1587 110.8 67.9657C112.216 67.7726 113.539 67.1509 114.591 66.1841C114.904 65.905 115.159 65.5661 115.339 65.1873C115.52 64.8085 115.623 64.3975 115.643 63.9783C115.662 63.5591 115.598 63.1402 115.453 62.7462C115.309 62.3522 115.087 61.9911 114.801 61.6841C113.661 60.3441 112.261 58.9441 110.161 60.3641C108.951 61.1741 107.411 61.9841 106.651 60.1241C105.891 58.2641 107.071 57.2441 108.871 56.7241C111.181 56.0441 112.781 53.5541 112.931 50.6041C113.084 49.5621 112.914 48.4983 112.443 47.556C111.973 46.6137 111.225 45.8382 110.301 45.3341C108.301 44.2041 105.071 44.7641 103.151 46.4241C101.373 48.0327 100.09 50.1137 99.4506 52.4241C99.1606 53.3341 98.8606 54.6241 97.5206 54.1141C96.1806 53.6041 96.7206 52.5341 97.0006 51.5441C97.7574 48.7522 99.3189 46.2448 101.491 44.3341C102.899 43.0431 104.686 42.2408 106.587 42.0462C108.487 41.8516 110.4 42.2752 112.041 43.2541C113.581 44.2588 114.723 45.7688 115.271 47.5245C115.818 49.2802 115.737 51.1719 115.041 52.8741C113.981 55.6741 113.501 57.3741 116.501 59.6241C120.041 62.2741 118.641 67.3141 114.351 69.5241C113.177 70.1437 112.154 71.0127 111.353 72.07C110.551 73.1272 109.991 74.3471 109.711 75.6441C109.4 77.6057 108.644 79.4701 107.501 81.0941C106.83 82.0123 105.955 82.7621 104.945 83.284C103.935 83.8059 102.817 84.0857 101.681 84.1012C100.544 84.1167 99.4188 83.8676 98.3949 83.3734C97.3709 82.8793 96.4759 82.1537 95.7806 81.2541C95.0806 80.3341 94.5306 79.3341 93.9006 78.3341Z" fill="#FBFBF9"/>
<path d="M104.101 61.9741C104.171 64.6841 102.441 65.8741 100.631 66.8641C98.8206 67.8541 96.6306 68.8641 94.3506 67.5141C93.7715 67.1885 93.3229 66.6727 93.0806 66.0541C92.4406 64.4541 94.3606 59.8141 96.1406 58.6841C97.2108 57.979 98.4972 57.6783 99.769 57.8359C101.041 57.9935 102.215 58.5991 103.081 59.5441C103.407 59.8588 103.665 60.2365 103.84 60.6543C104.016 61.072 104.104 61.5211 104.101 61.9741ZM97.1806 65.3341C98.7111 65.1701 100.131 64.4601 101.181 63.3341C101.44 63.0657 101.584 62.7072 101.584 62.3341C101.584 61.961 101.44 61.6025 101.181 61.3341C100.791 60.8341 100.181 60.5041 99.7806 61.1541C99.1706 62.1541 98.3506 62.2141 97.3106 62.2941C96.2706 62.3741 95.7906 63.4841 95.6806 64.4541C95.5706 65.4241 96.4706 65.2341 97.1806 65.3341Z" fill="#FBFBF9"/>
<path d="M83.7606 46.3342C79.8406 46.3342 78.0706 47.8742 77.7606 51.1342C77.6906 51.8442 77.5706 52.4942 76.7606 52.6542C75.9506 52.8142 75.4506 52.1742 75.1306 51.4642C74.2406 49.5542 75.3806 46.7142 77.8906 45.2142C80.4006 43.7142 83.0206 42.9942 85.8906 43.9642C86.8906 44.2942 87.8906 44.6242 87.5906 45.9642C87.2906 47.3042 86.2606 46.8442 85.3906 46.6842L83.7606 46.3342Z" fill="#FBFBF9"/>
<path d="M169.214 129.362C175.536 134.51 192.272 152.142 184.628 165.056C183.2 167.469 182.56 168.473 180.36 169.965M180.36 169.965C180.145 170.111 178.576 171.404 177.05 172.658C175.516 173.919 173.352 173.332 172.638 171.479V171.479C171.542 168.637 174.783 166.091 177.284 167.828L180.36 169.965ZM180.36 169.965V169.965C187.248 175.267 188.425 185.186 183.068 192.031C180.783 194.951 178.594 197.786 177.13 199.772M177.472 187.348C177.834 189.947 177.849 192.554 177.644 195.094C177.62 195.393 176.829 199.731 177.444 199.818C180.028 200.184 187.15 194.923 188.516 193.191" stroke="#FBFBF9" stroke-width="3" stroke-linecap="round"/>
</g>
<defs>
<clipPath id="clip0_204_7">
<rect width="200" height="202" fill="white"/>
</clipPath>
</defs>
</svg>
