<svg width="200" height="200" viewBox="0 0 200 200" fill="none" xmlns="http://www.w3.org/2000/svg">
<g clip-path="url(#clip0_202_3)">
<path d="M31.3645 125.746C31.3645 124.076 30.4145 122.836 29.7245 121.486C24.3345 110.926 18.8845 100.316 17.3545 88.3856C16.4545 81.3856 16.8045 74.3856 19.5845 67.6056C23.0576 59.3648 27.7796 51.7084 33.5845 44.9056C39.8545 37.3556 47.8845 31.9056 56.6645 27.6356C63.8745 24.0956 71.1145 20.6356 79.0745 19.0256C89.7714 17.0757 100.679 16.5445 111.514 17.4456C118.789 17.9582 125.996 19.1773 133.034 21.0856C142.904 23.7532 151.811 29.1743 158.714 36.7156C163.454 41.7156 168.064 46.8456 171.274 52.9856C174.371 58.6955 176.183 65.0126 176.585 71.4956C176.826 73.56 177.358 75.58 178.164 77.4956C180.064 83.0956 181.524 88.8356 181.494 94.7456C181.444 104.536 178.564 113.546 173.724 122.116C169.824 129.016 164.104 134.246 159.034 140.116C155.824 143.806 153.374 148.116 150.034 151.666C142.314 159.876 132.694 164.056 121.724 165.756C112.314 167.192 102.735 167.128 93.3445 165.566C87.5745 164.636 81.6745 164.566 76.0145 162.816C70.458 161.19 65.1663 158.769 60.3045 155.626C50.7856 149.184 41.7606 142.04 33.3045 134.256C27.3045 128.826 22.8745 122.086 19.3045 114.786C16.1303 108.219 13.5403 101.386 11.5645 94.3656C11.3592 93.6503 11.2022 92.922 11.0945 92.1856C11.0176 91.921 10.995 91.6436 11.0278 91.37C11.0606 91.0964 11.1482 90.8322 11.2854 90.5932C11.4226 90.3543 11.6066 90.1454 11.8264 89.9791C12.0462 89.8129 12.2972 89.6927 12.5645 89.6256C13.9945 89.2656 14.4945 90.3956 14.8045 91.4356C16.2445 96.3756 17.9345 101.226 19.8045 106.016C22.2458 112.525 25.5449 118.679 29.6145 124.316C29.9545 124.776 30.3245 125.226 30.7145 125.656C30.8045 125.726 31.0245 125.696 31.3645 125.746ZM170.964 62.2256C170.114 57.6356 167.964 54.3756 165.764 51.1356C162.364 46.3514 158.517 41.9014 154.274 37.8456C149.347 32.7965 143.379 28.8823 136.784 26.3756C127.543 23.1044 117.845 21.3058 108.044 21.0456C93.0445 20.3856 78.2045 21.4056 64.3645 28.2856C56.0145 32.4356 47.5945 36.3356 40.8145 43.0856C34.5306 49.3661 29.252 56.5774 25.1645 64.4656C19.9745 74.4656 19.5345 84.9456 22.8545 95.6456C26.7045 108.066 32.5445 119.546 39.4045 130.536C43.5553 137.208 49.4604 142.612 56.4745 146.156C64.8403 150.493 73.4591 154.323 82.2845 157.626C89.1945 160.236 96.1445 162.126 103.844 160.936C116.244 159.026 128.434 156.526 139.254 149.936C146.794 145.346 154.315 140.686 158.835 132.356C162.75 125.467 165.925 118.183 168.305 110.626C171.305 100.316 172.564 89.6956 173.204 79.0156C173.361 76.8536 173.019 74.6846 172.204 72.6756C168.794 64.4656 163.654 57.4156 157.624 50.9656C154.904 48.0556 151.984 45.3756 149.094 42.6556C144.659 38.5511 139.658 35.1028 134.244 32.4156C131.074 30.8056 127.684 29.6356 124.464 28.1356C123.574 27.7156 122.374 26.9756 123.074 25.6256C123.774 24.2756 124.874 24.3756 126.074 24.9256C128.794 26.1456 131.644 27.0156 134.364 28.2756C145.934 33.6256 154.814 42.2756 163.204 51.5056C166.084 54.6256 167.944 58.4556 170.964 62.2256ZM167.464 124.006C175.214 117.006 180.404 95.0856 176.324 86.5156C175.044 99.4056 172.454 111.976 167.464 124.006ZM121.024 161.676C130.614 160.676 139.215 157.456 145.895 150.176C138.395 155.626 129.754 158.676 121.024 161.676Z" fill="#FBFBF9"/>
<path d="M55.2122 90.7858C54.778 90.7322 54.3619 90.7871 53.9639 90.9505C53.5746 91.1071 53.2179 91.3504 52.8937 91.6803C52.5783 92.0035 52.3129 92.3997 52.0975 92.869C51.8821 93.3384 51.74 93.8522 51.671 94.4104C51.6002 94.9842 51.6625 95.5311 51.8581 96.0512C52.0623 96.5645 52.3707 97.0315 52.7831 97.4525C53.2043 97.8666 53.7126 98.2127 54.308 98.4909C54.9111 98.7701 55.581 98.9551 56.3176 99.0461C56.8526 99.1121 57.3623 99.1279 57.8468 99.0932C58.34 99.0518 58.7749 98.9717 59.1517 98.8529C59.5285 98.7341 59.8349 98.5791 60.0711 98.3878C60.3082 98.1888 60.4421 97.9653 60.4727 97.7172C60.4967 97.5233 60.4814 97.3601 60.4269 97.2274C60.3734 97.087 60.3064 96.9606 60.2258 96.8483C60.1539 96.7292 60.0893 96.615 60.032 96.5056C59.9756 96.3884 59.9574 96.2484 59.9776 96.0856C59.9967 95.9305 60.0537 95.788 60.1484 95.658C60.2432 95.528 60.3632 95.4169 60.5084 95.3246C60.6614 95.2333 60.827 95.1671 61.0052 95.1262C61.1912 95.0862 61.3773 95.0777 61.5633 95.1006C61.7882 95.1284 61.9904 95.2124 62.1698 95.3527C62.3571 95.4938 62.5075 95.6777 62.6213 95.9043C62.7437 96.1241 62.8264 96.3784 62.8695 96.6671C62.9213 96.949 62.928 97.245 62.8897 97.5551C62.8122 98.1832 62.5732 98.748 62.1727 99.2496C61.7733 99.7434 61.255 100.148 60.6178 100.463C59.9807 100.778 59.245 100.998 58.4109 101.123C57.5777 101.24 56.6881 101.241 55.7422 101.124C54.6955 100.995 53.7474 100.736 52.8979 100.348C52.0494 99.9517 51.3345 99.4619 50.7532 98.8785C50.1797 98.296 49.7572 97.6377 49.4857 96.9036C49.2143 96.1695 49.1293 95.3915 49.2308 94.5696C49.3418 93.6702 49.6018 92.8403 50.0105 92.08C50.427 91.3206 50.9435 90.6759 51.56 90.1459C52.1765 89.6159 52.8668 89.221 53.631 88.9611C54.4029 88.7022 55.1998 88.6235 56.0217 88.725C56.3861 88.77 56.7143 88.8538 57.0061 88.9764C57.3067 89.0923 57.5603 89.2377 57.767 89.4128C57.9736 89.5879 58.1265 89.7839 58.2257 90.0008C58.3336 90.2109 58.3732 90.4323 58.3444 90.6649C58.3214 90.851 58.2568 91.024 58.1504 91.1841C58.0528 91.3373 57.9299 91.4717 57.7818 91.5873C57.6347 91.695 57.4672 91.7767 57.2793 91.8322C57.0991 91.8887 56.9121 91.9049 56.7183 91.881C56.5167 91.8561 56.3596 91.7895 56.247 91.6811C56.1422 91.5737 56.0461 91.4595 55.9587 91.3385C55.8723 91.2098 55.7767 91.0917 55.6719 90.9843C55.567 90.8769 55.4138 90.8107 55.2122 90.7858ZM70.296 93.9946C70.3065 93.9093 70.3029 93.779 70.2852 93.6036C70.2675 93.4282 70.2449 93.2286 70.2175 93.0048C70.191 92.7733 70.1581 92.5291 70.119 92.2724C70.0808 92.0079 70.0494 91.7521 70.0248 91.5051C70.0002 91.258 69.9815 91.0274 69.9686 90.8133C69.9556 90.5991 69.9578 90.4223 69.975 90.2827C69.9971 90.1044 70.0652 89.9672 70.1794 89.8711C70.2945 89.7672 70.4335 89.6938 70.5962 89.651C70.7589 89.6081 70.9309 89.586 71.1121 89.5848C71.2933 89.5836 71.4653 89.593 71.6282 89.6131C71.8297 89.638 72.0164 89.7201 72.1881 89.8594C72.3686 89.9918 72.476 90.2058 72.5103 90.5013C72.5583 90.8143 72.5902 91.1291 72.6062 91.446C72.6309 91.756 72.6483 92.0613 72.6584 92.3616C72.6695 92.6543 72.6777 92.9387 72.683 93.2148C72.696 93.492 72.7114 93.7497 72.7292 93.988C72.7527 94.1799 72.7927 94.3344 72.8491 94.4515C72.9132 94.5697 72.9918 94.666 73.085 94.7404C73.1868 94.8081 73.2949 94.8569 73.4093 94.8868C73.5315 94.9176 73.6623 94.9416 73.8019 94.9589C73.957 94.978 74.1256 94.9831 74.3077 94.9741C74.4899 94.9651 74.6663 94.9711 74.8369 94.9922C74.9454 95.0056 75.0477 95.0379 75.1437 95.0891C75.2484 95.1335 75.3377 95.2075 75.4115 95.3111C75.4862 95.4069 75.5373 95.5353 75.5647 95.6961C75.5998 95.8579 75.6025 96.0589 75.5728 96.2993C75.5479 96.5009 75.4881 96.6667 75.3933 96.7967C75.2995 96.9189 75.1412 96.9899 74.9183 97.0096L74.4882 97.0509C74.3535 97.0579 74.227 97.062 74.1088 97.0631C73.9993 97.0575 73.8583 97.0519 73.6858 97.0463C73.3166 97.0401 73.1148 97.1765 73.0803 97.4556C73.0774 97.4789 73.08 97.5855 73.088 97.7754C73.0961 97.9653 73.1061 98.2027 73.1182 98.4876C73.1389 98.7657 73.1597 99.0753 73.1806 99.4163C73.2024 99.7496 73.2218 100.071 73.2387 100.38C73.2634 100.69 73.2842 100.968 73.301 101.214C73.3188 101.453 73.3331 101.624 73.3439 101.727C73.3616 101.903 73.3764 102.038 73.3881 102.134C73.3999 102.23 73.3957 102.359 73.3756 102.522C73.3603 102.646 73.3101 102.766 73.225 102.881C73.1409 102.989 73.0233 103.081 72.8722 103.157C72.7289 103.233 72.557 103.287 72.3564 103.317C72.1549 103.355 71.9301 103.359 71.682 103.329C71.4106 103.295 71.223 103.189 71.119 103.011C71.0238 102.826 70.9663 102.622 70.9466 102.399C70.8956 101.984 70.8499 101.557 70.8095 101.119C70.7769 100.682 70.7438 100.249 70.7102 99.8197C70.6844 99.3914 70.6571 98.9748 70.6284 98.5698C70.6084 98.158 70.5899 97.7661 70.5729 97.394C70.5552 97.2186 70.5007 97.0859 70.4095 96.996C70.3192 96.8982 70.1965 96.8398 70.0415 96.8206C69.5142 96.7555 68.9807 96.7093 68.4409 96.682C67.9098 96.6479 67.387 96.6109 66.8724 96.571C66.6921 96.5645 66.5454 96.6054 66.4321 96.6937C66.3189 96.7821 66.2522 96.9077 66.2321 97.0705C66.1871 97.4349 66.1465 97.7959 66.1102 98.1536C66.0739 98.5112 66.0328 98.8761 65.9868 99.2482C65.9341 99.6747 65.8723 100.112 65.8013 100.56C65.738 101.008 65.6688 101.441 65.5939 101.856C65.5592 102.01 65.4969 102.132 65.4069 102.223C65.3247 102.315 65.2216 102.385 65.0976 102.433C64.9814 102.481 64.8482 102.508 64.698 102.513C64.5556 102.519 64.4107 102.513 64.2634 102.495C63.899 102.45 63.6236 102.353 63.4374 102.204C63.2501 102.063 63.1742 101.849 63.2096 101.562C63.2633 101.128 63.3309 100.676 63.4126 100.206C63.4942 99.7355 63.5648 99.2601 63.6241 98.7794C63.6643 98.4537 63.6992 98.1392 63.7288 97.8359C63.7594 97.5248 63.7947 97.2064 63.835 96.8807C63.8532 96.7334 63.8317 96.6206 63.7705 96.5422C63.718 96.457 63.6482 96.3854 63.5609 96.3274C63.4736 96.2693 63.3742 96.2138 63.2626 96.1606C63.1521 96.0998 63.0556 96.0209 62.973 95.9241C62.8905 95.8274 62.8244 95.6933 62.7748 95.5218C62.7328 95.3513 62.7296 95.1226 62.765 94.8358C62.7842 94.6807 62.8261 94.5639 62.891 94.4853C62.9645 94.3999 63.0472 94.3353 63.1392 94.2916C63.239 94.2488 63.3412 94.2181 63.4458 94.1996C63.5514 94.1732 63.6502 94.1382 63.7421 94.0945C63.8419 94.0517 63.9237 93.9949 63.9875 93.924C64.0601 93.8464 64.106 93.73 64.1251 93.575C64.1366 93.4819 64.1461 93.3729 64.1537 93.2479C64.1622 93.1151 64.1698 92.9901 64.1764 92.8728C64.183 92.7556 64.1877 92.6538 64.1905 92.5676C64.1942 92.4736 64.198 92.4111 64.2018 92.3801C64.2344 92.1164 64.2951 91.9114 64.384 91.7649C64.4817 91.6117 64.5896 91.503 64.7077 91.4389C64.8268 91.367 64.9537 91.3275 65.0883 91.3206C65.2317 91.3068 65.3655 91.3076 65.4895 91.3229C65.9547 91.3803 66.2655 91.5092 66.4218 91.7096C66.5868 91.9031 66.6565 92.1676 66.6309 92.5029L66.5266 93.7298C66.5191 93.9178 66.5518 94.0675 66.6246 94.1788C66.6984 94.2824 66.8322 94.3462 67.0261 94.3701L69.6777 94.6031C69.9044 94.6153 70.0556 94.571 70.131 94.4701C70.2142 94.3702 70.2692 94.2117 70.296 93.9946ZM75.634 101.254C75.5022 101.238 75.4095 101.16 75.356 101.019C75.3103 100.88 75.3022 100.69 75.3319 100.449C75.3367 100.411 75.342 100.368 75.3477 100.322C75.3544 100.267 75.3746 100.167 75.4083 100.022C75.5005 99.4666 75.816 99.175 76.3547 99.147L76.6251 99.1568C76.8063 99.1556 76.9526 99.1185 77.0639 99.0457C77.1762 98.9651 77.2656 98.8463 77.3323 98.6892C77.5186 98.2635 77.7055 97.8339 77.8929 97.4005C78.0802 96.9671 78.2748 96.5385 78.4767 96.1147C78.5849 95.8762 78.695 95.6221 78.807 95.3526C78.9277 95.0762 79.0518 94.8042 79.1793 94.5366C79.3146 94.2699 79.461 94.0085 79.6186 93.7525C79.7839 93.4974 79.9619 93.2675 80.1525 93.0627C80.2337 92.9783 80.3426 92.8933 80.4791 92.8079C80.6156 92.7224 80.7662 92.6504 80.9308 92.5921C81.1042 92.5269 81.2829 92.482 81.467 92.4575C81.6598 92.4262 81.8454 92.4216 82.0237 92.4436C82.2563 92.4723 82.4759 92.5743 82.6826 92.7493C82.9591 92.996 83.2265 93.2849 83.4848 93.6159C83.743 93.9469 84.0261 94.3637 84.3341 94.8661C84.642 95.3686 84.9961 95.9752 85.3964 96.6858C85.7976 97.3887 86.2791 98.2393 86.8406 99.2375C86.9271 99.3663 87.0207 99.4684 87.1216 99.5438C87.2312 99.6124 87.3636 99.6563 87.5186 99.6755L88.1816 99.7574C88.4529 99.7909 88.6542 99.8826 88.7852 100.033C88.925 100.176 88.9809 100.36 88.9532 100.585C88.9474 100.631 88.9369 100.685 88.9214 100.746C88.9138 100.808 88.8945 100.869 88.8636 100.928L88.5622 101.552C88.539 101.612 88.5207 101.665 88.5072 101.71C88.4937 101.756 88.484 101.802 88.4783 101.849C88.4582 102.011 88.4919 102.185 88.5794 102.369L89.6141 104.22C89.7279 104.447 89.7732 104.653 89.7502 104.839C89.7158 105.119 89.5267 105.343 89.1829 105.513L88.7022 105.773C88.585 105.829 88.4736 105.87 88.3681 105.897C88.2702 105.924 88.1709 105.931 88.0701 105.919C87.9305 105.902 87.804 105.843 87.6905 105.742C87.5837 105.65 87.4847 105.528 87.3934 105.375C87.0863 104.802 86.7744 104.236 86.4577 103.677C86.1487 103.119 85.8315 102.565 85.5061 102.013C85.3584 101.743 85.1372 101.589 84.8426 101.553C83.8918 101.475 82.947 101.413 82.0079 101.368C81.0776 101.316 80.1414 101.28 79.1995 101.258C78.8623 101.248 78.6309 101.4 78.5054 101.715L77.7451 103.57C77.5423 104.064 77.2006 104.282 76.7198 104.222L76.5338 104.199L76.179 104.108C75.9182 104.052 75.7267 103.946 75.6043 103.789C75.4898 103.633 75.4464 103.443 75.4741 103.218C75.4799 103.172 75.49 103.122 75.5044 103.068C75.5189 103.015 75.5377 102.958 75.5609 102.898C75.6188 102.748 75.6772 102.594 75.736 102.436C75.8027 102.279 75.8688 102.126 75.9345 101.976C75.9577 101.916 75.976 101.863 75.9895 101.818C76.004 101.764 76.0141 101.714 76.0198 101.668C76.0495 101.428 75.9713 101.296 75.7852 101.273L75.634 101.254ZM81.9284 95.7971C81.8595 95.7177 81.7969 95.6509 81.7406 95.5968C81.6843 95.5426 81.6213 95.5112 81.5515 95.5026C81.3576 95.4786 81.2052 95.5976 81.0942 95.8594C80.8826 96.2977 80.6754 96.7326 80.4725 97.1641C80.2784 97.5888 80.0789 98.0247 79.8742 98.4717C79.8539 98.5086 79.8418 98.5425 79.838 98.5735C79.8342 98.6045 79.8298 98.6394 79.8251 98.6782C79.7896 98.9651 79.9231 99.1272 80.2255 99.1645L80.3418 99.1789C80.8147 99.1743 81.2856 99.1852 81.7547 99.2117C82.2247 99.2304 82.6937 99.2568 83.1618 99.291C83.3188 99.2946 83.4438 99.2707 83.5367 99.2192C83.6384 99.1609 83.6959 99.0775 83.7093 98.9689C83.7218 98.8681 83.6901 98.7422 83.6143 98.5912C83.3423 98.1167 83.0654 97.6496 82.7837 97.1897C82.5107 96.7231 82.2256 96.2588 81.9284 95.7971ZM93.0002 99.8447C92.96 100.17 92.9338 100.51 92.9217 100.862C92.9097 101.215 92.9015 101.568 92.8972 101.922C92.9006 102.277 92.8958 102.634 92.8828 102.995C92.8707 103.347 92.8436 103.694 92.8015 104.035C92.7545 104.415 92.5844 104.709 92.2911 104.917C91.9988 105.117 91.6316 105.19 91.1897 105.135C90.9726 105.108 90.7752 105.017 90.5977 104.861C90.4279 104.707 90.3491 104.484 90.3612 104.195C90.3674 103.825 90.3789 103.414 90.3957 102.959C90.4212 102.498 90.4481 102.025 90.4765 101.54C90.5135 101.049 90.5506 100.558 90.5876 100.066C90.6256 99.5672 90.6647 99.0918 90.7047 98.6402C90.7457 98.1808 90.7858 97.7607 90.8249 97.3798C90.865 96.9912 90.9014 96.665 90.9339 96.4014C90.9627 96.1688 91.0054 95.9497 91.0623 95.7442C91.1192 95.5387 91.2076 95.3646 91.3275 95.222C91.4475 95.0794 91.5985 94.9721 91.7806 94.9001C91.9704 94.8291 92.2126 94.8118 92.5072 94.8481C92.7321 94.8759 92.974 94.9884 93.2331 95.1857C93.493 95.3753 93.7652 95.6254 94.0496 95.936C94.3417 96.2476 94.648 96.6042 94.9684 97.0059C95.2897 97.3998 95.6203 97.8145 95.9601 98.2501C96.2999 98.6856 96.6465 99.1299 96.9999 99.5829C97.362 100.029 97.7304 100.456 98.105 100.865C98.271 101.051 98.4569 101.266 98.6627 101.512C98.8763 101.759 99.0951 101.995 99.3193 102.219C99.5512 102.444 99.7826 102.642 100.014 102.812C100.253 102.976 100.489 103.072 100.722 103.101C100.939 103.128 101.09 103.052 101.175 102.873C101.269 102.688 101.341 102.386 101.393 101.967C101.431 101.657 101.452 101.27 101.454 100.806C101.464 100.343 101.454 99.8456 101.426 99.3146C101.397 98.7837 101.344 98.2498 101.269 97.7131C101.195 97.1686 101.095 96.6683 100.97 96.212C100.943 96.1142 100.915 96.0202 100.887 95.9302C100.867 95.8333 100.864 95.7306 100.878 95.622C100.9 95.4437 100.978 95.2919 101.111 95.1667C101.245 95.0415 101.399 94.9425 101.573 94.8695C101.747 94.7966 101.926 94.7479 102.111 94.7234C102.296 94.6911 102.446 94.6822 102.563 94.6965C102.818 94.7281 103.03 94.8959 103.197 95.2C103.365 95.4962 103.496 95.8744 103.588 96.3346C103.69 96.7879 103.757 97.2961 103.79 97.859C103.823 98.4142 103.837 98.9709 103.831 99.5291C103.833 100.088 103.815 100.621 103.776 101.128C103.745 101.628 103.71 102.045 103.669 102.378C103.591 103.006 103.495 103.557 103.382 104.031C103.277 104.499 103.123 104.885 102.92 105.191C102.724 105.497 102.465 105.717 102.142 105.85C101.819 105.976 101.406 106.007 100.902 105.945C100.499 105.895 100.086 105.762 99.6644 105.544C99.2435 105.319 98.8216 105.039 98.3986 104.703C97.9843 104.361 97.567 103.978 97.1468 103.557C96.7344 103.136 96.3316 102.7 95.9384 102.25C95.5453 101.8 95.1638 101.352 94.794 100.905C94.4318 100.458 94.0935 100.043 93.779 99.6574C93.6499 99.4919 93.5233 99.4015 93.3992 99.3862C93.2907 99.3728 93.1996 99.4088 93.1261 99.4942C93.0613 99.5728 93.0193 99.6896 93.0002 99.8447ZM111.503 95.8242C111.679 95.7435 111.854 95.6943 112.029 95.6766C112.205 95.6589 112.366 95.6592 112.513 95.6774C112.707 95.7013 112.877 95.7577 113.024 95.8467C113.171 95.9279 113.293 96.0255 113.389 96.1397C113.485 96.2539 113.552 96.3803 113.59 96.5188C113.637 96.6505 113.653 96.7784 113.637 96.9025C113.616 97.0731 113.538 97.2287 113.403 97.3694C113.275 97.5111 113.104 97.6237 112.889 97.7074C112.457 97.8902 112.095 98.0463 111.803 98.1756C111.512 98.3049 111.261 98.4235 111.051 98.5314C110.849 98.6402 110.671 98.7442 110.517 98.8432C110.363 98.9423 110.207 99.053 110.051 99.1753C109.826 99.3365 109.606 99.5258 109.39 99.7432C109.174 99.9606 108.978 100.18 108.801 100.403C108.633 100.618 108.489 100.828 108.369 101.034C108.257 101.241 108.192 101.414 108.175 101.553C108.16 101.67 108.18 101.766 108.233 101.844C108.287 101.921 108.372 101.967 108.488 101.982C108.612 101.997 108.753 101.971 108.911 101.904C109.416 101.699 109.942 101.523 110.487 101.378C111.04 101.234 111.593 101.121 112.146 101.04C112.7 100.959 113.248 100.916 113.792 100.913C114.336 100.901 114.861 100.926 115.364 100.989C116.163 101.087 116.885 101.267 117.53 101.528C118.175 101.781 118.719 102.092 119.162 102.461C119.604 102.831 119.93 103.253 120.139 103.727C120.349 104.194 120.422 104.687 120.358 105.207C120.286 105.788 120.05 106.326 119.651 106.82C119.251 107.314 118.736 107.726 118.105 108.058C117.473 108.389 116.748 108.626 115.927 108.769C115.106 108.911 114.239 108.926 113.324 108.813C112.106 108.663 111.006 108.397 110.022 108.016C109.044 107.643 108.219 107.187 107.546 106.647C106.88 106.109 106.384 105.504 106.057 104.834C105.74 104.157 105.627 103.447 105.718 102.702C105.809 101.966 105.999 101.257 106.288 100.576C106.585 99.8889 106.975 99.2521 107.457 98.6661C107.947 98.0733 108.529 97.539 109.201 97.0632C109.875 96.5796 110.643 96.1666 111.503 95.8242ZM117.97 105.325C118.002 105.061 117.947 104.811 117.803 104.572C117.667 104.335 117.457 104.12 117.174 103.928C116.899 103.737 116.553 103.572 116.137 103.434C115.729 103.297 115.269 103.197 114.757 103.134C113.788 103.014 112.821 103.032 111.857 103.189C110.902 103.338 109.986 103.615 109.11 104.018C108.901 104.119 108.785 104.258 108.763 104.436C108.748 104.56 108.802 104.697 108.925 104.846C109.05 104.987 109.225 105.131 109.451 105.277C109.677 105.423 109.946 105.57 110.258 105.719C110.57 105.868 110.904 106.003 111.259 106.126C111.613 106.248 111.982 106.357 112.364 106.451C112.746 106.546 113.123 106.616 113.495 106.662C114.092 106.735 114.652 106.757 115.175 106.728C115.707 106.691 116.173 106.615 116.573 106.499C116.982 106.376 117.309 106.216 117.554 106.018C117.799 105.82 117.937 105.589 117.97 105.325ZM121.467 106.359C121.444 106.356 121.405 106.355 121.349 106.356C121.302 106.358 121.247 106.359 121.184 106.36C121.128 106.361 121.073 106.362 121.018 106.363C120.963 106.364 120.92 106.362 120.889 106.359C120.672 106.332 120.493 106.219 120.352 106.021C120.212 105.814 120.161 105.56 120.198 105.258C120.223 105.056 120.313 104.87 120.468 104.701C120.622 104.531 120.847 104.401 121.141 104.312C121.231 104.283 121.303 104.249 121.355 104.208C121.416 104.161 121.452 104.09 121.464 103.997C121.494 103.749 121.519 103.484 121.538 103.203C121.566 102.916 121.591 102.58 121.615 102.197C121.617 102.119 121.599 102.042 121.561 101.966C121.531 101.892 121.494 101.809 121.45 101.717C121.415 101.618 121.385 101.512 121.359 101.398C121.334 101.285 121.331 101.147 121.352 100.984C121.37 100.837 121.41 100.673 121.471 100.491C121.542 100.303 121.653 100.136 121.805 99.9892C121.966 99.8359 122.173 99.7198 122.427 99.6409C122.689 99.5553 123.018 99.5368 123.414 99.5857C123.576 99.6058 123.71 99.638 123.815 99.6825C123.92 99.7269 124.008 99.7771 124.08 99.8332C124.16 99.8825 124.229 99.9265 124.288 99.9652C124.354 100.005 124.421 100.029 124.491 100.038C124.615 100.053 124.866 100.06 125.244 100.06C125.622 100.059 126.076 100.048 126.606 100.027C127.144 100.007 127.734 99.9814 128.375 99.9504C129.024 99.9204 129.682 99.8835 130.349 99.8399C131.016 99.7885 131.668 99.7352 132.305 99.68C132.941 99.6248 133.519 99.5663 134.039 99.5044C134.199 99.4848 134.337 99.4822 134.453 99.4966C134.616 99.5167 134.739 99.5712 134.822 99.6603C134.915 99.7425 134.977 99.8407 135.01 99.955C135.043 100.069 135.055 100.197 135.046 100.337C135.045 100.471 135.037 100.596 135.023 100.712C134.998 100.914 134.905 101.095 134.743 101.256C134.591 101.411 134.353 101.519 134.03 101.582C133.235 101.712 132.435 101.814 131.631 101.887C130.835 101.955 130.034 102.009 129.226 102.051C128.418 102.085 127.609 102.107 126.797 102.117C125.985 102.127 125.177 102.137 124.372 102.148C124.262 102.15 124.175 102.183 124.112 102.246C124.05 102.301 124.013 102.383 123.999 102.492L123.94 102.969C123.924 103.101 123.911 103.237 123.902 103.377C123.892 103.518 123.892 103.648 123.901 103.767C123.918 103.887 123.944 103.989 123.981 104.072C124.019 104.147 124.077 104.19 124.154 104.2C124.341 104.223 124.632 104.219 125.029 104.19C125.434 104.161 125.888 104.122 126.39 104.074C126.9 104.019 127.431 103.959 127.983 103.893C128.543 103.82 129.07 103.76 129.564 103.71C130.059 103.653 130.493 103.609 130.867 103.576C131.241 103.544 131.502 103.536 131.649 103.555C131.866 103.581 132.019 103.683 132.108 103.859C132.205 104.029 132.258 104.236 132.267 104.481C132.262 104.52 132.262 104.555 132.266 104.587C132.27 104.619 132.269 104.655 132.264 104.693C132.237 104.918 132.141 105.119 131.978 105.295C131.823 105.465 131.565 105.575 131.205 105.625C131.108 105.645 130.916 105.672 130.628 105.707C130.341 105.735 130.002 105.772 129.61 105.818C129.22 105.856 128.798 105.899 128.343 105.945C127.889 105.991 127.442 106.038 127.003 106.086C126.565 106.127 126.155 106.17 125.771 106.218C125.396 106.258 125.089 106.291 124.849 106.316C124.633 106.345 124.5 106.372 124.45 106.397C124.407 106.423 124.383 106.459 124.377 106.506C124.372 106.678 124.437 106.848 124.574 107.014C124.719 107.182 124.904 107.342 125.129 107.496C125.362 107.651 125.623 107.797 125.913 107.935C126.211 108.075 126.518 108.199 126.835 108.309C127.161 108.412 127.48 108.503 127.793 108.581C128.106 108.659 128.399 108.715 128.67 108.748C128.786 108.763 128.953 108.783 129.17 108.81C129.387 108.837 129.624 108.862 129.881 108.886C130.147 108.903 130.416 108.917 130.691 108.927C130.973 108.938 131.225 108.938 131.447 108.926C131.677 108.907 131.866 108.875 132.013 108.83C132.169 108.779 132.253 108.707 132.264 108.613C132.275 108.528 132.255 108.435 132.204 108.334C132.162 108.235 132.147 108.131 132.16 108.022C132.18 107.867 132.241 107.721 132.344 107.584C132.449 107.44 132.574 107.317 132.72 107.217C132.875 107.111 133.042 107.033 133.221 106.984C133.409 106.929 133.592 106.912 133.771 106.934C133.996 106.962 134.195 107.034 134.37 107.15C134.545 107.258 134.69 107.394 134.804 107.557C134.926 107.714 135.011 107.89 135.057 108.085C135.112 108.28 135.127 108.475 135.103 108.669C135.04 109.181 134.796 109.599 134.37 109.924C133.952 110.251 133.425 110.496 132.791 110.662C132.155 110.836 131.451 110.934 130.676 110.956C129.901 110.986 129.13 110.954 128.362 110.859C127.463 110.748 126.649 110.585 125.919 110.369C125.19 110.16 124.546 109.888 123.989 109.552C123.433 109.215 122.967 108.811 122.592 108.34C122.218 107.861 121.933 107.302 121.737 106.664C121.665 106.474 121.576 106.373 121.467 106.359ZM46.6195 110.361C46.5575 110.353 46.4354 110.354 46.2532 110.363C46.0798 110.365 45.8744 110.371 45.637 110.381C45.3996 110.391 45.1496 110.408 44.887 110.43C44.6254 110.445 44.3798 110.458 44.1501 110.469C43.9205 110.48 43.7223 110.491 43.5557 110.502C43.3822 110.504 43.2684 110.502 43.2141 110.495C42.6946 110.431 42.4684 110.128 42.5354 109.585C42.5536 109.438 42.5868 109.296 42.6351 109.16C42.6765 109.016 42.7393 108.89 42.8235 108.782C42.9086 108.667 43.0145 108.573 43.1414 108.503C43.2682 108.432 43.4227 108.392 43.6049 108.383C44.5293 108.355 45.4508 108.319 46.3693 108.275C47.2879 108.231 48.2152 108.181 49.1512 108.123C49.3575 108.109 49.5441 108.097 49.7107 108.086C49.8783 108.067 50.0668 108.039 50.276 108.002C50.5008 107.967 50.7444 107.938 51.007 107.915C51.2705 107.885 51.5331 107.862 51.7947 107.847C52.0641 107.833 52.3209 107.826 52.5651 107.824C52.817 107.824 53.0438 107.836 53.2454 107.861C53.4935 107.892 53.6695 107.996 53.7735 108.174C53.8861 108.346 53.9247 108.575 53.8893 108.862C53.8711 109.009 53.8418 109.151 53.8013 109.288C53.7618 109.416 53.7043 109.531 53.6288 109.632C53.5534 109.733 53.4571 109.812 53.3399 109.868C53.2228 109.925 53.0779 109.95 52.9054 109.944C52.4558 109.952 51.9733 109.971 51.4578 110.002C50.9433 110.025 50.4932 110.068 50.1077 110.13C49.9468 110.158 49.821 110.221 49.73 110.32C49.64 110.411 49.5738 110.533 49.5314 110.685C49.49 110.829 49.4558 110.979 49.4289 111.133C49.4107 111.28 49.393 111.424 49.3758 111.563C49.3355 111.889 49.307 112.216 49.29 112.544C49.2808 112.874 49.2677 113.203 49.2508 113.531C49.1827 114.657 49.1509 115.774 49.1555 116.885C49.1678 117.996 49.1903 119.121 49.223 120.258C49.2337 120.299 49.2367 120.339 49.2319 120.378C49.2271 120.416 49.2223 120.455 49.2176 120.494C49.1649 120.92 48.8872 121.193 48.3844 121.312L47.841 121.41C47.6957 121.439 47.5571 121.446 47.4253 121.43C47.2237 121.405 47.069 121.319 46.9612 121.172C46.8525 121.032 46.7941 120.836 46.7859 120.583C46.7335 119.223 46.7073 117.873 46.7072 116.535C46.7081 115.189 46.7681 113.843 46.8872 112.496C46.8986 112.277 46.9161 112.039 46.94 111.782C46.9638 111.525 46.9925 111.261 47.026 110.99C47.0729 110.61 46.9374 110.4 46.6195 110.361ZM60.8782 112.984C60.8888 112.898 60.8852 112.768 60.8675 112.593C60.8498 112.417 60.8272 112.218 60.7997 111.994C60.7732 111.762 60.7404 111.518 60.7012 111.261C60.6631 110.997 60.6317 110.741 60.6071 110.494C60.5825 110.247 60.5637 110.016 60.5508 109.802C60.5379 109.588 60.5401 109.411 60.5573 109.272C60.5793 109.093 60.6474 108.956 60.7616 108.86C60.8768 108.756 61.0157 108.683 61.1785 108.64C61.3412 108.597 61.5132 108.575 61.6944 108.574C61.8756 108.572 62.0476 108.582 62.2104 108.602C62.412 108.627 62.5987 108.709 62.7704 108.848C62.9508 108.981 63.0582 109.195 63.0926 109.49C63.1405 109.803 63.1725 110.118 63.1885 110.435C63.2132 110.745 63.2306 111.05 63.2407 111.351C63.2518 111.643 63.26 111.928 63.2652 112.204C63.2782 112.481 63.2936 112.739 63.3114 112.977C63.335 113.169 63.3749 113.323 63.4313 113.44C63.4955 113.559 63.5741 113.655 63.6672 113.729C63.7691 113.797 63.8772 113.846 63.9916 113.876C64.1137 113.907 64.2446 113.931 64.3841 113.948C64.5392 113.967 64.7078 113.972 64.89 113.963C65.0722 113.954 65.2485 113.96 65.4191 113.981C65.5277 113.995 65.6299 114.027 65.7259 114.078C65.8307 114.122 65.9199 114.196 65.9937 114.3C66.0685 114.396 66.1196 114.524 66.1469 114.685C66.182 114.847 66.1848 115.048 66.1551 115.288C66.1302 115.49 66.0704 115.656 65.9756 115.786C65.8818 115.908 65.7235 115.979 65.5006 115.999L65.0704 116.04C64.9357 116.047 64.8093 116.051 64.6911 116.052C64.5816 116.046 64.4406 116.041 64.2681 116.035C63.8989 116.029 63.697 116.165 63.6625 116.445C63.6597 116.468 63.6623 116.574 63.6703 116.764C63.6783 116.954 63.6884 117.192 63.7004 117.477C63.7212 117.755 63.742 118.064 63.7629 118.405C63.7847 118.739 63.804 119.06 63.821 119.369C63.8457 119.679 63.8664 119.957 63.8833 120.203C63.9011 120.441 63.9154 120.612 63.9262 120.716C63.9439 120.892 63.9586 121.027 63.9704 121.123C63.9822 121.219 63.978 121.348 63.9579 121.511C63.9426 121.635 63.8924 121.755 63.8073 121.87C63.7231 121.978 63.6055 122.07 63.4545 122.146C63.3112 122.222 63.1392 122.276 62.9387 122.306C62.7372 122.344 62.5124 122.348 62.2643 122.317C61.9929 122.284 61.8052 122.178 61.7013 122C61.606 121.815 61.5486 121.611 61.5289 121.388C61.4779 120.973 61.4322 120.546 61.3918 120.108C61.3591 119.671 61.326 119.238 61.2925 118.809C61.2666 118.38 61.2393 117.964 61.2106 117.559C61.1907 117.147 61.1721 116.755 61.1551 116.383C61.1374 116.208 61.0829 116.075 60.9917 115.985C60.9015 115.887 60.7788 115.829 60.6237 115.81C60.0965 115.744 59.563 115.698 59.0232 115.671C58.4921 115.637 57.9693 115.6 57.4546 115.56C57.2744 115.553 57.1276 115.594 57.0144 115.683C56.9012 115.771 56.8345 115.897 56.8144 116.059C56.7694 116.424 56.7287 116.785 56.6924 117.142C56.6562 117.5 56.615 117.865 56.5691 118.237C56.5164 118.664 56.4546 119.101 56.3835 119.549C56.3202 119.997 56.2511 120.43 56.1761 120.845C56.1415 120.999 56.0792 121.121 55.9892 121.212C55.907 121.304 55.8039 121.374 55.6799 121.422C55.5637 121.47 55.4305 121.497 55.2803 121.502C55.1379 121.508 54.993 121.502 54.8457 121.484C54.4812 121.439 54.2059 121.342 54.0196 121.193C53.8324 121.052 53.7565 120.838 53.7919 120.551C53.8455 120.117 53.9132 119.665 53.9948 119.195C54.0765 118.724 54.147 118.249 54.2064 117.768C54.2466 117.443 54.2815 117.128 54.3111 116.825C54.3416 116.514 54.377 116.195 54.4172 115.87C54.4354 115.722 54.4139 115.61 54.3528 115.531C54.3003 115.446 54.2304 115.374 54.1431 115.316C54.0558 115.258 53.9564 115.203 53.8449 115.15C53.7343 115.089 53.6378 115.01 53.5553 114.913C53.4728 114.816 53.4067 114.682 53.357 114.511C53.3151 114.34 53.3119 114.112 53.3473 113.825C53.3664 113.67 53.4084 113.553 53.4732 113.474C53.5467 113.389 53.6295 113.324 53.7215 113.281C53.8212 113.238 53.9234 113.207 54.028 113.188C54.1336 113.162 54.2324 113.127 54.3244 113.083C54.4241 113.041 54.5059 112.984 54.5698 112.913C54.6424 112.835 54.6882 112.719 54.7074 112.564C54.7189 112.471 54.7284 112.362 54.7359 112.237C54.7445 112.104 54.752 111.979 54.7586 111.862C54.7653 111.745 54.7699 111.643 54.7727 111.557C54.7765 111.463 54.7802 111.4 54.7841 111.369C54.8166 111.105 54.8774 110.9 54.9663 110.754C55.0639 110.601 55.1718 110.492 55.29 110.428C55.409 110.356 55.5359 110.316 55.6706 110.31C55.814 110.296 55.9477 110.296 56.0718 110.312C56.537 110.369 56.8478 110.498 57.0041 110.699C57.1691 110.892 57.2388 111.157 57.2131 111.492L57.1088 112.719C57.1014 112.907 57.134 113.056 57.2069 113.168C57.2807 113.271 57.4145 113.335 57.6083 113.359L60.2599 113.592C60.4867 113.604 60.6378 113.56 60.7132 113.459C60.7964 113.359 60.8514 113.201 60.8782 112.984ZM67.4119 119.836C67.3886 119.833 67.3494 119.832 67.2942 119.833C67.2467 119.835 67.1915 119.836 67.1285 119.836C67.0732 119.837 67.018 119.838 66.9628 119.839C66.9075 119.841 66.8644 119.839 66.8334 119.835C66.6163 119.809 66.4373 119.696 66.2965 119.497C66.1567 119.291 66.1054 119.037 66.1428 118.735C66.1677 118.533 66.2575 118.347 66.4123 118.177C66.5671 118.008 66.7917 117.878 67.0862 117.788C67.1762 117.76 67.2474 117.726 67.2997 117.685C67.3607 117.637 67.3969 117.567 67.4084 117.474C67.439 117.226 67.4638 116.961 67.4828 116.68C67.5105 116.392 67.5361 116.057 67.5598 115.674C67.5616 115.596 67.5436 115.519 67.5057 115.443C67.4755 115.369 67.4386 115.285 67.3948 115.193C67.3598 115.095 67.3296 114.989 67.3042 114.875C67.2789 114.762 67.2762 114.624 67.2963 114.461C67.3145 114.314 67.3545 114.149 67.4162 113.968C67.4867 113.78 67.5979 113.613 67.7498 113.466C67.9104 113.313 68.1176 113.197 68.3714 113.118C68.6339 113.032 68.9628 113.014 69.3583 113.062C69.5211 113.083 69.6549 113.115 69.7596 113.159C69.8643 113.204 69.9526 113.254 70.0244 113.31C70.1049 113.359 70.1742 113.403 70.2324 113.442C70.2984 113.482 70.3662 113.506 70.436 113.514C70.5601 113.53 70.8111 113.537 71.189 113.536C71.5669 113.536 72.0209 113.525 72.5509 113.504C73.0887 113.484 73.6783 113.458 74.3197 113.427C74.9689 113.397 75.6268 113.36 76.2935 113.317C76.961 113.265 77.6131 113.212 78.2497 113.157C78.8862 113.102 79.4642 113.043 79.9835 112.981C80.1433 112.962 80.2814 112.959 80.3977 112.973C80.5605 112.993 80.6837 113.048 80.7672 113.137C80.8593 113.219 80.922 113.318 80.9551 113.432C80.9882 113.546 81 113.674 80.9906 113.814C80.9898 113.948 80.9822 114.073 80.9679 114.189C80.943 114.391 80.8497 114.572 80.6881 114.733C80.5353 114.887 80.2975 114.996 79.9749 115.058C79.1796 115.188 78.3798 115.29 77.5756 115.364C76.7801 115.431 75.9784 115.486 75.1703 115.528C74.3631 115.562 73.5535 115.584 72.7415 115.594C71.9295 115.604 71.1213 115.614 70.3171 115.625C70.2066 115.627 70.1199 115.66 70.057 115.723C69.9951 115.778 69.9574 115.86 69.944 115.969L69.8851 116.445C69.8689 116.577 69.856 116.713 69.8465 116.854C69.837 116.995 69.8367 117.124 69.8456 117.244C69.8623 117.364 69.8891 117.465 69.926 117.549C69.9639 117.624 70.0216 117.667 70.0992 117.676C70.2853 117.699 70.5769 117.696 70.9742 117.666C71.3792 117.638 71.8326 117.599 72.3345 117.551C72.8451 117.496 73.3761 117.435 73.9273 117.37C74.4873 117.297 75.0144 117.236 75.5085 117.187C76.0036 117.13 76.4381 117.085 76.8121 117.053C77.1861 117.02 77.4468 117.013 77.5941 117.031C77.8112 117.058 77.964 117.16 78.0524 117.336C78.1496 117.505 78.2027 117.713 78.2118 117.958C78.207 117.997 78.2065 118.032 78.2105 118.064C78.2144 118.096 78.214 118.131 78.2092 118.17C78.1814 118.395 78.0858 118.596 77.9223 118.772C77.7675 118.942 77.5099 119.052 77.1495 119.102C77.0526 119.121 76.8603 119.149 76.5726 119.184C76.2858 119.212 75.9467 119.249 75.5552 119.295C75.1648 119.333 74.7424 119.375 74.288 119.422C73.8336 119.468 73.3869 119.515 72.948 119.563C72.5101 119.604 72.0993 119.647 71.7156 119.694C71.3407 119.735 71.0335 119.768 70.7942 119.793C70.5782 119.822 70.445 119.848 70.3946 119.874C70.352 119.9 70.3278 119.936 70.3221 119.983C70.3165 120.155 70.3822 120.325 70.5191 120.491C70.6637 120.659 70.8486 120.819 71.0736 120.973C71.3064 121.128 71.5678 121.274 71.8577 121.412C72.1554 121.551 72.4628 121.676 72.7798 121.786C73.1055 121.889 73.425 121.98 73.7381 122.058C74.0512 122.136 74.3434 122.191 74.6148 122.225C74.7311 122.239 74.8978 122.26 75.1149 122.287C75.332 122.314 75.569 122.339 75.8258 122.363C76.0914 122.38 76.3612 122.393 76.6355 122.404C76.9175 122.415 77.1694 122.414 77.3913 122.403C77.6219 122.384 77.8108 122.352 77.9581 122.307C78.114 122.256 78.1977 122.183 78.2092 122.09C78.2197 122.005 78.1997 121.912 78.1492 121.811C78.1064 121.712 78.0917 121.607 78.1051 121.499C78.1243 121.344 78.1856 121.198 78.2891 121.061C78.3935 120.916 78.5188 120.794 78.665 120.694C78.8199 120.587 78.9869 120.51 79.1661 120.461C79.354 120.405 79.5371 120.389 79.7155 120.411C79.9403 120.438 80.14 120.51 80.3146 120.626C80.4902 120.735 80.6348 120.871 80.7484 121.034C80.8707 121.191 80.9553 121.367 81.0021 121.561C81.0567 121.757 81.072 121.952 81.048 122.146C80.9848 122.657 80.7403 123.076 80.3144 123.401C79.8963 123.727 79.37 123.973 78.7355 124.139C78.1001 124.312 77.3953 124.41 76.6211 124.433C75.8459 124.463 75.0745 124.431 74.3069 124.336C73.4075 124.225 72.5933 124.061 71.8642 123.845C71.1343 123.637 70.4909 123.365 69.9342 123.028C69.3775 122.692 68.9117 122.288 68.537 121.817C68.1632 121.338 67.878 120.779 67.6813 120.141C67.6102 119.951 67.5205 119.849 67.4119 119.836ZM89.5708 120.636C89.5133 121.101 89.5721 121.549 89.7472 121.98C89.931 122.404 90.1903 122.79 90.5251 123.139C90.8609 123.479 91.2586 123.765 91.7183 123.995C92.1789 124.217 92.6612 124.359 93.1652 124.421C93.3202 124.44 93.4806 124.448 93.6463 124.445C93.813 124.434 93.9665 124.402 94.107 124.349C94.2474 124.295 94.3669 124.219 94.4656 124.121C94.5653 124.016 94.6257 123.877 94.6467 123.707C94.6869 123.381 94.6104 123.045 94.417 122.698C94.2314 122.353 93.9717 122.002 93.6378 121.646C93.3049 121.282 92.9172 120.915 92.4748 120.546C92.0333 120.168 91.5836 119.794 91.1257 119.423C90.6678 119.051 90.2176 118.681 89.7752 118.311C89.3337 117.934 88.946 117.567 88.6121 117.211C88.2792 116.847 88.0161 116.492 87.8227 116.146C87.6381 115.792 87.5659 115.453 87.6061 115.127C87.6444 114.817 87.7574 114.539 87.945 114.295C88.1413 114.044 88.3847 113.826 88.6751 113.641C88.9656 113.457 89.2958 113.301 89.6658 113.173C90.0357 113.046 90.4179 112.947 90.8122 112.878C91.2064 112.808 91.5969 112.77 91.9835 112.763C92.3789 112.749 92.751 112.763 93.0999 112.806C93.3558 112.838 93.6339 112.88 93.9344 112.933C94.2436 112.979 94.5262 113.049 94.7821 113.144C95.0468 113.232 95.2611 113.345 95.4251 113.483C95.5891 113.621 95.6577 113.799 95.6309 114.016C95.6222 114.086 95.5996 114.174 95.5629 114.279C95.5272 114.377 95.4403 114.54 95.302 114.767C95.1657 114.978 95.0167 115.133 94.855 115.231C94.7021 115.322 94.5131 115.354 94.2883 115.326C93.9704 115.287 93.6374 115.21 93.2894 115.097C92.95 114.976 92.602 114.894 92.2454 114.85C92.0515 114.826 91.8524 114.813 91.6479 114.811C91.4522 114.803 91.2695 114.816 91.1 114.85C90.9314 114.876 90.7905 114.934 90.6773 115.022C90.565 115.103 90.4997 115.217 90.4815 115.364C90.4633 115.511 90.5474 115.691 90.7338 115.903C90.9279 116.116 91.1856 116.356 91.5067 116.624C91.8356 116.893 92.2082 117.191 92.6244 117.518C93.0415 117.837 93.4635 118.18 93.8905 118.548C94.3261 118.909 94.7472 119.291 95.1538 119.696C95.5614 120.092 95.9157 120.506 96.2168 120.937C96.5265 121.361 96.7597 121.799 96.9164 122.251C97.0809 122.705 97.1348 123.16 97.0783 123.617C97.0094 124.176 96.8207 124.652 96.5121 125.047C96.2036 125.442 95.83 125.758 95.3914 125.995C94.9528 126.232 94.4806 126.39 93.9749 126.47C93.4683 126.557 92.9823 126.571 92.5171 126.514C92.0441 126.455 91.5706 126.338 91.0965 126.161C90.6292 125.993 90.1836 125.777 89.7597 125.512C89.3349 125.255 88.9425 124.959 88.5825 124.623C88.2312 124.28 87.9341 123.913 87.6913 123.521C87.4494 123.121 87.269 122.701 87.1501 122.262C87.039 121.823 87.0117 121.375 87.0682 120.917C87.0921 120.723 87.1277 120.531 87.1749 120.34C87.2308 120.142 87.3027 119.974 87.3907 119.835C87.4797 119.689 87.5919 119.577 87.7274 119.499C87.8639 119.413 88.0291 119.383 88.223 119.407C88.285 119.414 88.3538 119.431 88.4294 119.456C88.506 119.473 88.6374 119.525 88.8236 119.611C89.0398 119.708 89.2236 119.845 89.3751 120.021C89.5352 120.191 89.6004 120.395 89.5708 120.636ZM100.934 117.068C100.872 117.06 100.749 117.061 100.567 117.07C100.394 117.072 100.188 117.078 99.951 117.088C99.7136 117.098 99.4636 117.115 99.201 117.137C98.9394 117.152 98.6938 117.165 98.4641 117.176C98.2345 117.187 98.0363 117.198 97.8697 117.209C97.6962 117.211 97.5824 117.209 97.5281 117.202C97.0086 117.138 96.7824 116.835 96.8494 116.292C96.8676 116.145 96.9008 116.003 96.9491 115.867C96.9905 115.723 97.0533 115.597 97.1375 115.489C97.2226 115.374 97.3285 115.281 97.4554 115.21C97.5822 115.139 97.7367 115.099 97.9189 115.09C98.8433 115.062 99.7648 115.026 100.683 114.982C101.602 114.938 102.529 114.888 103.465 114.83C103.672 114.816 103.858 114.804 104.025 114.793C104.192 114.774 104.381 114.746 104.59 114.709C104.815 114.674 105.058 114.645 105.321 114.622C105.585 114.592 105.847 114.569 106.109 114.554C106.378 114.54 106.635 114.533 106.879 114.531C107.131 114.531 107.358 114.543 107.559 114.568C107.807 114.599 107.984 114.703 108.087 114.881C108.2 115.053 108.239 115.282 108.203 115.569C108.185 115.716 108.156 115.858 108.115 115.995C108.076 116.124 108.018 116.238 107.943 116.339C107.867 116.44 107.771 116.519 107.654 116.575C107.537 116.632 107.392 116.657 107.219 116.652C106.77 116.659 106.287 116.678 105.772 116.709C105.257 116.732 104.807 116.775 104.422 116.837C104.261 116.865 104.135 116.928 104.044 117.027C103.954 117.118 103.888 117.24 103.845 117.392C103.804 117.536 103.77 117.686 103.743 117.84C103.725 117.987 103.707 118.131 103.69 118.27C103.65 118.596 103.621 118.923 103.604 119.251C103.595 119.581 103.582 119.91 103.565 120.238C103.497 121.364 103.465 122.481 103.469 123.592C103.482 124.703 103.504 125.828 103.537 126.965C103.548 127.006 103.551 127.046 103.546 127.085C103.541 127.123 103.536 127.162 103.532 127.201C103.479 127.627 103.201 127.9 102.698 128.019L102.155 128.117C102.01 128.147 101.871 128.153 101.739 128.137C101.538 128.112 101.383 128.026 101.275 127.879C101.166 127.739 101.108 127.543 101.1 127.29C101.048 125.93 101.021 124.581 101.021 123.242C101.022 121.896 101.082 120.55 101.201 119.203C101.213 118.984 101.23 118.746 101.254 118.489C101.278 118.232 101.306 117.968 101.34 117.697C101.387 117.317 101.251 117.107 100.934 117.068ZM105.703 117.362C105.457 117.127 105.351 116.869 105.385 116.59C105.398 116.482 105.431 116.379 105.482 116.283C105.534 116.18 105.617 116.08 105.731 115.984L106.116 115.641C106.348 115.418 106.6 115.323 106.872 115.357C106.965 115.368 107.063 115.4 107.167 115.452C107.264 115.496 107.361 115.567 107.459 115.666C108.444 116.614 109.383 117.588 110.275 118.587C111.175 119.58 112.031 120.65 112.842 121.797C112.972 121.955 113.092 122.041 113.2 122.054C113.409 122.08 113.555 121.956 113.636 121.683L115.163 117.727C115.336 117.284 115.601 117.084 115.957 117.128C116.035 117.138 116.115 117.16 116.197 117.193C116.287 117.228 116.375 117.282 116.461 117.356L116.84 117.627C117.194 117.883 117.349 118.19 117.305 118.546C117.291 118.663 117.252 118.788 117.188 118.922C116.805 119.858 116.411 120.849 116.007 121.893C115.611 122.93 115.204 123.998 114.785 125.095C114.367 126.185 113.939 127.29 113.502 128.409C113.064 129.527 112.621 130.634 112.171 131.727C111.988 132.185 111.692 132.389 111.281 132.338C111.164 132.323 111.039 132.284 110.906 132.221L110.536 132.057C110.303 131.965 110.141 131.843 110.05 131.69C109.959 131.537 109.926 131.36 109.95 131.158C109.956 131.112 109.963 131.057 109.971 130.995C109.986 130.934 110.009 130.874 110.04 130.815C110.402 129.923 110.759 129.038 111.112 128.161C111.464 127.283 111.809 126.401 112.147 125.514C112.169 125.461 112.187 125.416 112.199 125.378C112.212 125.341 112.221 125.298 112.227 125.252C112.238 125.159 112.226 125.067 112.19 124.976C112.162 124.886 112.118 124.794 112.059 124.7C111.115 123.355 110.111 122.078 109.048 120.868C107.993 119.66 106.878 118.491 105.703 117.362ZM120.833 130.14C120.603 130.151 120.396 130.169 120.212 130.194C120.027 130.226 119.803 130.226 119.539 130.193C119.253 130.158 119.042 130.049 118.907 129.867C118.772 129.685 118.717 129.493 118.742 129.292C118.762 129.129 118.815 128.923 118.901 128.674C118.987 128.417 119.047 128.157 119.08 127.893C119.149 126.886 119.197 125.888 119.225 124.9C119.261 123.905 119.287 122.995 119.302 122.17C119.317 121.345 119.329 120.642 119.338 120.061C119.348 119.472 119.366 119.072 119.392 118.863C119.409 118.724 119.46 118.6 119.544 118.492C119.629 118.377 119.739 118.28 119.875 118.202C120.01 118.125 120.162 118.073 120.331 118.046C120.508 118.013 120.69 118.008 120.876 118.031C121.24 118.076 121.501 118.167 121.657 118.304C121.814 118.434 121.897 118.625 121.905 118.878C121.916 120.572 121.882 122.123 121.803 123.53C121.732 124.93 121.641 126.241 121.53 127.463C121.508 127.642 121.537 127.783 121.619 127.888C121.708 127.993 121.83 128.055 121.985 128.075C122.296 128.113 122.612 128.136 122.933 128.144C123.256 128.145 123.579 128.145 123.901 128.146C124.224 128.146 124.542 128.15 124.856 128.158C125.179 128.158 125.488 128.177 125.782 128.213C125.976 128.237 126.128 128.279 126.239 128.34C126.357 128.402 126.443 128.475 126.495 128.561C126.555 128.647 126.587 128.741 126.59 128.844C126.602 128.94 126.602 129.034 126.59 129.127C126.572 129.275 126.538 129.42 126.489 129.564C126.44 129.707 126.369 129.836 126.276 129.951C126.184 130.057 126.068 130.141 125.926 130.203C125.784 130.272 125.611 130.301 125.407 130.292C124.442 130.267 123.561 130.229 122.765 130.178C121.976 130.128 121.332 130.115 120.833 130.14ZM127.89 127.304C127.867 127.301 127.828 127.3 127.772 127.301C127.725 127.303 127.67 127.305 127.607 127.305C127.551 127.306 127.496 127.307 127.441 127.308C127.386 127.309 127.343 127.307 127.312 127.304C127.094 127.277 126.915 127.164 126.775 126.966C126.635 126.76 126.584 126.505 126.621 126.203C126.646 126.001 126.736 125.816 126.89 125.646C127.045 125.476 127.27 125.346 127.564 125.257C127.654 125.228 127.726 125.194 127.778 125.153C127.839 125.106 127.875 125.035 127.887 124.942C127.917 124.694 127.942 124.43 127.961 124.148C127.989 123.861 128.014 123.525 128.038 123.143C128.04 123.064 128.022 122.987 127.984 122.911C127.954 122.837 127.917 122.754 127.873 122.662C127.838 122.563 127.808 122.457 127.782 122.343C127.757 122.23 127.754 122.092 127.774 121.929C127.793 121.782 127.833 121.618 127.894 121.436C127.965 121.248 128.076 121.081 128.228 120.934C128.389 120.781 128.596 120.665 128.85 120.586C129.112 120.5 129.441 120.482 129.836 120.531C129.999 120.551 130.133 120.583 130.238 120.628C130.342 120.672 130.431 120.722 130.502 120.778C130.583 120.828 130.652 120.872 130.711 120.91C130.776 120.95 130.844 120.974 130.914 120.983C131.038 120.998 131.289 121.005 131.667 121.005C132.045 121.004 132.499 120.993 133.029 120.972C133.567 120.952 134.156 120.926 134.798 120.895C135.447 120.865 136.105 120.829 136.772 120.785C137.439 120.734 138.091 120.68 138.728 120.625C139.364 120.57 139.942 120.511 140.462 120.449C140.621 120.43 140.76 120.427 140.876 120.442C141.039 120.462 141.162 120.516 141.245 120.605C141.337 120.688 141.4 120.786 141.433 120.9C141.466 121.014 141.478 121.142 141.469 121.282C141.468 121.416 141.46 121.541 141.446 121.657C141.421 121.859 141.328 122.04 141.166 122.201C141.013 122.356 140.776 122.464 140.453 122.527C139.658 122.657 138.858 122.759 138.054 122.833C137.258 122.9 136.456 122.954 135.648 122.996C134.841 123.03 134.032 123.052 133.22 123.062C132.408 123.072 131.599 123.082 130.795 123.093C130.685 123.095 130.598 123.128 130.535 123.191C130.473 123.246 130.436 123.328 130.422 123.437L130.363 123.914C130.347 124.046 130.334 124.182 130.325 124.322C130.315 124.463 130.315 124.593 130.324 124.712C130.34 124.832 130.367 124.934 130.404 125.017C130.442 125.092 130.5 125.135 130.577 125.145C130.763 125.168 131.055 125.164 131.452 125.135C131.857 125.106 132.311 125.067 132.813 125.019C133.323 124.964 133.854 124.904 134.405 124.838C134.965 124.765 135.492 124.705 135.987 124.655C136.482 124.598 136.916 124.554 137.29 124.521C137.664 124.489 137.925 124.482 138.072 124.5C138.289 124.527 138.442 124.628 138.531 124.804C138.628 124.974 138.681 125.181 138.69 125.426C138.685 125.465 138.685 125.5 138.689 125.532C138.693 125.564 138.692 125.6 138.687 125.638C138.66 125.863 138.564 126.064 138.4 126.241C138.246 126.41 137.988 126.52 137.628 126.57C137.531 126.59 137.338 126.617 137.051 126.652C136.764 126.68 136.425 126.717 136.033 126.763C135.643 126.801 135.22 126.844 134.766 126.89C134.312 126.936 133.865 126.983 133.426 127.031C132.988 127.072 132.577 127.116 132.194 127.163C131.819 127.203 131.512 127.236 131.272 127.261C131.056 127.29 130.923 127.317 130.873 127.342C130.83 127.368 130.806 127.405 130.8 127.451C130.795 127.624 130.86 127.793 130.997 127.959C131.142 128.127 131.327 128.287 131.552 128.441C131.785 128.596 132.046 128.742 132.336 128.88C132.634 129.02 132.941 129.144 133.258 129.254C133.584 129.357 133.903 129.448 134.216 129.526C134.529 129.604 134.822 129.66 135.093 129.693C135.209 129.708 135.376 129.728 135.593 129.755C135.81 129.782 136.047 129.807 136.304 129.831C136.569 129.848 136.839 129.862 137.114 129.872C137.396 129.883 137.648 129.883 137.869 129.871C138.1 129.852 138.289 129.82 138.436 129.775C138.592 129.724 138.676 129.652 138.687 129.559C138.698 129.473 138.678 129.38 138.627 129.28C138.585 129.18 138.57 129.076 138.583 128.967C138.602 128.812 138.664 128.666 138.767 128.529C138.872 128.385 138.997 128.262 139.143 128.162C139.298 128.056 139.465 127.978 139.644 127.929C139.832 127.874 140.015 127.857 140.194 127.879C140.418 127.907 140.618 127.979 140.793 128.095C140.968 128.203 141.113 128.339 141.227 128.502C141.349 128.659 141.433 128.835 141.48 129.03C141.535 129.225 141.55 129.42 141.526 129.614C141.463 130.126 141.218 130.544 140.793 130.869C140.374 131.196 139.848 131.442 139.214 131.607C138.578 131.781 137.873 131.879 137.099 131.901C136.324 131.931 135.553 131.899 134.785 131.804C133.886 131.693 133.071 131.53 132.342 131.314C131.612 131.105 130.969 130.833 130.412 130.497C129.856 130.16 129.39 129.756 129.015 129.285C128.641 128.806 128.356 128.247 128.159 127.609C128.088 127.419 127.999 127.318 127.89 127.304Z" fill="#FBFBF9"/>
<path d="M103.914 75.3542C99.9192 79.3086 94.5347 81.5414 88.9139 81.5742C87.5971 81.558 86.2872 81.38 85.0139 81.0442C81.1939 80.0442 78.0839 78.0442 77.2139 73.9642C76.3439 69.8842 78.4139 66.7342 81.3839 64.2442C84.0403 61.976 87.3504 60.6134 90.8339 60.3542C92.7539 60.2242 92.8939 59.8842 91.8339 58.3542C89.4439 54.7642 89.9539 51.8842 93.0739 50.1042C93.9943 49.6309 95.0031 49.3544 96.0363 49.2921C97.0694 49.2298 98.1041 49.3832 99.0747 49.7425C100.045 50.1018 100.931 50.6591 101.674 51.379C102.418 52.0989 103.003 52.9657 103.394 53.9242C103.734 54.8742 104.084 56.0442 102.924 56.5342C101.764 57.0242 101.474 55.8342 101.044 55.0442C99.7105 52.5242 97.8339 51.5842 95.4139 52.2242C93.1639 52.8242 92.4139 54.3142 93.6839 56.3042C94.9251 58.3736 96.7667 60.0164 98.9639 61.0142C100.034 61.4942 101.754 61.6342 100.964 63.4042C100.304 64.8742 99.0239 64.0342 97.9639 63.6842C95.3412 62.7632 92.518 62.5698 89.7942 63.1244C87.0704 63.679 84.5476 64.961 82.4939 66.8342C80.2339 68.7442 79.0939 71.2642 79.9939 74.1342C80.8939 77.0042 83.5039 78.2942 86.3039 78.6342C92.3739 79.3842 97.7539 77.8342 102.054 73.2542C102.432 72.9371 102.738 72.5429 102.952 72.098C103.166 71.6531 103.283 71.1677 103.294 70.6742C103.294 69.5242 103.544 68.2742 104.934 68.4542C106.324 68.6342 106.594 70.0542 106.324 71.1842C106.14 72.0757 106.162 72.9972 106.387 73.879C106.612 74.7609 107.035 75.5799 107.624 76.2742C108.059 76.9386 108.652 77.4842 109.35 77.8619C110.049 78.2395 110.83 78.4373 111.624 78.4373C112.418 78.4373 113.199 78.2395 113.898 77.8619C114.596 77.4842 115.189 76.9386 115.624 76.2742C116.3 75.2823 116.772 74.1659 117.012 72.9899C117.252 71.8138 117.256 70.6018 117.024 69.4242C116.957 68.8854 116.731 68.3788 116.375 67.9691C116.018 67.5594 115.548 67.2653 115.024 67.1242C113.884 66.6942 112.534 65.7542 113.254 64.3542C114.094 62.7342 115.554 63.6642 116.684 64.2842C117.956 64.934 119.397 65.1789 120.813 64.9858C122.229 64.7928 123.552 64.1711 124.604 63.2042C124.917 62.9252 125.172 62.5863 125.352 62.2075C125.533 61.8287 125.636 61.4176 125.656 60.9984C125.675 60.5792 125.611 60.1603 125.466 59.7663C125.322 59.3724 125.1 59.0113 124.814 58.7042C123.674 57.3642 122.274 55.9642 120.174 57.3842C118.964 58.1942 117.424 59.0042 116.664 57.1442C115.904 55.2842 117.084 54.2642 118.884 53.7442C121.194 53.0642 122.794 50.5742 122.944 47.6242C123.097 46.5823 122.927 45.5184 122.457 44.5761C121.986 43.6338 121.238 42.8583 120.314 42.3542C118.314 41.2242 115.084 41.7842 113.164 43.4442C111.387 45.0529 110.103 47.1338 109.464 49.4442C109.174 50.3542 108.874 51.6442 107.534 51.1342C106.194 50.6242 106.734 49.5542 107.014 48.5642C107.771 45.7724 109.332 43.2649 111.504 41.3542C112.912 40.0632 114.699 39.2609 116.6 39.0663C118.501 38.8718 120.413 39.2954 122.054 40.2742C123.594 41.2789 124.736 42.789 125.284 44.5447C125.831 46.3004 125.75 48.192 125.054 49.8942C123.994 52.6942 123.514 54.3942 126.514 56.6442C130.054 59.2942 128.654 64.3342 124.364 66.5442C123.191 67.1639 122.167 68.0328 121.366 69.0901C120.564 70.1474 120.004 71.3673 119.724 72.6642C119.413 74.6258 118.657 76.4902 117.514 78.1142C116.843 79.0325 115.969 79.7822 114.958 80.3041C113.948 80.826 112.831 81.1058 111.694 81.1213C110.557 81.1368 109.432 80.8877 108.408 80.3936C107.384 79.8994 106.489 79.1738 105.794 78.2742C105.094 77.3542 104.544 76.3542 103.914 75.3542Z" fill="#FBFBF9"/>
<path d="M114.114 58.9942C114.184 61.7042 112.454 62.8942 110.644 63.8842C108.834 64.8742 106.644 65.8842 104.364 64.5342C103.785 64.2086 103.336 63.6928 103.094 63.0743C102.454 61.4743 104.374 56.8343 106.154 55.7043C107.224 54.9991 108.51 54.6984 109.782 54.856C111.054 55.0136 112.228 55.6193 113.094 56.5643C113.42 56.8789 113.678 57.2566 113.854 57.6744C114.029 58.0921 114.118 58.5412 114.114 58.9942ZM107.194 62.3542C108.724 62.1903 110.144 61.4802 111.194 60.3542C111.453 60.0858 111.598 59.7273 111.598 59.3542C111.598 58.9812 111.453 58.6227 111.194 58.3542C110.804 57.8542 110.194 57.5243 109.794 58.1743C109.184 59.1743 108.364 59.2343 107.324 59.3143C106.284 59.3943 105.804 60.5042 105.694 61.4742C105.584 62.4442 106.484 62.2542 107.194 62.3542Z" fill="#FBFBF9"/>
<path d="M93.7738 43.3543C89.8538 43.3543 88.0838 44.8943 87.7738 48.1543C87.7038 48.8643 87.5838 49.5143 86.7738 49.6743C85.9638 49.8343 85.4638 49.1943 85.1438 48.4843C84.2538 46.5743 85.3938 43.7343 87.9038 42.2343C90.4138 40.7343 93.0338 40.0143 95.9038 40.9843C96.9038 41.3143 97.9038 41.6443 97.6038 42.9843C97.3038 44.3243 96.2738 43.8643 95.4038 43.7043L93.7738 43.3543Z" fill="#FBFBF9"/>
<path d="M25.4497 149.121C20.5222 151.981 6.93293 162.263 10.2918 171.758C10.9195 173.533 11.2112 174.275 12.4797 175.502M12.4797 175.502C12.6034 175.622 13.4736 176.647 14.3222 177.644C15.1841 178.658 16.6737 178.531 17.3718 177.399V177.399C18.4675 175.622 16.5615 173.516 14.6841 174.429L12.4797 175.502ZM12.4797 175.502V175.502C7.10146 178.439 5.0972 185.15 7.89395 190.602C8.94373 192.649 9.92927 194.604 10.5921 195.995M12.0507 187.552C11.456 189.276 11.0915 191.038 10.8836 192.778C10.8592 192.983 10.7992 195.997 10.3759 195.995C8.59778 195.988 4.54811 191.724 3.87012 190.417" stroke="#FBFBF9" stroke-width="3" stroke-linecap="round"/>
</g>
<defs>
<clipPath id="clip0_202_3">
<rect width="200" height="200" fill="white"/>
</clipPath>
</defs>
</svg>
