<svg width="94" height="107" viewBox="0 0 94 107" fill="none" xmlns="http://www.w3.org/2000/svg">
<circle cx="45" cy="44.9999" r="44.3675" fill="white" fill-opacity="0.6" stroke="white" stroke-width="1.26491"/>
<path d="M45.002 25.7141L45.002 64.2855" stroke="#8A88FF" stroke-width="5.05964" stroke-linecap="round"/>
<path opacity="0.7" d="M34.7148 34.7141L34.7148 55.2855" stroke="#8A88FF" stroke-width="5.05964" stroke-linecap="round"/>
<path opacity="0.7" d="M55.2871 34.7141L55.2871 55.2855" stroke="#8A88FF" stroke-width="5.05964" stroke-linecap="round"/>
<path opacity="0.36" d="M65.5723 38.5712L65.5723 51.4284" stroke="#8A88FF" stroke-width="5.05964" stroke-linecap="round"/>
<path opacity="0.36" d="M24.4297 38.5712L24.4297 51.4284" stroke="#8A88FF" stroke-width="5.05964" stroke-linecap="round"/>
<circle cx="70.5557" cy="82.5815" r="19.7501" transform="rotate(9.42259 70.5557 82.5815)" fill="#FF5959" stroke="#FFA76A" stroke-width="1.26491"/>
<path d="M72.0576 73.5331C70.0659 73.2026 68.1683 74.5593 67.838 76.5501L66.8374 82.5795C66.507 84.5703 67.8646 86.4672 69.8563 86.7978C71.848 87.1283 73.7456 85.7716 74.076 83.7808L75.0766 77.7514C75.407 75.7606 74.0494 73.8637 72.0576 73.5331ZM65.3533 80.2592C65.193 80.2352 65.0297 80.2757 64.8994 80.3719C64.769 80.4681 64.6822 80.6121 64.658 80.7722L64.4245 82.1791C63.9068 85.2985 65.8657 88.2701 68.8579 89.0788L68.5527 90.9182C68.5383 90.9979 68.5399 91.0797 68.5574 91.1588C68.5749 91.2379 68.608 91.3127 68.6546 91.3789C68.7013 91.4452 68.7607 91.5014 68.8293 91.5445C68.898 91.5876 68.9745 91.6166 69.0544 91.6299C69.1344 91.6431 69.2161 91.6404 69.295 91.6218C69.3739 91.6032 69.4482 91.5691 69.5138 91.5215C69.5794 91.4739 69.6348 91.4138 69.6769 91.3446C69.7191 91.2754 69.747 91.1985 69.7591 91.1185L70.0644 89.279C73.1574 89.4802 75.9712 87.3006 76.4889 84.1812L76.7223 82.7744C76.7367 82.6946 76.7351 82.6129 76.7176 82.5338C76.7001 82.4547 76.6671 82.3799 76.6204 82.3136C76.5737 82.2474 76.5143 82.1912 76.4457 82.1481C76.3771 82.105 76.3006 82.076 76.2206 82.0627C76.1407 82.0495 76.0589 82.0522 75.98 82.0708C75.9012 82.0894 75.8268 82.1235 75.7612 82.1711C75.6956 82.2187 75.6402 82.2788 75.5981 82.348C75.556 82.4172 75.528 82.4941 75.5159 82.5741L75.2824 83.981C74.8431 86.628 72.3736 88.4111 69.7283 88.0116C69.7021 88.0038 69.6753 87.9977 69.6482 87.9935C69.6261 87.9902 69.6038 87.9881 69.5814 87.9872C66.9511 87.5091 65.1919 85.025 65.6309 82.3793L65.8644 80.9724C65.879 80.8919 65.8772 80.8093 65.8592 80.7295C65.8412 80.6497 65.8074 80.5743 65.7597 80.5078C65.7121 80.4413 65.6515 80.385 65.5817 80.3423C65.5119 80.2996 65.4342 80.2713 65.3533 80.2592Z" fill="#F8F8F8"/>
</svg>
