<svg width="20" height="20" viewBox="0 0 20 20" fill="none" xmlns="http://www.w3.org/2000/svg">
<mask id="mask0_4394_17593" style="mask-type:alpha" maskUnits="userSpaceOnUse" x="0" y="0" width="20" height="20">
<rect width="20" height="20" fill="#D9D9D9"/>
</mask>
<g mask="url(#mask0_4394_17593)">
<path d="M9.99923 16.5913C9.82265 16.5913 9.65076 16.5555 9.48356 16.4839C9.31637 16.4124 9.17775 16.3119 9.06771 16.1827L3.98279 11.4727H5.57729L9.74698 15.3569C9.7752 15.3829 9.81373 15.4062 9.86256 15.4271C9.91141 15.4479 9.95681 15.4583 9.99877 15.4583C10.0407 15.4583 10.0862 15.4479 10.135 15.4271C10.1838 15.4062 10.2217 15.3835 10.2487 15.3588L15.4234 10.5641C15.791 10.2105 16.0693 9.80182 16.2584 9.33814C16.4475 8.87446 16.5324 8.40171 16.5132 7.91987C16.5185 6.98932 16.223 6.17869 15.6265 5.48798C15.0301 4.79727 14.2925 4.45191 13.4138 4.45191C12.9824 4.45191 12.5654 4.54628 12.163 4.73502C11.7605 4.92377 11.4107 5.17956 11.1137 5.50239L10.4667 6.1875C10.4092 6.25268 10.3409 6.30049 10.2618 6.33094C10.1826 6.36138 10.0959 6.3766 10.0016 6.3766C9.9074 6.3766 9.82326 6.35963 9.74923 6.32569C9.67519 6.29175 9.6104 6.24569 9.55488 6.1875L8.89621 5.49079C8.59386 5.16146 8.24331 4.90865 7.84456 4.73237C7.44581 4.55608 7.0266 4.46793 6.58692 4.46793C5.8476 4.46793 5.20497 4.7142 4.65902 5.20673C4.11308 5.69925 3.7509 6.31998 3.57248 7.06891H2.48438C2.67454 6.03473 3.1459 5.16214 3.89844 4.45114C4.65098 3.74014 5.54722 3.38464 6.58715 3.38464C7.18062 3.38464 7.74534 3.50857 8.28131 3.75643C8.8173 4.0043 9.29683 4.34938 9.7199 4.79169L10.0004 5.08819L10.2648 4.80771C10.6847 4.34618 11.1681 3.99362 11.7151 3.75002C12.2621 3.50644 12.8281 3.38464 13.4131 3.38464C14.5935 3.38464 15.5872 3.83155 16.3941 4.72535C17.2011 5.61916 17.6045 6.68957 17.6045 7.93658C17.6045 8.57608 17.4881 9.19043 17.2551 9.77964C17.0222 10.3689 16.667 10.8857 16.1894 11.3301L10.933 16.2035C10.801 16.3328 10.6565 16.4297 10.4996 16.4944C10.3426 16.559 10.1758 16.5913 9.99923 16.5913ZM10.0709 9.81248H2.85777V8.72918H13.1879C13.4538 8.72918 13.68 8.63636 13.8665 8.45071C14.053 8.26507 14.1462 8.03991 14.1462 7.77523C14.1462 7.51055 14.053 7.28391 13.8665 7.09533C13.68 6.90676 13.4538 6.81248 13.1879 6.81248C13.0097 6.81248 12.846 6.85842 12.6969 6.95031C12.5477 7.04218 12.4336 7.16612 12.3545 7.3221L11.2809 7.03044C11.4219 6.64049 11.6662 6.32613 12.0138 6.08735C12.3614 5.84857 12.7527 5.72919 13.1879 5.72919C13.755 5.72919 14.2371 5.92759 14.634 6.32439C15.031 6.7212 15.2295 7.20303 15.2295 7.76989C15.2295 8.33675 15.0414 8.8189 14.6653 9.21633C14.2891 9.61376 13.8175 9.81248 13.2504 9.81248H11.8193C11.9143 9.93962 11.9857 10.0835 12.0332 10.244C12.0808 10.4046 12.1045 10.5802 12.1045 10.7708C12.1045 11.338 11.9059 11.82 11.5086 12.217C11.1113 12.614 10.6289 12.8125 10.0613 12.8125C9.63394 12.8125 9.24477 12.6931 8.89381 12.4543C8.54285 12.2155 8.29687 11.9012 8.15585 11.5112L9.22954 11.2196C9.3086 11.3755 9.42254 11.4995 9.57137 11.5914C9.72022 11.6832 9.88353 11.7292 10.0613 11.7292C10.3241 11.7292 10.5498 11.6364 10.7384 11.4507C10.9269 11.2651 11.0212 11.0399 11.0212 10.7752C11.0212 10.5105 10.9293 10.2839 10.7455 10.0953C10.5617 9.90676 10.3368 9.81248 10.0709 9.81248Z" fill="#949494"/>
</g>
</svg>
