<svg width="217" height="100" viewBox="0 0 217 100" fill="none" xmlns="http://www.w3.org/2000/svg">
<path d="M28.0483 85.6061C28.7557 85.0748 29.6615 84.8829 30.5236 85.0816L35.4605 86.2196C37.7347 86.7439 39.7103 84.5846 38.9864 82.3659L37.3552 77.3657C37.0826 76.5301 37.1902 75.617 37.6495 74.8676L40.3935 70.3904C41.6337 68.3669 40.1444 65.7727 37.7716 65.8234L32.3907 65.9383C31.5331 65.9566 30.7086 65.6069 30.1257 64.9776L26.3987 60.954C24.7951 59.2228 21.9127 59.9354 21.3005 62.2144L19.9868 67.1053C19.7563 67.9634 19.1573 68.6752 18.3512 69.0488L13.4621 71.3153C11.3257 72.3057 11.111 75.2587 13.0817 76.5477L17.254 79.2767C18.025 79.7809 18.5215 80.6114 18.6008 81.5291L19.0417 86.6316C19.2444 88.9782 21.9485 90.1866 23.832 88.7722L28.0483 85.6061Z" fill="#F5C64E"/>
<path d="M62.4121 70.9641C63.1195 70.4329 64.0253 70.241 64.8874 70.4397L72.7211 72.2454C74.9953 72.7696 76.9709 70.6104 76.247 68.3916L73.6795 60.5214C73.4069 59.6858 73.5145 58.7727 73.9737 58.0233L78.3188 50.9337C79.559 48.9102 78.0697 46.3161 75.6969 46.3668L67.2289 46.5476C66.3713 46.5659 65.5469 46.2162 64.964 45.5869L59.1322 39.2911C57.5286 37.5598 54.6462 38.2724 54.034 40.5515L51.9408 48.3441C51.7103 49.2022 51.1113 49.9139 50.3053 50.2876L42.6212 53.8497C40.4848 54.84 40.2701 57.7931 42.2408 59.0821L48.9181 63.4495C49.689 63.9537 50.1856 64.7841 50.2649 65.7019L50.9664 73.8212C51.1692 76.1679 53.8733 77.3763 55.7567 75.9619L62.4121 70.9641Z" fill="#F5C64E"/>
<path d="M155.131 70.1405C156.004 69.9974 156.896 70.2469 157.568 70.8224L163.674 76.0515C165.447 77.5696 168.198 76.5712 168.584 74.2695L169.954 66.1053C170.1 65.2385 170.618 64.4791 171.372 64.0277L178.507 59.7575C180.544 58.5387 180.426 55.5498 178.299 54.4956L170.711 50.7331C169.942 50.352 169.374 49.6602 169.149 48.8325L166.897 40.5514C166.278 38.2742 163.393 37.5705 161.795 39.3067L156.33 45.2431C155.728 45.8968 154.867 46.2501 153.98 46.2079L145.52 45.8052C143.168 45.6932 141.61 48.2108 142.759 50.2661L146.654 57.2298C147.103 58.0338 147.159 58.9997 146.804 59.8498L143.664 67.3705C142.757 69.544 144.594 71.8676 146.918 71.4866L155.131 70.1405Z" fill="#F5C64E"/>
<path d="M192.019 84.67C192.878 84.4577 193.787 84.6353 194.503 85.1553L198.601 88.1331C200.49 89.5049 203.152 88.2901 203.354 85.9649L203.807 80.725C203.883 79.8494 204.339 79.051 205.055 78.5409L209.331 75.4931C211.264 74.1156 210.908 71.1457 208.704 70.2645L203.706 68.2662C202.91 67.9477 202.288 67.3035 201.997 66.4964L200.141 61.3358C199.342 59.1153 196.41 58.6441 194.955 60.5023L191.834 64.4901C191.286 65.1897 190.457 65.6106 189.569 65.6393L184.182 65.8136C181.829 65.8897 180.477 68.5237 181.786 70.4806L184.559 74.6238C185.072 75.3894 185.204 76.3478 184.918 77.2235L183.329 82.0921C182.598 84.3312 184.614 86.5007 186.901 85.9355L192.019 84.67Z" fill="#F5C64E"/>
<path d="M108.656 65.7023C110.1 65.04 111.763 65.0489 113.2 65.7265L121.43 69.6074C125.221 71.3951 129.512 68.3597 129.088 64.1898L128.133 54.7926C127.974 53.2222 128.511 51.6609 129.603 50.521L136.127 43.7109C139.075 40.6331 137.451 35.5124 133.268 34.696L123.781 32.8444C122.269 32.5493 120.956 31.6211 120.173 30.2944L115.168 21.8113C113.014 18.1613 107.684 18.312 105.74 22.0779L101.569 30.1596C100.837 31.5775 99.5139 32.598 97.9567 32.9462L88.512 35.058C84.385 35.9808 82.8814 41.0813 85.848 44.0952L92.1287 50.4763C93.2892 51.6553 93.8437 53.3021 93.6327 54.9429L92.4594 64.0654C91.9199 68.2609 96.2042 71.4133 100.049 69.6499L108.656 65.7023Z" fill="#F5C64E"/>
</svg>
