<svg width="20" height="20" viewBox="0 0 20 20" fill="none" xmlns="http://www.w3.org/2000/svg">
<path d="M2.30017 19.917C1.6851 19.917 1.16181 19.6995 0.730303 19.2646C0.298773 18.8297 0.0830078 18.3053 0.0830078 17.6914V10.0004C0.0830078 8.62431 0.343271 7.335 0.863799 6.13244C1.38431 4.92988 2.09177 3.88138 2.9862 2.98693C3.88064 2.09251 4.92915 1.38504 6.13171 0.864532C7.33427 0.344004 8.62358 0.0837402 9.99965 0.0837402C11.3757 0.0837402 12.665 0.344004 13.8676 0.864532C15.0701 1.38504 16.1186 2.09251 17.0131 2.98693C17.9075 3.88138 18.615 4.92988 19.1355 6.13244C19.656 7.335 19.9163 8.62431 19.9163 10.0004V17.6914C19.9163 18.3053 19.6984 18.8297 19.2627 19.2646C18.8269 19.6995 18.3015 19.917 17.6864 19.917H15.9053C15.2902 19.917 14.7669 19.6995 14.3354 19.2646C13.9039 18.8297 13.6881 18.3053 13.6881 17.6914V13.7404C13.6881 13.1265 13.9056 12.6021 14.3405 12.1672C14.7754 11.7323 15.2999 11.5148 15.9138 11.5148H18.0496V10.0004C18.0496 7.75787 17.2693 5.85558 15.7085 4.29351C14.1477 2.73142 12.247 1.95038 10.0064 1.95038C7.76579 1.95038 5.86284 2.73142 4.29756 4.29351C2.73228 5.85558 1.94965 7.75787 1.94965 10.0004V11.5148H4.09275C4.70866 11.5148 5.23236 11.7323 5.66387 12.1672C6.09539 12.6021 6.31114 13.1265 6.31114 13.7404V17.6914C6.31114 18.3053 6.09327 18.8297 5.65752 19.2646C5.22179 19.6995 4.69638 19.917 4.08129 19.917H2.30017ZM2.30866 18.0504H4.08552C4.19023 18.0504 4.27624 18.0167 4.34356 17.9494C4.41087 17.8821 4.44453 17.7961 4.44453 17.6914V13.7404C4.44453 13.6357 4.41087 13.5497 4.34356 13.4824C4.27624 13.4151 4.19023 13.3815 4.08552 13.3815H1.94965V17.6914C1.94965 17.7961 1.9833 17.8821 2.05062 17.9494C2.11794 18.0167 2.20395 18.0504 2.30866 18.0504ZM15.9138 18.0504H17.6906C17.7953 18.0504 17.8814 18.0167 17.9487 17.9494C18.016 17.8821 18.0496 17.7961 18.0496 17.6914V13.3815H15.9138C15.8091 13.3815 15.723 13.4151 15.6557 13.4824C15.5884 13.5497 15.5548 13.6357 15.5548 13.7404V17.6914C15.5548 17.7961 15.5884 17.8821 15.6557 17.9494C15.723 18.0167 15.8091 18.0504 15.9138 18.0504ZM2.30866 18.0504H1.94965H4.44453H2.30866ZM15.9138 18.0504H15.5548H18.0496H15.9138Z" fill="#1C1B1F"/>
</svg>
