<svg width="25" height="24" viewBox="0 0 25 24" fill="none" xmlns="http://www.w3.org/2000/svg">
<path d="M12.5051 2.00002C12.3579 1.99909 12.2134 2.03954 12.088 2.11676C11.9626 2.19398 11.8613 2.30488 11.7955 2.4369L9.35327 7.3336C9.18847 7.66402 8.87357 7.89392 8.50865 7.95022L2.66732 8.85141C2.52355 8.87368 2.38874 8.93543 2.27784 9.02983C2.16694 9.12422 2.08429 9.24756 2.03905 9.38618C1.99381 9.52479 1.98775 9.67325 2.02154 9.81511C2.05534 9.95696 2.12766 10.0867 2.2305 10.1898L6.26725 14.2366C6.52275 14.4928 6.6412 14.8551 6.58631 15.2127L5.68409 21.0904C5.66195 21.2346 5.68011 21.3821 5.73656 21.5166C5.79301 21.6511 5.88554 21.7673 6.00387 21.8523C6.1222 21.9373 6.26171 21.9877 6.4069 21.998C6.5521 22.0083 6.6973 21.9781 6.82639 21.9107L11.9727 19.2188C12.303 19.046 12.697 19.046 13.0273 19.2188L18.1736 21.9107C18.3027 21.9781 18.4479 22.0083 18.5931 21.998C18.7383 21.9877 18.8778 21.9373 18.9961 21.8523C19.1145 21.7673 19.207 21.6511 19.2634 21.5166C19.3199 21.3821 19.3381 21.2346 19.3159 21.0904L18.4137 15.2127C18.3588 14.8551 18.4773 14.4928 18.7327 14.2366L22.7695 10.1898C22.8723 10.0867 22.9447 9.95696 22.9785 9.81511C23.0123 9.67325 23.0062 9.52479 22.961 9.38618C22.9157 9.24756 22.8331 9.12422 22.7222 9.02983C22.6113 8.93543 22.4765 8.87368 22.3327 8.85141L16.4914 7.95022C16.1264 7.89392 15.8115 7.66402 15.6467 7.3336L13.2045 2.4369C13.1395 2.30645 13.0398 2.19657 12.9163 2.11946C12.7929 2.04235 12.6506 2.001 12.5051 2.00002Z" fill="#FFCB7D"/>
<path d="M12.5102 1.25003L12.5098 1.25003C12.2221 1.24823 11.9397 1.3273 11.6948 1.4781C11.4499 1.62889 11.2523 1.8453 11.1242 2.10258L8.68212 6.99886C8.62596 7.11146 8.51865 7.1898 8.39429 7.20898L2.55297 8.11018L2.55251 8.11025C2.27148 8.15378 2.00816 8.27447 1.79171 8.45871C1.57528 8.64293 1.41419 8.88345 1.32606 9.15347C1.23794 9.42349 1.22614 9.71263 1.29196 9.98891C1.35778 10.2652 1.4987 10.518 1.69933 10.7193L1.69951 10.7195L5.73626 14.7663C5.82333 14.8536 5.8637 14.9771 5.84499 15.0989L4.94277 20.9766L5.67949 21.0897L4.94277 20.9766C4.89966 21.2574 4.93502 21.5448 5.045 21.8069L5.73656 21.5166L5.045 21.8069C5.15499 22.069 5.33539 22.2956 5.56639 22.4615C5.79742 22.6274 6.06997 22.726 6.35381 22.7461C6.63765 22.7663 6.92142 22.7072 7.17358 22.5755L7.17402 22.5753L12.3203 19.8833C12.4329 19.8245 12.5671 19.8245 12.6797 19.8833L17.826 22.5753L17.8264 22.5755C18.0786 22.7072 18.3624 22.7663 18.6462 22.7461C18.93 22.726 19.2026 22.6274 19.4336 22.4615L18.9961 21.8523L19.4336 22.4615C19.6646 22.2956 19.845 22.069 19.955 21.8069C20.065 21.5448 20.1003 21.2574 20.0572 20.9766L19.155 15.0989C19.1363 14.9771 19.1767 14.8536 19.2637 14.7663L23.3005 10.7195L23.3007 10.7193C23.5013 10.518 23.6422 10.2652 23.708 9.98891C23.7739 9.71263 23.7621 9.42349 23.6739 9.15348C23.5858 8.88345 23.4247 8.64293 23.2083 8.45871C22.9918 8.27447 22.7285 8.15378 22.4475 8.11025L22.447 8.11018L16.6057 7.20898C16.4814 7.1898 16.374 7.11146 16.3179 6.99886L13.8758 2.10258C13.8758 2.10252 13.8758 2.10246 13.8757 2.10241C13.8757 2.10232 13.8757 2.10224 13.8756 2.10216C13.749 1.84811 13.5546 1.63388 13.3137 1.48338C13.0727 1.33279 12.7945 1.25196 12.5102 1.25003ZM12.5051 2.00002C12.3579 1.99909 12.2134 2.03954 12.088 2.11676L12.5051 2.00002Z" stroke="#7A7AFF" stroke-opacity="0.7" stroke-width="1.5"/>
</svg>
