<svg width="95" height="95" viewBox="0 0 95 95" fill="none" xmlns="http://www.w3.org/2000/svg">
<path d="M68.0741 50.2219C68.1311 54.851 66.6868 59.3725 63.9604 63.1007C61.2339 66.8289 57.374 69.5603 52.9661 70.8808C51.6858 71.3784 50.347 71.7072 48.983 71.8591C47.4297 71.8591 46.3797 71.2302 46.1801 69.7452C45.9805 68.2602 46.8396 67.4041 48.1759 67.0373C50.9923 66.3889 53.6778 65.2604 56.1161 63.7004C58.189 62.2996 59.9018 60.4233 61.1136 58.2259C62.3253 56.0285 63.0014 53.5729 63.0861 51.0611C63.1709 48.5493 62.6618 46.0532 61.6009 43.7782C60.54 41.5031 58.9576 39.5142 56.9839 37.975C50.5189 32.7339 43.4552 31.0392 35.5238 33.7472C29.8312 35.6864 27.0109 40.4209 27.627 46.7103C28.1216 51.8117 32.3564 56.1007 37.6498 57.0703C40.6263 57.6119 43.5681 57.6993 46.3276 56.5113C48.6619 55.5154 50.5276 53.8907 50.7446 51.0867C51.0049 47.7585 49.9462 45.0331 46.9871 43.3385C44.6615 42.0107 42.518 42.6222 40.9908 44.8672C40.5395 45.5223 40.1924 46.2473 39.7672 46.92C39.0036 48.1167 38.0316 48.9553 36.5391 48.2914C35.0465 47.6275 34.7428 46.2386 35.3329 44.7973C36.9643 40.8664 39.5936 37.8091 44.0106 37.6256C45.9087 37.5186 47.7999 37.9337 49.4815 38.8262C51.163 39.7187 52.5716 41.0551 53.5562 42.6921C59.0492 51.1304 54.476 60.844 44.5139 62.1805C36.7039 63.2287 29.9613 61.1497 25.258 54.5458C19.0447 45.8106 22.8716 33.5812 32.9291 29.3097C44.6181 24.348 59.6479 29.6241 65.7137 40.9014C67.375 43.7149 68.1946 46.9511 68.0741 50.2219Z" fill="#FFCB7D"/>
<path d="M0.0143554 66.6092C-0.124489 65.395 0.769321 64.67 1.59371 63.9887C5.50209 60.6273 10.0704 58.1331 15.0009 56.6685C16.0943 56.3143 17.2069 56.0226 18.3331 55.795C19.843 55.5591 21.1447 56.0483 21.5439 57.6643C21.9431 59.2803 21.0666 60.2849 19.4959 60.6693C13.9132 61.9188 8.71446 64.5115 4.34456 68.2253C3.97768 68.6397 3.48331 68.9183 2.94055 69.0165C2.39779 69.1146 1.838 69.0267 1.35073 68.7668C0.938863 68.5834 0.591247 68.2796 0.35296 67.8949C0.114672 67.5102 -0.00329559 67.0623 0.0143554 66.6092Z" fill="#FFCB7D"/>
<path d="M38.0664 18.1285C38.1271 19.8756 37.5978 21.1247 35.9837 21.4479C35.6755 21.5163 35.3563 21.5175 35.0475 21.4514C34.7388 21.3854 34.4477 21.2536 34.1937 21.065C33.9398 20.8764 33.7288 20.6352 33.5751 20.3577C33.4213 20.0803 33.3283 19.7729 33.3023 19.4563C32.6688 14.285 29.6142 10.0309 28.1997 5.17414C27.8867 4.2848 27.7253 3.34857 27.7225 2.40506C27.7249 1.85183 27.9212 1.31722 28.2768 0.895371C28.6324 0.473524 29.1244 0.191496 29.6663 0.0989529C30.1625 -0.0635022 30.702 -0.0248113 31.1703 0.206807C31.6386 0.438426 31.9987 0.844717 32.1741 1.33936C33.5886 6.91246 37.1725 11.6906 37.9709 17.4734C38.0403 17.7529 38.0577 18.0499 38.0664 18.1285Z" fill="#FFCB7D"/>
<path d="M92.4759 29.9823C93.0148 29.9469 93.5491 30.1021 93.9864 30.4211C94.4238 30.74 94.7366 31.2028 94.871 31.7293C95.059 32.279 95.041 32.8789 94.8205 33.4161C94.5999 33.9534 94.192 34.3911 93.6735 34.6469C91.3131 35.9747 88.6143 36.2629 86.0891 37.0928C83.5639 37.9226 80.7523 37.7567 78.3919 39.5823C77.0382 40.6306 75.6497 39.3552 74.9729 37.9401C74.7933 37.6179 74.6872 37.2595 74.6623 36.8909C74.6374 36.5223 74.6943 36.1527 74.8288 35.809C74.9634 35.4652 75.1724 35.156 75.4404 34.9036C75.7085 34.6513 76.029 34.4621 76.3787 34.3499C77.9115 33.7169 79.5093 33.2569 81.1428 32.9785C84.6743 32.2995 88.154 31.3713 91.5561 30.2007C91.8577 30.108 92.165 30.035 92.4759 29.9823Z" fill="#FFCB7D"/>
<path d="M38.5697 74.4098C38.6256 74.9214 38.4894 75.4355 38.1878 75.8511C35.0899 79.616 33.2849 84.1409 31.0808 88.4212C30.3258 89.8974 29.3452 91.1204 27.5489 90.3429C25.7526 89.5655 25.8134 88.0194 26.4902 86.4557C28.4267 82.1877 30.6145 78.0398 33.0419 74.0342C33.6053 73.1843 34.4515 72.5648 35.4283 72.2871C35.7746 72.1522 36.1481 72.1033 36.5172 72.1447C36.8863 72.186 37.24 72.3164 37.5483 72.5247C37.8566 72.7331 38.1105 73.0132 38.2883 73.3414C38.4661 73.6696 38.5626 74.0361 38.5697 74.4098Z" fill="#FFCB7D"/>
<path d="M71.5365 94.9988C71.0402 95.0141 70.5506 94.8801 70.1302 94.6141C69.7098 94.348 69.3776 93.962 69.1761 93.5051C66.7414 89.4684 64.6262 85.2449 62.8501 80.8739C62.2253 79.3103 62.3034 77.7904 64.1691 77.109C66.0348 76.4277 66.9893 77.572 67.5794 79.1618C69.1675 83.3897 71.6319 87.1808 73.5324 91.2514C74.4782 93.2518 73.6192 94.9115 71.5365 94.9988Z" fill="#FFCB7D"/>
<path d="M90.2024 69.5967C88.8511 69.3842 87.549 68.9285 86.3581 68.2515C83.1908 66.8713 80.2837 64.8884 76.8647 64.1022C76.5743 64.0518 76.2969 63.9436 76.0487 63.7839C75.8005 63.6242 75.5864 63.4162 75.4191 63.1721C75.2518 62.928 75.1346 62.6528 75.0744 62.3625C75.0141 62.0722 75.0121 61.7727 75.0684 61.4816C75.1985 60.1888 76.1097 59.6298 77.2031 59.3328C78.2068 59.1453 79.2437 59.2861 80.1622 59.7346C83.9544 61.1584 87.4775 63.1675 91.1049 64.9757C92.1722 65.4911 93.0313 66.3646 92.5714 67.771C92.4566 68.3092 92.1551 68.7885 91.7209 69.1231C91.2868 69.4577 90.7484 69.6256 90.2024 69.5967Z" fill="#FFCB7D"/>
<path d="M7.10409 22.6796C8.91774 22.9067 10.4711 23.7366 12.1112 24.252C14.7145 25.0643 17.3178 25.8767 19.9212 26.7502C20.5565 26.9141 21.1313 27.2593 21.5763 27.7444C22.0212 28.2295 22.3174 28.8338 22.429 29.4844C22.698 31.2314 20.9972 32.9785 19.5393 32.1923C15.3219 30.0522 10.6273 29.3795 6.32309 27.5451C5.21234 27.0734 4.30985 26.2523 4.58754 24.9246C4.68977 24.3176 4.99508 23.764 5.4528 23.3557C5.91053 22.9473 6.49318 22.7088 7.10409 22.6796Z" fill="#FFCB7D"/>
<path d="M54.6235 19.0021C54.6235 15.2983 56.1942 12.1187 58.0252 9.0788C59.0232 7.4191 61.0017 6.88625 62.0951 7.90828C63.4054 9.13995 62.9629 10.5289 62.1558 12.0051C60.6806 14.6257 59.4484 17.2463 59.7087 20.391C59.8475 22.0507 59.7868 23.7191 57.4785 23.8065C55.6562 23.8676 54.7277 22.7844 54.6322 20.522C54.6235 20.0328 54.6235 19.5262 54.6235 19.0021Z" fill="#FFCB7D"/>
</svg>
