<svg width="18" height="18" viewBox="0 0 18 18" fill="none" xmlns="http://www.w3.org/2000/svg">
<path d="M14.0829 6.64261L13.1389 4.58333L11.0797 3.66027L13.1389 2.71638L14.0829 0.657104L15.0059 2.71638L17.0652 3.66027L15.0059 4.58333L14.0829 6.64261ZM14.0829 17.3221L13.1598 15.242L11.0797 14.3189L13.1598 13.3958L14.0829 11.3157L15.0059 13.3958L17.086 14.3189L15.0059 15.242L14.0829 17.3221ZM6.40338 14.4695L4.70309 10.6795L0.913086 8.97917L4.70309 7.27888L6.40338 3.48885L8.10369 7.27888L11.8937 8.97917L8.10369 10.6795L6.40338 14.4695ZM6.40338 11.8542L7.29921 9.875L9.27838 8.97917L7.29921 8.08333L6.40338 6.10417L5.50754 8.08333L3.52838 8.97917L5.50754 9.875L6.40338 11.8542Z" fill="#949494"/>
</svg>
