<?xml version="1.0" encoding="utf-8"?>
<!-- Generator: Adobe Illustrator 24.2.3, SVG Export Plug-In . SVG Version: 6.00 Build 0)  -->
<svg version="1.1" id="Layer_1" xmlns="http://www.w3.org/2000/svg" xmlns:xlink="http://www.w3.org/1999/xlink" x="0px" y="0px"
	 viewBox="0 0 48 48" enable-background="new 0 0 48 48" xml:space="preserve">
<path d="M16,0h16c8.8,0,16,7.2,16,16v16c0,8.8-7.2,16-16,16H16C7.2,48,0,40.8,0,32V16C0,7.2,7.2,0,16,0z"/>
<path fill="#FF004F" d="M30.3,19.9c1.9,1.4,4.2,2.2,6.8,2.2v-4.9c-0.5,0-1,0-1.4-0.1v3.8c-2.5,0-4.8-0.8-6.8-2.2v9.9c0,5-4,9-9,9
	c-1.8,0-3.6-0.6-5-1.5c1.6,1.7,3.9,2.7,6.4,2.7c4.9,0,9-4,9-9L30.3,19.9L30.3,19.9z M32,15c-1-1.1-1.6-2.4-1.7-4v-0.6h-1.3
	C29.3,12.3,30.4,14,32,15z M18.1,32.3c-0.5-0.7-0.8-1.6-0.8-2.5c0-2.3,1.8-4.1,4.1-4.1c0.4,0,0.8,0.1,1.2,0.2v-5
	c-0.5-0.1-0.9-0.1-1.4-0.1v3.9c-0.4-0.1-0.8-0.2-1.2-0.2c-2.3,0-4.1,1.8-4.1,4.1C15.8,30.2,16.7,31.6,18.1,32.3z"/>
<path fill="#FFFFFF" d="M28.9,18.7c1.9,1.4,4.2,2.2,6.8,2.2V17C34.2,16.7,33,16,32,15c-1.6-1-2.8-2.7-3.1-4.6h-3.5v19.4
	c0,2.3-1.8,4.1-4.1,4.1c-1.3,0-2.5-0.6-3.3-1.6c-1.3-0.7-2.3-2.1-2.3-3.7c0-2.3,1.8-4.1,4.1-4.1c0.4,0,0.9,0.1,1.2,0.2v-3.9
	c-4.9,0.1-8.8,4.1-8.8,9c0,2.4,1,4.7,2.6,6.3c1.4,1,3.1,1.5,5,1.5c4.9,0,9-4,9-9L28.9,18.7L28.9,18.7z"/>
<path fill="#00F2EA" d="M35.6,17v-1c-1.3,0-2.5-0.4-3.6-1C33,16,34.2,16.7,35.6,17z M28.9,10.4c0-0.2-0.1-0.4-0.1-0.6V9.2H24v19.4
	c0,2.3-1.8,4.1-4.1,4.1c-0.7,0-1.3-0.2-1.8-0.4c0.7,1,1.9,1.6,3.3,1.6c2.3,0,4.1-1.8,4.1-4.1V10.4H28.9z M21.1,20.8v-1.1
	c-0.4-0.1-0.8-0.1-1.2-0.1c-4.9,0-9,4-9,9c0,3.1,1.6,5.9,4,7.5c-1.6-1.6-2.6-3.8-2.6-6.3C12.4,24.9,16.3,20.9,21.1,20.8z"/>
</svg>
