<?xml version="1.0" encoding="utf-8"?>
<!-- Generator: Adobe Illustrator 24.2.3, SVG Export Plug-In . SVG Version: 6.00 Build 0)  -->
<svg version="1.1" id="Layer_1" xmlns="http://www.w3.org/2000/svg" xmlns:xlink="http://www.w3.org/1999/xlink" x="0px" y="0px"
	 viewBox="0 0 48 48" enable-background="new 0 0 48 48" xml:space="preserve">
<path fill="#FF0000" d="M32,48H16C7.2,48,0,40.8,0,32V16C0,7.2,7.2,0,16,0h16c8.8,0,16,7.2,16,16v16C48,40.8,40.8,48,32,48z"/>
<path fill="#FFFFFF" d="M34,35H14c-3.3,0-6-2.7-6-6V19c0-3.3,2.7-6,6-6h20c3.3,0,6,2.7,6,6v10C40,32.3,37.3,35,34,35z"/>
<path fill="#FF0000" d="M20.6,19c2.9,1.7,5.8,3.3,8.7,5c-2.9,1.7-5.8,3.3-8.7,5C20.6,25.7,20.6,22.3,20.6,19z"/>
</svg>
